<svg width="47" height="46" viewBox="0 0 47 46" fill="none" xmlns="http://www.w3.org/2000/svg">
<path fill-rule="evenodd" clip-rule="evenodd" d="M20.1977 10.3437C21.1799 8.52084 23.7943 8.52084 24.7764 10.3437L32.765 25.1799C32.9782 25.5759 33.0851 26.0206 33.0751 26.4703C33.0651 26.92 32.9386 27.3594 32.7079 27.7456C32.4773 28.1318 32.1504 28.4515 31.7593 28.6736C31.3681 28.8956 30.926 29.0124 30.4762 29.0125H14.4982C14.0484 29.0124 13.6061 28.8956 13.2149 28.6736C12.8237 28.4515 12.4968 28.1318 12.2662 27.7456C12.0356 27.3594 11.9091 26.92 11.8991 26.4703C11.8891 26.0206 11.9959 25.576 12.2092 25.1799L20.1977 10.3437ZM22.1345 11.3872C22.2859 11.1067 22.6881 11.1064 22.8395 11.387C22.8394 11.3869 22.8395 11.3871 22.8395 11.387L30.8279 26.2229C30.8607 26.2838 30.8771 26.3522 30.8756 26.4214C30.8741 26.4906 30.8546 26.5582 30.8191 26.6176C30.7836 26.677 30.7334 26.7262 30.6732 26.7603C30.6131 26.7945 30.5451 26.8124 30.476 26.8125C30.476 26.8125 30.4759 26.8125 30.476 26.8125H14.4984M22.1345 11.3872L14.1462 26.2229C14.1462 26.2229 14.1462 26.2229 14.1462 26.2229C14.1134 26.2838 14.097 26.3522 14.0985 26.4214C14.1001 26.4906 14.1195 26.5582 14.155 26.6176C14.1905 26.677 14.2408 26.7262 14.301 26.7603C14.3611 26.7945 14.4292 26.8124 14.4984 26.8125" fill="black"/>
<path fill-rule="evenodd" clip-rule="evenodd" d="M22.49 15C22.6274 14.9993 22.7687 15.014 22.908 15.0467C23.0455 15.079 23.1946 15.132 23.3397 15.2162C23.4814 15.2985 23.6488 15.428 23.7827 15.6266C23.9234 15.8354 24.0218 16.1168 23.9958 16.4378L23.9956 16.441L23.9956 16.441L23.5276 22.0201C23.4811 22.5745 23.0351 23 22.5004 23C21.9656 23 21.5196 22.5747 21.473 22.0203L21.0043 16.4388L21.0027 16.4183C20.9821 16.1029 21.0808 15.8282 21.219 15.6242C21.3509 15.4295 21.5148 15.3016 21.6544 15.2197C21.7971 15.1359 21.9437 15.0827 22.0791 15.0498C22.216 15.0165 22.355 15.0008 22.49 15L22.49 15Z" fill="black"/>
<path fill-rule="evenodd" clip-rule="evenodd" d="M22.5 26C22.3022 26 22.1089 25.9414 21.9444 25.8315C21.78 25.7216 21.6518 25.5654 21.5761 25.3827C21.5004 25.2 21.4806 24.9989 21.5192 24.8049C21.5578 24.6109 21.653 24.4327 21.7929 24.2929C21.9327 24.153 22.1109 24.0578 22.3049 24.0192C22.4989 23.9806 22.7 24.0004 22.8827 24.0761C23.0654 24.1518 23.2216 24.28 23.3315 24.4444C23.4414 24.6089 23.5 24.8022 23.5 25C23.5 25.2652 23.3946 25.5196 23.2071 25.7071C23.0196 25.8946 22.7652 26 22.5 26Z" fill="black"/>
<path d="M45.0682 3H1.36021C0.609011 3 0 3.60901 0 4.36021V34.2848C0 35.036 0.609011 35.645 1.36021 35.645H16.4132V41.0858H9.61214C8.86094 41.0858 8.25193 41.6948 8.25193 42.446C8.25193 43.1972 8.86094 43.8063 9.61214 43.8063H36.8163C37.5675 43.8063 38.1765 43.1972 38.1765 42.446C38.1765 41.6948 37.5675 41.0858 36.8163 41.0858H30.0153V35.645H45.0682C45.8194 35.645 46.4285 35.036 46.4285 34.2848V4.36021C46.4285 3.60901 45.8194 3 45.0682 3ZM27.2949 41.0858H19.1336V35.645H27.2949V41.0858ZM43.708 32.9246H2.72042V5.72042H43.708V32.9246Z" fill="black"/>
</svg>
