<svg width="64" height="64" viewBox="0 0 64 64" fill="none" xmlns="http://www.w3.org/2000/svg">
<path d="M8.702 12.35C5.785 12.95 2.652 15.28 1.35 17.834C0.0480003 20.388 0 21.016 0 31.767C0 37.504 0.0959998 42.229 0.24 42.967C1.096 47.343 4.518 50.765 8.894 51.621C10.22 51.861 27.479 51.983 27.479 51.717C27.479 51.524 26.009 45.739 25.936 45.667C25.912 45.619 22.85 44.944 19.138 44.147C10.484 42.267 10.738 42.339 10.026 41.471L9.399 40.724V23.224L10.026 22.464C10.749 21.596 10.484 21.669 19.138 19.788L25.936 18.268C26.01 18.218 27.48 12.432 27.48 12.25C27.48 12.02 9.86 12.13 8.702 12.37V12.35ZM36.64 12.386C36.664 12.82 38.014 18.123 38.16 18.268C38.208 18.34 41.51 19.088 45.464 19.931C49.418 20.774 52.937 21.631 53.25 21.811C53.674 22.057 54.03 22.405 54.287 22.823C54.673 23.498 54.721 24.221 54.721 31.983C54.721 39.745 54.673 40.468 54.287 41.143C54.0241 41.5559 53.6692 41.9022 53.25 42.155C52.937 42.325 49.45 43.167 45.464 44.035L38.16 45.71C38.015 45.855 36.665 51.158 36.64 51.592C36.64 51.857 38.376 51.905 45.993 51.832C56.493 51.736 56.623 51.712 59.299 49.904C61.221 48.581 62.673 46.682 63.445 44.48C63.999 42.865 63.999 42.72 63.999 31.993C63.999 21.266 63.999 21.121 63.445 19.506C62.6726 17.3044 61.2208 15.405 59.299 14.082C56.623 12.276 56.503 12.25 45.993 12.155C38.376 12.083 36.64 12.119 36.64 12.395V12.386ZM25.88 31.488C25.8027 31.7457 25.7863 32.0178 25.832 32.283C25.904 32.683 26.338 32.717 32.002 32.789L38.077 32.837V31.15H32.06C27.022 31.15 25.985 31.198 25.89 31.487L25.88 31.488Z" fill="#ED722E"/>
</svg>
