<svg width="117" height="17" viewBox="0 0 117 17" fill="none" xmlns="http://www.w3.org/2000/svg">
<path d="M4.5927 0.195135C3.3709 0.441909 2.07012 1.42133 1.51406 2.49178C0.957993 3.56223 0.949219 3.82436 0.949219 8.32662L1.05012 13.0208C1.40877 14.8524 2.84115 16.2859 4.67386 16.6446C5.22883 16.7455 12.4566 16.7959 12.4566 16.6851C12.4566 16.604 11.8424 14.1823 11.7985 14.1626C11.7875 14.1428 10.5065 13.8598 8.95238 13.5264C5.32864 12.7389 5.43941 12.7587 5.13561 12.4055L4.87238 12.0929V4.76429L5.13561 4.43526C5.43832 4.07333 5.32754 4.10184 8.95238 3.31436L11.7985 2.67823C11.8292 2.64752 12.4566 0.225843 12.4566 0.15565C12.4566 0.0602304 5.07748 0.105198 4.5927 0.206101V0.195135ZM16.292 0.21049C16.303 0.392554 16.8678 2.62339 16.9281 2.67384C16.9479 2.70455 18.332 3.01713 19.9991 3.37029L23.2598 4.15778C23.4375 4.26105 23.5868 4.40692 23.6941 4.58223C23.8553 4.8652 23.8762 5.16791 23.8762 8.41765L23.6941 12.2531C23.5841 12.4262 23.4354 12.5715 23.2598 12.6775C23.1282 12.7477 21.6651 13.102 19.9991 13.465L16.9281 14.1615C16.6778 14.9722 16.4656 15.7942 16.292 16.6248C16.292 16.7345 17.0192 16.7564 20.2075 16.7257C24.6088 16.6851 24.6604 16.6753 25.7791 15.9185C26.5841 15.3647 27.1921 14.5692 27.5153 13.6471C27.7478 12.9704 27.7478 12.91 27.7478 8.41875L27.5153 3.18713C27.1921 2.26502 26.5841 1.46955 25.7791 0.915715C24.6582 0.147973 24.6077 0.147973 20.2075 0.108489C17.0181 0.0777796 16.292 0.0931334 16.292 0.209391V0.21049ZM35.0764 3.64339C34.38 5.09662 33.6835 6.89313 32.9673 9.07242L31.5339 13.9882C31.8026 14.0145 32.0823 14.0244 32.3411 14.0189H33.1384L33.2481 13.5846L33.643 12.2026L33.915 11.244H39.457L39.7399 12.2531L40.1238 13.635L40.2247 14.0189H41.0221L41.8293 13.9882C41.8293 13.9684 41.6275 13.2204 41.3752 12.3123C40.4572 8.99126 39.2859 5.73165 38.2966 3.67191L37.7701 2.61242H35.57L35.0764 3.64339ZM37.4674 5.66146L38.9009 9.53746C38.9009 9.5572 37.9138 9.57804 36.6799 9.57804C35.4461 9.57804 34.459 9.53746 34.459 9.49687C34.459 9.32578 35.479 6.61017 35.9725 5.43881C36.3564 4.53946 36.5483 4.21701 36.6788 4.21701C36.8093 4.21701 37.0122 4.58991 37.4663 5.65049L37.4674 5.66146ZM42.8372 8.31565V14.0189H44.4528V2.61242H42.8372V8.31565ZM46.4708 2.74404C46.2816 2.87093 46.1285 3.04477 46.0266 3.24855C45.8654 3.59184 45.8555 3.673 45.9861 4.0163C46.1615 4.52301 46.7055 4.79939 47.2177 4.64146C47.7222 4.48023 47.9339 4.18739 47.9339 3.66204C47.9339 3.27817 47.8835 3.16849 47.6005 2.91623C47.2473 2.60365 46.8843 2.54333 46.4708 2.75501V2.74404ZM49.3992 8.29591V13.9991L50.6408 14.0902L52.9824 14.1812C54.0024 14.1812 54.1428 14.1615 54.678 13.8884C55.3086 13.6032 55.7813 13.0515 55.97 12.3858C56.0303 12.1445 56.061 11.074 56.0402 9.61094C56.0095 7.36036 55.9996 7.19804 55.7879 6.79442C55.3931 6.06726 54.7986 5.7141 53.6986 5.56275C53.1129 5.48159 51.6586 5.56275 51.2155 5.70533C51.0235 5.76565 51.0137 5.72507 51.0137 4.20275V2.61681H49.3981L49.3992 8.29591ZM53.9914 7.20571C54.1887 7.27738 54.3512 7.42178 54.4455 7.60933C54.5771 7.95262 54.5771 11.708 54.4455 12.0403C54.2941 12.4538 53.7874 12.6457 52.8299 12.6457C52.3844 12.6507 51.939 12.6235 51.4973 12.5646L51.0126 12.4944V7.27591L51.5982 7.175C52.4976 7.02365 53.5966 7.03242 53.9892 7.20571H53.9914ZM65.4483 8.30578V14.009L66.4376 14.0595L68.4962 14.1911C69.8782 14.2722 70.7468 14.0485 71.3128 13.454C72.0399 12.7082 72.0586 12.6161 72.0805 10.0727C72.1112 8.22571 72.0915 7.65978 71.9708 7.24629C71.6988 6.29759 70.9113 5.70204 69.7093 5.56055C69.1039 5.49036 67.519 5.57152 67.1955 5.70313C67.0946 5.73384 67.0639 5.39055 67.0639 4.18958V2.62449H65.4483V8.30578ZM69.9802 7.15965C70.1513 7.21997 70.3421 7.35158 70.3937 7.45249C70.5033 7.65429 70.5362 11.8725 70.4342 12.1467C70.2631 12.5909 68.8988 12.7828 67.5475 12.5602L67.0628 12.49V7.2781L67.6484 7.1772C68.4557 7.04559 69.5963 7.03462 69.9802 7.16184V7.15965ZM86.0194 2.71333C85.0104 2.89539 84.4839 3.13778 83.9706 3.66204C83.1634 4.46926 83.113 4.7621 83.113 8.41655C83.113 12.071 83.1634 12.3627 83.9904 13.1809C84.4148 13.6153 84.6484 13.7458 85.2517 13.9487C85.9097 14.1505 86.2102 14.1812 87.5637 14.1812C88.735 14.1812 89.3404 14.1307 89.9459 13.9893C90.2681 13.9251 90.5851 13.8375 90.8946 13.7271C90.9757 13.6767 90.9648 13.4946 90.8441 13.0109C90.7872 12.766 90.7094 12.5264 90.6116 12.2947C90.571 12.2542 90.3188 12.2838 90.0566 12.3649C89.1573 12.6369 87.5834 12.7488 86.604 12.6282C85.6246 12.5075 85.2615 12.3452 84.9588 11.9515C84.757 11.6882 84.7471 11.5786 84.7471 8.42862C84.7471 5.27868 84.7581 5.16791 84.9588 4.90578C85.2714 4.51094 85.6246 4.36068 86.604 4.22907C87.5834 4.09746 89.1573 4.2181 90.0566 4.4923L90.6017 4.64365C90.6829 4.64365 91.036 3.23978 90.9746 3.18055C90.9439 3.14984 90.571 3.03797 90.1268 2.91733C89.2494 2.68481 86.8661 2.57404 86.0282 2.72539L86.0194 2.71333ZM92.3982 8.31565V14.0189H93.9118V2.61242H92.3982V8.31565ZM115.321 4.12597V5.63952L114.745 5.5792L113.938 5.4783C113.594 5.41797 112.322 5.62088 111.959 5.80184C111.489 6.05154 111.103 6.43415 110.849 6.90191C110.647 7.27481 110.628 7.48759 110.597 9.53417C110.556 12.2893 110.638 12.6929 111.365 13.4102C112.021 14.0463 112.798 14.258 114.12 14.1779L115.998 14.0682L116.926 14.0079V2.62339H115.312L115.321 4.12597ZM115.15 7.20462C115.311 7.27481 115.321 7.49746 115.321 9.88952V12.4933L114.948 12.5635C114.29 12.6951 113.07 12.6644 112.717 12.513C112.535 12.4318 112.344 12.2915 112.293 12.1895C112.241 12.0875 112.192 11.0181 112.192 9.80726C112.192 7.39436 112.211 7.32417 112.747 7.15307C113.07 7.05217 114.846 7.09275 115.16 7.20352L115.15 7.20462ZM59.8065 5.5452C59.3549 5.60565 58.9068 5.68986 58.4641 5.79746C57.919 5.92907 57.7873 5.99926 57.8279 6.13088C57.8586 6.22191 57.9288 6.51475 57.999 6.79662C58.0692 7.07849 58.1416 7.33184 58.1811 7.36146C58.2206 7.39107 58.656 7.34172 59.1506 7.25178C60.8364 6.89862 61.977 7.05984 62.1382 7.66526C62.1892 7.93473 62.2163 8.20814 62.2194 8.48236L62.2304 9.0472L61.2718 8.99675C58.7075 8.86513 57.1633 9.82481 57.1435 11.55C57.1326 12.3671 57.3958 13.0033 57.9409 13.5078C58.577 14.0935 59.2526 14.2755 60.5556 14.1845L62.6647 14.0748L63.7549 14.0046L63.6946 7.22107L63.4116 6.74617C62.8468 5.79197 61.5032 5.34778 59.8076 5.56494L59.8065 5.5452ZM62.158 10.6529C62.2589 10.7132 62.249 12.4998 62.147 12.4998C62.0966 12.4998 61.5822 12.5503 60.9954 12.6095C59.3097 12.7707 58.6944 12.5185 58.6944 11.6509C58.6944 11.278 58.7448 11.1662 58.9971 10.9446C59.2164 10.7746 59.4994 10.6671 59.7846 10.632L60.4097 10.5311C60.5918 10.4906 62.0549 10.586 62.1558 10.6573L62.158 10.6529ZM75.9061 5.53094L74.5636 5.79417C73.8869 5.95539 73.8266 5.99597 73.877 6.189L74.0591 6.93481C74.1688 7.43933 74.1907 7.47004 74.432 7.40971C75.7843 7.05655 77.0862 6.95565 77.6126 7.14649C78.0875 7.32855 78.1884 7.53036 78.1884 8.2981V9.02526H76.9359C75.3511 9.02526 74.6239 9.22707 73.9275 9.85333C73.6385 10.0973 73.4157 10.4103 73.2798 10.7632C73.1439 11.1162 73.0992 11.4977 73.1499 11.8725C73.321 13.5176 74.4923 14.315 76.5915 14.1845L78.7006 14.0748L79.7908 14.0046L79.7601 10.6638C79.7294 7.45359 79.7195 7.30223 79.5079 6.90849C78.9321 5.82817 77.6302 5.34339 75.894 5.5463L75.9061 5.53094ZM77.9044 10.5761H78.1764V12.4845L77.6006 12.5547C76.4906 12.6973 75.4103 12.6644 75.1273 12.4735C74.5625 12.1006 74.5822 11.1212 75.158 10.8284C75.5529 10.6266 76.4906 10.4851 77.1158 10.5454L77.9033 10.586L77.9044 10.5761ZM97.4664 5.52875C96.8537 5.6621 96.303 5.99594 95.9013 6.47746C95.3859 7.15417 95.3365 7.48649 95.3365 9.91036C95.3365 12.3935 95.4067 12.6852 96.0735 13.3827C96.7316 14.0595 97.0431 14.1505 98.5665 14.1505C100.132 14.1505 100.486 14.0408 101.131 13.2731C101.745 12.5459 101.817 12.1829 101.789 9.62959C101.758 7.5501 101.738 7.34829 101.537 6.96442C101.238 6.41368 100.776 5.96916 100.214 5.69217C99.6984 5.45965 98.1848 5.35875 97.4785 5.5101L97.4664 5.52875ZM99.6874 7.20462C100.203 7.46784 100.283 7.82978 100.283 9.81933C100.283 11.7058 100.213 12.06 99.7784 12.4439C99.4659 12.7269 98.0422 12.7971 97.5279 12.5448C96.9224 12.2618 96.8511 11.969 96.8511 9.81933C96.8511 7.76068 96.9115 7.48758 97.4368 7.20462C97.8207 6.99294 99.2838 6.99294 99.6874 7.20462ZM46.1791 9.81933V14.009H47.6926V5.62965H46.1791V9.81933ZM103.047 5.76126C103.016 5.84242 103.006 7.35597 103.027 9.12288C103.058 12.0293 103.078 12.3726 103.249 12.6962C103.844 13.8171 104.853 14.281 106.498 14.1702L109.368 13.998V5.64062H107.832V12.4955L107.357 12.5656C106.48 12.7082 105.388 12.6567 105.035 12.4746L104.682 12.2728C104.671 12.2618 104.632 10.779 104.601 8.98249L104.55 5.69217L103.813 5.66146C103.258 5.64171 103.068 5.66146 103.026 5.77113L103.047 5.76126ZM11.7875 8.20378C11.7547 8.31179 11.7479 8.42606 11.7678 8.5372C11.7985 8.70829 11.9795 8.71926 14.3518 8.74888L16.8963 8.76862V8.06229H14.3737C12.2646 8.06229 11.8292 8.08204 11.7897 8.20488L11.7875 8.20378Z" fill="#8C8C8C"/>
</svg>
