<svg width="124" height="40" viewBox="0 0 124 40" fill="none" xmlns="http://www.w3.org/2000/svg">
<path d="M7.64348 12.1004C6.42168 12.3472 5.1209 13.3266 4.56484 14.3971C4.00877 15.4675 4 15.7296 4 20.2319L4.1009 24.9261C4.45955 26.7577 5.89194 28.1912 7.72464 28.5498C8.27961 28.6507 15.5074 28.7012 15.5074 28.5904C15.5074 28.5092 14.8932 26.0876 14.8493 26.0678C14.8383 26.0481 13.5573 25.7651 12.0032 25.4317C8.37942 24.6442 8.49019 24.664 8.18639 24.3108L7.92316 23.9982V16.6696L8.18639 16.3405C8.4891 15.9786 8.37832 16.0071 12.0032 15.2196L14.8493 14.5835C14.88 14.5528 15.5074 12.1311 15.5074 12.0609C15.5074 11.9655 8.12826 12.0105 7.64348 12.1114V12.1004ZM19.3428 12.1158C19.3537 12.2978 19.9186 14.5287 19.9789 14.5791C19.9986 14.6098 21.3828 14.9224 23.0499 15.2756L26.3106 16.0631C26.4883 16.1663 26.6376 16.3122 26.7449 16.4875C26.9061 16.7705 26.927 17.0732 26.927 20.3229L26.7449 24.1583C26.6349 24.3315 26.4862 24.4768 26.3106 24.5828C26.179 24.653 24.7159 25.0072 23.0499 25.3703L19.9789 26.0667C19.7286 26.8775 19.5163 27.6995 19.3428 28.5301C19.3428 28.6398 20.0699 28.6617 23.2583 28.631C27.6596 28.5904 27.7112 28.5805 28.8299 27.8238C29.6349 27.2699 30.2429 26.4745 30.5661 25.5523C30.7986 24.8756 30.7986 24.8153 30.7986 20.324L30.5661 15.0924C30.2429 14.1703 29.6349 13.3748 28.8299 12.821C27.709 12.0532 27.6585 12.0532 23.2583 12.0138C20.0688 11.9831 19.3428 11.9984 19.3428 12.1147V12.1158ZM38.1272 15.5487C37.4308 17.0019 36.7343 18.7984 36.0181 20.9777L34.5846 25.8934C34.8534 25.9198 35.133 25.9296 35.3919 25.9241H36.1892L36.2989 25.4898L36.6937 24.1079L36.9657 23.1493H42.5077L42.7907 24.1583L43.1746 25.5403L43.2755 25.9241H44.0728L44.8801 25.8934C44.8801 25.8737 44.6783 25.1257 44.426 24.2176C43.508 20.8965 42.3366 17.6369 41.3474 15.5772L40.8209 14.5177H38.6208L38.1272 15.5487ZM40.5182 17.5667L41.9517 21.4427C41.9517 21.4625 40.9646 21.4833 39.7307 21.4833C38.4968 21.4833 37.5097 21.4427 37.5097 21.4021C37.5097 21.2311 38.5297 18.5154 39.0233 17.3441C39.4072 16.4447 39.5991 16.1223 39.7296 16.1223C39.8601 16.1223 40.063 16.4952 40.5171 17.5558L40.5182 17.5667ZM45.888 20.2209V25.9241H47.5035V14.5177H45.888V20.2209ZM49.5216 14.6493C49.3324 14.7762 49.1793 14.95 49.0774 15.1538C48.9162 15.4971 48.9063 15.5783 49.0368 15.9216C49.2123 16.4283 49.7563 16.7047 50.2685 16.5467C50.773 16.3855 50.9847 16.0927 50.9847 15.5673C50.9847 15.1834 50.9343 15.0738 50.6513 14.8215C50.2981 14.5089 49.9351 14.4486 49.5216 14.6603V14.6493ZM52.45 20.2012V25.9044L53.6915 25.9954L56.0332 26.0865C57.0532 26.0865 57.1935 26.0667 57.7288 25.7936C58.3594 25.5085 58.8321 24.9568 59.0208 24.2911C59.0811 24.0498 59.1118 22.9793 59.091 21.5162C59.0603 19.2656 59.0504 19.1033 58.8387 18.6997C58.4439 17.9725 57.8494 17.6194 56.7494 17.468C56.1637 17.3869 54.7094 17.468 54.2663 17.6106C54.0743 17.6709 54.0644 17.6303 54.0644 16.108V14.5221H52.4489L52.45 20.2012ZM57.0422 19.111C57.2395 19.1827 57.4019 19.3271 57.4963 19.5146C57.6279 19.8579 57.6279 23.6132 57.4963 23.9456C57.3449 24.3591 56.8382 24.551 55.8807 24.551C55.4351 24.5559 54.9898 24.5288 54.5481 24.4698L54.0634 24.3996V19.1812L54.649 19.0803C55.5484 18.9289 56.6474 18.9377 57.04 19.111H57.0422ZM68.4991 20.2111V25.9143L69.4884 25.9647L71.547 26.0963C72.929 26.1775 73.7976 25.9538 74.3635 25.3593C75.0907 24.6135 75.1093 24.5214 75.1313 21.978C75.162 20.131 75.1422 19.5651 75.0216 19.1516C74.7496 18.2029 73.9621 17.6073 72.7601 17.4658C72.1546 17.3956 70.5698 17.4768 70.2463 17.6084C70.1454 17.6391 70.1146 17.2958 70.1146 16.0949V14.5298H68.4991V20.2111ZM73.031 19.0649C73.2021 19.1252 73.3929 19.2569 73.4444 19.3578C73.5541 19.5596 73.587 23.7778 73.485 24.052C73.3139 24.4961 71.9495 24.6881 70.5983 24.4654L70.1135 24.3952V19.1834L70.6992 19.0825C71.5064 18.9509 72.6471 18.9399 73.031 19.0671V19.0649ZM89.0702 14.6186C88.0612 14.8007 87.5347 15.0431 87.0214 15.5673C86.2142 16.3745 86.1637 16.6674 86.1637 20.3218C86.1637 23.9763 86.2142 24.268 87.0412 25.0862C87.4656 25.5205 87.6992 25.6511 88.3024 25.854C88.9605 26.0558 89.261 26.0865 90.6144 26.0865C91.7858 26.0865 92.3912 26.036 92.9966 25.8945C93.3188 25.8304 93.6359 25.7428 93.9453 25.6324C94.0265 25.582 94.0155 25.3999 93.8949 24.9162C93.838 24.6713 93.7602 24.4317 93.6624 24.2C93.6218 24.1594 93.3695 24.1891 93.1074 24.2702C92.2081 24.5422 90.6342 24.6541 89.6548 24.5334C88.6753 24.4128 88.3123 24.2505 88.0096 23.8567C87.8078 23.5935 87.7979 23.4838 87.7979 20.3339C87.7979 17.184 87.8089 17.0732 88.0096 16.8111C88.3222 16.4162 88.6753 16.266 89.6548 16.1343C90.6342 16.0027 92.2081 16.1234 93.1074 16.3976L93.6525 16.5489C93.7337 16.5489 94.0868 15.1451 94.0254 15.0858C93.9947 15.0551 93.6218 14.9432 93.1776 14.8226C92.3002 14.5901 89.9169 14.4793 89.079 14.6307L89.0702 14.6186ZM95.449 20.2209V25.9241H96.9626V14.5177H95.449V20.2209ZM118.372 16.0312V17.5448L117.796 17.4845L116.989 17.3836C116.645 17.3232 115.373 17.5261 115.01 17.7071C114.54 17.9568 114.154 18.3394 113.9 18.8072C113.698 19.1801 113.679 19.3929 113.648 21.4394C113.607 24.1945 113.688 24.5981 114.416 25.3154C115.071 25.9516 115.849 26.1632 117.171 26.0832L119.048 25.9735L119.977 25.9132V14.5287H118.363L118.372 16.0312ZM118.201 19.1099C118.362 19.1801 118.372 19.4027 118.372 21.7948V24.3985L117.999 24.4687C117.341 24.6003 116.121 24.5696 115.768 24.4183C115.586 24.3371 115.395 24.1967 115.343 24.0947C115.292 23.9927 115.243 22.9234 115.243 21.7125C115.243 19.2996 115.262 19.2294 115.797 19.0583C116.121 18.9574 117.897 18.998 118.21 19.1088L118.201 19.1099ZM62.8573 17.4505C62.4057 17.5109 61.9576 17.5951 61.5148 17.7027C60.9697 17.8343 60.8381 17.9045 60.8787 18.0361C60.9094 18.1272 60.9796 18.42 61.0498 18.7019C61.12 18.9838 61.1924 19.2371 61.2319 19.2667C61.2714 19.2963 61.7068 19.247 62.2014 19.1571C63.8872 18.8039 65.0278 18.9651 65.189 19.5705C65.24 19.84 65.2671 20.1134 65.2702 20.3876L65.2812 20.9525L64.3226 20.902C61.7583 20.7704 60.2141 21.7301 60.1943 23.4553C60.1834 24.2724 60.4466 24.9085 60.9917 25.4131C61.6278 25.9987 62.3034 26.1808 63.6064 26.0898L65.7155 25.9801L66.8057 25.9099L66.7453 19.1263L66.4624 18.6514C65.8975 17.6972 64.554 17.2531 62.8584 17.4702L62.8573 17.4505ZM65.2088 22.5581C65.3097 22.6185 65.2998 24.4051 65.1978 24.4051C65.1474 24.4051 64.633 24.4556 64.0462 24.5148C62.3604 24.676 61.7452 24.4238 61.7452 23.5562C61.7452 23.1833 61.7956 23.0714 62.0479 22.8499C62.2672 22.6799 62.5502 22.5724 62.8354 22.5373L63.4605 22.4364C63.6426 22.3958 65.1057 22.4912 65.2066 22.5625L65.2088 22.5581ZM78.9568 17.4362L77.6144 17.6994C76.9377 17.8607 76.8773 17.9012 76.9278 18.0943L77.1099 18.8401C77.2195 19.3446 77.2415 19.3753 77.4828 19.315C78.8351 18.9618 80.137 18.8609 80.6634 19.0518C81.1383 19.2338 81.2392 19.4356 81.2392 20.2034V20.9305H79.9867C78.4019 20.9305 77.6747 21.1323 76.9783 21.7586C76.6893 22.0026 76.4665 22.3155 76.3306 22.6685C76.1947 23.0214 76.15 23.403 76.2006 23.7778C76.3717 25.4229 77.5431 26.2203 79.6423 26.0898L81.7514 25.9801L82.8416 25.9099L82.8109 22.5691C82.7802 19.3589 82.7703 19.2075 82.5586 18.8138C81.9828 17.7334 80.681 17.2487 78.9448 17.4516L78.9568 17.4362ZM80.9552 22.4814H81.2272V24.3898L80.6513 24.46C79.5414 24.6025 78.4611 24.5696 78.1781 24.3788C77.6133 24.0059 77.633 23.0265 78.2088 22.7336C78.6037 22.5318 79.5414 22.3903 80.1666 22.4507L80.9541 22.4912L80.9552 22.4814ZM100.517 17.434C99.9045 17.5674 99.3538 17.9012 98.9521 18.3827C98.4366 19.0594 98.3873 19.3918 98.3873 21.8156C98.3873 24.2987 98.4575 24.5905 99.1243 25.288C99.7824 25.9647 100.094 26.0558 101.617 26.0558C103.182 26.0558 103.537 25.9461 104.182 25.1783C104.796 24.4512 104.868 24.0881 104.84 21.5349C104.809 19.4554 104.789 19.2536 104.587 18.8697C104.289 18.319 103.827 17.8744 103.265 17.5974C102.749 17.3649 101.236 17.264 100.529 17.4154L100.517 17.434ZM102.738 19.1099C103.254 19.3731 103.334 19.7351 103.334 21.7246C103.334 23.6111 103.264 23.9653 102.829 24.3492C102.517 24.6321 101.093 24.7023 100.579 24.4501C99.9732 24.1671 99.9019 23.8743 99.9019 21.7246C99.9019 19.666 99.9622 19.3929 100.488 19.1099C100.871 18.8982 102.335 18.8982 102.738 19.1099V19.1099ZM49.2299 21.7246V25.9143H50.7434V17.5349H49.2299V21.7246ZM106.098 17.6665C106.067 17.7477 106.057 19.2612 106.078 21.0281C106.109 23.9346 106.128 24.2779 106.299 24.6014C106.895 25.7223 107.904 26.1863 109.549 26.0755L112.418 25.9033V17.5459H110.883V24.4007L110.408 24.4709C109.531 24.6135 108.439 24.562 108.086 24.3799L107.733 24.1781C107.722 24.1671 107.682 22.6843 107.652 20.8878L107.601 17.5974L106.864 17.5667C106.309 17.547 106.118 17.5667 106.077 17.6764L106.098 17.6665ZM14.8383 20.1091C14.8054 20.2171 14.7987 20.3313 14.8186 20.4425C14.8493 20.6136 15.0303 20.6245 17.4026 20.6541L19.9471 20.6739V19.9676H17.4245C15.3154 19.9676 14.88 19.9873 14.8405 20.1101L14.8383 20.1091Z" fill="#8C8C8C"/>
</svg>
