<svg width="47" height="39" viewBox="0 0 47 39" fill="none" xmlns="http://www.w3.org/2000/svg">
<path d="M45.0682 29.9246H43.708V6.80107C43.708 6.04987 43.099 5.44086 42.3478 5.44086H34.417L23.8225 0.14357C23.4396 -0.0478567 22.9889 -0.0478567 22.6059 0.14357L12.0115 5.44086H4.08063C3.32943 5.44086 2.72042 6.04987 2.72042 6.80107V29.9246H1.36021C0.609011 29.9246 0 30.5336 0 31.2848C0 35.0349 3.05095 38.0859 6.80104 38.0859H39.6274C43.3775 38.0859 46.4285 35.0349 46.4285 31.2848C46.4285 30.5336 45.8194 29.9246 45.0682 29.9246ZM23.2142 2.88104L32.7357 7.64176V8.16127H13.6928V7.64176L23.2142 2.88104ZM24.5744 21.7634V10.8817H30.0153V21.7634H24.5744ZM16.4132 21.7634V10.8817H21.854V21.7634H16.4132ZM5.44083 8.16127H10.9723V9.52148C10.9723 10.2727 11.5814 10.8817 12.3326 10.8817H13.6928V21.7634H12.3326C11.5814 21.7634 10.9723 22.3724 10.9723 23.1236C10.9723 23.8748 11.5814 24.4838 12.3326 24.4838H34.0959C34.8471 24.4838 35.4561 23.8748 35.4561 23.1236C35.4561 22.3724 34.8471 21.7634 34.0959 21.7634H32.7357V10.8817H34.0959C34.8471 10.8817 35.4561 10.2727 35.4561 9.52148V8.16127H40.9876V29.9246H5.44083V8.16127ZM39.6274 35.3654H6.80104C5.02769 35.3654 3.51487 34.2284 2.95347 32.6441H43.475C42.9136 34.2284 41.4008 35.3654 39.6274 35.3654Z" fill="black"/>
</svg>
