<svg width="40" height="40" viewBox="0 0 40 40" fill="none" xmlns="http://www.w3.org/2000/svg">
<path fill-rule="evenodd" clip-rule="evenodd" d="M9.06981 11.3631C10.5558 7.4847 14.3189 3.75 20 3.75C26.1203 3.75 31.2537 8.13193 32.3627 15.1075C33.9548 15.3453 35.6331 15.9478 37.0191 17.0076C38.7543 18.3346 40 20.3637 40 23.125C40 27.7542 36.0499 30.9068 31.6945 31.0037L31.6389 28.5043C34.9285 28.4311 37.5 26.1199 37.5 23.125C37.5 21.2129 36.6754 19.892 35.5004 18.9935C34.2852 18.0642 32.6674 17.5755 31.185 17.4983C30.5681 17.4662 30.0671 16.9882 30.0061 16.3735C29.3682 9.94801 24.993 6.25 20 6.25C15.2766 6.25 12.21 9.53463 11.1958 12.8642C11.0488 13.3467 10.6262 13.6936 10.1244 13.7438C5.9205 14.1642 2.5 17.0388 2.5 21.5962C2.5 25.3483 5.25407 28.504 8.33333 28.504V31.004C3.49566 31.004 0 26.3183 0 21.5962C0 15.7847 4.22592 12.1655 9.06981 11.3631Z" fill="#0F26AA"/>
<path d="M15.8859 24.0029C15.6957 23.9804 15.5315 24.0913 15.4897 24.2762L15.0538 26.1505C14.5441 26.2854 14.0725 26.5104 13.6274 26.7753L11.9237 25.76C11.7589 25.6613 11.5636 25.726 11.4483 25.8772L9.62569 28.2981C9.51031 28.4493 9.52457 28.638 9.66531 28.7667L11.0917 30.0943C11.0257 30.3404 10.9662 30.5763 10.9332 30.8362C10.9015 31.0961 10.8898 31.3622 10.8936 31.6171L9.18985 32.5152C9.02122 32.6064 8.95529 32.8089 9.03137 32.9838L10.22 35.7562C10.2948 35.9299 10.5129 36.0467 10.6955 35.9905L12.5577 35.4047C12.9254 35.7671 13.3232 36.0895 13.7859 36.3419L13.7463 38.2552C13.7425 38.4451 13.8731 38.6232 14.0633 38.6457L17.1141 38.9971C17.3043 39.0196 17.4685 38.9087 17.5103 38.7238L17.9462 36.8495C18.4559 36.7146 18.9671 36.4896 19.4122 36.2247L21.0763 37.24C21.2398 37.3374 21.4364 37.274 21.5517 37.1228L23.4139 34.7019C23.5293 34.5507 23.4767 34.362 23.3347 34.2333L21.9083 32.9057C21.9742 32.6596 22.0338 32.4237 22.0668 32.1638C22.0985 31.9039 22.1115 31.6378 22.1064 31.3829L23.8101 30.4848C23.9788 30.3935 24.0447 30.1911 23.9686 30.0162L22.78 27.2438C22.7052 27.0701 22.4871 26.9533 22.3045 27.0095L20.4423 27.5953C20.0746 27.2329 19.6768 26.9105 19.2141 26.6581L19.2537 24.7448C19.2575 24.5561 19.1269 24.3768 18.9367 24.3543L15.8859 24.0029ZM16.2425 28.5714C16.4405 28.5556 16.6715 28.5469 16.8764 28.5714C18.5158 28.7676 19.6509 30.2358 19.4518 31.8514C19.2527 33.4671 17.763 34.6247 16.1236 34.4286C14.483 34.2324 13.3491 32.7642 13.5482 31.1486C13.7224 29.7349 14.8563 28.6824 16.2425 28.5714Z" fill="#047FFE"/>
<path d="M25.5906 17.0019C25.4638 16.9869 25.3543 17.0609 25.3264 17.1841L25.0359 18.4337C24.6961 18.5236 24.3817 18.6736 24.085 18.8502L22.9492 18.1733C22.8393 18.1075 22.7091 18.1506 22.6322 18.2514L21.4171 19.8654C21.3402 19.9662 21.3497 20.092 21.4435 20.1778L22.3945 21.0629C22.3505 21.227 22.3108 21.3842 22.2888 21.5575C22.2677 21.7307 22.2598 21.9082 22.2624 22.0781L21.1266 22.6768C21.0141 22.7376 20.9702 22.8726 21.0209 22.9892L21.8133 24.8375C21.8632 24.9532 22.0086 25.0311 22.1303 24.9936L23.3718 24.6032C23.6169 24.8447 23.8821 25.0597 24.1906 25.2279L24.1642 26.5035C24.1617 26.6301 24.2487 26.7488 24.3755 26.7638L26.4094 26.9981C26.5362 27.0131 26.6457 26.9391 26.6736 26.8159L26.9641 25.5663C27.3039 25.4764 27.6448 25.3264 27.9414 25.1498L29.0508 25.8267C29.1599 25.8916 29.2909 25.8494 29.3678 25.7486L30.6093 24.1346C30.6862 24.0338 30.6511 23.908 30.5565 23.8222L29.6055 22.9371C29.6495 22.773 29.6892 22.6158 29.7112 22.4425C29.7323 22.2693 29.741 22.0918 29.7376 21.9219L30.8734 21.3232C30.9859 21.2624 31.0298 21.1274 30.9791 21.0108L30.1867 19.1625C30.1368 19.0468 29.9914 18.9689 29.8697 19.0064L28.6282 19.3968C28.3831 19.1553 28.1179 18.9403 27.8094 18.7721L27.8358 17.4965C27.8383 17.3707 27.7513 17.2512 27.6245 17.2362L25.5906 17.0019ZM25.8283 20.0476C25.9603 20.0371 26.1143 20.0313 26.2509 20.0476C27.3439 20.1784 28.1006 21.1572 27.9679 22.2343C27.8352 23.3114 26.842 24.0832 25.7491 23.9524C24.6553 23.8216 23.8994 22.8428 24.0321 21.7657C24.1483 20.8233 24.9042 20.1216 25.8283 20.0476Z" fill="#047FFE"/>
</svg>
