<svg width="56" height="55" viewBox="0 0 56 55" fill="none" xmlns="http://www.w3.org/2000/svg">
<path d="M18.4064 26.034C18.4064 26.5679 18.4642 27.0008 18.5652 27.3183C18.6806 27.6358 18.8249 27.9822 19.027 28.3574C19.0991 28.4728 19.128 28.5883 19.128 28.6893C19.128 28.8336 19.0414 28.9779 18.8538 29.1222L17.9446 29.7283C17.8148 29.8149 17.6849 29.8582 17.5694 29.8582C17.4251 29.8582 17.2808 29.7861 17.1365 29.6562C16.9345 29.4397 16.7613 29.2088 16.617 28.9779C16.4727 28.7326 16.3283 28.4584 16.1696 28.1265C15.044 29.4542 13.6297 30.118 11.9268 30.118C10.7146 30.118 9.7477 29.7716 9.04057 29.0789C8.33344 28.3862 7.97266 27.4626 7.97266 26.3081C7.97266 25.0815 8.40559 24.0857 9.2859 23.3353C10.1662 22.5849 11.3351 22.2097 12.8216 22.2097C13.3122 22.2097 13.8173 22.253 14.3513 22.3251C14.8852 22.3973 15.4336 22.5127 16.0109 22.6426V21.5891C16.0109 20.4924 15.78 19.7275 15.3326 19.2801C14.8708 18.8328 14.0915 18.6163 12.9803 18.6163C12.4752 18.6163 11.9557 18.674 11.4217 18.8039C10.8878 18.9338 10.3682 19.0925 9.86315 19.2946C9.63225 19.3956 9.45907 19.4533 9.35806 19.4822C9.25704 19.511 9.18488 19.5255 9.12716 19.5255C8.92512 19.5255 8.8241 19.3811 8.8241 19.0781V18.371C8.8241 18.1401 8.85296 17.9669 8.92512 17.8659C8.99727 17.7649 9.12716 17.6638 9.32919 17.5628C9.83429 17.3031 10.4404 17.0866 11.1475 16.9134C11.8547 16.7258 12.6051 16.6392 13.3988 16.6392C15.1161 16.6392 16.3716 17.0289 17.1798 17.8081C17.9735 18.5874 18.3776 19.7708 18.3776 21.3582V26.034H18.4064ZM12.5474 28.2275C13.0236 28.2275 13.5143 28.1409 14.0338 27.9677C14.5533 27.7946 15.0151 27.4771 15.4047 27.0441C15.6356 26.7699 15.8088 26.4669 15.8954 26.1205C15.982 25.7742 16.0397 25.3557 16.0397 24.865V24.2589C15.6212 24.1579 15.1738 24.0713 14.712 24.0136C14.2502 23.9559 13.8029 23.927 13.3555 23.927C12.3886 23.927 11.6815 24.1146 11.2053 24.5042C10.729 24.8939 10.4981 25.4423 10.4981 26.1638C10.4981 26.8421 10.6713 27.3472 11.0321 27.6935C11.3784 28.0543 11.8835 28.2275 12.5474 28.2275ZM24.1356 29.7861C23.8759 29.7861 23.7027 29.7428 23.5873 29.6418C23.4718 29.5552 23.3708 29.3531 23.2842 29.0789L19.8929 17.9236C19.8063 17.635 19.763 17.4474 19.763 17.3463C19.763 17.1154 19.8784 16.9856 20.1093 16.9856H21.5236C21.7978 16.9856 21.9854 17.0289 22.0864 17.1299C22.2019 17.2165 22.2884 17.4185 22.375 17.6927L24.7995 27.2462L27.0508 17.6927C27.1229 17.4041 27.2095 17.2165 27.3249 17.1299C27.4404 17.0433 27.6424 16.9856 27.9022 16.9856H29.0567C29.3309 16.9856 29.5185 17.0289 29.6339 17.1299C29.7494 17.2165 29.8504 17.4185 29.9081 17.6927L32.1883 27.3616L34.6849 17.6927C34.7715 17.4041 34.8725 17.2165 34.9735 17.1299C35.089 17.0433 35.2766 16.9856 35.5363 16.9856H36.8784C37.1093 16.9856 37.2392 17.101 37.2392 17.3463C37.2392 17.4185 37.2248 17.4907 37.2103 17.5772C37.1959 17.6638 37.1671 17.7793 37.1093 17.938L33.6314 29.0934C33.5448 29.382 33.4438 29.5696 33.3283 29.6562C33.2129 29.7428 33.0253 29.8005 32.78 29.8005H31.5389C31.2647 29.8005 31.0771 29.7572 30.9616 29.6562C30.8462 29.5552 30.7452 29.3676 30.6874 29.0789L28.4506 19.7708L26.2282 29.0645C26.156 29.3531 26.0694 29.5407 25.954 29.6418C25.8385 29.7428 25.6365 29.7861 25.3767 29.7861H24.1356ZM42.6798 30.1757C41.9294 30.1757 41.1789 30.0891 40.4574 29.916C39.7358 29.7428 39.173 29.5552 38.7978 29.3387C38.5669 29.2088 38.4081 29.0645 38.3504 28.9346C38.2927 28.8048 38.2638 28.6604 38.2638 28.5306V27.7946C38.2638 27.4915 38.3793 27.3472 38.5957 27.3472C38.6823 27.3472 38.7689 27.3616 38.8555 27.3905C38.9421 27.4194 39.072 27.4771 39.2163 27.5348C39.707 27.7513 40.2409 27.9244 40.8037 28.0399C41.381 28.1553 41.9438 28.2131 42.521 28.2131C43.4302 28.2131 44.1373 28.0543 44.628 27.7368C45.1187 27.4194 45.3784 26.9576 45.3784 26.3659C45.3784 25.9618 45.2486 25.6299 44.9888 25.3557C44.729 25.0815 44.2384 24.8362 43.5312 24.6053L41.4387 23.9559C40.3852 23.6239 39.6059 23.1333 39.1297 22.4839C38.6535 21.8489 38.4081 21.1418 38.4081 20.3913C38.4081 19.7852 38.538 19.2513 38.7978 18.7895C39.0575 18.3277 39.4039 17.9236 39.8368 17.6061C40.2698 17.2742 40.7604 17.0289 41.3377 16.8557C41.9149 16.6825 42.521 16.6104 43.156 16.6104C43.4735 16.6104 43.8054 16.6248 44.1229 16.6681C44.4548 16.7114 44.7579 16.7691 45.0609 16.8268C45.3496 16.899 45.6238 16.9711 45.8835 17.0577C46.1433 17.1443 46.3453 17.2309 46.4896 17.3175C46.6917 17.4329 46.836 17.5484 46.9226 17.6783C47.0092 17.7937 47.0525 17.9525 47.0525 18.1545V18.8328C47.0525 19.1358 46.937 19.2946 46.7205 19.2946C46.6051 19.2946 46.4175 19.2368 46.1721 19.1214C45.3496 18.7462 44.426 18.5586 43.4014 18.5586C42.5788 18.5586 41.9294 18.6885 41.482 18.9626C41.0346 19.2368 40.8037 19.6553 40.8037 20.247C40.8037 20.6511 40.948 20.9974 41.2367 21.2716C41.5253 21.5458 42.0592 21.82 42.8241 22.0654L44.8733 22.7148C45.9124 23.0467 46.6628 23.5085 47.1102 24.1002C47.5575 24.6918 47.774 25.3701 47.774 26.1205C47.774 26.7411 47.6441 27.3039 47.3988 27.7946C47.139 28.2852 46.7927 28.7182 46.3453 29.0645C45.898 29.4253 45.364 29.6851 44.7435 29.8727C44.0941 30.0747 43.4158 30.1757 42.6798 30.1757Z" fill="#8C8C8C"/>
<path fill-rule="evenodd" clip-rule="evenodd" d="M45.4084 37.1894C40.6605 40.6962 33.7624 42.5578 27.8312 42.5578C19.5188 42.5578 12.029 39.484 6.37191 34.3753C5.92455 33.9712 6.32862 33.4228 6.86258 33.7403C12.9814 37.2904 20.529 39.4407 28.3363 39.4407C33.6037 39.4407 39.3906 38.3439 44.7157 36.0926C45.5094 35.7318 46.1877 36.6121 45.4084 37.1894Z" fill="#8C8C8C"/>
<path fill-rule="evenodd" clip-rule="evenodd" d="M47.3812 34.9375C46.7751 34.1582 43.3693 34.5623 41.8252 34.7499C41.3634 34.8076 41.2912 34.4036 41.7097 34.1005C44.4228 32.1956 48.882 32.744 49.4016 33.3789C49.9211 34.0283 49.2573 38.4876 46.7174 40.6234C46.3277 40.9553 45.9525 40.7822 46.1257 40.3492C46.7029 38.9205 47.9873 35.7024 47.3812 34.9375Z" fill="#8C8C8C"/>
</svg>
