<svg width="95" height="48" viewBox="0 0 95 48" fill="none" xmlns="http://www.w3.org/2000/svg">
<path d="M48.0184 23.4942H46.6098V17.9947C46.6026 17.4506 46.6231 16.9063 46.671 16.3642C46.6254 16.6358 46.5426 16.8998 46.4251 17.1488L43.8451 23.5453H42.8628L40.2787 17.2128L40.0327 16.3599C40.0939 16.7223 40.0939 17.2655 40.0939 18.0514V23.5581H38.7422V15.0395H40.7691L43.0434 20.7167L43.4115 21.6835C43.5048 21.3316 43.628 20.9883 43.7797 20.6573L46.1138 14.9801H48.0798L48.0184 23.4942ZM50.6596 16.1255C50.5459 16.1315 50.4323 16.113 50.3263 16.0713C50.2204 16.0297 50.1246 15.9657 50.0455 15.8839C49.8806 15.7532 49.7889 15.5508 49.7996 15.3409C49.7762 15.1284 49.8703 14.9203 50.0455 14.7979C50.2207 14.6565 50.435 14.5722 50.6596 14.5563C50.7733 14.5503 50.887 14.5687 50.9929 14.6104C51.0988 14.6521 51.1946 14.716 51.2737 14.7979C51.4387 14.9286 51.5303 15.1309 51.5197 15.3409C51.5431 15.5533 51.4489 15.7614 51.2737 15.8839C51.1946 15.9657 51.0988 16.0297 50.9929 16.0713C50.887 16.113 50.7733 16.1315 50.6596 16.1255ZM51.3348 23.4942H49.9218V17.3948H51.3348V23.4942ZM57.66 23.2542C57.1681 23.5556 56.5541 23.6809 55.8788 23.6809C54.9577 23.6809 54.2199 23.3795 53.667 22.8351C53.1141 22.2906 52.8142 21.5672 52.8142 20.6602C52.8142 19.6339 53.1211 18.8479 53.7353 18.2437C54.3494 17.6395 55.1482 17.3381 56.1915 17.3381C56.6982 17.3382 57.1995 17.4407 57.6655 17.6395V18.9046C57.273 18.6128 56.8024 18.4445 56.3138 18.4214C55.7017 18.4214 55.208 18.6019 54.8398 19.0254C54.4617 19.4564 54.2638 20.0162 54.2869 20.5891C54.2869 21.1931 54.4716 21.7359 54.8396 22.0987C55.2191 22.4613 55.7279 22.6568 56.2526 22.6417C56.7733 22.6349 57.2743 22.4422 57.6655 22.0987V23.2546L57.66 23.2542ZM62.6352 18.7253C62.4125 18.5947 62.1566 18.5321 61.897 18.5447C61.4703 18.5447 61.1589 18.7253 60.8523 19.0877C60.5456 19.4501 60.4256 19.9406 60.4256 20.5973V23.4973H59.0126V17.3948H60.4256V18.6626C60.5417 18.2748 60.7527 17.9221 61.0395 17.6364C61.3081 17.3939 61.6599 17.2641 62.0218 17.274C62.2129 17.2712 62.4021 17.3126 62.5747 17.3948L62.6352 18.7253ZM66.38 23.6804C65.3977 23.6804 64.6601 23.379 64.1058 22.8345C63.5514 22.2901 63.2529 21.5055 63.2529 20.602C63.2529 19.5758 63.5599 18.7897 64.174 18.1855C64.7881 17.5813 65.587 17.3327 66.5691 17.3327C67.5512 17.3327 68.289 17.6341 68.8434 18.1855C69.3977 18.737 69.6352 19.5103 69.6352 20.5365C69.6611 21.4016 69.3561 22.244 68.7823 22.8918C68.0958 23.4229 67.2478 23.702 66.38 23.684V23.6804ZM66.4413 18.3656C65.8888 18.3656 65.4591 18.5466 65.1522 18.9086C64.8452 19.271 64.6603 19.8142 64.6603 20.4722C64.6603 21.1303 64.845 21.6191 65.1522 21.9819C65.4593 22.3446 65.8903 22.5249 66.4413 22.5249C66.9922 22.5249 67.4236 22.3443 67.7303 21.9819C68.0371 21.6194 68.157 21.136 68.157 20.4182C68.157 19.7544 68.0346 19.2119 67.7303 18.8545C67.5585 18.6922 67.3559 18.5658 67.1345 18.4828C66.9131 18.3999 66.6773 18.3619 66.4411 18.3713L66.4413 18.3656ZM70.6189 23.3136V22.0425C71.1716 22.4049 71.7247 22.6466 72.3388 22.6466C73.1982 22.6466 73.6279 22.4049 73.6279 21.9217C73.6153 21.7932 73.5734 21.6692 73.5055 21.5593C73.4324 21.4473 73.3246 21.3625 73.1985 21.3177C73.0612 21.2467 72.9186 21.1863 72.7718 21.1371L72.2191 20.9565C71.9891 20.8676 71.7637 20.767 71.544 20.6551C71.3695 20.5493 71.2048 20.428 71.0521 20.2927C70.9155 20.1562 70.8106 19.9912 70.7451 19.8095C70.6692 19.6169 70.6278 19.4124 70.6229 19.2054C70.6186 18.9327 70.6821 18.6631 70.8076 18.4208C70.9265 18.1835 71.121 17.9924 71.3605 17.8778C71.6064 17.6972 71.8524 17.6362 72.1593 17.5154C72.4618 17.4455 72.7702 17.4051 73.0804 17.3946C73.6029 17.3766 74.124 17.4586 74.6156 17.6362V18.8461C74.1818 18.5516 73.6657 18.4023 73.1416 18.4196C72.9753 18.4056 72.8079 18.4259 72.6498 18.4793C72.5273 18.5391 72.4038 18.5391 72.2816 18.6C72.1723 18.6468 72.0846 18.7332 72.0357 18.8416C71.9863 18.9339 71.9651 19.0387 71.9744 19.143C71.9646 19.267 71.9856 19.3915 72.0355 19.5054C72.0842 19.614 72.172 19.7002 72.2814 19.747C72.4188 19.8179 72.5614 19.8784 72.7081 19.9276C72.8928 19.9874 73.0151 20.0482 73.2608 20.1082C73.4946 20.2341 73.7409 20.3351 73.9958 20.4096C74.2417 20.4693 74.3639 20.6512 74.5485 20.772C74.6856 20.9216 74.8088 21.0833 74.9167 21.2552C74.9923 21.4686 75.0336 21.6927 75.0391 21.919C75.0391 22.2204 74.9779 22.5231 74.7932 22.7036C74.6582 22.9299 74.4686 23.1186 74.2417 23.2524C73.9671 23.3948 73.682 23.516 73.3888 23.6148C72.4589 23.8496 71.4757 23.7421 70.6184 23.312L70.6189 23.3136ZM79.1588 23.6804C78.1765 23.6804 77.4389 23.379 76.8845 22.8345C76.3302 22.2901 76.0317 21.5055 76.0317 20.602C76.0317 19.5758 76.3386 18.7897 76.9527 18.1855C77.5669 17.5813 78.3657 17.3327 79.3478 17.3327C80.3299 17.3327 81.0677 17.6341 81.6221 18.1855C82.1764 18.737 82.4209 19.5146 82.4209 20.5408C82.4469 21.4059 82.1419 22.2483 81.5681 22.8961C80.8724 23.4195 80.0221 23.696 79.1516 23.6822L79.1588 23.6804ZM79.22 18.3656C78.6675 18.3656 78.2378 18.5466 77.9309 18.9086C77.6239 19.271 77.439 19.8142 77.439 20.4722C77.439 21.1303 77.6238 21.6191 77.9309 21.9819C78.238 22.3446 78.6691 22.5249 79.22 22.5249C79.7709 22.5249 80.2023 22.3443 80.5091 21.9819C80.8159 21.6194 80.9358 21.136 80.9358 20.4182C80.9358 19.7544 80.8134 19.2119 80.5091 18.8545C80.3377 18.69 80.135 18.5616 79.913 18.4769C79.6911 18.3921 79.4544 18.3528 79.2169 18.3612L79.22 18.3656ZM87.2611 15.6433C87.0577 15.5204 86.8236 15.4578 86.586 15.4628C85.9108 15.4628 85.5412 15.8252 85.5412 16.6096V17.4558H86.9542V18.5433H85.5412V23.5595H84.134V18.5418H83.0892V17.4544H84.134V16.4876C84.134 15.8237 84.3187 15.3407 84.7462 14.9779C85.082 14.7202 85.4749 14.5469 85.8917 14.4726C86.3085 14.3984 86.737 14.4253 87.1412 14.5512V15.6387H87.2592L87.2611 15.6433ZM91.3182 23.4342C91.0727 23.5546 90.7041 23.6148 90.2124 23.6148C88.9845 23.6148 88.4312 23.0718 88.4312 21.9233V18.4822H87.3865V17.3948H88.4312V16.0049L89.8442 15.6424V17.4547H91.3182V18.5422H89.8442V21.5669C89.8246 21.8411 89.889 22.1148 90.0289 22.3515C90.1513 22.5321 90.3971 22.5931 90.7041 22.5931C90.9227 22.5962 91.1368 22.5306 91.3162 22.4055V23.4317L91.3182 23.4342ZM47.3516 36.0371H45.7539L44.955 33.8636H41.5152L40.777 36.0385H39.1808L42.4359 27.5226H44.0293L47.3516 36.0371ZM44.5868 32.7153L43.359 29.3338C43.305 29.156 43.2641 28.9746 43.2367 28.7908C43.2093 28.9746 43.1685 29.156 43.1145 29.3338L41.9475 32.7153H44.5868ZM52.9479 30.5374L49.6303 34.9439H52.9467V36.0313H47.6589V35.4984L51.1002 31.0251H48.0299V29.9377H53.005V30.5376L52.9479 30.5374ZM59.5734 36.0371H58.1605V35.0721C57.9777 35.4143 57.7019 35.698 57.3649 35.8904C57.0279 36.0828 56.6435 36.1761 56.2558 36.1595C54.7818 36.1595 54.044 35.3137 54.044 33.5626V29.9373H55.457V33.4398C55.457 34.5268 55.8867 35.0703 56.7461 35.0703C56.9406 35.0781 57.1346 35.0441 57.3148 34.9705C57.4951 34.897 57.6574 34.7855 57.7908 34.6437C58.0668 34.3015 58.2174 33.8751 58.2174 33.4355V29.9373H59.6289L59.5734 36.0371ZM64.979 31.2665C64.7563 31.136 64.5004 31.0734 64.2408 31.086C63.8141 31.086 63.5026 31.2665 63.196 31.629C62.8894 31.9914 62.7693 32.4818 62.7693 33.1386V36.0383H61.3564V29.9373H62.7693V31.2052C62.8854 30.8173 63.0965 30.4646 63.3833 30.1789C63.6494 29.9387 63.9954 29.8091 64.3555 29.8165C64.5466 29.8138 64.7358 29.8551 64.9084 29.9373L64.979 31.2665ZM71.2433 33.3802H67.006C67.006 33.9232 67.1908 34.4065 67.5588 34.7093C67.8657 35.0107 68.3576 35.1925 68.9717 35.1925C69.6385 35.2073 70.2903 34.9942 70.8197 34.5885V35.6759C70.2625 36.0408 69.5234 36.2232 68.6023 36.2232C68.2047 36.2366 67.8085 36.1677 67.4387 36.021C67.0689 35.8742 66.7334 35.6528 66.4531 35.3704C65.9004 34.8274 65.6543 34.0413 65.6543 33.0151C65.6252 32.1674 65.9317 31.3425 66.5071 30.7194C66.7796 30.4232 67.1124 30.1889 67.4832 30.0325C67.854 29.876 68.254 29.801 68.6563 29.8125C69.5091 29.8125 70.1303 30.0542 70.6223 30.5972C71.1144 31.1402 71.2975 31.865 71.2975 32.8297L71.2433 33.3802ZM69.8916 32.4134C69.8916 31.9302 69.7691 31.5078 69.5234 31.2665C69.406 31.1217 69.2554 31.0073 69.0844 30.933C68.9134 30.8587 68.727 30.8268 68.5411 30.8398C68.3465 30.832 68.1526 30.866 67.9723 30.9396C67.7921 31.0131 67.6297 31.1246 67.4963 31.2664C67.1893 31.5678 67.0696 31.9302 67.0044 32.4132L69.8916 32.4134Z" fill="#8C8C8C"/>
<path fill-rule="evenodd" clip-rule="evenodd" d="M22.6232 15.3505L18.0429 24.5752L26.1088 33.9215L11.142 35.6205L34.3661 35.8636L22.6232 15.3505ZM21.7199 11.709L11.2045 20.509L3.39844 33.679L10.0432 33.0128L21.7199 11.709Z" fill="#8C8C8C"/>
</svg>
