<svg width="45" height="45" viewBox="0 0 45 45" fill="none" xmlns="http://www.w3.org/2000/svg">
<g clip-path="url(#clip0_5951_16712)">
<path d="M18.5449 7.99609C19.273 7.99609 19.8633 7.40584 19.8633 6.67773C19.8633 5.94962 19.273 5.35938 18.5449 5.35938C17.8168 5.35938 17.2266 5.94962 17.2266 6.67773C17.2266 7.40584 17.8168 7.99609 18.5449 7.99609Z" fill="black"/>
<path d="M35.6836 26.4551H34.3652V13.2715H35.6836C36.4117 13.2715 37.002 12.6813 37.002 11.9532V9.31647C37.002 8.80425 36.7052 8.33843 36.2411 8.12177L19.1024 0.123729C18.7498 -0.0408905 18.3425 -0.0412421 17.9897 0.122674L0.763154 8.12072C0.297773 8.33684 0 8.80337 0 9.31647V11.9532C0 12.6813 0.590273 13.2715 1.31836 13.2715H2.72461V26.4551H1.31836C0.590273 26.4551 0 27.0454 0 27.7735V33.0469C0 33.775 0.590273 34.3653 1.31836 34.3644H26.5496C26.4878 34.7961 26.4551 35.2361 26.4551 35.6837C26.4551 40.8208 30.595 45.0001 35.6836 45.0001C40.7759 45.0001 45 40.7943 45 35.6837C45 30.5951 40.8206 26.4551 35.6836 26.4551ZM31.7285 26.4551H29.0918V13.2715H31.7285V26.4551ZM23.8184 26.4551V21.1817C23.8184 18.2739 21.4527 15.9083 18.5449 15.9083C15.6371 15.9083 13.2715 18.2739 13.2715 21.1817V26.4551H10.6348V13.2715H26.4551V26.4551H23.8184ZM15.9082 26.4551V21.1817C15.9082 19.7278 17.091 18.545 18.5449 18.545C19.9988 18.545 21.1816 19.7278 21.1816 21.1817V26.4551H15.9082ZM2.63672 10.1579L18.5435 2.77266L34.3652 10.1561V10.6348H2.63672V10.1579ZM5.36133 13.2715H7.99805V26.4551H5.36133V13.2715ZM2.63672 31.7286V29.091H29.2321C28.4586 29.849 27.8173 30.7405 27.3467 31.7286H2.63672ZM35.6836 42.3633C32.0489 42.3633 29.0918 39.3669 29.0918 35.6837C29.0918 32.0489 32.0489 29.0919 35.6836 29.0919C39.3667 29.0919 42.3633 32.0489 42.3633 35.6837C42.3633 39.3045 39.3043 42.3633 35.6836 42.3633Z" fill="black"/>
<path fill-rule="evenodd" clip-rule="evenodd" d="M39.5058 31.8477C40.1422 32.3781 40.2282 33.3239 39.6978 33.9603L35.6069 38.8694C35.3522 39.175 34.9866 39.367 34.5904 39.403C34.1942 39.439 33.7999 39.3161 33.4943 39.0615L31.0398 37.016C30.4033 36.4857 30.3174 35.5398 30.8477 34.9034C31.3781 34.267 32.3239 34.181 32.9603 34.7113L34.2625 35.7965L37.3932 32.0398C37.9235 31.4033 38.8694 31.3174 39.5058 31.8477Z" fill="black"/>
</g>
<defs>
<clipPath id="clip0_5951_16712">
<rect width="45" height="45" fill="white"/>
</clipPath>
</defs>
</svg>
