<svg width="30" height="16" viewBox="0 0 30 16" fill="none" xmlns="http://www.w3.org/2000/svg">
<g clip-path="url(#clip0_3434_13477)">
<path d="M29.1921 5.465V0.5C25.3891 0.5045 21.7431 2.01731 19.054 4.70657C16.3649 7.39584 14.8524 11.0419 14.8481 14.845H19.8131C19.816 12.3583 20.8051 9.97434 22.5634 8.21591C24.3216 6.45748 26.7055 5.46817 29.1921 5.465Z" stroke="#0F26AA" stroke-miterlimit="10"/>
<path d="M0.5 0.5V5.46799C2.98684 5.4709 5.37096 6.46008 7.12943 8.21854C8.88789 9.977 9.87709 12.3612 9.88 14.848H14.845C14.8416 11.0442 13.3292 7.39722 10.6398 4.70728C7.95045 2.01734 4.30375 0.504236 0.5 0.5Z" stroke="#0F26AA" stroke-miterlimit="10"/>
</g>
<defs>
<clipPath id="clip0_3434_13477">
<rect width="29.692" height="15.346" fill="white"/>
</clipPath>
</defs>
</svg>
