<svg width="22" height="22" viewBox="0 0 22 22" fill="none" xmlns="http://www.w3.org/2000/svg">
<path fill-rule="evenodd" clip-rule="evenodd" d="M4.82757 3.94894C4.10069 3.94894 3.51144 4.53819 3.51144 5.26507V17.1102C3.51144 17.8371 4.10069 18.4264 4.82757 18.4264H17.9889C18.7157 18.4264 19.305 17.8371 19.305 17.1102V5.26507C19.305 4.53819 18.7157 3.94894 17.9889 3.94894H4.82757ZM2.19531 5.26507C2.19531 3.81131 3.37381 2.63281 4.82757 2.63281H17.9889C19.4426 2.63281 20.6211 3.81131 20.6211 5.26507V17.1102C20.6211 18.564 19.4426 19.7425 17.9889 19.7425H4.82757C3.37381 19.7425 2.19531 18.564 2.19531 17.1102V5.26507Z" fill="black"/>
<path d="M17.2393 3.28906H5.57348C4.07268 3.28906 2.85156 4.5291 2.85156 6.05293V8.55358H3.50963C3.50963 7.89551 4.16769 7.23745 4.82576 7.23745H17.987C18.6451 7.23745 19.3032 7.89551 19.3032 8.55358H19.9612V6.05293C19.9612 4.5291 18.7401 3.28906 17.2393 3.28906Z" fill="black"/>
<path d="M13.0535 10.5289C13.5987 10.5289 14.0406 10.0869 14.0406 9.54178C14.0406 8.99663 13.5987 8.55469 13.0535 8.55469C12.5083 8.55469 12.0664 8.99663 12.0664 9.54178C12.0664 10.0869 12.5083 10.5289 13.0535 10.5289Z" fill="black"/>
<path d="M16.3426 10.5289C16.8877 10.5289 17.3297 10.0869 17.3297 9.54178C17.3297 8.99663 16.8877 8.55469 16.3426 8.55469C15.7974 8.55469 15.3555 8.99663 15.3555 9.54178C15.3555 10.0869 15.7974 10.5289 16.3426 10.5289Z" fill="black"/>
<path d="M13.0535 13.8179C13.5987 13.8179 14.0406 13.376 14.0406 12.8308C14.0406 12.2857 13.5987 11.8438 13.0535 11.8438C12.5083 11.8438 12.0664 12.2857 12.0664 12.8308C12.0664 13.376 12.5083 13.8179 13.0535 13.8179Z" fill="black"/>
<path d="M16.3426 13.8179C16.8877 13.8179 17.3297 13.376 17.3297 12.8308C17.3297 12.2857 16.8877 11.8438 16.3426 11.8438C15.7974 11.8438 15.3555 12.2857 15.3555 12.8308C15.3555 13.376 15.7974 13.8179 16.3426 13.8179Z" fill="black"/>
<path d="M6.47147 13.8179C7.01663 13.8179 7.45857 13.376 7.45857 12.8308C7.45857 12.2857 7.01663 11.8438 6.47147 11.8438C5.92631 11.8438 5.48438 12.2857 5.48438 12.8308C5.48438 13.376 5.92631 13.8179 6.47147 13.8179Z" fill="black"/>
<path d="M9.76444 13.8179C10.3096 13.8179 10.7515 13.376 10.7515 12.8308C10.7515 12.2857 10.3096 11.8438 9.76444 11.8438C9.21928 11.8438 8.77734 12.2857 8.77734 12.8308C8.77734 13.376 9.21928 13.8179 9.76444 13.8179Z" fill="black"/>
<path d="M6.47147 17.107C7.01663 17.107 7.45857 16.6651 7.45857 16.1199C7.45857 15.5748 7.01663 15.1328 6.47147 15.1328C5.92631 15.1328 5.48438 15.5748 5.48438 16.1199C5.48438 16.6651 5.92631 17.107 6.47147 17.107Z" fill="black"/>
<path d="M9.76444 17.107C10.3096 17.107 10.7515 16.6651 10.7515 16.1199C10.7515 15.5748 10.3096 15.1328 9.76444 15.1328C9.21928 15.1328 8.77734 15.5748 8.77734 16.1199C8.77734 16.6651 9.21928 17.107 9.76444 17.107Z" fill="black"/>
<path d="M13.0535 17.107C13.5987 17.107 14.0406 16.6651 14.0406 16.1199C14.0406 15.5748 13.5987 15.1328 13.0535 15.1328C12.5083 15.1328 12.0664 15.5748 12.0664 16.1199C12.0664 16.6651 12.5083 17.107 13.0535 17.107Z" fill="black"/>
<path fill-rule="evenodd" clip-rule="evenodd" d="M6.14244 1.3125C6.50588 1.3125 6.8005 1.60713 6.8005 1.97056V3.28669C6.8005 3.65013 6.50588 3.94476 6.14244 3.94476C5.779 3.94476 5.48438 3.65013 5.48438 3.28669V1.97056C5.48438 1.60713 5.779 1.3125 6.14244 1.3125Z" fill="black"/>
<path fill-rule="evenodd" clip-rule="evenodd" d="M16.6737 1.3125C17.0371 1.3125 17.3318 1.60713 17.3318 1.97056V3.28669C17.3318 3.65013 17.0371 3.94476 16.6737 3.94476C16.3103 3.94476 16.0156 3.65013 16.0156 3.28669V1.97056C16.0156 1.60713 16.3103 1.3125 16.6737 1.3125Z" fill="black"/>
</svg>
