<svg width="852" height="200" viewBox="0 0 852 200" fill="none" xmlns="http://www.w3.org/2000/svg">
<path fill-rule="evenodd" clip-rule="evenodd" d="M89.2171 1.11963C56.7114 5.92568 36.7952 17.1276 19.1304 40.5378C-4.50635 71.8642 -6.44948 119.163 14.4705 154.014C26.9455 174.796 50.6274 191.818 75.207 197.669C88.6786 200.877 114.386 200.753 125.765 197.426C141.768 192.745 157.294 184.318 167.627 174.704C172.096 170.546 183.632 155.877 183.632 154.354C183.632 153.554 139.372 127.644 138.004 127.644C137.745 127.644 134.337 130.799 130.431 134.655C121.186 143.781 113.892 146.564 99.5723 146.429C85.3637 146.294 76.887 142.932 67.8439 133.841C58.3974 124.345 55.1154 115.417 55.2555 99.5918C55.3713 86.5625 57.3193 80.6466 64.8859 70.3389C73.7098 58.3183 92.0885 51.5569 107.491 54.6647C119.417 57.0708 126.864 61.4968 134.601 70.775L137.346 74.0668L141.911 71.2136C144.421 69.6445 150.039 66.3954 154.394 63.9918C168.753 56.0694 181.581 48.5588 182.75 47.3893C184.328 45.8116 177.743 36.4858 169.194 28.187C154.205 13.6385 137.91 5.76 114.191 1.5911C102.774 -0.41538 99.9597 -0.468984 89.2171 1.11963ZM241.516 9.01154C240.502 11.4383 239.673 13.7079 239.673 14.0539C239.673 14.7496 225.904 58.3707 223.238 66.1213C222.316 68.8015 218.192 81.6846 214.073 94.7505C209.954 107.816 205.837 120.699 204.922 123.38C204.008 126.06 199.883 138.943 195.757 152.009C191.629 165.075 186.94 179.862 185.334 184.868C183.727 189.875 182.414 194.397 182.414 194.918C182.414 195.44 195.56 195.866 211.629 195.866H240.845L241.583 192.516C242.294 189.288 245.24 178.033 246.524 173.633C247.093 171.685 249.493 171.501 274.403 171.501C291.317 171.501 301.947 171.965 302.416 172.723C302.831 173.395 304.405 178.74 305.913 184.601L308.657 195.257L338.123 195.584C354.331 195.763 367.59 195.734 367.59 195.518C367.59 195.302 365.462 188.577 362.861 180.572C360.26 172.568 355.283 156.973 351.8 145.918C348.318 134.862 344.195 121.979 342.638 117.288C341.081 112.598 337.241 100.537 334.104 90.4865C330.967 80.4359 327.658 70.0197 326.75 67.3395C325.182 62.7089 318.074 40.5134 310.949 17.9999C309.146 12.3045 307.107 6.95998 306.416 6.12182C305.472 4.97665 297.499 4.59899 274.26 4.59899H243.36L241.516 9.01154ZM379.367 5.41157C378.92 5.85746 378.555 48.8926 378.555 101.045V195.866H405.965H433.376V169.065V142.263H447.252C479.472 142.263 500.805 132.803 514.245 112.557C527.123 93.1533 528.67 62.1851 517.842 40.5378C508.501 21.863 489.101 8.82271 466.25 5.85746C456.035 4.53199 380.633 4.14458 379.367 5.41157ZM542.614 5.41157C542.167 5.85746 541.802 48.8975 541.802 101.056V195.888L604.847 195.573L667.892 195.257L668.239 173.328C668.429 161.268 668.282 150.166 667.91 148.659L667.237 145.918H631.93H596.624V134.974V124.03L627.994 123.705L659.364 123.38V99.6235V75.8674L627.994 75.5421L596.624 75.2168V64.8823V54.5478H631.344H666.065V29.5734V4.59899H604.746C571.019 4.59899 543.06 4.96447 542.614 5.41157ZM679.02 5.55289C678.547 6.31674 708.079 56.4933 731.969 95.5143L734.301 99.3238L705.666 147.098C689.916 173.375 677.029 195.106 677.029 195.391C677.029 195.676 690.571 195.763 707.124 195.582L737.219 195.257L750.068 173.67C757.135 161.796 763.465 152.072 764.135 152.061C765.34 152.041 776.89 169.949 786.69 187.034L791.757 195.866H821.498C839.497 195.866 851.241 195.408 851.241 194.708C851.241 194.071 841.551 177.486 829.707 157.855C817.864 138.223 806.283 118.872 803.975 114.852C801.665 110.832 798.725 105.708 797.442 103.463L795.108 99.386L798.385 93.7174C800.187 90.6011 812.543 69.8272 825.841 47.5562C839.141 25.2839 850.022 6.50679 850.022 5.83065C850.022 5.03513 839.564 4.59899 820.466 4.59899H790.909L778.145 25.9186C771.124 37.6444 764.827 47.2236 764.148 47.2065C763.471 47.1895 757.419 37.7321 750.699 26.1915L738.481 5.20812L709.058 4.88163C692.876 4.70254 679.358 5.00467 679.02 5.55289ZM434.286 58.9177C433.786 59.4172 433.376 66.3138 433.376 74.2434V88.6591H447.293C460.408 88.6591 461.421 88.4813 464.877 85.5733C472.288 79.337 472.614 68.3946 465.586 61.7843C462.691 59.0614 461.28 58.7776 448.811 58.4097C441.322 58.1892 434.786 58.417 434.286 58.9177ZM270.718 84.1077C268.874 90.9665 265.851 102.06 263.999 108.76C262.147 115.461 260.292 122.45 259.875 124.293L259.118 127.644H274.37C287.721 127.644 289.621 127.394 289.621 125.637C289.621 124.533 287.153 114.528 284.137 103.404C281.119 92.2786 278.028 80.833 277.268 77.9677C276.508 75.1035 275.477 72.5062 274.978 72.198C274.478 71.8898 272.562 77.2489 270.718 84.1077Z" fill="white"/>
</svg>
