<svg width="80" height="80" viewBox="0 0 80 80" fill="none" xmlns="http://www.w3.org/2000/svg">
<path fill-rule="evenodd" clip-rule="evenodd" d="M40 53.0295C53.9046 53.0295 65.1765 41.7888 65.1765 27.9226C65.1765 14.0565 53.9046 2.81573 40 2.81573C26.0954 2.81573 14.8235 14.0565 14.8235 27.9226C14.8235 41.7888 26.0954 53.0295 40 53.0295ZM53.8992 52.1676C62.324 47.3541 68 38.2994 68 27.9226C68 12.5014 55.464 0 40 0C24.536 0 12 12.5014 12 27.9226C12 37.9275 17.2765 46.7034 25.2058 51.6339C25.1965 51.6644 25.1879 51.6954 25.18 51.7268L19.3933 74.8097C18.9892 76.4214 20.729 77.7235 22.1679 76.8865L27.9922 73.4983L32.412 79.2621C33.3721 80.5142 35.3585 80.1001 35.7353 78.5693L40.4337 59.4807L44.4205 75.7451C44.7965 77.2787 46.7874 77.6927 47.7466 76.4367L51.4082 71.642L56.1834 74.4312C57.6215 75.2712 59.364 73.9706 58.9614 72.3579L53.9871 52.4343C53.964 52.3418 53.9345 52.2528 53.8992 52.1676ZM41.471 55.8074C45.3029 55.6096 48.9311 54.6435 52.2036 53.0607L57.1348 72.8115L52.3596 70.0222C51.5384 69.5426 50.4873 69.7496 49.9107 70.5047L46.249 75.2994L41.471 55.8074ZM26.8996 52.6069C30.6407 54.5854 34.8852 55.743 39.3918 55.8388L33.9072 78.1218L29.4874 72.3581C28.9109 71.6063 27.8634 71.4 27.0437 71.8769L21.2194 75.265L26.8996 52.6069ZM35.8414 45.5079C36.0439 45.5555 36.2566 45.5217 36.4368 45.4179C37.1492 45.0078 36.9101 43.8384 36.1114 43.6418C31.9726 42.6231 28.2396 39.9902 25.9398 36.0178C23.64 32.0454 23.2201 27.5051 24.4048 23.4213C24.6334 22.6333 23.7374 21.8421 23.025 22.2523C22.8448 22.356 22.7091 22.5228 22.6492 22.7215C21.2627 27.3245 21.7097 32.4656 24.3097 36.9564C26.9096 41.4472 31.1508 44.4038 35.8414 45.5079ZM57.3508 33.1238C57.2909 33.3225 57.1552 33.4892 56.975 33.593C56.2626 34.0031 55.3666 33.2119 55.5952 32.4239C56.7799 28.3401 56.36 23.7998 54.0602 19.8274C51.7603 15.855 48.0274 13.2222 43.8886 12.2034C43.0899 12.0068 42.8508 10.8375 43.5632 10.4273C43.7434 10.3236 43.9561 10.2897 44.1586 10.3374C48.8492 11.4414 53.0904 14.3981 55.6903 18.8888C58.2903 23.3796 58.7373 28.5208 57.3508 33.1238ZM38.4266 25.1209L40.2936 21.4141L41.9655 25.0739C42.1632 25.5068 42.5668 25.8108 43.0384 25.8822L47.2158 26.5145L44.3514 29.4257C44.0353 29.747 43.8922 30.1997 43.9666 30.6437L44.7013 35.0305L40.9132 33.3346C40.5454 33.17 40.1246 33.17 39.7569 33.3346L35.9302 35.0477L36.5788 30.6218C36.6432 30.1827 36.4961 29.739 36.182 29.4246L33.2694 26.5093L37.3791 25.8805C37.831 25.8114 38.2214 25.5283 38.4266 25.1209ZM41.599 19.7438C41.1074 18.6677 39.585 18.6388 39.0528 19.6955L36.8535 24.0618L32.0677 24.794C30.9256 24.9688 30.4662 26.363 31.2817 27.1793L34.6822 30.583L33.9437 35.6225C33.7825 36.722 34.9023 37.5655 35.9188 37.1105L40.335 35.1334L44.732 37.1018C45.7604 37.5622 46.8884 36.6943 46.7027 35.5855L45.8627 30.57L49.2039 27.1743C50.0104 26.3546 49.5465 24.9686 48.408 24.7963L43.5728 24.0644L41.599 19.7438Z" fill="white"/>
</svg>
