<svg width="18" height="18" viewBox="0 0 18 18" fill="none" xmlns="http://www.w3.org/2000/svg">
<mask id="mask0_10196_39514" style="mask-type:alpha" maskUnits="userSpaceOnUse" x="0" y="0" width="18" height="18">
<rect width="18" height="18" fill="#D9D9D9"/>
</mask>
<g mask="url(#mask0_10196_39514)">
<path d="M9 17.25L3.6 13.2C3.4125 13.0625 3.26563 12.8875 3.15938 12.675C3.05313 12.4625 3 12.2375 3 12V3C3 2.5875 3.14688 2.23438 3.44063 1.94063C3.73438 1.64688 4.0875 1.5 4.5 1.5H13.5C13.9125 1.5 14.2656 1.64688 14.5594 1.94063C14.8531 2.23438 15 2.5875 15 3V12C15 12.2375 14.9469 12.4625 14.8406 12.675C14.7344 12.8875 14.5875 13.0625 14.4 13.2L9 17.25ZM9 15.375L13.5 12V3H4.5V12L9 15.375ZM8.2125 11.25L12.45 7.0125L11.4 5.925L8.2125 9.1125L6.6375 7.5375L5.55 8.5875L8.2125 11.25Z" fill="#1525A3"/>
</g>
</svg>
