<svg width="40" height="40" viewBox="0 0 40 40" fill="none" xmlns="http://www.w3.org/2000/svg">
<path fill-rule="evenodd" clip-rule="evenodd" d="M9.80715 33.7985C10.9408 28.5971 15.4765 26 19.9999 26C24.5127 26 29.06 28.5163 30.1941 33.8022M9.80707 33.7988C9.67978 34.3825 9.76431 35.0067 10.0718 35.5217C10.3897 36.054 10.98 36.5 11.7609 36.5H28.2395C29.0212 36.5 29.6111 36.0532 29.9284 35.5209C30.235 35.0065 30.3191 34.3842 30.1942 33.8029M12.2498 34.3309C12.2498 34.331 12.2498 34.3311 12.2497 34.3312L12.2497 34.3315M12.3293 34C13.2731 30.4095 16.4835 28.5 19.9999 28.5C23.5306 28.5 26.7326 30.3527 27.6726 34H12.3293Z" fill="#047FFE"/>
<path fill-rule="evenodd" clip-rule="evenodd" d="M19.9995 15.5C18.4911 15.5 17.1121 16.778 17.2599 19.173L17.2599 19.1732C17.3321 20.3449 17.7457 21.342 18.297 22.0225C18.8548 22.7109 19.4795 23 19.9995 23C20.5191 23 21.1431 22.7111 21.7006 22.0225C22.2518 21.3417 22.6658 20.3441 22.7392 19.1718L22.7392 19.1716C22.8868 16.8224 21.5002 15.5 19.9995 15.5ZM14.7646 19.3268C14.5499 15.8455 16.7196 13 19.9995 13C23.2871 13 25.4491 15.908 25.2343 19.3282C25.1308 20.9802 24.5449 22.4826 23.6436 23.5957C22.7487 24.701 21.4675 25.5 19.9995 25.5C18.5319 25.5 17.25 24.7016 16.3545 23.5963C15.4526 22.483 14.8665 20.9802 14.7646 19.327" fill="#047FFE"/>
<path fill-rule="evenodd" clip-rule="evenodd" d="M9.06981 10.6131C10.5558 6.7347 14.3189 3 20 3C26.1203 3 31.2537 7.38193 32.3627 14.3575C33.9548 14.5953 35.6331 15.1978 37.0191 16.2576C38.7543 17.5846 40 19.6137 40 22.375C40 27.0042 36.0499 30.1568 31.6945 30.2537L31.6389 27.7543C34.9285 27.6811 37.5 25.3699 37.5 22.375C37.5 20.4629 36.6754 19.142 35.5004 18.2435C34.2852 17.3142 32.6674 16.8255 31.185 16.7483C30.5681 16.7162 30.0671 16.2382 30.0061 15.6235C29.3682 9.19801 24.993 5.5 20 5.5C15.2766 5.5 12.21 8.78463 11.1958 12.1142C11.0488 12.5967 10.6262 12.9436 10.1244 12.9938C5.9205 13.4142 2.5 16.2888 2.5 20.8462C2.5 24.5983 5.25407 27.754 8.33333 27.754V30.254C3.49566 30.254 0 25.5683 0 20.8462C0 15.0347 4.22592 11.4155 9.06981 10.6131Z" fill="#0F26AA"/>
</svg>
