<svg width="35" height="23" viewBox="0 0 35 23" fill="none" xmlns="http://www.w3.org/2000/svg">
<path fill-rule="evenodd" clip-rule="evenodd" d="M9.71247 0.87165C10.0527 0.70945 10.448 0.70945 10.7882 0.87165C13.2064 2.02441 14.643 2.60224 16.559 3.09052C17.228 3.26101 17.6321 3.94152 17.4616 4.6105C17.2912 5.27947 16.6106 5.68358 15.9417 5.51309C13.9603 5.00815 12.44 4.41033 10.2503 3.38284C7.31522 4.75974 5.6223 5.34452 2.50217 5.97652C2.3932 14.89 8.42163 18.6744 10.2492 19.6159C10.6599 19.4035 11.2877 19.0446 12.0117 18.5142C12.5687 18.1063 13.3508 18.2271 13.7588 18.784C14.1667 19.3409 14.0459 20.1231 13.489 20.531C12.115 21.5375 11.0112 22.0348 10.7394 22.1504C10.4269 22.2832 10.0738 22.2832 9.76134 22.1504C8.97349 21.8155 -0.709507 17.4294 0.0414895 4.86539C0.0756621 4.29369 0.493992 3.81835 1.05672 3.7118C4.81604 3 6.31335 2.49203 9.71247 0.87165Z" fill="#0F26AA"/>
<path fill-rule="evenodd" clip-rule="evenodd" d="M20.8609 1.50256C21.8924 0.540485 23.2913 0 24.75 0C26.2087 0 27.6076 0.540485 28.6391 1.50256C29.6705 2.46463 30.25 3.76947 30.25 5.13004V9.81614C30.25 10.47 29.6817 11 28.9808 11C28.2798 11 27.7115 10.47 27.7115 9.81614V5.13004C27.7115 4.39743 27.3995 3.69482 26.8441 3.17678C26.2887 2.65874 25.5354 2.36771 24.75 2.36771C23.9646 2.36771 23.2113 2.65874 22.6559 3.17678C22.1005 3.69482 21.7885 4.39743 21.7885 5.13004V9.81614C21.7885 10.47 21.2202 11 20.5192 11C19.8183 11 19.25 10.47 19.25 9.81614V5.13004C19.25 3.76947 19.8295 2.46463 20.8609 1.50256Z" fill="#047FFE"/>
<path fill-rule="evenodd" clip-rule="evenodd" d="M19 11.1152C18.0716 11.1152 17.75 11.6934 17.75 11.9241V19.4731C17.75 19.7037 18.0716 20.2819 19 20.2819H30.6667C31.595 20.2819 31.9167 19.7037 31.9167 19.4731V11.9241C31.9167 11.6934 31.595 11.1152 30.6667 11.1152H19ZM15.25 11.9241C15.25 9.88057 17.1669 8.61523 19 8.61523H30.6667C32.4997 8.61523 34.4167 9.88057 34.4167 11.9241V19.4731C34.4167 21.5166 32.4997 22.7819 30.6667 22.7819H19C17.1669 22.7819 15.25 21.5166 15.25 19.4731V11.9241Z" fill="#047FFE"/>
</svg>
