<svg width="86" height="67" viewBox="0 0 86 67" fill="none" xmlns="http://www.w3.org/2000/svg">
<path fill-rule="evenodd" clip-rule="evenodd" d="M42.8098 15.4363C37.2008 15.4363 32.6745 19.9626 32.6745 25.5716V27.7457H26.6428C22.1209 27.7457 18.4364 31.4303 18.4364 35.9522C18.4364 40.4741 22.1209 44.1587 26.6428 44.1587H57.1182C61.7306 44.1587 65.3247 40.7718 65.3247 36.338H68.761C68.761 42.8458 63.4474 47.595 57.1182 47.595H26.6428C20.2231 47.595 15 42.372 15 35.9522C15 29.5324 20.2231 24.3094 26.6428 24.3094H29.2958C29.9306 17.3964 35.7286 12 42.8098 12C50.3167 12 56.3815 18.0647 56.3815 25.5716V27.781H52.9451V25.5716C52.9451 19.9626 48.4189 15.4363 42.8098 15.4363Z" fill="black"/>
<path d="M78.6864 27.7474V24.3105C73.2156 24.3105 68.7617 28.7644 68.7617 34.2352H72.1985C72.1985 30.6581 75.1093 27.7474 78.6864 27.7474Z" fill="url(#paint0_linear_919_1096)"/>
<path d="M58.8008 24.3105V27.7474C62.3779 27.7474 65.2886 30.6581 65.2886 34.2352H68.7254C68.7605 28.7644 64.2716 24.3105 58.8008 24.3105Z" fill="url(#paint1_linear_919_1096)"/>
<defs>
<linearGradient id="paint0_linear_919_1096" x1="36.458" y1="28.4093" x2="77.8388" y2="29.2667" gradientUnits="userSpaceOnUse">
<stop offset="0.1069" stop-color="#0F26AA"/>
<stop offset="0.8803" stop-color="#FF4A56"/>
</linearGradient>
<linearGradient id="paint1_linear_919_1096" x1="56.3267" y1="29.2667" x2="77.8376" y2="29.2667" gradientUnits="userSpaceOnUse">
<stop stop-color="#BB4098"/>
<stop offset="1" stop-color="#FF4A56"/>
</linearGradient>
</defs>
</svg>
