<svg width="40" height="40" viewBox="0 0 40 40" fill="none" xmlns="http://www.w3.org/2000/svg">
<path fill-rule="evenodd" clip-rule="evenodd" d="M17.9876 11.0509C14.5506 11.0509 11.7772 13.8244 11.7772 17.2613V18.5935H8.0813C5.31052 18.5935 3.05282 20.8512 3.05282 23.6219C3.05282 26.3927 5.31052 28.6504 8.0813 28.6504H26.755C29.5812 28.6504 31.7835 26.5751 31.7835 23.8583H33.8891C33.8891 27.846 30.6332 30.756 26.755 30.756H8.0813C4.14762 30.756 0.947205 27.5556 0.947205 23.6219C0.947205 19.6883 4.14762 16.4878 8.0813 16.4878H9.70693C10.0959 12.252 13.6486 8.94531 17.9876 8.94531C22.5874 8.94531 26.3036 12.6615 26.3036 17.2613V18.6151H24.198V17.2613C24.198 13.8244 21.4245 11.0509 17.9876 11.0509Z" fill="black"/>
<path d="M39.9704 18.5903V16.4844C36.6182 16.4844 33.8891 19.2134 33.8891 22.5657H35.995C35.995 20.3738 37.7786 18.5903 39.9704 18.5903Z" fill="url(#paint0_linear_2710_5335)"/>
<path d="M27.7864 16.4844V18.5903C29.9782 18.5903 31.7618 20.3738 31.7618 22.5657H33.8677C33.8892 19.2134 31.1386 16.4844 27.7864 16.4844Z" fill="url(#paint1_linear_2710_5335)"/>
<defs>
<linearGradient id="paint0_linear_2710_5335" x1="26.2703" y1="19.5212" x2="39.4511" y2="19.5212" gradientUnits="userSpaceOnUse">
<stop offset="0.1069" stop-color="#0F26AA"/>
<stop offset="0.8803" stop-color="#FF4A56"/>
</linearGradient>
<linearGradient id="paint1_linear_2710_5335" x1="26.2704" y1="19.5212" x2="39.4511" y2="19.5212" gradientUnits="userSpaceOnUse">
<stop offset="0.1069" stop-color="#0F26AA"/>
<stop offset="0.8803" stop-color="#FF4A56"/>
</linearGradient>
</defs>
</svg>
