<svg width="68" height="58" viewBox="0 0 68 58" fill="none" xmlns="http://www.w3.org/2000/svg">
<path d="M65.2481 7.929V3C57.4314 3 51.0586 9.37284 51.0586 17.1895H55.9876C55.9876 12.0614 60.1698 7.929 65.2481 7.929Z" fill="url(#paint0_linear_5672_25853)"/>
<path d="M36.8672 3V7.929C41.9953 7.929 46.1277 12.1112 46.1277 17.1895H51.0567C51.0567 9.37284 44.6839 3 36.8672 3Z" fill="url(#paint1_linear_5672_25853)"/>
<path fill-rule="evenodd" clip-rule="evenodd" d="M7.44106 7.97949H32.9222L32.8438 3.10156L2.5625 3.10156V29.8868C2.5625 36.1851 5.53869 43.011 10.6871 46.9581L10.7638 47.0169L26.3158 57.0929L41.8958 46.9249L41.9554 46.8806C47.8978 42.4647 51.2046 36.7038 51.2046 29.6876V21.2237H46.326V29.6876C46.326 34.8985 43.9756 39.2803 39.1038 42.9215L26.3061 51.2736L13.5823 43.03C9.81133 40.0947 7.44106 34.8088 7.44106 29.8868V7.97949Z" fill="black"/>
<defs>
<linearGradient id="paint0_linear_5672_25853" x1="33.3366" y1="10.0892" x2="64.0497" y2="10.0892" gradientUnits="userSpaceOnUse">
<stop offset="0.1069" stop-color="#0F26AA"/>
<stop offset="0.8803" stop-color="#FF4A56"/>
</linearGradient>
<linearGradient id="paint1_linear_5672_25853" x1="33.3346" y1="10.0892" x2="64.0479" y2="10.0892" gradientUnits="userSpaceOnUse">
<stop offset="0.1069" stop-color="#0F26AA"/>
<stop offset="0.8803" stop-color="#FF4A56"/>
</linearGradient>
</defs>
</svg>
