<svg width="40" height="40" viewBox="0 0 40 40" fill="none" xmlns="http://www.w3.org/2000/svg">
<path fill-rule="evenodd" clip-rule="evenodd" d="M9.06981 11.3631C10.5558 7.4847 14.3189 3.75 20 3.75C26.1203 3.75 31.2537 8.13193 32.3627 15.1075C33.9548 15.3453 35.6331 15.9478 37.0191 17.0076C38.7543 18.3346 40 20.3637 40 23.125C40 27.7542 36.0499 30.9068 31.6945 31.0037L31.6389 28.5043C34.9285 28.4311 37.5 26.1199 37.5 23.125C37.5 21.2129 36.6754 19.892 35.5004 18.9935C34.2852 18.0642 32.6674 17.5755 31.185 17.4983C30.5681 17.4662 30.0671 16.9882 30.0061 16.3735C29.3682 9.94801 24.993 6.25 20 6.25C15.2766 6.25 12.21 9.53463 11.1958 12.8642C11.0488 13.3467 10.6262 13.6936 10.1244 13.7438C5.9205 14.1642 2.5 17.0388 2.5 21.5962C2.5 25.3483 5.25407 28.504 8.33333 28.504V31.004C3.49566 31.004 0 26.3183 0 21.5962C0 15.7847 4.22592 12.1655 9.06981 11.3631Z" fill="#0F26AA"/>
<path d="M20.6601 31.0423C20.4458 31.0582 20.2295 31.0661 20.0111 31.0661C19.7455 31.0661 19.483 31.054 19.2235 31.0311C17.9398 30.9173 16.6958 30.5274 15.5768 29.8881C14.4578 29.2488 13.4902 28.3752 12.7403 27.3271C12.7205 27.299 12.6939 27.2763 12.663 27.2612C12.6321 27.2461 12.5978 27.2391 12.5635 27.2409C12.5291 27.2426 12.4957 27.2531 12.4665 27.2713C12.4373 27.2895 12.4132 27.3148 12.3965 27.3449L8.74023 33.916C8.60109 34.1699 8.57926 34.4746 8.72602 34.7224C8.80241 34.8453 8.90884 34.9467 9.03526 35.017C9.16169 35.0874 9.30395 35.1244 9.44863 35.1246H13.4096C13.5475 35.1195 13.6844 35.1513 13.806 35.2167C13.9275 35.2822 14.0295 35.3788 14.1012 35.4968L16.0644 38.7808C16.1363 38.9027 16.2382 39.004 16.3605 39.0752C16.4827 39.1463 16.6212 39.1848 16.7627 39.1871C17.0643 39.1703 17.3766 38.9743 17.502 38.6996L20.8592 31.3287C20.8737 31.2967 20.8796 31.2614 20.8764 31.2264C20.8732 31.1914 20.861 31.1579 20.8409 31.129C20.8209 31.1001 20.7937 31.077 20.762 31.0618C20.7303 31.0466 20.6952 31.0399 20.6601 31.0423V31.0423Z" fill="#047FFE"/>
<path d="M31.2551 33.9002L27.6227 27.3408C27.6059 27.311 27.5819 27.286 27.5529 27.268C27.5238 27.2499 27.4907 27.2395 27.4566 27.2377C27.4225 27.2359 27.3884 27.2427 27.3576 27.2575C27.3268 27.2724 27.3003 27.2947 27.2804 27.3225C26.2815 28.7221 24.9011 29.8048 23.3038 30.4415C23.1076 30.5188 22.949 30.6689 22.8609 30.8605L20.9892 34.9788C20.9651 35.0314 20.9526 35.0886 20.9526 35.1464C20.9526 35.2042 20.9651 35.2614 20.9892 35.314L22.5263 38.6955C22.6507 38.9702 22.9625 39.1708 23.2636 39.1876C23.4052 39.1841 23.5435 39.1443 23.6653 39.0721C23.7871 38.9999 23.8883 38.8977 23.9593 38.7752L25.9159 35.4958C26.0627 35.2495 26.3288 35.1235 26.6157 35.1251H30.6157C30.9545 35.1251 31.2109 34.9483 31.3267 34.6172C31.3674 34.4997 31.382 34.3747 31.3697 34.2509C31.3573 34.1271 31.3182 34.0074 31.2551 33.9002V33.9002Z" fill="#047FFE"/>
<path d="M20.0131 24.564C21.3596 24.564 22.4511 23.4727 22.4511 22.1265C22.4511 20.7803 21.3596 19.689 20.0131 19.689C18.6666 19.689 17.5751 20.7803 17.5751 22.1265C17.5751 23.4727 18.6666 24.564 20.0131 24.564Z" fill="#047FFE"/>
<path d="M20.0131 14.8126C15.9801 14.8126 12.7007 18.0925 12.7007 22.1251C12.7007 26.1576 15.9816 29.4376 20.0131 29.4376C24.0447 29.4376 27.3256 26.1571 27.3256 22.1251C27.3256 18.093 24.0457 14.8126 20.0131 14.8126ZM20.0131 26.1876C19.2097 26.1876 18.4242 25.9493 17.7561 25.5029C17.0881 25.0565 16.5674 24.422 16.2599 23.6797C15.9524 22.9374 15.872 22.1206 16.0287 21.3325C16.1855 20.5445 16.5724 19.8206 17.1405 19.2524C17.7087 18.6843 18.4325 18.2974 19.2206 18.1406C20.0086 17.9839 20.8255 18.0643 21.5678 18.3718C22.3101 18.6793 22.9446 19.2 23.391 19.8681C23.8374 20.5361 24.0756 21.3216 24.0756 22.1251C24.0743 23.2021 23.6459 24.2346 22.8843 24.9962C22.1227 25.7578 21.0902 26.1862 20.0131 26.1876V26.1876Z" fill="#047FFE"/>
</svg>
