<svg width="21" height="21" viewBox="0 0 21 21" fill="none" xmlns="http://www.w3.org/2000/svg">
<g clip-path="url(#clip0_3434_13483)">
<path d="M19.7473 11.1254C19.8384 10.3999 19.8384 9.66585 19.7473 8.94037L16.8062 8.06737C16.6724 7.61993 16.4918 7.18787 16.2673 6.77837L17.7203 4.11137C17.2577 3.53791 16.7317 3.01861 16.1523 2.56337L13.4522 3.99937C13.0357 3.77825 12.5978 3.6 12.1452 3.46738L11.2633 0.567367C10.528 0.477544 9.78455 0.477544 9.04928 0.567367L8.1672 3.46738C7.71403 3.59867 7.27594 3.77731 6.8602 4.00037L4.16024 2.56438C3.58044 3.01876 3.05466 3.53815 2.59323 4.11237L4.04721 6.77637C3.8233 7.18651 3.64272 7.61885 3.50827 8.06638L0.566251 8.93938C0.475312 9.66487 0.475312 10.3989 0.566251 11.1244L3.50729 11.9954C3.64154 12.4433 3.82213 12.876 4.04623 13.2864L2.59225 15.9524C3.05426 16.5264 3.58033 17.0458 4.16024 17.5004L6.8602 16.0654C7.27659 16.2868 7.71454 16.4651 8.1672 16.5974L9.04928 19.4974C9.78455 19.5872 10.528 19.5872 11.2633 19.4974L12.1452 16.5974C12.5979 16.4649 13.0358 16.2867 13.4522 16.0654L16.1523 17.5004C16.7319 17.045 17.2579 16.5254 17.7203 15.9514L16.2683 13.2854C16.4923 12.8753 16.6729 12.4429 16.8072 11.9954L19.7473 11.1254Z" stroke="#0F26AA" stroke-miterlimit="10"/>
<path d="M12.2114 12.0819C13.3439 10.9493 13.3439 9.11316 12.2114 7.98064C11.0789 6.84812 9.2427 6.84812 8.11018 7.98064C6.97766 9.11316 6.97766 10.9493 8.11018 12.0819C9.2427 13.2144 11.0789 13.2144 12.2114 12.0819Z" stroke="#0F26AA" stroke-miterlimit="10"/>
</g>
<defs>
<clipPath id="clip0_3434_13483">
<rect width="20.32" height="20.073" fill="white"/>
</clipPath>
</defs>
</svg>
