<svg width="40" height="41" viewBox="0 0 40 41" fill="none" xmlns="http://www.w3.org/2000/svg">
<path fill-rule="evenodd" clip-rule="evenodd" d="M9.06981 11.6155C10.5558 7.73714 14.3189 4.00244 20 4.00244C26.1203 4.00244 31.2537 8.38438 32.3627 15.3599C33.9548 15.5978 35.6331 16.2002 37.0191 17.2601C38.7543 18.587 40 20.6161 40 23.3774C40 28.0067 36.0499 31.1592 31.6945 31.2561L31.6389 28.7567C34.9285 28.6836 37.5 26.3723 37.5 23.3774C37.5 21.4653 36.6754 20.1444 35.5004 19.246C34.2852 18.3167 32.6674 17.828 31.185 17.7507C30.5681 17.7186 30.0671 17.2407 30.0061 16.6259C29.3682 10.2005 24.993 6.50244 20 6.50244C15.2766 6.50244 12.21 9.78707 11.1958 13.1167C11.0488 13.5992 10.6262 13.946 10.1244 13.9962C5.9205 14.4166 2.5 17.2913 2.5 21.8486C2.5 25.6008 5.25407 28.7564 8.33333 28.7564V31.2564C3.49566 31.2564 0 26.5708 0 21.8486C0 16.0371 4.22592 12.418 9.06981 11.6155Z" fill="#0F26AA"/>
<path fill-rule="evenodd" clip-rule="evenodd" d="M19.4859 18.1757C19.813 18.028 20.1878 18.028 20.5149 18.1757C23.8921 19.7009 25.3822 20.18 29.1199 20.8505C29.6865 20.9521 30.1105 21.4276 30.1467 22.0021C30.8983 33.9139 21.2142 38.0487 20.4674 38.3494C20.1677 38.4701 19.833 38.4701 19.5334 38.3494C18.7866 38.0487 9.10249 33.9139 9.85405 22.0021C9.8903 21.4276 10.3142 20.9521 10.8809 20.8505C14.6186 20.18 16.1087 19.7009 19.4859 18.1757ZM12.314 23.1274C12.2413 31.4318 18.213 34.9533 20.0004 35.8203C21.7877 34.9533 27.7595 31.4318 27.6868 23.1274C24.5975 22.5337 22.9194 21.983 20.0004 20.6848C17.0814 21.983 15.4033 22.5337 12.314 23.1274Z" fill="#047FFE"/>
</svg>
