<svg width="40" height="40" viewBox="0 0 40 40" fill="none" xmlns="http://www.w3.org/2000/svg">
<path fill-rule="evenodd" clip-rule="evenodd" d="M9.06981 11.3631C10.5558 7.4847 14.3189 3.75 20 3.75C26.1203 3.75 31.2537 8.13193 32.3627 15.1075C33.9548 15.3453 35.6331 15.9478 37.0191 17.0076C38.7543 18.3346 40 20.3637 40 23.125C40 27.7542 36.0499 30.9068 31.6945 31.0037L31.6389 28.5043C34.9285 28.4311 37.5 26.1199 37.5 23.125C37.5 21.2129 36.6754 19.892 35.5004 18.9935C34.2852 18.0642 32.6674 17.5755 31.185 17.4983C30.5681 17.4662 30.0671 16.9882 30.0061 16.3735C29.3682 9.94801 24.993 6.25 20 6.25C15.2766 6.25 12.21 9.53463 11.1958 12.8642C11.0488 13.3467 10.6262 13.6936 10.1244 13.7438C5.9205 14.1642 2.5 17.0388 2.5 21.5962C2.5 25.3483 5.25407 28.504 8.33333 28.504V31.004C3.49566 31.004 0 26.3183 0 21.5962C0 15.7847 4.22592 12.1655 9.06981 11.3631Z" fill="#0F26AA"/>
<path d="M29.0519 32.7083L21.063 17.8724C20.4968 16.8205 18.9883 16.8205 18.4216 17.8724L10.4332 32.7083C10.3102 32.9367 10.2486 33.193 10.2543 33.4523C10.26 33.7116 10.3328 33.965 10.4656 34.1877C10.5984 34.4105 10.7868 34.595 11.0122 34.7232C11.2376 34.8514 11.4924 34.9191 11.7518 34.9194H27.731C27.9905 34.9195 28.2456 34.8521 28.4714 34.7241C28.6971 34.596 28.8858 34.4115 29.0189 34.1887C29.152 33.9659 29.225 33.7124 29.2308 33.4529C29.2366 33.1934 29.175 32.9369 29.0519 32.7083V32.7083ZM19.7425 32.6225C19.5571 32.6225 19.3759 32.5676 19.2217 32.4646C19.0675 32.3615 18.9474 32.2151 18.8764 32.0438C18.8054 31.8725 18.7869 31.684 18.8231 31.5022C18.8592 31.3203 18.9485 31.1532 19.0796 31.0221C19.2107 30.891 19.3778 30.8017 19.5596 30.7656C19.7415 30.7294 19.93 30.748 20.1013 30.8189C20.2726 30.8899 20.419 31.01 20.522 31.1642C20.6251 31.3184 20.68 31.4996 20.68 31.685C20.68 31.8082 20.6558 31.9301 20.6087 32.0438C20.5616 32.1576 20.4925 32.2609 20.4055 32.348C20.3184 32.435 20.215 32.5041 20.1013 32.5512C19.9876 32.5983 19.8657 32.6225 19.7425 32.6225ZM20.7607 23.1936L20.4916 28.9124C20.4916 29.1113 20.4126 29.3021 20.2719 29.4427C20.1313 29.5834 19.9405 29.6624 19.7416 29.6624C19.5427 29.6624 19.3519 29.5834 19.2113 29.4427C19.0706 29.3021 18.9916 29.1113 18.9916 28.9124L18.7225 23.196C18.7165 23.0594 18.738 22.923 18.7858 22.7949C18.8336 22.6668 18.9067 22.5496 19.0008 22.4503C19.0948 22.3511 19.2079 22.2718 19.3332 22.2172C19.4586 22.1625 19.5936 22.1337 19.7304 22.1324H19.7402C19.8779 22.1323 20.0141 22.1601 20.1407 22.2142C20.2673 22.2682 20.3817 22.3473 20.4769 22.4468C20.5721 22.5462 20.6461 22.6639 20.6946 22.7928C20.743 22.9216 20.7649 23.0589 20.7588 23.1965L20.7607 23.1936Z" fill="#047FFE"/>
</svg>
