<svg width="40" height="40" viewBox="0 0 40 40" fill="none" xmlns="http://www.w3.org/2000/svg">
<path fill-rule="evenodd" clip-rule="evenodd" d="M9.06981 11.3631C10.5558 7.4847 14.3189 3.75 20 3.75C26.1203 3.75 31.2537 8.13193 32.3627 15.1075C33.9548 15.3453 35.6331 15.9478 37.0191 17.0076C38.7543 18.3346 40 20.3637 40 23.125C40 27.7542 36.0499 30.9068 31.6945 31.0037L31.6389 28.5043C34.9285 28.4311 37.5 26.1199 37.5 23.125C37.5 21.2129 36.6754 19.892 35.5004 18.9935C34.2852 18.0642 32.6674 17.5755 31.185 17.4983C30.5681 17.4662 30.0671 16.9882 30.0061 16.3735C29.3682 9.94801 24.993 6.25 20 6.25C15.2766 6.25 12.21 9.53463 11.1958 12.8642C11.0488 13.3467 10.6262 13.6936 10.1244 13.7438C5.9205 14.1642 2.5 17.0388 2.5 21.5962C2.5 25.3483 5.25407 28.504 8.33333 28.504V31.004C3.49566 31.004 0 26.3183 0 21.5962C0 15.7847 4.22592 12.1655 9.06981 11.3631Z" fill="#0F26AA"/>
<path fill-rule="evenodd" clip-rule="evenodd" d="M16.1698 12.8365C17.1856 11.8207 18.5634 11.25 20 11.25C21.4366 11.25 22.8143 11.8207 23.8301 12.8365C24.846 13.8523 25.4166 15.2301 25.4166 16.6667V21.6146C25.4166 22.3049 24.857 22.8646 24.1666 22.8646C23.4763 22.8646 22.9166 22.3049 22.9166 21.6146V16.6667C22.9166 15.8931 22.6094 15.1513 22.0624 14.6043C21.5154 14.0573 20.7735 13.75 20 13.75C19.2264 13.75 18.4846 14.0573 17.9376 14.6043C17.3906 15.1513 17.0833 15.8931 17.0833 16.6667V21.6146C17.0833 22.3049 16.5237 22.8646 15.8333 22.8646C15.143 22.8646 14.5833 22.3049 14.5833 21.6146V16.6667C14.5833 15.2301 15.154 13.8523 16.1698 12.8365Z" fill="#047FFE"/>
<path fill-rule="evenodd" clip-rule="evenodd" d="M14.1667 23.6979C13.2383 23.6979 12.9167 24.2761 12.9167 24.5068V32.0558C12.9167 32.2864 13.2383 32.8646 14.1667 32.8646H25.8334C26.7617 32.8646 27.0834 32.2864 27.0834 32.0558V24.5068C27.0834 24.2761 26.7617 23.6979 25.8334 23.6979H14.1667ZM10.4167 24.5068C10.4167 22.4633 12.3336 21.1979 14.1667 21.1979H25.8334C27.6664 21.1979 29.5834 22.4633 29.5834 24.5068V32.0558C29.5834 34.0993 27.6664 35.3646 25.8334 35.3646H14.1667C12.3336 35.3646 10.4167 34.0993 10.4167 32.0558V24.5068Z" fill="#047FFE"/>
</svg>
