<svg width="40" height="40" viewBox="0 0 40 40" fill="none" xmlns="http://www.w3.org/2000/svg">
<path fill-rule="evenodd" clip-rule="evenodd" d="M9.06981 11.3631C10.5558 7.4847 14.3189 3.75 20 3.75C26.1203 3.75 31.2537 8.13193 32.3627 15.1075C33.9548 15.3453 35.6331 15.9478 37.0191 17.0076C38.7543 18.3346 40 20.3637 40 23.125C40 27.6457 36.2329 30.7582 32 30.9919C31.8984 30.9975 26.7966 31.0014 26.6945 31.0037L27.6389 28.5043C27.7603 28.5016 31.8807 28.4959 32 28.4871C35.1148 28.2596 37.5 26.0094 37.5 23.125C37.5 21.2129 36.6754 19.892 35.5004 18.9935C34.2852 18.0642 32.6674 17.5755 31.185 17.4983C30.5681 17.4662 30.0671 16.9882 30.0061 16.3735C29.3682 9.94801 24.993 6.25 20 6.25C15.2766 6.25 12.21 9.53463 11.1958 12.8642C11.0488 13.3467 10.6262 13.6936 10.1244 13.7438C5.9205 14.1642 2.5 17.0388 2.5 21.5962C2.5 25.2124 5.0581 28.2745 8 28.4917C8.11061 28.4999 11.2218 28.504 11.3333 28.504L12.3333 31.004C12.2215 31.004 8.11038 31.0015 8 30.9965C3.3359 30.7873 0 26.2092 0 21.5962C0 15.7847 4.22592 12.1655 9.06981 11.3631Z" fill="#0F26AA"/>
<path fill-rule="evenodd" clip-rule="evenodd" d="M11.2603 20.0306C11.2603 15.6155 15.008 12.1328 19.4998 12.1328C23.9917 12.1328 27.7394 15.6155 27.7394 20.0306C27.7394 22.4954 26.4191 25.4819 25.0292 27.9913C23.607 30.5592 21.9717 32.8687 21.0957 34.0518C20.9126 34.3017 20.6734 34.5052 20.3972 34.6457C20.1192 34.7872 19.8117 34.861 19.4998 34.861C19.1879 34.861 18.8804 34.7872 18.6025 34.6457C18.3263 34.5052 18.087 34.3017 17.9039 34.0517C17.0279 32.8681 15.3926 30.5578 13.9704 27.9896C12.5807 25.4801 11.2603 22.4937 11.2603 20.0306ZM19.4998 14.5495C16.228 14.5495 13.6769 17.0619 13.6769 20.0306C13.6769 21.8155 14.7003 24.3192 16.0846 26.8189C17.2666 28.9534 18.6148 30.9176 19.4999 32.1405C20.385 30.9181 21.7331 28.9547 22.9151 26.8205C24.2993 24.3213 25.3228 21.8173 25.3228 20.0306C25.3228 17.0619 22.7716 14.5495 19.4998 14.5495Z" fill="#047FFE"/>
<path fill-rule="evenodd" clip-rule="evenodd" d="M19.4998 19.2409C18.8728 19.2409 18.3644 19.7492 18.3644 20.3763C18.3644 21.0034 18.8728 21.5117 19.4998 21.5117C20.1269 21.5117 20.6353 21.0034 20.6353 20.3763C20.6353 19.7492 20.1269 19.2409 19.4998 19.2409ZM15.9478 20.3763C15.9478 18.4145 17.5381 16.8242 19.4998 16.8242C21.4616 16.8242 23.0519 18.4145 23.0519 20.3763C23.0519 22.3381 21.4616 23.9284 19.4998 23.9284C17.5381 23.9284 15.9478 22.3381 15.9478 20.3763Z" fill="#047FFE"/>
</svg>
