<svg width="40" height="40" viewBox="0 0 40 40" fill="none" xmlns="http://www.w3.org/2000/svg">
<path fill-rule="evenodd" clip-rule="evenodd" d="M9.06981 11.3631C10.5558 7.4847 14.3189 3.75 20 3.75C26.1203 3.75 31.2537 8.13193 32.3627 15.1075C33.9548 15.3453 35.6331 15.9478 37.0191 17.0076C38.7543 18.3346 40 20.3637 40 23.125C40 27.7542 36.0499 30.9068 31.6945 31.0037L31.6389 28.5043C34.9285 28.4311 37.5 26.1199 37.5 23.125C37.5 21.2129 36.6754 19.892 35.5004 18.9935C34.2852 18.0642 32.6674 17.5755 31.185 17.4983C30.5681 17.4662 30.0671 16.9882 30.0061 16.3735C29.3682 9.94801 24.993 6.25 20 6.25C15.2766 6.25 12.21 9.53463 11.1958 12.8642C11.0488 13.3467 10.6262 13.6936 10.1244 13.7438C5.9205 14.1642 2.5 17.0388 2.5 21.5962C2.5 25.3483 5.25407 28.504 8.33333 28.504V31.004C3.49566 31.004 0 26.3183 0 21.5962C0 15.7847 4.22592 12.1655 9.06981 11.3631Z" fill="#0F26AA"/>
<path fill-rule="evenodd" clip-rule="evenodd" d="M16.17 12.8365C17.1858 11.8207 18.5636 11.25 20.0002 11.25C21.4368 11.25 22.8145 11.8207 23.8303 12.8365C24.8461 13.8523 25.4168 15.2301 25.4168 16.6667V21.6146C25.4168 22.3049 24.8572 22.8646 24.1668 22.8646C23.4765 22.8646 22.9168 22.3049 22.9168 21.6146V16.6667C22.9168 15.8931 22.6095 15.1513 22.0626 14.6043C21.5156 14.0573 20.7737 13.75 20.0002 13.75C19.2266 13.75 18.4847 14.0573 17.9378 14.6043C17.3908 15.1513 17.0835 15.8931 17.0835 16.6667V21.6146C17.0835 22.3049 16.5239 22.8646 15.8335 22.8646C15.1431 22.8646 14.5835 22.3049 14.5835 21.6146V16.6667C14.5835 15.2301 15.1542 13.8523 16.17 12.8365Z" fill="#047FFE"/>
<path fill-rule="evenodd" clip-rule="evenodd" d="M14.1665 23.6992C13.2381 23.6992 12.9165 24.2774 12.9165 24.508V32.0571C12.9165 32.2877 13.2381 32.8659 14.1665 32.8659H25.8332C26.7615 32.8659 27.0832 32.2877 27.0832 32.0571V24.508C27.0832 24.2774 26.7615 23.6992 25.8332 23.6992H14.1665ZM10.4165 24.508C10.4165 22.4646 12.3334 21.1992 14.1665 21.1992H25.8332C27.6662 21.1992 29.5832 22.4646 29.5832 24.508V32.0571C29.5832 34.1006 27.6662 35.3659 25.8332 35.3659H14.1665C12.3334 35.3659 10.4165 34.1006 10.4165 32.0571V24.508Z" fill="#047FFE"/>
</svg>
