<svg width="40" height="40" viewBox="0 0 40 40" fill="none" xmlns="http://www.w3.org/2000/svg">
<path d="M9.06981 11.3631C10.5558 7.4847 14.3189 3.75 20 3.75C26.1203 3.75 31.2537 8.13193 32.3627 15.1075C33.9548 15.3453 35.6331 15.9478 37.0191 17.0076C38.7543 18.3346 40 20.3637 40 23.125C40 27.6457 36.2329 30.7582 32 30.9919C31.8984 30.9975 24.7966 31.0014 24.6945 31.0037L25.6389 28.5043C25.7603 28.5016 31.8807 28.4959 32 28.4871C35.1148 28.2596 37.5 26.0094 37.5 23.125C37.5 21.2129 36.6754 19.892 35.5004 18.9935C34.2852 18.0642 32.6674 17.5755 31.185 17.4983C30.5681 17.4662 30.0671 16.9882 30.0061 16.3735C29.3682 9.94801 24.993 6.25 20 6.25C15.2766 6.25 12.21 9.53463 11.1958 12.8642C11.0488 13.3467 10.6262 13.6936 10.1244 13.7438C5.9205 14.1642 2.5 17.0388 2.5 21.5962C2.5 24.3545 3.9883 26.7904 6 27.8873L4.6257 30C1.80919 28.3716 0 24.9934 0 21.5962C0 15.7847 4.22592 12.1655 9.06981 11.3631Z" fill="#0F26AA"/>
<path d="M21.7742 13.6093L16.7788 15.0885C16.6234 15.1344 16.4926 15.2399 16.4148 15.3819L9.38448 28.3235C9.23092 28.6079 9.19623 28.9416 9.288 29.2515C9.37978 29.5614 9.59055 29.8224 9.87422 29.9774L16.0365 33.324C16.321 33.4776 16.6547 33.5122 16.9647 33.4204C17.2747 33.3286 17.5358 33.1178 17.6908 32.8341L24.7195 19.8975C24.7963 19.7549 24.8135 19.5877 24.7674 19.4325L23.2874 14.4342C23.2427 14.2804 23.168 14.1369 23.0676 14.0121C22.9672 13.8873 22.8431 13.7836 22.7024 13.7069C22.5618 13.6302 22.4074 13.5821 22.248 13.5654C22.0887 13.5487 21.9277 13.5636 21.7742 13.6093Z" stroke="#047FFE" stroke-width="2.37668" stroke-linecap="round" stroke-linejoin="round"/>
<path d="M21.0368 18.7782C20.7796 18.8543 20.5056 18.8525 20.2494 18.7729C19.9933 18.6934 19.7665 18.5396 19.5977 18.3312C19.4289 18.1227 19.3257 17.8689 19.3012 17.6018C19.2767 17.3347 19.3319 17.0663 19.46 16.8306C19.588 16.5949 19.783 16.4024 20.0204 16.2776C20.2578 16.1527 20.5269 16.101 20.7936 16.1291C21.0604 16.1571 21.3128 16.2637 21.519 16.4352C21.7252 16.6067 21.8759 16.8356 21.9521 17.0928C22.0542 17.4376 22.0151 17.809 21.8435 18.125C21.6718 18.4411 21.3817 18.6761 21.0368 18.7782Z" fill="#047FFE"/>
</svg>
