<svg width="40" height="40" viewBox="0 0 40 40" fill="none" xmlns="http://www.w3.org/2000/svg">
<path fill-rule="evenodd" clip-rule="evenodd" d="M9.06981 11.3631C10.5558 7.4847 14.3189 3.75 20 3.75C26.1203 3.75 31.2537 8.13193 32.3627 15.1075C33.9548 15.3453 35.6331 15.9478 37.0191 17.0076C38.7543 18.3346 40 20.3637 40 23.125C40 27.7542 36.0499 30.9068 31.6945 31.0037L31.6389 28.5043C34.9285 28.4311 37.5 26.1199 37.5 23.125C37.5 21.2129 36.6754 19.892 35.5004 18.9935C34.2852 18.0642 32.6674 17.5755 31.185 17.4983C30.5681 17.4662 30.0671 16.9882 30.0061 16.3735C29.3682 9.94801 24.993 6.25 20 6.25C15.2766 6.25 12.21 9.53463 11.1958 12.8642C11.0488 13.3467 10.6262 13.6936 10.1244 13.7438C5.9205 14.1642 2.5 17.0388 2.5 21.5962C2.5 25.3483 5.25407 28.504 8.33333 28.504V31.004C3.49566 31.004 0 26.3183 0 21.5962C0 15.7847 4.22592 12.1655 9.06981 11.3631Z" fill="#0F26AA"/>
<rect x="11" y="23" width="7" height="7" fill="#047FFE"/>
<circle cx="23" cy="18" r="4" fill="#047FFE"/>
<path d="M25 26L29.3301 33.5H20.6699L25 26Z" fill="#047FFE"/>
</svg>
