<svg width="80" height="80" viewBox="0 0 80 80" fill="none" xmlns="http://www.w3.org/2000/svg">
<path fill-rule="evenodd" clip-rule="evenodd" d="M24.7879 9.84173C24.7879 8.82457 25.6155 8 26.6364 8C27.6573 8 28.4848 8.82457 28.4848 9.84173V11.223H52.5152V9.84173C52.5152 8.82457 53.3427 8 54.3636 8C55.3845 8 56.2121 8.82457 56.2121 9.84173V11.223H67.303C69.3448 11.223 71 12.8722 71 14.9065V68.3165C71 70.3509 69.3448 72 67.303 72H13.697C11.6552 72 10 70.3509 10 68.3165V14.9065C10 12.8722 11.6552 11.223 13.697 11.223H24.7879V9.84173ZM67.303 13.9856H13.697C13.1865 13.9856 12.7727 14.3979 12.7727 14.9065V29.6403H68.2273V14.9065C68.2273 14.3979 67.8135 13.9856 67.303 13.9856ZM12.7727 68.3165V32.4029H68.2273V68.3165C68.2273 68.8251 67.8135 69.2374 67.303 69.2374H13.697C13.1865 69.2374 12.7727 68.8251 12.7727 68.3165ZM46.1015 48.5738C46.6429 48.0344 47.5207 48.0344 48.0621 48.5738L54.2708 54.7598L60.4794 48.5738C61.0208 48.0344 61.8986 48.0344 62.44 48.5738C62.9814 49.1133 62.9814 49.9879 62.44 50.5273L56.2314 56.7132L62.44 62.8991C62.9814 63.4385 62.9814 64.3131 62.44 64.8526C61.8986 65.392 61.0208 65.392 60.4794 64.8526L54.2708 58.6667L48.0622 64.8526C47.5207 65.392 46.6429 65.392 46.1015 64.8526C45.5601 64.3131 45.5601 63.4385 46.1015 62.8991L52.3101 56.7132L46.1015 50.5273C45.5601 49.9879 45.5601 49.1133 46.1015 48.5738ZM52.4068 27.1007C53.1193 26.8417 53.6705 26.4796 54.0604 26.0144V21.8345H49.9229V23.4245H51.8942V25.2302C51.5476 25.5755 50.9675 25.7482 50.154 25.7482C49.3453 25.7482 48.7315 25.4676 48.3127 24.9065C47.8939 24.3453 47.6845 23.5156 47.6845 22.4173V21.7482C47.6894 20.6595 47.8843 19.8393 48.2694 19.2878C48.6545 18.7362 49.2153 18.4604 49.9518 18.4604C50.5295 18.4604 50.982 18.5995 51.3093 18.8777C51.6415 19.1559 51.8557 19.5947 51.9519 20.1942H54.0604C53.9304 19.0624 53.514 18.2014 52.8112 17.6115C52.1084 17.0168 51.1336 16.7194 49.8868 16.7194C48.9915 16.7194 48.2092 16.9233 47.5401 17.3309C46.8758 17.7338 46.3656 18.3189 46.0094 19.0863C45.6579 19.8489 45.4822 20.753 45.4822 21.7986V22.5108C45.4919 23.5276 45.682 24.4125 46.0527 25.1655C46.4281 25.9185 46.9577 26.494 47.6412 26.8921C48.3296 27.2854 49.1287 27.482 50.0385 27.482C50.9049 27.482 51.6944 27.3549 52.4068 27.1007ZM32.1241 25.1799H28.326L27.6039 27.3381H25.3005L29.2141 16.8633H31.2215L35.1567 27.3381H32.8533L32.1241 25.1799ZM28.9109 23.4317H31.5392L30.2178 19.5108L28.9109 23.4317ZM43.9659 16.8633V23.7626C43.9659 24.9089 43.6049 25.8153 42.8828 26.482C42.1656 27.1487 41.1836 27.482 39.9368 27.482C38.7093 27.482 37.7345 27.1583 37.0124 26.5108C36.2904 25.8633 35.9221 24.9736 35.9077 23.8417V16.8633H38.0739V23.777C38.0739 24.4628 38.2375 24.964 38.5649 25.2806C38.897 25.5923 39.3543 25.7482 39.9368 25.7482C41.1547 25.7482 41.7732 25.1103 41.7925 23.8345V16.8633H43.9659Z" fill="white"/>
</svg>
