<svg width="144" height="86" viewBox="0 0 144 86" fill="none" xmlns="http://www.w3.org/2000/svg">
<path fill-rule="evenodd" clip-rule="evenodd" d="M27 14.0625H88.894V20.3932H33.3307V63.0354H105.757V37.1917H112.088V69.3661H27V14.0625Z" fill="black"/>
<path d="M130.57 20.3962V14C120.426 14 112.156 22.2698 112.156 32.4133H118.552C118.488 25.8232 123.915 20.3962 130.57 20.3962Z" fill="url(#paint0_linear_5536_21685)"/>
<path d="M93.7422 14.0703V20.4665C100.397 20.4665 105.759 25.8936 105.759 32.4836H112.155C112.155 22.2755 103.886 14.0703 93.7422 14.0703Z" fill="url(#paint1_linear_5536_21685)"/>
<path fill-rule="evenodd" clip-rule="evenodd" d="M28.2305 19.7296L32.0995 14.7188L69.5751 43.6548L88.9611 28.6748L92.832 33.6842L69.5766 51.6543L28.2305 19.7296Z" fill="black"/>
<defs>
<linearGradient id="paint0_linear_5536_21685" x1="89.1235" y1="23.2449" x2="128.979" y2="23.2449" gradientUnits="userSpaceOnUse">
<stop offset="0.1069" stop-color="#0F26AA"/>
<stop offset="0.8803" stop-color="#FF4A56"/>
</linearGradient>
<linearGradient id="paint1_linear_5536_21685" x1="89.1228" y1="23.2506" x2="128.978" y2="23.2506" gradientUnits="userSpaceOnUse">
<stop offset="0.1069" stop-color="#0F26AA"/>
<stop offset="0.8803" stop-color="#FF4A56"/>
</linearGradient>
</defs>
</svg>
