<svg width="44" height="45" viewBox="0 0 44 45" fill="none" xmlns="http://www.w3.org/2000/svg">
<path d="M38.3727 26.8355C38.1316 26.5929 37.807 26.457 37.4688 26.457H22.5884C20.9633 21.7518 16.615 18.5469 11.6875 18.5469C5.24305 18.5469 0 23.8696 0 30.4121C0 36.9546 5.24305 42.2773 11.6875 42.2773C13.7519 42.2773 15.7777 41.7085 17.5458 40.6324C19.0328 39.7274 20.3128 38.4822 21.2829 37.0039H24.0442L26.2447 39.2544C26.748 39.7693 27.5643 39.7693 28.0677 39.2544L29.7344 37.55L31.401 39.2544C31.9044 39.7693 32.7206 39.7693 33.224 39.2544L34.8906 37.55L36.5573 39.2544C37.0579 39.7665 37.8683 39.7697 38.3727 39.2621L43.6149 33.9886C43.8613 33.7408 44 33.4021 44 33.0487C44 32.6953 43.8613 32.3567 43.6149 32.1088L38.3727 26.8355ZM37.4762 36.4655L35.8022 34.7534C35.2988 34.2385 34.4826 34.2385 33.9792 34.7534L32.3125 36.4578L30.6458 34.7534C30.1425 34.2385 29.3263 34.2385 28.8228 34.7534L27.1562 36.4578L25.4896 34.7534C25.2479 34.5061 24.9201 34.3672 24.5781 34.3672H20.5696C20.1106 34.3672 19.6863 34.6167 19.4554 35.0224C17.8099 37.9142 14.906 39.6406 11.6875 39.6406C6.66462 39.6406 2.57812 35.5007 2.57812 30.4121C2.57812 25.3235 6.66462 21.1836 11.6875 21.1836C15.7778 21.1836 19.3554 24.0302 20.3876 28.1059C20.5349 28.6876 21.048 29.0938 21.6355 29.0938H36.9411L40.8727 33.0488L37.4762 36.4655Z" fill="black"/>
<path d="M9.10938 26.4531C6.97701 26.4531 5.24219 28.2274 5.24219 30.4082C5.24219 32.589 6.97701 34.3633 9.10938 34.3633C11.2417 34.3633 12.9766 32.589 12.9766 30.4082C12.9766 28.2274 11.2417 26.4531 9.10938 26.4531ZM9.10938 31.7266C8.39859 31.7266 7.82031 31.1351 7.82031 30.4082C7.82031 29.6813 8.39859 29.0898 9.10938 29.0898C9.82016 29.0898 10.3984 29.6813 10.3984 30.4082C10.3984 31.1351 9.82016 31.7266 9.10938 31.7266Z" fill="black"/>
<path d="M12.9766 11.9551V6.68164C12.9766 4.50081 11.2417 2.72656 9.10938 2.72656C6.97701 2.72656 5.24219 4.50081 5.24219 6.68164V11.9551C5.24219 14.1359 6.97701 15.9102 9.10938 15.9102C11.2417 15.9102 12.9766 14.1359 12.9766 11.9551ZM7.82031 11.9551V6.68164C7.82031 5.9547 8.39859 5.36328 9.10938 5.36328C9.82016 5.36328 10.3984 5.9547 10.3984 6.68164V11.9551C10.3984 12.682 9.82016 13.2734 9.10938 13.2734C8.39859 13.2734 7.82031 12.682 7.82031 11.9551Z" fill="black"/>
<path d="M1.28906 15.9102C2.00097 15.9102 2.57812 15.3199 2.57812 14.5918V4.04492C2.57812 3.31684 2.00097 2.72656 1.28906 2.72656C0.577156 2.72656 0 3.31684 0 4.04492V14.5918C0 15.3199 0.577156 15.9102 1.28906 15.9102Z" fill="black"/>
<path d="M33.6016 11.9551V6.68164C33.6016 4.50081 31.8667 2.72656 29.7344 2.72656C27.602 2.72656 25.8672 4.50081 25.8672 6.68164V11.9551C25.8672 14.1359 27.602 15.9102 29.7344 15.9102C31.8667 15.9102 33.6016 14.1359 33.6016 11.9551ZM28.4453 11.9551V6.68164C28.4453 5.9547 29.0236 5.36328 29.7344 5.36328C30.4452 5.36328 31.0234 5.9547 31.0234 6.68164V11.9551C31.0234 12.682 30.4452 13.2734 29.7344 13.2734C29.0236 13.2734 28.4453 12.682 28.4453 11.9551Z" fill="black"/>
<path d="M18.1328 14.5918V4.04492C18.1328 3.31684 17.5557 2.72656 16.8438 2.72656C16.1318 2.72656 15.5547 3.31684 15.5547 4.04492V14.5918C15.5547 15.3199 16.1318 15.9102 16.8438 15.9102C17.5557 15.9102 18.1328 15.3199 18.1328 14.5918Z" fill="black"/>
<path d="M23.2891 14.5918V4.04492C23.2891 3.31684 22.7119 2.72656 22 2.72656C21.2881 2.72656 20.7109 3.31684 20.7109 4.04492V14.5918C20.7109 15.3199 21.2881 15.9102 22 15.9102C22.7119 15.9102 23.2891 15.3199 23.2891 14.5918Z" fill="black"/>
<path d="M38.7578 14.5918V4.04492C38.7578 3.31684 38.1807 2.72656 37.4688 2.72656C36.7568 2.72656 36.1797 3.31684 36.1797 4.04492V14.5918C36.1797 15.3199 36.7568 15.9102 37.4688 15.9102C38.1807 15.9102 38.7578 15.3199 38.7578 14.5918Z" fill="black"/>
<path d="M42.7109 2.72656C41.999 2.72656 41.4219 3.31684 41.4219 4.04492V14.5918C41.4219 15.3199 41.999 15.9102 42.7109 15.9102C43.4228 15.9102 44 15.3199 44 14.5918V4.04492C44 3.31684 43.4228 2.72656 42.7109 2.72656Z" fill="black"/>
</svg>
