<svg width="34" height="29" viewBox="0 0 34 29" fill="none" xmlns="http://www.w3.org/2000/svg">
<path fill-rule="evenodd" clip-rule="evenodd" d="M6.43406 5.79004C5.38748 5.79004 4.53906 4.94162 4.53906 3.89504C4.53906 2.84846 5.38748 2.00004 6.43406 2.00004C7.48064 2.00004 8.32906 2.84846 8.32906 3.89504C8.32906 4.94162 7.48064 5.79004 6.43406 5.79004ZM2.53906 3.89504C2.53906 6.04619 4.28291 7.79004 6.43406 7.79004C8.58521 7.79004 10.3291 6.04619 10.3291 3.89504C10.3291 1.74389 8.58521 3.91006e-05 6.43406 3.91006e-05C4.28291 3.91006e-05 2.53906 1.74389 2.53906 3.89504ZM4.53906 13.0156C4.53906 14.0622 5.38748 14.9106 6.43406 14.9106C7.48064 14.9106 8.32906 14.0622 8.32906 13.0156C8.32906 11.9691 7.48064 11.1206 6.43406 11.1206C5.38748 11.1206 4.53906 11.9691 4.53906 13.0156ZM6.43406 16.9106C4.28291 16.9106 2.53906 15.1668 2.53906 13.0156C2.53906 10.8645 4.28291 9.12064 6.43406 9.12064C8.58521 9.12064 10.3291 10.8645 10.3291 13.0156C10.3291 15.1668 8.58521 16.9106 6.43406 16.9106ZM3.31795 21.019C2.47407 20.1751 2 19.0304 2 17.8369H0C0 19.5608 0.684713 21.2142 1.90373 22.4332C3.12275 23.6522 4.77614 24.3369 6.5 24.3369H11.0342C12.2277 24.3369 13.3724 24.811 14.2162 25.6549C15.0601 26.4987 15.5342 27.6434 15.5342 28.8369H15.5352H17.5342H17.5352C17.5352 27.6434 18.0092 26.4987 18.8531 25.6549C19.697 24.811 20.8416 24.3369 22.0352 24.3369H26.5693C28.2932 24.3369 29.9466 23.6522 31.1656 22.4332C32.3846 21.2142 33.0693 19.5608 33.0693 17.8369H31.0693C31.0693 19.0304 30.5953 20.1751 29.7514 21.019C28.9075 21.8628 27.7629 22.3369 26.5693 22.3369H22.0352C20.3113 22.3369 18.6579 23.0216 17.4389 24.2406C17.0934 24.5861 16.7909 24.9664 16.5347 25.3734C16.2785 24.9664 15.9759 24.5861 15.6304 24.2406C14.4114 23.0216 12.758 22.3369 11.0342 22.3369H6.5C5.30648 22.3369 4.16183 21.8628 3.31795 21.019ZM16.5356 14.9106C15.489 14.9106 14.6406 14.0622 14.6406 13.0156C14.6406 11.9691 15.489 11.1206 16.5356 11.1206C17.5822 11.1206 18.4306 11.9691 18.4306 13.0156C18.4306 14.0622 17.5822 14.9106 16.5356 14.9106ZM12.6406 13.0156C12.6406 15.1668 14.3845 16.9106 16.5356 16.9106C18.6868 16.9106 20.4306 15.1668 20.4306 13.0156C20.4306 10.8645 18.6868 9.12064 16.5356 9.12064C14.3845 9.12064 12.6406 10.8645 12.6406 13.0156ZM24.7402 13.0156C24.7402 14.0622 25.5887 14.9106 26.6352 14.9106C27.6818 14.9106 28.5302 14.0622 28.5302 13.0156C28.5302 11.9691 27.6818 11.1206 26.6352 11.1206C25.5887 11.1206 24.7402 11.9691 24.7402 13.0156ZM26.6352 16.9106C24.4841 16.9106 22.7402 15.1668 22.7402 13.0156C22.7402 10.8645 24.4841 9.12064 26.6352 9.12064C28.7864 9.12064 30.5302 10.8645 30.5302 13.0156C30.5302 15.1668 28.7864 16.9106 26.6352 16.9106ZM14.6406 3.89504C14.6406 4.94162 15.489 5.79004 16.5356 5.79004C17.5822 5.79004 18.4306 4.94162 18.4306 3.89504C18.4306 2.84846 17.5822 2.00004 16.5356 2.00004C15.489 2.00004 14.6406 2.84846 14.6406 3.89504ZM16.5356 7.79004C14.3845 7.79004 12.6406 6.04619 12.6406 3.89504C12.6406 1.74389 14.3845 3.91006e-05 16.5356 3.91006e-05C18.6868 3.91006e-05 20.4306 1.74389 20.4306 3.89504C20.4306 6.04619 18.6868 7.79004 16.5356 7.79004ZM26.6352 5.79004C25.5887 5.79004 24.7402 4.94162 24.7402 3.89504C24.7402 2.84846 25.5887 2.00004 26.6352 2.00004C27.6818 2.00004 28.5302 2.84846 28.5302 3.89504C28.5302 4.94162 27.6818 5.79004 26.6352 5.79004ZM22.7402 3.89504C22.7402 6.04619 24.4841 7.79004 26.6352 7.79004C28.7864 7.79004 30.5302 6.04619 30.5302 3.89504C30.5302 1.74389 28.7864 3.91006e-05 26.6352 3.91006e-05C24.4841 3.91006e-05 22.7402 1.74389 22.7402 3.89504Z" fill="black"/>
</svg>
