<svg width="26" height="26" viewBox="0 0 26 26" fill="none" xmlns="http://www.w3.org/2000/svg">
<path fill-rule="evenodd" clip-rule="evenodd" d="M1 0H0V1V25.001V26.001H1H24.066H25.066V25.001V1V0H24.066H1ZM2 22.5323V2H23.066V4.23278L22.8489 3.98427L14.4557 11.3179H8.69775H8.10463L7.82022 11.8384L8.69775 12.3179C7.82022 11.8384 7.8202 11.8384 7.82015 11.8385L7.81993 11.8389L7.81907 11.8405L7.81564 11.8467L7.8021 11.8715L7.7493 11.9682L7.54889 12.335L6.83323 13.6458C6.24073 14.7313 5.45011 16.1805 4.6577 17.6355C3.86538 19.0902 3.07089 20.5514 2.47081 21.6603C2.29595 21.9834 2.13736 22.2771 2 22.5323ZM2 23.9401V24.001H2.19476L2 23.9401ZM3.48171 24.001H9.68945V16.98H11.6895V24.001H16.293V16.98H18.293V24.001H23.066V6.45044L15.489 13.0709L15.2064 13.3179H14.8311H9.29097L8.58874 14.604C7.99641 15.6892 7.20611 17.1379 6.41409 18.5921C5.62198 20.0465 4.82854 21.5057 4.22979 22.6121C3.9303 23.1656 3.68023 23.6295 3.50359 23.96L3.48171 24.001Z" fill="black"/>
</svg>
