<svg width="30" height="26" viewBox="0 0 30 26" fill="none" xmlns="http://www.w3.org/2000/svg">
<path fill-rule="evenodd" clip-rule="evenodd" d="M6.859 2C4.17545 2 2 4.17545 2 6.859C2 9.54255 4.17545 11.718 6.859 11.718C9.54255 11.718 11.718 9.54255 11.718 6.859C11.718 4.17545 9.54255 2 6.859 2ZM0 6.859C0 3.07088 3.07088 0 6.859 0C10.6471 0 13.718 3.07088 13.718 6.859C13.718 10.6471 10.6471 13.718 6.859 13.718C3.07088 13.718 0 10.6471 0 6.859ZM16.1484 0.686035H17.1484H27.4744H28.4744V1.68604V12.012V13.012H27.4744H17.1484H16.1484V12.012V1.68604V0.686035ZM18.1484 2.68604V11.012H26.4744V2.68604H18.1484ZM2 21.886C2 20.7179 2.94692 19.771 4.115 19.771H25.341C26.5091 19.771 27.456 20.7179 27.456 21.886C27.456 23.0541 26.5091 24.001 25.341 24.001H4.115C2.94692 24.001 2 23.0541 2 21.886ZM4.115 17.771C1.84235 17.771 0 19.6133 0 21.886C0 24.1586 1.84235 26.001 4.115 26.001H25.341C27.6137 26.001 29.456 24.1586 29.456 21.886C29.456 19.6133 27.6137 17.771 25.341 17.771H4.115Z" fill="black"/>
</svg>
