<svg width="26" height="25" viewBox="0 0 26 25" fill="none" xmlns="http://www.w3.org/2000/svg">
<path fill-rule="evenodd" clip-rule="evenodd" d="M16.9434 5.151C16.9434 3.41075 18.3541 2 20.0944 2C21.8346 2 23.2454 3.41075 23.2454 5.151C23.2454 6.89125 21.8346 8.302 20.0944 8.302C18.3541 8.302 16.9434 6.89125 16.9434 5.151ZM17.3187 9.49097C18.1198 10.0043 19.0723 10.302 20.0944 10.302C22.9392 10.302 25.2454 7.99582 25.2454 5.151C25.2454 2.30618 22.9392 0 20.0944 0C17.5917 0 15.506 1.78475 15.0404 4.15088H15.037H15.0238H15.0106H14.9974H14.984H14.9706H14.9571H14.9436H14.93H14.9163H14.9025H14.8887H14.8748H14.8608H14.8468H14.8327H14.8186H14.8044H14.7901H14.7757H14.7613H14.7468H14.7323H14.7177H14.703H14.6883H14.6735H14.6587H14.6438H14.6288H14.6138H14.5987H14.5836H14.5684H14.5532H14.5378H14.5225H14.5071H14.4916H14.4761H14.4605H14.4449H14.4292H14.4135H14.3977H14.3818H14.366H14.35H14.334H14.318H14.3019H14.2858H14.2696H14.2534H14.2371H14.2208H14.2044H14.188H14.1716H14.1551H14.1385H14.1219H14.1053H14.0886H14.0719H14.0552H14.0384H14.0215H14.0047H13.9878H13.9708H13.9538H13.9368H13.9197H13.9026H13.8855H13.8683H13.8511H13.8339H13.8166H13.7993H13.7819H13.7646H13.7472H13.7297H13.7122H13.6947H13.6772H13.6596H13.6421H13.6244H13.6068H13.5891H13.5714H13.5537H13.5359H13.5181H13.5003H13.4825H13.4646H13.4468H13.4288H13.4109H13.393H13.375H13.357H13.339H13.321H13.3029H13.2848H13.2667H13.2486H13.2305H13.2124H13.1942H13.176H13.1578H13.1396H13.1214H13.1031H13.0849H13.0666H13.0483H13.03H13.0117H12.9934H12.9751H12.9568H12.9384H12.9201H12.9017H12.8833H12.8649H12.8465H12.8281H12.8097H12.7913H12.7729H12.7545H12.7361H12.7176H12.6992H12.6808H12.6623H12.6439H12.6254H12.607H12.5886H12.5701H12.5517H12.5332H12.5148H12.4963H12.4779H12.4595H12.441H12.4226H12.4042H12.3858H12.3674H12.349H12.3306H12.3122H12.2938H12.2754H12.257H12.2387H12.2203H12.202H12.1836H12.1653H12.147H12.1287H12.1104H12.0921H12.0739H12.0556H12.0374H12.0192H12.001H11.9828H11.9646H11.9465H11.9283H11.9102H11.8921H11.874H11.856H11.8379H11.8199H11.8019H11.7839H11.7659H11.748H11.7301H11.7122H11.6943H11.6765H11.6587H11.6409H11.6231H11.6053H11.5876H11.5699H11.5523H11.5346H11.517H11.4995H11.4819H11.4644H11.4469H11.4294H11.412H11.3946H11.3773H11.3599H11.3426H11.3254H11.3082H11.291H11.2738H11.2567H11.2396H11.2226H11.2056H11.1886H11.1717H11.1548H11.1379H11.1211H11.1043H11.0876H11.0709H11.0542H11.0376H11.0211H11.0046H10.9881H10.9716H10.9553H10.9389H10.9226H10.9064H10.8902H10.874H10.8579H10.8418H10.8258H10.8182C10.1826 1.95649 7.96469 0.441895 5.5 0.441895C2.57642 0.441895 0 2.573 0 5.44189C0 8.31079 2.57642 10.4419 5.5 10.4419C8.17712 10.4419 10.5631 8.65495 10.9464 6.15088H10.9553H10.9716H10.9881H11.0046H11.0211H11.0376H11.0542H11.0709H11.0876H11.1043H11.1211H11.1379H11.1548H11.1717H11.1886H11.2056H11.2226H11.2396H11.2567H11.2738H11.291H11.3082H11.3254H11.3426H11.3599H11.3773H11.3946H11.412H11.4294H11.4469H11.4644H11.4819H11.4995H11.517H11.5346H11.5523H11.5699H11.5876H11.6053H11.6231H11.6409H11.6587H11.6765H11.6943H11.7122H11.7301H11.748H11.7659H11.7839H11.8019H11.8199H11.8379H11.856H11.874H11.8921H11.9102H11.9283H11.9465H11.9646H11.9828H12.001H12.0192H12.0374H12.0556H12.0739H12.0921H12.1104H12.1287H12.147H12.1653H12.1836H12.202H12.2203H12.2387H12.257H12.2754H12.2938H12.3122H12.3306H12.349H12.3674H12.3858H12.4042H12.4226H12.441H12.4595H12.4779H12.4963H12.5148H12.5332H12.5517H12.5701H12.5886H12.607H12.6254H12.6439H12.6623H12.6808H12.6992H12.7176H12.7361H12.7545H12.7729H12.7913H12.8097H12.8281H12.8465H12.8649H12.8833H12.9017H12.9201H12.9384H12.9568H12.9751H12.9934H13.0117H13.03H13.0483H13.0666H13.0849H13.1031H13.1214H13.1396H13.1578H13.176H13.1942H13.2124H13.2305H13.2486H13.2667H13.2848H13.3029H13.321H13.339H13.357H13.375H13.393H13.4109H13.4288H13.4468H13.4646H13.4825H13.5003H13.5181H13.5359H13.5537H13.5714H13.5891H13.6068H13.6244H13.6421H13.6596H13.6772H13.6947H13.7122H13.7297H13.7472H13.7646H13.7819H13.7993H13.8166H13.8339H13.8511H13.8683H13.8855H13.9026H13.9197H13.9368H13.9538H13.9708H13.9878H14.0047H14.0215H14.0384H14.0552H14.0719H14.0886H14.1053H14.1219H14.1385H14.1551H14.1716H14.188H14.2044H14.2208H14.2371H14.2534H14.2696H14.2858H14.3019H14.318H14.334H14.35H14.366H14.3818H14.3977H14.4135H14.4292H14.4449H14.4605H14.4761H14.4916H14.5071H14.5225H14.5378H14.5532H14.5684H14.5836H14.5987H14.6138H14.6288H14.6438H14.6587H14.6735H14.6883H14.703H14.7177H14.7323H14.7468H14.7613H14.7757H14.7901H14.8044H14.8186H14.8327H14.8468H14.8608H14.8748H14.8887H14.9025H14.9163H14.93H14.9436H14.9571H14.9706H14.984H14.9974H15.0106H15.0238H15.037H15.0403C15.1812 6.86708 15.4706 7.53002 15.875 8.10633L8.3694 15.6119C7.4877 14.9054 6.36869 14.4829 5.151 14.4829C2.30618 14.4829 0 16.7891 0 19.6339C0 22.4787 2.30618 24.7849 5.151 24.7849C7.80494 24.7849 9.9901 22.7778 10.2714 20.1987H10.2722H10.2861H10.3H10.314H10.328H10.3422H10.3564H10.3706H10.3849H10.3993H10.4138H10.4283H10.4428H10.4575H10.4722H10.4869H10.5017H10.5166H10.5315H10.5465H10.5616H10.5767H10.5918H10.6071H10.6223H10.6377H10.6531H10.6685H10.684H10.6995H10.7151H10.7308H10.7465H10.7623H10.7781H10.7939H10.8099H10.8258H10.8418H10.8579H10.874H10.8902H10.9064H10.9226H10.9389H10.9553H10.9716H10.9881H11.0046H11.0211H11.0376H11.0542H11.0709H11.0876H11.1043H11.1211H11.1379H11.1548H11.1717H11.1886H11.2056H11.2226H11.2396H11.2567H11.2738H11.291H11.3082H11.3254H11.3426H11.3599H11.3773H11.3946H11.412H11.4294H11.4469H11.4644H11.4819H11.4995H11.517H11.5346H11.5523H11.5699H11.5876H11.6053H11.6231H11.6409H11.6587H11.6765H11.6943H11.7122H11.7301H11.748H11.7659H11.7839H11.8019H11.8199H11.8379H11.856H11.874H11.8921H11.9102H11.9283H11.9465H11.9646H11.9828H12.001H12.0192H12.0374H12.0556H12.0739H12.0921H12.1104H12.1287H12.147H12.1653H12.1836H12.202H12.2203H12.2387H12.257H12.2754H12.2938H12.3122H12.3306H12.349H12.3674H12.3858H12.4042H12.4226H12.441H12.4595H12.4779H12.4963H12.5148H12.5332H12.5517H12.5701H12.5886H12.607H12.6254H12.6439H12.6623H12.6808H12.6992H12.7176H12.7361H12.7545H12.7729H12.7913H12.8097H12.8281H12.8465H12.8649H12.8833H12.9017H12.9201H12.9384H12.9568H12.9751H12.9934H13.0117H13.03H13.0483H13.0666H13.0849H13.1031H13.1214H13.1396H13.1578H13.176H13.1942H13.2124H13.2305H13.2486H13.2667H13.2848H13.3029H13.321H13.339H13.357H13.375H13.393H13.4109H13.4288H13.4468H13.4646H13.4825H13.5003H13.5181H13.5359H13.5537H13.5714H13.5891H13.6068H13.6244H13.6421H13.6596H13.6772H13.6947H13.7122H13.7297H13.7472H13.7646H13.7819H13.7993H13.8166H13.8339H13.8511H13.8683H13.8855H13.9026H13.9197H13.9368H13.9538H13.9708H13.9878H14.0047H14.0215H14.0384H14.0552H14.0719H14.0886H14.1053H14.1219H14.1385H14.1551H14.1716H14.188H14.2044H14.2208H14.2371H14.2534H14.2696H14.2858H14.3019H14.318H14.334H14.35H14.366H14.3818H14.3977H14.4135H14.4292H14.4449H14.4605H14.4761H14.4916H14.5071H14.5225H14.5378H14.5532H14.5684H14.5836H14.5987H14.6138H14.6288H14.6438H14.6587H14.6735H14.6883H14.703H14.7177H14.7323H14.7468H14.7613H14.7757H14.7901H14.8044H14.8186H14.8327H14.8468H14.8608H14.8748H14.8887H14.9025H14.9163H14.93H14.9436H14.9571H14.9706H14.974C15.2553 22.7778 17.4404 24.7849 20.0944 24.7849C22.9392 24.7849 25.2454 22.4787 25.2454 19.6339C25.2454 16.7891 22.9392 14.4829 20.0944 14.4829C17.7476 14.4829 15.7674 16.0523 15.1459 18.1987H15.1393H15.1268H15.1142H15.1015H15.0887H15.0759H15.063H15.05H15.037H15.0238H15.0106H14.9974H14.984H14.9706H14.9571H14.9436H14.93H14.9163H14.9025H14.8887H14.8748H14.8608H14.8468H14.8327H14.8186H14.8044H14.7901H14.7757H14.7613H14.7468H14.7323H14.7177H14.703H14.6883H14.6735H14.6587H14.6438H14.6288H14.6138H14.5987H14.5836H14.5684H14.5532H14.5378H14.5225H14.5071H14.4916H14.4761H14.4605H14.4449H14.4292H14.4135H14.3977H14.3818H14.366H14.35H14.334H14.318H14.3019H14.2858H14.2696H14.2534H14.2371H14.2208H14.2044H14.188H14.1716H14.1551H14.1385H14.1219H14.1053H14.0886H14.0719H14.0552H14.0384H14.0215H14.0047H13.9878H13.9708H13.9538H13.9368H13.9197H13.9026H13.8855H13.8683H13.8511H13.8339H13.8166H13.7993H13.7819H13.7646H13.7472H13.7297H13.7122H13.6947H13.6772H13.6596H13.6421H13.6244H13.6068H13.5891H13.5714H13.5537H13.5359H13.5181H13.5003H13.4825H13.4646H13.4468H13.4288H13.4109H13.393H13.375H13.357H13.339H13.321H13.3029H13.2848H13.2667H13.2486H13.2305H13.2124H13.1942H13.176H13.1578H13.1396H13.1214H13.1031H13.0849H13.0666H13.0483H13.03H13.0117H12.9934H12.9751H12.9568H12.9384H12.9201H12.9017H12.8833H12.8649H12.8465H12.8281H12.8097H12.7913H12.7729H12.7545H12.7361H12.7176H12.6992H12.6808H12.6623H12.6439H12.6254H12.607H12.5886H12.5701H12.5517H12.5332H12.5148H12.4963H12.4779H12.4595H12.441H12.4226H12.4042H12.3858H12.3674H12.349H12.3306H12.3122H12.2938H12.2754H12.257H12.2387H12.2203H12.202H12.1836H12.1653H12.147H12.1287H12.1104H12.0921H12.0739H12.0556H12.0374H12.0192H12.001H11.9828H11.9646H11.9465H11.9283H11.9102H11.8921H11.874H11.856H11.8379H11.8199H11.8019H11.7839H11.7659H11.748H11.7301H11.7122H11.6943H11.6765H11.6587H11.6409H11.6231H11.6053H11.5876H11.5699H11.5523H11.5346H11.517H11.4995H11.4819H11.4644H11.4469H11.4294H11.412H11.3946H11.3773H11.3599H11.3426H11.3254H11.3082H11.291H11.2738H11.2567H11.2396H11.2226H11.2056H11.1886H11.1717H11.1548H11.1379H11.1211H11.1043H11.0876H11.0709H11.0542H11.0376H11.0211H11.0046H10.9881H10.9716H10.9553H10.9389H10.9226H10.9064H10.8902H10.874H10.8579H10.8418H10.8258H10.8099H10.7939H10.7781H10.7623H10.7465H10.7308H10.7151H10.6995H10.684H10.6685H10.6531H10.6377H10.6223H10.6071H10.5918H10.5767H10.5616H10.5465H10.5315H10.5166H10.5017H10.4869H10.4722H10.4575H10.4428H10.4283H10.4138H10.3993H10.3849H10.3706H10.3564H10.3422H10.328H10.314H10.3H10.2861H10.2722H10.2584H10.2447H10.231H10.2174H10.2039H10.1905H10.1771H10.1638H10.1506H10.1374H10.1243H10.1113H10.0994C9.99246 17.8293 9.84527 17.477 9.66288 17.1468L17.3187 9.49097ZM5.5 2.44189C3.45302 2.44189 2 3.89251 2 5.44189C2 6.99128 3.45302 8.44189 5.5 8.44189C7.54698 8.44189 9 6.99128 9 5.44189C9 3.89251 7.54698 2.44189 5.5 2.44189ZM5.151 16.4829C3.41075 16.4829 2 17.8937 2 19.6339C2 21.3742 3.41075 22.7849 5.151 22.7849C6.89125 22.7849 8.302 21.3742 8.302 19.6339C8.302 17.8937 6.89125 16.4829 5.151 16.4829ZM20.0944 16.4829C18.3541 16.4829 16.9434 17.8937 16.9434 19.6339C16.9434 21.3742 18.3541 22.7849 20.0944 22.7849C21.8346 22.7849 23.2454 21.3742 23.2454 19.6339C23.2454 17.8937 21.8346 16.4829 20.0944 16.4829Z" fill="black"/>
</svg>
