<svg width="44" height="25" viewBox="0 0 44 25" fill="none" xmlns="http://www.w3.org/2000/svg">
<path fill-rule="evenodd" clip-rule="evenodd" d="M15.9038 11.2384C16.4072 6.05309 20.778 2 26.0955 2C29.3134 2 32.1846 3.48431 34.0619 5.80563C31.8025 6.70522 30.1284 8.76008 29.7691 11.2406L28.059 11.2401C26.469 11.2396 24.3377 11.2391 22.1732 11.2387C19.9327 11.2383 17.6543 11.2381 15.9038 11.2384ZM13.8958 11.2392C13.8555 11.2393 13.8163 11.2393 13.778 11.2393C13.2922 7.88986 10.4091 5.31689 6.925 5.31689C3.10043 5.31689 0 8.41732 0 12.2419C0 16.0665 3.10043 19.1669 6.925 19.1669C10.4109 19.1669 13.2952 16.5913 13.7787 13.2393C13.8167 13.2393 13.8557 13.2393 13.8957 13.2392C14.4041 19.5318 19.6719 24.48 26.0955 24.48C30.2899 24.48 33.9915 22.3703 36.197 19.1541C36.3377 19.1626 36.4795 19.1669 36.6223 19.1669C40.4468 19.1669 43.5473 16.0665 43.5473 12.2419C43.5473 8.41732 40.4468 5.31689 36.6223 5.31689C36.4803 5.31689 36.3394 5.32117 36.1995 5.32959C33.9943 2.11134 30.2914 0 26.0955 0C19.6724 0 14.4049 4.94737 13.8958 11.2392ZM35.1896 7.52852C33.1684 8.1421 31.6973 10.0202 31.6973 12.2419C31.6973 14.463 33.1675 16.3406 35.1879 16.9548C35.9211 15.5436 36.3355 13.9402 36.3355 12.24C36.3355 10.5411 35.9218 8.93889 35.1896 7.52852ZM37.3252 17.1171C37.9751 15.6228 38.3355 13.9735 38.3355 12.24C38.3355 10.5081 37.9758 8.86019 37.327 7.36693C39.7131 7.70882 41.5473 9.76117 41.5473 12.2419C41.5473 14.7232 39.7122 16.776 37.3252 17.1171ZM34.0595 18.6772C31.8006 17.7769 30.1271 15.7215 29.7688 13.2406L28.0585 13.2401C26.4684 13.2396 24.3373 13.2391 22.1729 13.2387C19.9289 13.2383 17.6512 13.2381 15.9035 13.2384C16.4054 18.4253 20.7769 22.48 26.0955 22.48C29.3121 22.48 32.1823 20.9969 34.0595 18.6772ZM2 12.2419C2 9.52189 4.205 7.31689 6.925 7.31689C9.645 7.31689 11.85 9.52189 11.85 12.2419C11.85 14.9619 9.645 17.1669 6.925 17.1669C4.205 17.1669 2 14.9619 2 12.2419Z" fill="black"/>
</svg>
