<svg width="56" height="52" viewBox="0 0 56 48" fill="none" xmlns="http://www.w3.org/2000/svg">
<path d="M56 4.33666V0C49.1226 0 43.5156 5.607 43.5156 12.4843H47.8523C47.8523 7.97245 51.5319 4.33666 56 4.33666Z" fill="url(#paint0_linear_5548_29815)"/>
<path d="M31.0352 0V4.33666C35.547 4.33666 39.1828 8.01625 39.1828 12.4843H43.5195C43.5195 5.607 37.9125 0 31.0352 0Z" fill="url(#paint1_linear_5548_29815)"/>
<path fill-rule="evenodd" clip-rule="evenodd" d="M5.14776 4.73798L27.5667 4.37767L27.4977 0.0859375L0.855469 0.514118V23.6523C0.855469 29.1937 3.474 35.1993 8.00371 38.6721L8.07119 38.7238L21.7543 47.5889L35.462 38.6428L35.5144 38.6039C40.7427 34.7186 43.6521 29.6501 43.6521 23.4771V16.0303H39.3598V23.4771C39.3598 28.0617 37.2919 31.9169 33.0055 35.1205L21.7457 42.469L10.551 35.216C7.23317 32.6335 5.14776 27.9828 5.14776 23.6523V4.73798Z" fill="black"/>
<path fill-rule="evenodd" clip-rule="evenodd" d="M32.9151 16.6558L19.0315 30.9498L11.3155 22.6438L14.0287 20.1233L19.0913 25.5731L30.2587 14.0757L32.9151 16.6558Z" fill="black"/>
<defs>
<linearGradient id="paint0_linear_5548_29815" x1="27.9233" y1="6.23726" x2="54.9456" y2="6.23726" gradientUnits="userSpaceOnUse">
<stop offset="0.1069" stop-color="#0F26AA"/>
<stop offset="0.8803" stop-color="#FF4A56"/>
</linearGradient>
<linearGradient id="paint1_linear_5548_29815" x1="27.9271" y1="6.23726" x2="54.9494" y2="6.23726" gradientUnits="userSpaceOnUse">
<stop offset="0.1069" stop-color="#0F26AA"/>
<stop offset="0.8803" stop-color="#FF4A56"/>
</linearGradient>
</defs>
</svg>
