<svg width="86" height="44" viewBox="0 0 86 44" fill="none" xmlns="http://www.w3.org/2000/svg">
<path d="M46.2459 8.83064L47.0614 8.84489L49.2771 6.62919L49.3841 5.6903C47.6232 4.12405 45.3063 3.1709 42.7705 3.1709C38.1794 3.1709 34.304 6.29484 33.1562 10.5266C33.3986 10.3577 33.9155 10.4839 33.9155 10.4839L38.344 9.75527C38.344 9.75527 38.5722 9.37743 38.6862 9.40096C39.6368 8.36103 40.9484 7.72299 42.3533 7.617C43.7583 7.51102 45.1507 7.94508 46.2466 8.83064H46.2459Z" fill="#8C8C8C"/>
<path d="M52.3979 10.5343C51.8888 8.66132 50.8443 6.97755 49.3923 5.68945L46.2541 8.82765C46.8981 9.34527 47.4179 10.0007 47.7751 10.7458C48.1322 11.4909 48.3178 12.3066 48.318 13.1329V13.6868C49.845 13.6868 51.084 14.9294 51.084 16.4529C51.084 17.9763 49.8414 19.2189 48.318 19.2189H42.7844L42.2305 19.775V23.0957L42.7844 23.6468H48.318C50.2237 23.6417 52.0498 22.882 53.3969 21.534C54.744 20.186 55.5024 18.3593 55.5062 16.4536C55.5033 14.004 54.2686 11.834 52.3908 10.5343H52.3979Z" fill="#727272"/>
<path d="M37.2372 23.6525H42.7693V19.2239H37.2372C36.8443 19.2241 36.456 19.1398 36.0987 18.9766L35.3002 19.2211L33.0845 21.4368L32.8906 22.1853C34.1372 23.1425 35.6662 23.659 37.2379 23.6539L37.2372 23.6525Z" fill="#8C8C8C"/>
<path d="M37.239 9.26074C35.3314 9.26376 33.5028 10.0229 32.154 11.3717C30.8051 12.7206 30.046 14.5492 30.043 16.4568C30.043 17.5676 30.3005 18.6632 30.7952 19.6578C31.29 20.6523 32.0086 21.5185 32.8946 22.1885L36.1026 18.9805C35.6167 18.7618 35.2043 18.4075 34.9149 17.96C34.6255 17.5126 34.4716 16.9911 34.4715 16.4582C34.4715 14.9312 35.7141 13.6921 37.2376 13.6921C37.7703 13.6931 38.2914 13.8474 38.7387 14.1367C39.186 14.4259 39.5405 14.8379 39.7598 15.3233L42.9679 12.1152C41.6519 10.3829 39.5745 9.26359 37.2362 9.26359L37.239 9.26074Z" fill="#727272"/>
<path d="M8.55383 37.6076C7.04247 37.6076 5.74499 37.0729 4.6514 36.0036C3.5578 34.9342 3.01172 33.6481 3.01172 32.1482C3.01172 30.6482 3.55709 29.3622 4.6514 28.2928C5.7457 27.2234 7.04461 26.6881 8.55383 26.6881C9.24617 26.678 9.93358 26.8058 10.576 27.0641C11.2185 27.3223 11.8031 27.7058 12.2959 28.1923L11.2429 29.2452C10.5224 28.5485 9.55532 28.1653 8.55312 28.1794C7.46237 28.1794 6.5356 28.5644 5.77564 29.3393C5.40594 29.7065 5.11446 30.1447 4.91878 30.6276C4.72311 31.1104 4.6273 31.628 4.63714 32.1489C4.63714 33.251 5.01498 34.1857 5.77564 34.9577C6.13311 35.3328 6.56454 35.6295 7.04264 35.8292C7.52074 36.0288 8.03509 36.1271 8.55312 36.1176C9.66382 36.1176 10.5813 35.7612 11.3121 35.024C11.7398 34.5963 12.025 33.9547 12.1248 33.1455H8.55597V31.6541H13.5777C13.6311 31.9193 13.6489 32.2245 13.6489 32.5809C13.6489 34.0466 13.2191 35.2087 12.3565 36.0706C11.3784 37.0936 10.1108 37.6033 8.54599 37.6033L8.55383 37.6076ZM20.2241 36.6095C19.5397 37.2797 18.7056 37.6076 17.7203 37.6076C16.7351 37.6076 15.8996 37.2725 15.2166 36.6095C14.5337 35.9465 14.1915 35.1032 14.1915 34.1001C14.1915 33.0971 14.5337 32.2608 15.2166 31.5907C15.8996 30.9206 16.7351 30.5926 17.7203 30.5926C18.7056 30.5926 19.5411 30.9277 20.2241 31.5907C20.907 32.2537 21.2492 33.0992 21.2492 34.1001C21.2492 35.101 20.907 35.9394 20.2241 36.6095ZM16.3216 35.6257C16.4995 35.819 16.716 35.9728 16.957 36.077C17.1981 36.1813 17.4584 36.2337 17.7211 36.231C18.2629 36.231 18.7291 36.0299 19.1205 35.625C19.5119 35.2201 19.7065 34.7125 19.7065 34.0994C19.7065 33.4792 19.514 32.9673 19.1269 32.5667C18.7398 32.166 18.2728 31.9678 17.7211 31.9678C17.4579 31.9638 17.1968 32.015 16.9546 32.1181C16.7125 32.2213 16.4946 32.3741 16.3152 32.5667C15.9281 32.9659 15.7356 33.4763 15.7356 34.0994C15.7356 34.7111 15.9302 35.2208 16.3216 35.625V35.6257ZM27.9227 36.6095C27.2383 37.2797 26.4042 37.6076 25.419 37.6076C24.4338 37.6076 23.5982 37.2725 22.9153 36.6095C22.2323 35.9465 21.8901 35.1032 21.8901 34.1001C21.8901 33.0971 22.2323 32.2608 22.9153 31.5907C23.5982 30.9206 24.4338 30.5926 25.419 30.5926C26.4042 30.5926 27.2397 30.9277 27.9227 31.5907C28.6057 32.2537 28.9478 33.0992 28.9478 34.1001C28.9478 35.101 28.6057 35.9394 27.9227 36.6095ZM24.0203 35.6257C24.1981 35.819 24.4146 35.9728 24.6557 36.077C24.8968 36.1813 25.1571 36.2337 25.4197 36.231C25.9615 36.231 26.4277 36.0299 26.8191 35.625C27.2105 35.2201 27.4051 34.7125 27.4051 34.0994C27.4051 33.4792 27.2126 32.9673 26.8255 32.5667C26.4384 32.166 25.9715 31.9678 25.4197 31.9678C25.1565 31.9638 24.8954 32.015 24.6533 32.1181C24.4111 32.2213 24.1933 32.3741 24.0138 32.5667C23.6267 32.9659 23.4343 33.4763 23.4343 34.0994C23.4343 34.7111 23.6289 35.2208 24.0203 35.625V35.6257ZM32.9836 40.7729C32.203 40.7729 31.5457 40.5633 31.0131 40.1455C30.4806 39.7278 30.0992 39.2444 29.8682 38.6926L31.2142 38.1344C31.3553 38.4723 31.5706 38.7653 31.8793 39.0141C32.188 39.263 32.5494 39.3863 32.9857 39.3863C33.5717 39.3863 34.0323 39.2081 34.3638 38.8537C34.6953 38.4994 34.8628 37.9869 34.8628 37.321V36.822H34.8093C34.3816 37.3545 33.7564 37.6218 32.9586 37.6218C32.0618 37.6218 31.2762 37.2797 30.6011 36.5967C30.2731 36.2739 30.0143 35.8877 29.8402 35.4617C29.6662 35.0357 29.5806 34.5788 29.5888 34.1186C29.5805 33.6556 29.6659 33.1958 29.8399 32.7666C30.0139 32.3375 30.2728 31.9479 30.6011 31.6213C31.2748 30.9348 32.0625 30.5898 32.9586 30.5898C33.3579 30.5898 33.72 30.6646 34.0437 30.8165C34.3673 30.9683 34.6233 31.1544 34.8093 31.3747H34.8628V30.8086H36.3285V37.1228C36.3285 38.349 36.0163 39.2644 35.3889 39.8746C34.7616 40.4806 33.9617 40.7871 32.9843 40.7871L32.9836 40.7729ZM33.0905 36.2303C33.3447 36.2347 33.5967 36.1828 33.8283 36.0781C34.0599 35.9735 34.2655 35.8187 34.4301 35.625C34.7894 35.2208 34.969 34.7175 34.969 34.1122C34.969 33.5006 34.7894 32.9887 34.4301 32.5795C34.2664 32.3842 34.0612 32.228 33.8295 32.1222C33.5977 32.0163 33.3453 31.9636 33.0905 31.9678C32.5487 31.9678 32.0868 32.1731 31.7061 32.5795C31.3254 32.9858 31.1329 33.4977 31.1329 34.1122C31.1329 34.7153 31.3232 35.2208 31.7061 35.625C32.0889 36.0292 32.5494 36.231 33.0905 36.231V36.2303ZM38.9378 27.0588V37.3959H37.3929V27.0588H38.9378ZM43.1724 37.6069C42.1772 37.6069 41.3474 37.269 40.6815 36.5946C40.0157 35.9201 39.682 35.0861 39.682 34.0908C39.682 33.0614 40.0028 32.2159 40.6473 31.56C40.9496 31.2419 41.3147 30.9899 41.7194 30.8201C42.1241 30.6503 42.5596 30.5663 42.9985 30.5734C43.4241 30.5734 43.8204 30.6504 44.184 30.8065C44.5221 30.945 44.8297 31.1485 45.0894 31.4053C45.306 31.621 45.4982 31.8598 45.6626 32.1175C45.7984 32.3378 45.9143 32.5697 46.0091 32.8105L46.1695 33.2097L41.4686 35.1573C41.825 35.8674 42.3953 36.2231 43.1738 36.2231C43.8839 36.2231 44.4621 35.9002 44.9048 35.2514L46.1024 36.0513C45.8351 36.4506 45.4587 36.8106 44.9704 37.1299C44.482 37.4493 43.881 37.6076 43.171 37.6076L43.1724 37.6069ZM41.2148 33.9853L44.3516 32.6807C44.2617 32.4583 44.0992 32.2786 43.8525 32.1418C43.6045 32.0028 43.3241 31.932 43.0398 31.9364C42.5864 31.9364 42.1629 32.1218 41.7687 32.4946C41.3745 32.8675 41.1841 33.3658 41.2019 33.986L41.2148 33.9853ZM54.2823 37.6069C52.8779 37.6069 51.7016 37.1321 50.752 36.1811C49.8024 35.2301 49.3262 34.0459 49.3262 32.6251C49.3262 31.2043 49.801 30.0187 50.752 29.0691C51.703 28.1196 52.8786 27.6433 54.2823 27.6433C55.7202 27.6433 56.8887 28.1638 57.7848 29.201L56.9329 30.028C56.2913 29.2196 55.4001 28.8161 54.2809 28.8161C53.24 28.8161 52.366 29.1668 51.6431 29.869C50.9202 30.5712 50.5709 31.4887 50.5709 32.6251C50.5709 33.7615 50.9274 34.6811 51.6431 35.384C52.3589 36.087 53.235 36.437 54.2809 36.437C55.4258 36.437 56.4032 35.975 57.2038 35.0525L58.0557 35.9045C57.6093 36.4371 57.0489 36.8628 56.416 37.1499C55.7447 37.4587 55.0133 37.615 54.2745 37.6076L54.2823 37.6069ZM60.3819 37.3959H59.1557V27.8594H60.3819V37.3959ZM62.3802 31.6499C63.0111 30.989 63.806 30.6568 64.7912 30.6568C65.7764 30.6568 66.5713 30.9883 67.2022 31.6499C67.8332 32.3114 68.1483 33.147 68.1483 34.1343C68.1483 35.1217 67.8346 35.9572 67.2022 36.6188C66.5699 37.2804 65.7764 37.6119 64.7912 37.6119C63.806 37.6119 63.0111 37.2804 62.3802 36.6188C61.7492 35.9572 61.4341 35.1217 61.4341 34.1343C61.4341 33.147 61.7478 32.3114 62.3802 31.6499ZM63.2927 35.8439C63.7204 36.2737 64.2152 36.4898 64.7898 36.4898C65.3644 36.4898 65.8591 36.2737 66.2869 35.8439C66.7146 35.414 66.9199 34.8422 66.9199 34.1329C66.9199 33.4236 66.7082 32.8511 66.2869 32.4219C65.8656 31.9928 65.3644 31.776 64.7898 31.776C64.2152 31.776 63.7204 31.9921 63.2927 32.4219C62.8649 32.8518 62.6596 33.4236 62.6596 34.1329C62.6596 34.8422 62.8714 35.4147 63.2927 35.8439ZM74.9273 37.3959H73.7545V36.4905H73.7011C73.5157 36.8006 73.2306 37.0658 72.8492 37.2747C72.4678 37.4835 72.065 37.6026 71.6372 37.6026C70.8195 37.6026 70.2014 37.3545 69.7801 36.8562C69.3588 36.3579 69.147 35.692 69.147 34.8579V30.8614H70.3732V34.6569C70.3732 35.8745 70.91 36.4819 71.9844 36.4819C72.2249 36.487 72.463 36.4341 72.6787 36.3276C72.8944 36.2211 73.0812 36.0642 73.2234 35.8702C73.5404 35.4684 73.7095 34.9697 73.7025 34.458V30.8614H74.9287V37.3894L74.9273 37.3959ZM79.0821 37.6076C78.2387 37.6076 77.5094 37.274 76.8977 36.6081C76.2861 35.9422 75.9795 35.1167 75.9795 34.13C75.9795 33.1434 76.2861 32.3178 76.8977 31.652C77.5094 30.9861 78.2394 30.6525 79.0821 30.6525C79.5782 30.6525 80.0259 30.7594 80.4223 30.9712C80.8187 31.1829 81.1138 31.4502 81.3085 31.7711H81.3619L81.3085 30.8657V27.8572H82.5347V37.3959H81.3619V36.4905H81.3085C81.1138 36.8091 80.8187 37.0765 80.4223 37.2903C80.0267 37.4999 79.579 37.6069 79.0821 37.6069V37.6076ZM79.2817 36.4883C79.5583 36.4921 79.8327 36.437 80.0865 36.3268C80.3403 36.2165 80.5677 36.0536 80.7538 35.8489C81.158 35.4233 81.3598 34.8494 81.3598 34.1379C81.3598 33.4264 81.1588 32.8454 80.7538 32.4269C80.5677 32.2221 80.3403 32.0592 80.0865 31.949C79.8327 31.8388 79.5583 31.7837 79.2817 31.7874C78.7128 31.7874 78.2244 32.0035 77.8159 32.4333C77.4075 32.8632 77.2043 33.435 77.2043 34.1443C77.2043 34.8536 77.4075 35.4261 77.8159 35.8553C78.0005 36.0608 78.2266 36.2246 78.4793 36.336C78.732 36.4474 79.0055 36.5037 79.2817 36.5012V36.4883Z" fill="#8C8C8C"/>
</svg>
