<svg width="64" height="67" viewBox="0 0 64 67" fill="none" xmlns="http://www.w3.org/2000/svg">
<path fill-rule="evenodd" clip-rule="evenodd" d="M0 0H1H26.6074H27.6074H27.608H28.608H54.2155H55.2155V1V42.5781C60.0677 44.248 63.5542 48.8528 63.5542 54.272C63.5542 61.1005 58.0186 66.636 51.1902 66.636C45.3169 66.636 40.4001 62.5408 39.1395 57.05H28.608V57.051H27.608H1H0V56.051V1V0ZM2 2H26.6074V55.051H2V2ZM28.608 2V55.05H38.8503C38.8343 54.7927 38.8262 54.5333 38.8262 54.272C38.8262 47.4436 44.3617 41.908 51.1902 41.908C51.8799 41.908 52.5565 41.9645 53.2155 42.0731V2H28.608ZM40.8262 54.272C40.8262 48.5481 45.4663 43.908 51.1902 43.908C56.9141 43.908 61.5542 48.5481 61.5542 54.272C61.5542 59.9959 56.9141 64.636 51.1902 64.636C45.4663 64.636 40.8262 59.9959 40.8262 54.272ZM45.4765 58.5699L49.7749 54.2715L45.4765 49.9731L46.8907 48.5589L51.1891 52.8573L55.4875 48.5589L56.9017 49.9731L52.6033 54.2715L56.9017 58.5699L55.4875 59.9841L51.1891 55.6857L46.8907 59.9841L45.4765 58.5699ZM7.02539 6.61798H6.02539V7.61798V12.726V13.726H7.02539H21.5824H22.5824V12.726V7.61798V6.61798H21.5824H7.02539ZM8.02539 11.726V8.61798H20.5824V11.726H8.02539ZM6.02539 16.779H7.02539H21.5824H22.5824V17.779V22.887V23.887H21.5824H7.02539H6.02539V22.887V17.779V16.779ZM8.02539 18.779V21.887H20.5824V18.779H8.02539ZM7.02539 26.94H6.02539V27.94V33.048V34.048H7.02539H21.5824H22.5824V33.048V27.94V26.94H21.5824H7.02539ZM8.02539 32.048V28.94H20.5824V32.048H8.02539ZM33.6328 6.61798H32.6328V7.61798V12.726V13.726H33.6328H48.1898H49.1898V12.726V7.61798V6.61798H48.1898H33.6328ZM34.6328 11.726V8.61798H47.1898V11.726H34.6328ZM32.6328 16.779H33.6328H48.1898H49.1898V17.779V22.887V23.887H48.1898H33.6328H32.6328V22.887V17.779V16.779ZM34.6328 18.779V21.887H47.1898V18.779H34.6328ZM33.6328 26.94H32.6328V27.94V33.048V34.048H33.6328H48.1898H49.1898V33.048V27.94V26.94H48.1898H33.6328ZM34.6328 32.048V28.94H47.1898V32.048H34.6328Z" fill="black"/>
</svg>
