<svg width="64" height="71" viewBox="0 0 64 71" fill="none" xmlns="http://www.w3.org/2000/svg">
<path fill-rule="evenodd" clip-rule="evenodd" d="M20.9198 4.21235C27.1258 1.64101 34.0313 1.30104 40.4598 3.25036C46.8883 5.19968 52.4421 9.31768 56.1748 14.9027C59.9075 20.4878 61.5883 27.1943 60.9306 33.8796C60.3091 40.1975 57.6356 46.127 53.335 50.7693C51.1101 47.6357 47.4519 45.591 43.3161 45.591C36.5346 45.591 31.0371 51.0885 31.0371 57.87C31.0371 58.6182 31.104 59.3507 31.2322 60.0619C24.8007 59.8843 18.6013 57.5745 13.6157 53.4836C8.4226 49.2225 4.86763 43.2925 3.55651 36.7042C2.24539 30.1158 3.25928 23.2766 6.42536 17.3519C9.59144 11.4273 14.7139 6.78368 20.9198 4.21235ZM31.7749 62.0719C24.6874 62.0127 17.8304 59.5291 12.3471 55.0298C6.79624 50.4751 2.99641 44.1367 1.59498 37.0945C0.193544 30.0523 1.27727 22.7421 4.66143 16.4093C8.04559 10.0766 13.5208 5.11311 20.1543 2.36466C26.7877 -0.38378 34.1689 -0.747172 41.0402 1.33642C47.9115 3.42001 53.8478 7.82166 57.8376 13.7914C61.8275 19.7611 63.624 26.9296 62.921 34.0754C62.2372 41.0271 59.229 47.5389 54.392 52.5627C55.1632 54.1691 55.5951 55.9691 55.5951 57.87C55.5951 64.6515 50.0976 70.149 43.3161 70.149C38.0105 70.149 33.4909 66.7841 31.7749 62.0719ZM21.7578 31.036C21.7578 25.359 26.3599 20.757 32.0368 20.757C37.7137 20.757 42.3158 25.359 42.3158 31.036C42.3158 36.7129 37.7137 41.315 32.0368 41.315C26.3599 41.315 21.7578 36.7129 21.7578 31.036ZM32.0368 18.757C25.2553 18.757 19.7578 24.2545 19.7578 31.036C19.7578 37.8175 25.2553 43.315 32.0368 43.315C38.8183 43.315 44.3158 37.8175 44.3158 31.036C44.3158 24.2545 38.8183 18.757 32.0368 18.757ZM32.0362 27.117C29.8718 27.117 28.1172 28.8716 28.1172 31.036C28.1172 33.2004 29.8718 34.955 32.0362 34.955C34.2006 34.955 35.9552 33.2004 35.9552 31.036C35.9552 28.8716 34.2006 27.117 32.0362 27.117ZM26.1172 31.036C26.1172 27.767 28.7672 25.117 32.0362 25.117C35.3052 25.117 37.9552 27.767 37.9552 31.036C37.9552 34.305 35.3052 36.955 32.0362 36.955C28.7672 36.955 26.1172 34.305 26.1172 31.036ZM47.5776 52.1939L43.3162 56.4553L39.0548 52.1939L37.6405 53.6081L41.9019 57.8695L37.6405 62.1309L39.0548 63.5451L43.3162 59.2837L47.5776 63.5451L48.9918 62.1309L44.7304 57.8695L48.9918 53.6081L47.5776 52.1939ZM33.0371 57.87C33.0371 52.1931 37.6392 47.591 43.3161 47.591C48.993 47.591 53.5951 52.1931 53.5951 57.87C53.5951 63.5469 48.993 68.149 43.3161 68.149C37.6392 68.149 33.0371 63.5469 33.0371 57.87Z" fill="black"/>
</svg>
