<svg width="61" height="60" viewBox="0 0 61 60" fill="none" xmlns="http://www.w3.org/2000/svg">
<path fill-rule="evenodd" clip-rule="evenodd" d="M13.3137 2C10.1104 2 7.51367 4.59675 7.51367 7.8C7.51367 11.0033 10.1104 13.6 13.3137 13.6C16.5169 13.6 19.1137 11.0033 19.1137 7.8C19.1137 4.59675 16.5169 2 13.3137 2ZM5.51367 7.8C5.51367 3.49218 9.00585 0 13.3137 0C17.6215 0 21.1137 3.49218 21.1137 7.8C21.1137 9.89632 20.2867 11.7995 18.9412 13.2011L22.2248 16.5126C24.2941 14.7428 26.9808 13.674 29.9172 13.674C33.61 13.674 36.908 15.3645 39.0795 18.0137L46.5239 12.0087C46.0009 11.1926 45.6319 10.282 45.4409 9.32171C45.1399 7.80865 45.2944 6.24033 45.8848 4.81507C46.4751 3.3898 47.4749 2.17161 48.7576 1.31454C50.0403 0.457467 51.5484 0 53.091 0C55.1597 0 57.1437 0.821781 58.6064 2.28456C60.0692 3.74734 60.891 5.73131 60.891 7.8C60.891 9.34269 60.4336 10.8507 59.5765 12.1335C58.7194 13.4162 57.5012 14.4159 56.076 15.0063C54.6507 15.5966 53.0824 15.7511 51.5693 15.4501C50.1627 15.1704 48.8627 14.5087 47.8103 13.5406L40.2156 19.6669C41.1974 21.3921 41.7582 23.3881 41.7582 25.515C41.7582 31.5112 37.3013 36.4664 31.5195 37.2485V43.5676C35.3547 44.0588 38.3187 47.3353 38.3187 51.304C38.3187 55.6119 34.8266 59.104 30.5187 59.104C26.2109 59.104 22.7188 55.6119 22.7188 51.304C22.7188 47.3348 25.6836 44.058 29.5195 43.5674V37.3495C25.3445 37.2117 21.7166 34.9126 19.7186 31.5351L7.29487 38.7941C7.34803 39.0433 7.376 39.3019 7.376 39.567C7.376 41.6039 5.72483 43.255 3.688 43.255C1.65117 43.255 0 41.6039 0 39.567C0 37.5302 1.65117 35.879 3.688 35.879C4.73914 35.879 5.68756 36.3188 6.35935 37.0243L18.8475 29.7277C18.3491 28.4189 18.0762 26.9988 18.0762 25.515C18.0762 22.6318 19.1066 19.9893 20.8194 17.9357L17.3741 14.4611C16.1913 15.1836 14.8011 15.6 13.3137 15.6C9.00585 15.6 5.51367 12.1078 5.51367 7.8ZM29.9172 15.674C24.4821 15.674 20.0762 20.08 20.0762 25.515C20.0762 30.95 24.4821 35.356 29.9172 35.356C35.3522 35.356 39.7582 30.95 39.7582 25.515C39.7582 20.08 35.3522 15.674 29.9172 15.674ZM49.8687 2.97748C50.8225 2.34017 51.9439 2 53.091 2C54.6293 2 56.1045 2.61106 57.1922 3.69878C58.2799 4.78649 58.891 6.26176 58.891 7.8C58.891 8.94714 58.5509 10.0685 57.9136 11.0223C57.2763 11.9761 56.3704 12.7195 55.3106 13.1585C54.2508 13.5975 53.0846 13.7124 51.9595 13.4886C50.8344 13.2648 49.801 12.7124 48.9898 11.9012C48.1787 11.0901 47.6263 10.0566 47.4025 8.93153C47.1787 7.80644 47.2935 6.64025 47.7325 5.58044C48.1715 4.52063 48.9149 3.6148 49.8687 2.97748ZM30.5187 45.504C27.3155 45.504 24.7188 48.1008 24.7188 51.304C24.7188 54.5073 27.3155 57.104 30.5187 57.104C33.722 57.104 36.3187 54.5073 36.3187 51.304C36.3187 48.1008 33.722 45.504 30.5187 45.504ZM3.688 37.879C2.75574 37.879 2 38.6348 2 39.567C2 40.4993 2.75574 41.255 3.688 41.255C4.62026 41.255 5.376 40.4993 5.376 39.567C5.376 38.6348 4.62026 37.879 3.688 37.879Z" fill="black"/>
</svg>
