<svg width="80" height="80" viewBox="0 0 80 80" fill="none" xmlns="http://www.w3.org/2000/svg">
<path fill-rule="evenodd" clip-rule="evenodd" d="M40 14.0836L39.9955 14.088C31.7596 5.96918 18.4106 5.97066 10.1766 14.0925C1.94263 22.2143 1.94113 35.3814 10.1721 43.5051L10.1349 43.5418L40 73L69.8651 43.5418L69.8279 43.5051C78.0589 35.3814 78.0574 22.2143 69.8234 14.0925C61.5894 5.97065 48.2403 5.96918 40.0045 14.088L40 14.0836ZM40 69.6698L13.5111 43.5418L13.5479 43.5056L11.8607 41.8405C4.56156 34.6365 4.56289 22.9599 11.8647 15.7576C19.1666 8.55523 31.0044 8.55391 38.3079 15.7536L39.996 17.4178L40 17.4138L40.004 17.4178L41.6921 15.7536C48.9956 8.55391 60.8334 8.55522 68.1353 15.7576C75.4371 22.9599 75.4384 34.6365 68.1393 41.8405L66.4521 43.5056L66.4888 43.5418L40 69.6698ZM34.7677 25.1115C34.5726 25.1133 34.4076 25.2543 34.3781 25.4445L31.9151 41.3171C31.8599 41.6725 31.3897 41.7738 31.1893 41.4735L27.805 36.3993C27.7314 36.289 27.6065 36.2226 27.4726 36.2226H18.7034C18.4836 36.2226 18.3055 36.3983 18.3055 36.615V37.4C18.3055 37.6167 18.4836 37.7925 18.7034 37.7925H26.6145C26.7484 37.7925 26.8733 37.8589 26.9469 37.9692L32.136 45.7491C32.3363 46.0494 32.8065 45.9481 32.8617 45.5928L34.8927 32.5045C34.9609 32.0646 35.6014 32.0587 35.6781 32.4972L38.3544 47.8083C38.387 47.9948 38.5498 48.1317 38.7417 48.134L39.6445 48.1448C39.8363 48.1471 40.0025 48.014 40.0397 47.8283L42.3904 36.0803C42.4595 35.7347 42.9197 35.647 43.1144 35.9424L44.2158 37.6139C44.2892 37.7253 44.4147 37.7925 44.5494 37.7925H50.075C50.2691 37.7925 50.4348 37.6544 50.4673 37.4657L51.0356 34.1648C51.1116 33.7233 51.7575 33.7317 51.8217 34.175L53.282 44.2577C53.3088 44.4426 53.4639 44.5832 53.6529 44.594L54.5605 44.6457C54.7495 44.6565 54.92 44.5344 54.9682 44.3538L56.6407 38.0851C56.6867 37.9126 56.8447 37.7925 57.0255 37.7925H61.4768C61.6966 37.7925 61.8747 37.6167 61.8747 37.4V36.615C61.8747 36.3983 61.6966 36.2226 61.4768 36.2226H55.7985C55.6178 36.2226 55.4597 36.3427 55.4138 36.5152L54.8478 38.6363C54.7374 39.0503 54.1305 39.0157 54.0692 38.5919L52.3655 26.8285C52.3377 26.6371 52.1728 26.4941 51.9768 26.4916L51.0855 26.48C50.8895 26.4775 50.7208 26.6161 50.6879 26.8068L49.1232 35.8958C49.0907 36.0845 48.925 36.2226 48.7309 36.2226H45.4131C45.2785 36.2226 45.1529 36.1554 45.0795 36.044L42.3121 31.8444C42.1174 31.549 41.6573 31.6366 41.5881 31.9823L39.6644 41.5962C39.5789 42.0233 38.957 42.0159 38.882 41.5868L36.0576 25.4289C36.0245 25.2393 35.8568 25.1013 35.6618 25.1031L34.7677 25.1115Z" fill="white"/>
</svg>
