<svg width="80" height="80" viewBox="0 0 80 80" fill="none" xmlns="http://www.w3.org/2000/svg">
<path fill-rule="evenodd" clip-rule="evenodd" d="M71.5028 40.1153L39.8901 8.49315L8.49709 39.8956L12.6821 39.9637C15.4032 40.0079 17.5859 42.2271 17.5859 44.9493V71.5068H62.4491V70.3908H29.8989H29.6912H20.9678V69.5598C20.9678 58.3149 30.0808 49.199 41.3224 49.199C44.7741 49.199 48.0271 50.0591 50.8769 51.5772C51.2342 51.3837 51.6403 51.2767 52.0632 51.2767H62.4491V45.1414C62.4491 42.4064 64.6515 40.1819 67.3855 40.1553L71.5028 40.1153ZM64.9415 51.2767H72.6156C73.5228 51.2767 74.126 52.2154 73.7492 53.0409L65.831 70.3908H64.9415V71.5068C64.9415 72.8838 63.8256 74 62.4491 74H17.5859C16.2094 74 15.0935 72.8838 15.0935 71.5068V44.9493C15.0935 43.5882 14.0021 42.4786 12.6416 42.4565L8.45657 42.3884C6.25585 42.3526 5.17835 39.6895 6.7347 38.1327L38.1277 6.73023C39.1011 5.75659 40.6792 5.75659 41.6525 6.73023L73.2652 38.3524C74.8271 39.9147 73.7357 42.5869 71.527 42.6083L67.4097 42.6483C66.0427 42.6616 64.9415 43.7739 64.9415 45.1414V51.2767ZM48.3842 37.5644C48.3842 42.1541 44.6646 45.8748 40.0762 45.8748C35.4878 45.8748 31.7682 42.1541 31.7682 37.5644C31.7682 32.9746 35.4878 29.2539 40.0762 29.2539C44.6646 29.2539 48.3842 32.9746 48.3842 37.5644ZM50.0458 37.5644C50.0458 43.0721 45.5822 47.537 40.0762 47.537C34.5701 47.537 30.1066 43.0721 30.1066 37.5644C30.1066 32.0566 34.5701 27.5918 40.0762 27.5918C45.5822 27.5918 50.0458 32.0566 50.0458 37.5644ZM32.1836 67.0666H45.0814L51.3074 53.4247C51.4425 53.1287 51.7379 52.9388 52.0632 52.9388H71.9693L64.763 68.7287H31.3528V67.8977C31.3528 67.4387 31.7247 67.0666 32.1836 67.0666ZM44.0134 65.4045L49.739 52.859C47.2101 51.5812 44.3513 50.8612 41.3224 50.8612C31.2769 50.8612 23.0821 58.7874 22.6475 68.7287H29.6912V67.8977C29.6912 66.5207 30.807 65.4045 32.1836 65.4045H44.0134Z" fill="white"/>
</svg>
