<svg width="19" height="19" viewBox="0 0 19 19" fill="none" xmlns="http://www.w3.org/2000/svg">
<path fill-rule="evenodd" clip-rule="evenodd" d="M6.87045 1.56381C7.56785 0.866405 8.51373 0.474609 9.5 0.474609C10.4863 0.474609 11.4322 0.866405 12.1296 1.56381C12.827 2.26121 13.2187 3.20708 13.2187 4.19336V7.71875C13.2187 8.13296 12.883 8.46875 12.4687 8.46875C12.0545 8.46875 11.7187 8.13296 11.7187 7.71875V4.19336C11.7187 3.60491 11.485 3.04056 11.0689 2.62447C10.6528 2.20837 10.0884 1.97461 9.5 1.97461C8.91155 1.97461 8.3472 2.20837 7.93111 2.62447C7.51501 3.04056 7.28125 3.60491 7.28125 4.19336V7.71875C7.28125 8.13296 6.94546 8.46875 6.53125 8.46875C6.11704 8.46875 5.78125 8.13296 5.78125 7.71875V4.19336C5.78125 3.20708 6.17305 2.26121 6.87045 1.56381Z" fill="#079BEE"/>
<path fill-rule="evenodd" clip-rule="evenodd" d="M5.34375 8.46777C4.77421 8.46777 4.3125 8.92948 4.3125 9.49902V16.0303C4.3125 16.5998 4.77421 17.0615 5.34375 17.0615H13.6562C14.2258 17.0615 14.6875 16.5998 14.6875 16.0303V9.49902C14.6875 8.92948 14.2258 8.46777 13.6562 8.46777H5.34375ZM2.8125 9.49902C2.8125 8.10105 3.94578 6.96777 5.34375 6.96777H13.6562C15.0542 6.96777 16.1875 8.10105 16.1875 9.49902V16.0303C16.1875 17.4282 15.0542 18.5615 13.6562 18.5615H5.34375C3.94578 18.5615 2.8125 17.4282 2.8125 16.0303V9.49902Z" fill="#079BEE"/>
</svg>
