<svg width="56" height="48" viewBox="0 0 56 48" fill="none" xmlns="http://www.w3.org/2000/svg">
<path d="M55.9987 4.33623V0C49.1221 0 43.5156 5.60644 43.5156 12.4831H47.8519C47.8519 7.97166 51.5311 4.33623 55.9987 4.33623Z" fill="url(#paint0_linear_1531_2618)"/>
<path d="M31.0312 0V4.33623C35.5427 4.33623 39.1781 8.01546 39.1781 12.4831H43.5143C43.5143 5.60644 37.9079 0 31.0312 0Z" fill="url(#paint1_linear_1531_2618)"/>
<path fill-rule="evenodd" clip-rule="evenodd" d="M5.14538 4.73947L27.5621 4.3792L27.4932 0.0878906L0.853516 0.516029V23.6519C0.853516 29.1928 3.47179 35.1978 8.00106 38.6702L8.06853 38.722L21.7503 47.5862L35.4566 38.641L35.509 38.602C40.7368 34.7172 43.6459 29.6492 43.6459 23.4767V16.0307H39.354V23.4767C39.354 28.0609 37.2863 31.9158 33.0003 35.119L21.7417 42.4668L10.5481 35.2145C7.2306 32.6322 5.14538 27.982 5.14538 23.6519V4.73947Z" fill="#BFCFEB"/>
<defs>
<linearGradient id="paint0_linear_1531_2618" x1="27.9248" y1="6.23664" x2="54.9444" y2="6.23664" gradientUnits="userSpaceOnUse">
<stop offset="0.1069" stop-color="#0F26AA"/>
<stop offset="0.8803" stop-color="#FF4A56"/>
</linearGradient>
<linearGradient id="paint1_linear_1531_2618" x1="27.9235" y1="6.23664" x2="54.9432" y2="6.23664" gradientUnits="userSpaceOnUse">
<stop offset="0.1069" stop-color="#0F26AA"/>
<stop offset="0.8803" stop-color="#FF4A56"/>
</linearGradient>
</defs>
</svg>
