<svg width="20" height="20" viewBox="0 0 20 20" fill="none" xmlns="http://www.w3.org/2000/svg">
<path fill-rule="evenodd" clip-rule="evenodd" d="M15.7645 1.38397C16.6036 1.23504 17.4067 1.20238 18.0585 1.3618C18.2042 1.39715 18.337 1.47288 18.4417 1.58036C18.5455 1.68701 18.6173 1.82056 18.6491 1.96583C18.8021 2.63662 18.7703 3.44592 18.6211 4.29071C18.47 5.14617 18.1907 6.08028 17.8128 7.01793C17.0597 8.88642 15.8908 10.8274 14.4821 12.2287C14.0681 12.6453 13.6244 13.031 13.1546 13.383C13.1854 14.1499 13.0979 14.9435 12.7853 15.6608C12.2789 16.8191 11.3662 17.5472 10.4874 17.9988C9.61082 18.4493 8.72979 18.6462 8.20722 18.7301C8.20703 18.7302 8.20741 18.7301 8.20722 18.7301C8.05959 18.7539 7.90848 18.7434 7.76553 18.6996C7.62239 18.6557 7.49127 18.5794 7.3823 18.4767C7.27333 18.3741 7.18943 18.2477 7.13708 18.1074C7.08473 17.9671 7.06534 17.8167 7.0804 17.6678L7.08094 17.6624L7.35628 15.1539C7.58463 15.1767 7.8139 15.1893 8.04341 15.1915L8.04949 14.5666L7.42822 14.4984L7.35628 15.1539C7.32841 15.1511 7.30055 15.1482 7.2727 15.1451C7.27403 15.1452 7.27536 15.1453 7.27669 15.1455L7.33895 14.5236L7.26967 15.1447C7.27068 15.1449 7.27169 15.145 7.2727 15.1451C6.96591 15.1134 6.67954 14.9765 6.46235 14.7574L6.46341 14.7585L6.90535 14.3166L6.46087 14.7559L5.23983 13.5349L5.67917 13.0904L5.23724 13.5323L5.23835 13.5334C5.0194 13.3164 4.88242 13.0302 4.85067 12.7235C4.85078 12.7245 4.85088 12.7254 4.85099 12.7264L5.47215 12.6572L4.8503 12.7198C4.85042 12.7211 4.85055 12.7223 4.85067 12.7235C4.84742 12.6942 4.84434 12.6649 4.84143 12.6356L5.49739 12.5636L5.42918 11.9423L4.80421 11.9481C4.80631 12.1777 4.81874 12.4071 4.84143 12.6356L2.32607 12.9118C2.17692 12.927 2.02624 12.9078 1.88574 12.8554C1.74522 12.8031 1.61865 12.7191 1.51583 12.61C1.41301 12.5009 1.33669 12.3695 1.29279 12.2262C1.24889 12.0828 1.2386 11.9313 1.2627 11.7833L1.26288 11.7822C1.3487 11.2612 1.54651 10.3818 1.99751 9.50604C2.44968 8.62803 3.17676 7.71626 4.33426 7.20731L4.33592 7.20659C5.05352 6.89354 5.85134 6.80619 6.62302 6.83988C6.5522 6.93406 6.48273 7.02929 6.41464 7.12555L6.92488 7.48648L6.9812 6.86403C6.86271 6.8533 6.74318 6.84512 6.62302 6.83988C6.97503 6.37178 7.36053 5.92963 7.77656 5.51694C7.77627 5.51723 7.77597 5.51753 7.77568 5.51782L8.21746 5.95992L7.77735 5.51616C7.77708 5.51642 7.77682 5.51668 7.77656 5.51694C9.18189 4.11297 11.1522 2.94465 13.033 2.19206C13.9769 1.81432 14.9142 1.53487 15.7645 1.38397ZM13.4974 3.35259C11.7286 4.06038 9.91518 5.14701 8.65924 6.40202L8.65758 6.40368C8.20901 6.84857 7.79998 7.33164 7.43513 7.84742C7.30642 8.02938 7.09054 8.12902 6.86857 8.10894C6.1078 8.04011 5.40403 8.10466 4.83666 8.35191C4.02229 8.71022 3.47654 9.36429 3.1088 10.0783C2.82552 10.6284 2.66 11.1918 2.56475 11.628L5.36098 11.3211C5.53656 11.3018 5.7121 11.3577 5.84417 11.475C5.97625 11.5923 6.05254 11.76 6.05415 11.9366C6.05615 12.1543 6.06922 12.3717 6.09331 12.588L6.09404 12.5945C6.096 12.614 6.10463 12.6321 6.11853 12.6459L6.12113 12.6484L7.34984 13.8772C7.36359 13.8911 7.38175 13.8998 7.4012 13.9017L7.40823 13.9024C7.62321 13.9264 7.83927 13.9395 8.05558 13.9416C8.23214 13.9433 8.39974 14.0196 8.51694 14.1517C8.63415 14.2838 8.69003 14.4592 8.67076 14.6347L8.36408 17.4291C8.80028 17.3351 9.36498 17.1702 9.916 16.887C10.6306 16.5198 11.2839 15.9744 11.6396 15.161C11.8874 14.592 11.9519 13.8915 11.8866 13.1331C11.8675 12.9116 11.9675 12.6966 12.1493 12.5685C12.6665 12.2041 13.1508 11.7951 13.5968 11.3463L13.5994 11.3437C14.8613 10.0889 15.9472 8.30276 16.6534 6.55064C17.0053 5.6777 17.2568 4.82784 17.3902 4.07324C17.4982 3.46157 17.5239 2.93863 17.4775 2.52684C17.0896 2.48309 16.5845 2.50796 15.9829 2.61473C15.2325 2.74791 14.3783 3.00006 13.4974 3.35259ZM8.00839 17.496C8.0082 17.4961 8.00858 17.496 8.00839 17.496ZM12.8452 6.12332C12.6389 6.12332 12.4372 6.1845 12.2657 6.29911C12.0942 6.41372 11.9605 6.57663 11.8816 6.76722C11.8027 6.95781 11.782 7.16753 11.8223 7.36985C11.8625 7.57217 11.9619 7.75801 12.1078 7.90386C12.2045 8.00076 12.3199 8.07816 12.4463 8.13062C12.5728 8.18307 12.7083 8.21007 12.8452 8.21007C12.9821 8.21007 13.1176 8.18307 13.2441 8.13062C13.3705 8.07816 13.4854 8.00128 13.5821 7.90438C13.728 7.75853 13.8278 7.57217 13.8681 7.36985C13.9084 7.16753 13.8877 6.95781 13.8088 6.76722C13.7299 6.57663 13.5962 6.41372 13.4247 6.29911C13.2531 6.1845 13.0515 6.12332 12.8452 6.12332ZM11.2237 8.78758C10.9032 8.46697 10.6848 8.0585 10.5963 7.61382C10.5078 7.16901 10.5532 6.70795 10.7267 6.28893C10.9003 5.86992 11.1941 5.51177 11.5712 5.25979C11.9483 5.00782 12.3917 4.87332 12.8452 4.87332C13.2987 4.87332 13.7421 5.00782 14.1192 5.25979C14.4962 5.51177 14.7901 5.86992 14.9637 6.28893C15.1372 6.70795 15.1826 7.16901 15.0941 7.61382C15.0056 8.0585 14.7872 8.46697 14.4667 8.78758C14.2539 9.00072 14.0012 9.16982 13.723 9.28521C13.4448 9.40065 13.1465 9.46007 12.8452 9.46007C12.5439 9.46007 12.2456 9.40065 11.9673 9.28521C11.6892 9.16982 11.4365 9.00072 11.2237 8.78758Z" fill="#079BEE"/>
<path fill-rule="evenodd" clip-rule="evenodd" d="M4.90315 13.6739C4.94521 14.0165 4.70156 14.3284 4.35896 14.3704C4.10782 14.4012 3.87418 14.5151 3.69515 14.6939L3.25351 14.2516L3.6962 14.6928C3.6362 14.753 3.53905 14.9191 3.44315 15.2331C3.35349 15.5267 3.28637 15.8757 3.23752 16.2221C3.20707 16.4381 3.18455 16.647 3.168 16.8321C3.35324 16.8155 3.56227 16.7929 3.77843 16.7624C4.12486 16.7136 4.47387 16.6464 4.76719 16.5567C5.08106 16.4607 5.24643 16.3635 5.30597 16.304L5.30704 16.3029C5.48582 16.1249 5.5994 15.8918 5.62944 15.6413C5.67054 15.2986 5.98169 15.054 6.32441 15.0951C6.66713 15.1362 6.91165 15.4474 6.87055 15.7901C6.80708 16.3194 6.5672 16.8118 6.1896 17.1881C5.90483 17.4727 5.4923 17.642 5.13281 17.752C4.75257 17.8683 4.3326 17.9466 3.9531 18.0002C3.57074 18.0541 3.2134 18.0851 2.95265 18.1027C2.82184 18.1115 2.71426 18.117 2.63871 18.1203C2.60091 18.122 2.57106 18.1231 2.55024 18.1238L2.52591 18.1246L2.51908 18.1248L2.51703 18.1248C2.51693 18.1248 2.51592 18.1249 2.5 17.5001C1.8752 17.4841 1.8752 17.484 1.8752 17.4839L1.87528 17.481L1.87548 17.4741L1.87626 17.4498C1.87697 17.429 1.87809 17.3992 1.87974 17.3614C1.88306 17.2859 1.88855 17.1784 1.89735 17.0476C1.9149 16.787 1.94587 16.4298 1.99977 16.0476C2.05327 15.6681 2.13151 15.2483 2.24767 14.868C2.35757 14.5081 2.52669 14.0955 2.81082 13.8104L2.81187 13.8094C3.18806 13.4337 3.67898 13.1945 4.20666 13.1297C4.54926 13.0877 4.86109 13.3313 4.90315 13.6739ZM2.5 17.5001L1.8752 17.4839C1.87084 17.6552 1.93693 17.8209 2.05805 17.942C2.17917 18.0631 2.34469 18.1292 2.51592 18.1249L2.5 17.5001Z" fill="#079BEE"/>
</svg>
