<svg width="92" height="58" viewBox="0 0 92 58" fill="none" xmlns="http://www.w3.org/2000/svg">
<path fill-rule="evenodd" clip-rule="evenodd" d="M16.25 10.5C10.8652 10.5 6.5 14.8652 6.5 20.25V39.25C6.5 44.6348 10.8652 49 16.25 49H61.25C66.6348 49 71 44.6348 71 39.25V26.25H75.5V39.25C75.5 47.1201 69.1201 53.5 61.25 53.5H16.25C8.37994 53.5 2 47.1201 2 39.25V20.25C2 12.3799 8.37994 6 16.25 6H55.75V10.5H16.25Z" fill="black"/>
<path d="M89.6309 11.179V6.25C81.8142 6.25 75.4414 12.6228 75.4414 20.4395H80.3704C80.3704 15.3612 84.5028 11.179 89.6309 11.179Z" fill="url(#paint0_linear_5672_25828)"/>
<path d="M61.25 6.29688V11.2259C66.3781 11.2259 70.5105 15.4081 70.5105 20.4864H75.4395C75.4395 12.6199 69.0667 6.29688 61.25 6.29688Z" fill="url(#paint1_linear_5672_25828)"/>
<path fill-rule="evenodd" clip-rule="evenodd" d="M24.75 34.5C20.0785 34.5 16.5 38.062 16.5 42.25H12C12 35.3724 17.8026 30 24.75 30C31.6974 30 37.5 35.3724 37.5 42.25H33C33 38.062 29.4215 34.5 24.75 34.5Z" fill="black"/>
<path fill-rule="evenodd" clip-rule="evenodd" d="M25.25 29.75C27.7353 29.75 29.75 27.7353 29.75 25.25C29.75 22.7647 27.7353 20.75 25.25 20.75C22.7647 20.75 20.75 22.7647 20.75 25.25C20.75 27.7353 22.7647 29.75 25.25 29.75ZM25.25 34.25C30.2206 34.25 34.25 30.2206 34.25 25.25C34.25 20.2794 30.2206 16.25 25.25 16.25C20.2794 16.25 16.25 20.2794 16.25 25.25C16.25 30.2206 20.2794 34.25 25.25 34.25Z" fill="black"/>
<path fill-rule="evenodd" clip-rule="evenodd" d="M42 19.25C42 18.0074 43.0074 17 44.25 17H55.25C56.4926 17 57.5 18.0074 57.5 19.25C57.5 20.4926 56.4926 21.5 55.25 21.5H44.25C43.0074 21.5 42 20.4926 42 19.25Z" fill="black"/>
<path fill-rule="evenodd" clip-rule="evenodd" d="M42 28.25C42 27.0074 43.0074 26 44.25 26H65.25C66.4926 26 67.5 27.0074 67.5 28.25C67.5 29.4926 66.4926 30.5 65.25 30.5H44.25C43.0074 30.5 42 29.4926 42 28.25Z" fill="black"/>
<path fill-rule="evenodd" clip-rule="evenodd" d="M42 38.25C42 37.0074 43.0074 36 44.25 36H65.25C66.4926 36 67.5 37.0074 67.5 38.25C67.5 39.4926 66.4926 40.5 65.25 40.5H44.25C43.0074 40.5 42 39.4926 42 38.25Z" fill="black"/>
<defs>
<linearGradient id="paint0_linear_5672_25828" x1="57.7099" y1="13.374" x2="88.4231" y2="13.374" gradientUnits="userSpaceOnUse">
<stop offset="0.1069" stop-color="#0F26AA"/>
<stop offset="0.8803" stop-color="#FF4A56"/>
</linearGradient>
<linearGradient id="paint1_linear_5672_25828" x1="57.7079" y1="13.3711" x2="88.4212" y2="13.3711" gradientUnits="userSpaceOnUse">
<stop offset="0.1069" stop-color="#0F26AA"/>
<stop offset="0.8803" stop-color="#FF4A56"/>
</linearGradient>
</defs>
</svg>
