<svg width="62" height="58" viewBox="0 0 62 58" fill="none" xmlns="http://www.w3.org/2000/svg">
<g clip-path="url(#clip0_5672_25841)">
<path fill-rule="evenodd" clip-rule="evenodd" d="M29.2982 36.2457C17.2027 36.2457 7.44106 46.0074 7.44106 58.1029H2.5625C2.5625 43.313 14.5083 31.3672 29.2982 31.3672C44.0881 31.3672 56.034 43.313 56.034 58.1029H51.1554C51.1554 46.0074 41.3938 36.2457 29.2982 36.2457Z" fill="black"/>
<path fill-rule="evenodd" clip-rule="evenodd" d="M29.3003 5.92543C22.2386 5.92543 16.5543 11.6491 16.5543 18.6714C16.5543 25.7332 22.278 31.4174 29.3003 31.4174C36.3621 31.4174 42.0464 25.6938 42.0464 18.6714H46.9249C46.9249 28.3778 39.0669 36.296 29.3003 36.296C19.594 36.296 11.6758 28.438 11.6758 18.6714C11.6758 8.96512 19.5338 1.04688 29.3003 1.04688V5.92543Z" fill="black"/>
<path d="M61.0645 5.92899V1C53.2478 1 46.875 7.37284 46.875 15.1895H51.804C51.804 10.1112 55.9364 5.92899 61.0645 5.92899Z" fill="url(#paint0_linear_5672_25841)"/>
<path d="M32.6836 1.04688V5.97587C37.8117 5.97587 41.9441 10.1581 41.9441 15.2364H46.8731C46.8731 7.36994 40.5003 1.04688 32.6836 1.04688Z" fill="url(#paint1_linear_5672_25841)"/>
</g>
<defs>
<linearGradient id="paint0_linear_5672_25841" x1="29.1435" y1="8.12404" x2="59.8567" y2="8.12404" gradientUnits="userSpaceOnUse">
<stop offset="0.1069" stop-color="#0F26AA"/>
<stop offset="0.8803" stop-color="#FF4A56"/>
</linearGradient>
<linearGradient id="paint1_linear_5672_25841" x1="29.1415" y1="8.12113" x2="59.8548" y2="8.12113" gradientUnits="userSpaceOnUse">
<stop offset="0.1069" stop-color="#0F26AA"/>
<stop offset="0.8803" stop-color="#FF4A56"/>
</linearGradient>
<clipPath id="clip0_5672_25841">
<rect width="62" height="58" fill="white"/>
</clipPath>
</defs>
</svg>
