<svg width="59" height="52" viewBox="0 0 59 52" fill="none" xmlns="http://www.w3.org/2000/svg">
<path d="M58.5806 4.14549V0C51.9816 0 46.6094 5.37222 46.6094 11.9712H50.7549C50.7549 7.65647 54.2659 4.14549 58.5806 4.14549Z" fill="url(#paint0_linear_5548_29788)"/>
<path d="M34.5977 0V4.14549C38.9124 4.14549 42.4233 7.65647 42.4233 11.9712H46.5688C46.6111 5.37222 41.1966 0 34.5977 0Z" fill="url(#paint1_linear_5548_29788)"/>
<path fill-rule="evenodd" clip-rule="evenodd" d="M29.0972 0.435986C28.736 0.416248 28.3721 0.40625 28.006 0.40625C17.1339 0.40625 8.32031 9.21981 8.32031 20.0919C8.32031 30.964 17.1339 39.7775 28.006 39.7775C38.878 39.7775 47.6916 30.964 47.6916 20.0919C47.6916 18.7149 47.5502 17.3709 47.2812 16.0737H42.934C43.278 17.355 43.4615 18.702 43.4615 20.0919C43.4615 28.6278 36.5418 35.5474 28.006 35.5474C19.4701 35.5474 12.5504 28.6278 12.5504 20.0919C12.5504 11.556 19.4701 4.63634 28.006 4.63634C28.3728 4.63634 28.7367 4.64913 29.0972 4.67427V0.435986Z" fill="black"/>
<path fill-rule="evenodd" clip-rule="evenodd" d="M14.1831 38.1004L3.29316 51.6081L0 48.9531L10.8899 35.4454L14.1831 38.1004Z" fill="black"/>
<defs>
<linearGradient id="paint0_linear_5548_29788" x1="31.6115" y1="5.97814" x2="57.5582" y2="5.97814" gradientUnits="userSpaceOnUse">
<stop offset="0.1069" stop-color="#0F26AA"/>
<stop offset="0.8803" stop-color="#FF4A56"/>
</linearGradient>
<linearGradient id="paint1_linear_5548_29788" x1="31.6134" y1="5.97814" x2="57.56" y2="5.97814" gradientUnits="userSpaceOnUse">
<stop offset="0.1069" stop-color="#0F26AA"/>
<stop offset="0.8803" stop-color="#FF4A56"/>
</linearGradient>
</defs>
</svg>
