<svg width="44" height="45" viewBox="0 0 44 45" fill="none" xmlns="http://www.w3.org/2000/svg">
<g clip-path="url(#clip0_5951_16699)">
<path d="M27.1562 21.1797C27.1562 18.2719 24.8432 15.9062 22 15.9062C19.1568 15.9062 16.8438 18.2719 16.8438 21.1797C16.8438 24.0875 19.1568 26.4531 22 26.4531C24.8432 26.4531 27.1562 24.0875 27.1562 21.1797ZM22 23.8164C20.5784 23.8164 19.4219 22.6336 19.4219 21.1797C19.4219 19.7258 20.5784 18.543 22 18.543C23.4216 18.543 24.5781 19.7258 24.5781 21.1797C24.5781 22.6336 23.4216 23.8164 22 23.8164Z" fill="black"/>
<path d="M22 10.6328C15.6029 10.6328 10.3984 15.9556 10.3984 22.498C10.3984 29.0317 15.5962 34.3633 22 34.3633C28.4073 34.3633 33.6016 29.0288 33.6016 22.498C33.6016 15.9556 28.3972 10.6328 22 10.6328ZM17.8103 30.6694C18.9652 29.6536 20.4336 29.0898 22 29.0898C23.5664 29.0898 25.0348 29.6536 26.1897 30.6694C24.9369 31.344 23.5115 31.7266 22 31.7266C20.4885 31.7266 19.0631 31.344 17.8103 30.6694ZM28.3131 29.085C26.6375 27.3984 24.4011 26.4531 22 26.4531C19.5989 26.4531 17.3625 27.3984 15.687 29.085C14.0155 27.409 12.9766 25.0754 12.9766 22.498C12.9766 17.4094 17.0245 13.2695 22 13.2695C26.9755 13.2695 31.0234 17.4094 31.0234 22.498C31.0234 25.0754 29.9845 27.409 28.3131 29.085Z" fill="black"/>
<path d="M41.3359 22.3154V6.67967C41.3359 5.95158 40.7588 5.36131 40.0469 5.36131H39.0414C33.3178 5.36131 27.6714 3.58337 22.7125 0.219705C22.2807 -0.0732349 21.7193 -0.0732349 21.2875 0.219705C16.3286 3.58337 10.6822 5.36131 4.95859 5.36131H3.95312C3.24122 5.36131 2.66406 5.95158 2.66406 6.67967V22.3154C2.66406 34.0865 11.3655 43.4975 21.8222 44.9874C21.8812 44.9958 21.9406 45.0001 22 45.0001C22.0605 45.0001 22.1209 44.9958 22.1809 44.9871C33.1788 43.3921 41.3359 33.6744 41.3359 22.3154ZM21.9986 42.3495C12.9489 40.968 5.24219 32.7659 5.24219 22.3154V7.99671C11.1033 7.9416 16.8742 6.18036 22 2.88745C27.1258 6.18036 32.8967 7.94151 38.7578 7.99671V22.3154C38.7578 32.2892 31.5655 40.8686 21.9986 42.3495Z" fill="black"/>
</g>
<defs>
<clipPath id="clip0_5951_16699">
<rect width="44" height="45" fill="white"/>
</clipPath>
</defs>
</svg>
