<svg width="92" height="35" viewBox="0 0 92 35" fill="none" xmlns="http://www.w3.org/2000/svg">
<path fill-rule="evenodd" clip-rule="evenodd" d="M47.9733 5.87607C51.4514 2.45049 55.2859 0.96875 59.8826 0.96875V5.89148C56.5496 5.89148 53.959 6.88433 51.4134 9.3974L51.3956 9.41495L42.6515 17.7035L51.3979 26.2135C56.218 30.8892 64.0388 30.8917 68.8621 26.2208C71.3414 23.7703 72.4425 21.3502 72.4425 18.4082H77.3653C77.3653 22.9024 75.5549 26.531 72.3126 29.7318L72.3049 29.7394L72.2972 29.7469C65.5649 36.2775 54.7026 36.2775 47.9704 29.7469L39.0759 21.0929L29.9354 29.7572C23.2024 36.2775 12.3479 36.2741 5.61923 29.7469C-1.15498 23.1756 -1.15498 12.4504 5.61923 5.87908C12.3515 -0.651495 23.2138 -0.651495 29.946 5.87908L29.9526 5.88541L34.8803 10.701L39.0298 14.3537L47.9733 5.87607ZM35.4425 17.7541L31.5314 14.3114L26.5185 9.4125C26.5174 9.41147 26.5164 9.41045 26.5153 9.40943C21.6924 4.73434 13.8684 4.73536 9.0468 9.4125C4.26614 14.0499 4.26614 21.5761 9.0468 26.2135C13.8694 30.8917 21.6959 30.8917 26.5185 26.2135L26.5287 26.2036L35.4425 17.7541Z" fill="black"/>
<path d="M91.8336 5.87096V0.960938C83.9462 0.960938 77.5156 7.30925 77.5156 15.0958H82.4892C82.4892 10.037 86.7093 5.87096 91.8336 5.87096Z" fill="url(#paint0_linear_4356_17187)"/>
<path d="M63.1973 1.00781V5.91783C68.3718 5.91783 72.5416 10.0839 72.5416 15.1427H77.5153C77.5153 7.30652 71.0847 1.00781 63.1973 1.00781Z" fill="url(#paint1_linear_4356_17187)"/>
<defs>
<linearGradient id="paint0_linear_4356_17187" x1="59.6423" y1="8.05567" x2="90.6337" y2="8.05567" gradientUnits="userSpaceOnUse">
<stop offset="0.1069" stop-color="#0F26AA"/>
<stop offset="0.8803" stop-color="#FF4A56"/>
</linearGradient>
<linearGradient id="paint1_linear_4356_17187" x1="59.642" y1="8.05295" x2="90.6333" y2="8.05295" gradientUnits="userSpaceOnUse">
<stop offset="0.1069" stop-color="#0F26AA"/>
<stop offset="0.8803" stop-color="#FF4A56"/>
</linearGradient>
</defs>
</svg>
