<?xml version="1.0" encoding="utf-8"?>
<!-- Generator: Adobe Illustrator 27.2.0, SVG Export Plug-In . SVG Version: 6.00 Build 0)  -->
<svg version="1.1" id="Layer_1" xmlns="http://www.w3.org/2000/svg" xmlns:xlink="http://www.w3.org/1999/xlink" x="0px" y="0px"
	 viewBox="0 0 40 40" style="enable-background:new 0 0 40 40;" xml:space="preserve">
<style type="text/css">
	.st0{fill:#0F26AA;}
	.st1{fill:#047FFE;}
</style>
<g>
	<path class="st0" d="M12.9,38.7c-0.6,0-1.1-0.1-1.6-0.4c-0.5-0.2-0.9-0.6-1.3-1L1.1,26.3C1,26.2,0.9,26.1,0.9,26
		c-0.3-0.4-0.5-0.9-0.5-1.4c-0.1-0.5-0.1-1,0-1.5L3.5,9.3c0.1-0.5,0.4-1.1,0.7-1.5C4.6,7.4,5,7,5.5,6.8l12.8-6.2
		c0.4-0.2,0.9-0.3,1.4-0.4l0,0l0,0c0,0,0,0,0,0c0.6,0,1.2,0.1,1.8,0.4l12.8,6.2c0.5,0.2,0.9,0.6,1.3,1c0.3,0.4,0.6,0.9,0.7,1.5
		l3.2,13.8c0.1,0.5,0.1,1.1,0,1.6c-0.1,0.5-0.4,1.1-0.7,1.5L30,37.3c-0.3,0.4-0.8,0.8-1.3,1c-0.5,0.2-1,0.4-1.6,0.4L12.9,38.7z
		 M20,2.8C20,2.8,20,2.8,20,2.8L20,2.8c-0.2,0-0.4,0-0.5,0.1L6.6,9.1C6.5,9.1,6.3,9.2,6.2,9.4C6.1,9.5,6,9.7,6,9.9L2.8,23.7
		c0,0.2,0,0.3,0,0.5s0.1,0.3,0.2,0.4c0,0,0,0.1,0.1,0.1l8.9,11.1c0.1,0.1,0.3,0.3,0.4,0.3c0.2,0.1,0.3,0.1,0.5,0.1l14.3,0
		c0.2,0,0.4,0,0.5-0.1c0.2-0.1,0.3-0.2,0.4-0.3L37,24.7c0.1-0.1,0.2-0.3,0.2-0.5c0-0.2,0-0.3,0-0.5L34,9.9c0-0.2-0.1-0.3-0.2-0.5
		c-0.1-0.1-0.3-0.3-0.4-0.3L20.5,2.9C20.4,2.8,20.2,2.8,20,2.8z"/>
</g>
<path class="st1" d="M20,6.2c-0.4,0-0.8,0.4-0.8,0.9c0,0,0,0,0,0c0,0.1,0,0.1,0,0.2c0,0.3,0.1,0.5,0.1,0.7c0.1,0.5,0.1,1,0.1,1.4
	c0,0.2-0.1,0.3-0.2,0.4l0,0.3c-0.5,0-0.9,0.1-1.4,0.2c-2,0.5-3.7,1.5-5,2.9c-0.1-0.1-0.2-0.2-0.3-0.2c-0.1,0-0.3,0.1-0.5,0
	c-0.3-0.2-0.7-0.6-1-0.9c-0.2-0.2-0.3-0.4-0.5-0.5c0,0-0.1-0.1-0.2-0.1c-0.2-0.1-0.4-0.2-0.5-0.2c-0.2,0-0.5,0.1-0.6,0.3
	c-0.3,0.3-0.2,0.8,0.2,1.1c0,0,0,0,0,0c0.1,0,0.1,0.1,0.2,0.1c0.2,0.2,0.4,0.2,0.6,0.4c0.5,0.3,0.8,0.5,1.1,0.8
	c0.1,0.1,0.1,0.3,0.2,0.4l0.2,0.2c-1.3,2-1.9,4.4-1.6,7l-0.3,0.1c-0.1,0.1-0.2,0.3-0.3,0.3c-0.4,0.1-0.8,0.2-1.4,0.2
	c-0.3,0-0.5,0-0.7,0.1c-0.1,0-0.1,0-0.2,0c0,0,0,0,0,0c0,0,0,0,0,0c-0.5,0.1-0.7,0.5-0.7,0.9c0.1,0.4,0.5,0.7,1,0.6c0,0,0,0,0,0
	c0,0,0,0,0,0c0.1,0,0.1,0,0.2,0c0.3-0.1,0.5-0.2,0.7-0.3c0.5-0.2,0.9-0.3,1.3-0.4c0.2,0,0.4,0.1,0.4,0.2l0.3-0.1
	c0.8,2.4,2.4,4.3,4.4,5.6l-0.1,0.3c0.1,0.1,0.1,0.3,0.1,0.4c-0.1,0.4-0.4,0.8-0.7,1.3c-0.1,0.2-0.3,0.4-0.4,0.6
	c0,0.1-0.1,0.1-0.1,0.2c-0.2,0.4-0.1,0.9,0.3,1.1c0.4,0.2,0.9,0,1.1-0.4c0,0,0,0,0,0c0,0,0,0,0,0c0-0.1,0.1-0.1,0.1-0.2
	c0.1-0.3,0.1-0.5,0.2-0.7c0.2-0.5,0.3-1,0.6-1.4c0.1-0.1,0.2-0.1,0.3-0.2l0.2-0.3c1.8,0.7,3.8,0.9,5.8,0.4c0.5-0.1,0.9-0.2,1.3-0.4
	c0,0.1,0.1,0.3,0.2,0.3c0.1,0,0.3,0.1,0.4,0.2c0.2,0.4,0.4,0.8,0.5,1.3c0.1,0.2,0.1,0.5,0.2,0.7c0,0.1,0.1,0.1,0.1,0.2
	c0.2,0.4,0.7,0.6,1.1,0.4c0.4-0.2,0.5-0.7,0.3-1.1c0-0.1-0.1-0.1-0.1-0.2c-0.1-0.2-0.3-0.4-0.4-0.6c-0.3-0.5-0.5-0.8-0.7-1.2
	c-0.1-0.2,0-0.3,0.1-0.5c0,0-0.1-0.2-0.1-0.3c2.1-1.3,3.7-3.3,4.4-5.6c0.1,0,0.3,0,0.3,0.1c0.1-0.1,0.2-0.2,0.4-0.2
	c0.4,0.1,0.8,0.2,1.3,0.4c0.2,0.1,0.4,0.2,0.7,0.3c0.1,0,0.1,0,0.2,0c0,0,0,0,0,0c0,0,0,0,0,0c0.5,0.1,0.9-0.2,1-0.6
	c0.1-0.4-0.2-0.8-0.7-0.9c-0.1,0-0.2,0-0.2-0.1c-0.3-0.1-0.5,0-0.7-0.1c-0.5-0.1-1-0.1-1.4-0.2c-0.2-0.1-0.3-0.3-0.3-0.3l-0.3-0.1
	c0.2-1.2,0.1-2.4-0.2-3.6c-0.3-1.2-0.8-2.3-1.4-3.3c0.1-0.1,0.2-0.2,0.3-0.2c0-0.1,0-0.3,0.1-0.4c0.3-0.3,0.7-0.5,1.1-0.8
	c0.2-0.1,0.4-0.2,0.6-0.4c0,0,0.1-0.1,0.2-0.1c0.4-0.3,0.5-0.8,0.2-1.1c-0.3-0.3-0.8-0.4-1.1-0.1c-0.1,0-0.1,0.1-0.2,0.1
	c-0.2,0.2-0.3,0.4-0.5,0.5c-0.4,0.4-0.7,0.7-1,0.9c-0.1,0.1-0.4,0.1-0.5,0.1l-0.3,0.2c-1.7-1.8-3.9-2.9-6.4-3.1c0-0.1,0-0.3,0-0.3
	c-0.1-0.1-0.2-0.2-0.3-0.4c0-0.4,0-0.9,0.1-1.4c0-0.3,0.1-0.5,0.1-0.7c0-0.1,0-0.2,0-0.2C20.8,6.6,20.4,6.2,20,6.2z M19,12.2l-0.2,4
	l0,0c0,0.4-0.3,0.7-0.7,0.7c-0.1,0-0.3,0-0.4-0.1l0,0l-3.3-2.4c1-1,2.3-1.7,3.8-2.1C18.5,12.3,18.8,12.2,19,12.2z M21,12.2
	c1.7,0.2,3.4,1,4.6,2.2l-3.3,2.3l0,0c-0.3,0.2-0.7,0.2-0.9-0.1c-0.1-0.1-0.1-0.3-0.1-0.4l0,0L21,12.2z M13.2,15.9l3,2.7l0,0
	c0.3,0.2,0.3,0.6,0.1,0.9c-0.1,0.1-0.2,0.2-0.4,0.2l0,0L12.1,21C11.9,19.2,12.3,17.4,13.2,15.9z M26.8,16c0.4,0.7,0.8,1.5,1,2.4
	c0.2,0.9,0.2,1.7,0.2,2.6L24,19.8l0,0c-0.3-0.1-0.6-0.5-0.5-0.8c0-0.1,0.1-0.3,0.2-0.4l0,0L26.8,16z M19.4,18.9h1.2l0.8,1L21.1,21
	L20,21.6L18.9,21l-0.3-1.2L19.4,18.9z M23.3,22.2c0.1,0,0.1,0,0.2,0l0,0l4,0.7c-0.6,1.7-1.7,3.1-3.2,4l-1.6-3.8l0,0
	c-0.1-0.3,0-0.7,0.3-0.9C23.2,22.2,23.3,22.2,23.3,22.2z M16.6,22.2c0.3,0,0.6,0.2,0.7,0.5c0,0.1,0,0.3,0,0.4l0,0l-1.5,3.7
	c-1.4-0.9-2.6-2.3-3.2-4l4-0.7l0,0C16.5,22.2,16.6,22.2,16.6,22.2z M20,23.8c0.1,0,0.2,0,0.3,0.1c0.1,0.1,0.2,0.2,0.3,0.3h0l2,3.5
	c-0.3,0.1-0.5,0.2-0.8,0.2c-1.5,0.3-3,0.2-4.3-0.2l2-3.5h0C19.5,24,19.7,23.8,20,23.8z"/>
</svg>
