<svg width="22" height="22" viewBox="0 0 22 22" fill="none" xmlns="http://www.w3.org/2000/svg">
<path fill-rule="evenodd" clip-rule="evenodd" d="M3.94922 8.48805C3.94922 4.98441 6.92787 2.19531 10.5299 2.19531C14.1319 2.19531 17.1105 4.98441 17.1105 8.48805C17.1105 10.4633 16.0426 12.907 14.8727 15.0193C13.6852 17.1633 12.3177 19.0949 11.5844 20.0852C11.4634 20.2505 11.3052 20.3851 11.1226 20.4781C10.939 20.5716 10.7359 20.6203 10.5299 20.6203C10.3239 20.6203 10.1208 20.5716 9.93716 20.4781C9.75451 20.3851 9.5963 20.2505 9.47531 20.0851C8.74202 19.0944 7.37448 17.1621 6.18702 15.0178C5.0172 12.9054 3.94922 10.4618 3.94922 8.48805ZM10.5299 3.51144C7.59234 3.51144 5.26535 5.77216 5.26535 8.48805C5.26535 10.0925 6.17156 12.2732 7.33838 14.3802C8.48449 16.4498 9.81199 18.3275 10.5299 19.2977C11.2477 18.328 12.5752 16.451 13.7214 14.3816C14.8881 12.2749 15.7944 10.0939 15.7944 8.48805C15.7944 5.77216 13.4674 3.51144 10.5299 3.51144Z" fill="black"/>
<path fill-rule="evenodd" clip-rule="evenodd" d="M10.5307 7.46457C9.80382 7.46457 9.21457 8.05382 9.21457 8.78069C9.21457 9.50757 9.80382 10.0968 10.5307 10.0968C11.2576 10.0968 11.8468 9.50757 11.8468 8.78069C11.8468 8.05382 11.2576 7.46457 10.5307 7.46457ZM7.89844 8.78069C7.89844 7.32694 9.07694 6.14844 10.5307 6.14844C11.9844 6.14844 13.163 7.32694 13.163 8.78069C13.163 10.2344 11.9844 11.413 10.5307 11.413C9.07694 11.413 7.89844 10.2344 7.89844 8.78069Z" fill="black"/>
</svg>
