<svg width="24" height="24" viewBox="0 0 24 24" fill="none" xmlns="http://www.w3.org/2000/svg">
<path fill-rule="evenodd" clip-rule="evenodd" d="M5.34985 16.3142C7.26895 14.806 9.73754 14 11.9998 14C14.3031 14 16.7728 14.9669 18.668 16.5289C20.5675 18.0943 22 20.3548 22 23H20C20 21.1133 18.9752 19.3738 17.396 18.0722C15.8125 16.7672 13.7821 16 11.9998 16C10.1763 16 8.14502 16.6612 6.58565 17.8867C5.04424 19.0981 4 20.8254 4 23H2C2 20.1092 3.4128 17.8365 5.34985 16.3142Z" fill="black"/>
<path fill-rule="evenodd" clip-rule="evenodd" d="M12 3C9.79086 3 8 4.79086 8 7C8 9.20914 9.79086 11 12 11C14.2091 11 16 9.20914 16 7C16 4.79086 14.2091 3 12 3ZM6 7C6 3.68629 8.68629 1 12 1C15.3137 1 18 3.68629 18 7C18 10.3137 15.3137 13 12 13C8.68629 13 6 10.3137 6 7Z" fill="black"/>
</svg>
