<svg width="180" height="42" viewBox="0 0 180 42" fill="none" xmlns="http://www.w3.org/2000/svg">
<path fill-rule="evenodd" clip-rule="evenodd" d="M15.873 1.00001C6.54883 1.00001 0 7.506 0 16.788C0 26.07 6.50586 32.575 15.918 32.58C18.0391 32.6402 20.1504 32.2717 22.125 31.4966C24.0996 30.7215 25.8965 29.5556 27.4102 28.069L24.1582 24.686C21.9805 26.7831 19.0703 27.9498 16.0469 27.939C9.58398 27.939 5.11719 23.385 5.11719 16.792C5.11719 10.199 9.58594 5.645 16.0469 5.645C17.4883 5.6128 18.9219 5.87721 20.2578 6.42183C21.5938 6.96644 22.8027 7.77965 23.8105 8.81102L27.1934 5.688C25.7266 4.17602 23.9648 2.98019 22.0176 2.17399C20.0723 1.3678 17.9805 0.968275 15.873 1.00001ZM152.918 1.13199V5.81799C155.266 5.82064 157.516 6.75419 159.176 8.41388C160.834 10.0736 161.768 12.3238 161.771 14.671H166.457H171.145C171.148 12.324 172.08 10.0739 173.74 8.41424C175.4 6.75458 177.65 5.82091 179.996 5.81799V1.13199C176.408 1.13623 172.967 2.56403 170.428 5.1022C167.891 7.64037 166.463 11.0816 166.457 14.671C166.453 11.0814 165.025 7.64006 162.486 5.10187C159.949 2.56367 156.508 1.13595 152.918 1.13199ZM50.3379 29.455L52.5938 25.942C54.7812 27.5383 57.4316 28.3761 60.1406 28.328C62.8711 28.328 64.4336 27.46 64.4336 25.899C64.4336 24.381 63.0449 23.644 59.75 23.299C54.1504 22.779 50.9883 20.436 50.9883 16.706C50.9883 12.806 54.7188 10.157 60.2715 10.157C63.291 10.0846 66.2598 10.948 68.7715 12.629L66.6465 16.099C64.8145 14.9049 62.6738 14.2717 60.4863 14.277C57.4062 14.277 55.7598 15.145 55.7598 16.706C55.7598 18.094 57.0176 18.831 60.1387 19.178C66.4707 19.872 69.2461 21.91 69.2461 25.944C69.2461 29.934 65.5605 32.623 60.0098 32.623C56.5234 32.6646 53.123 31.5506 50.3379 29.455ZM83.0684 10.197C76.2617 10.197 71.6621 14.751 71.6621 21.387C71.6621 28.153 76.1738 32.577 83.1094 32.579C84.6543 32.6113 86.1914 32.328 87.623 31.7463C89.0547 31.1646 90.3516 30.2968 91.4375 29.196L88.4434 25.943C87.7656 26.6613 86.9453 27.2292 86.0332 27.6102C85.1211 27.9913 84.1406 28.1768 83.1523 28.155C81.3789 28.1245 79.6875 27.3982 78.4434 26.1327C77.1992 24.8671 76.502 23.1636 76.502 21.389C76.502 19.6144 77.1992 17.9109 78.4434 16.6453C79.6875 15.3798 81.3789 14.6535 83.1523 14.623C85.0469 14.6107 86.8711 15.3434 88.2305 16.663L91.1797 13.497C90.1152 12.4337 88.8496 11.594 87.457 11.0272C86.0645 10.4605 84.5723 10.1782 83.0684 10.197ZM111.477 10.674L111.434 13.537C110.467 12.4285 109.264 11.5524 107.912 10.9741C106.561 10.3958 105.096 10.1301 103.625 10.197C97.3379 10.197 93 14.797 93 21.387C93 27.977 97.3379 32.577 103.625 32.577C105.094 32.6394 106.559 32.3717 107.908 31.7937C109.26 31.2156 110.465 30.342 111.434 29.237L111.477 32.1H115.814V10.674H111.477ZM104.406 28.153C100.547 28.153 97.8574 25.377 97.8574 21.387C97.8574 17.397 100.547 14.621 104.406 14.621C108.268 14.621 110.955 17.397 110.955 21.387C110.955 25.377 108.264 28.153 104.406 28.153ZM121.643 1.132H126.5V32.076H121.643V1.132ZM141.9 10.11C135.266 10.11 130.801 14.621 130.801 21.257C130.801 28.11 135.355 32.577 142.426 32.577C144.137 32.6118 145.838 32.2993 147.426 31.6582C149.014 31.0171 150.455 30.0608 151.662 28.847L148.713 25.984C147.014 27.4733 144.814 28.2637 142.555 28.196C138.781 28.196 136.18 26.196 135.789 23.078H152.92C153.609 15.055 149.447 10.11 141.9 10.11ZM135.828 19.31C136.436 16.144 138.648 14.322 142.029 14.322C145.586 14.322 147.93 16.274 148.275 19.31H135.828ZM50.0469 10.674L39.6777 36.305C38.3066 39.773 36.0215 41.229 31.7793 41.331C30.9902 41.3114 30.2031 41.2366 29.4219 41.107L30.1309 36.856C30.6113 36.9908 31.1074 37.0631 31.6055 37.071C33.3848 37.071 34.4395 36.506 35.0234 35.24L36.248 32.427L27.5488 10.674H32.7773L38.7773 26.666L44.7773 10.674H50.0469Z" fill="white"/>
</svg>
