<svg width="40" height="40" viewBox="0 0 40 40" fill="none" xmlns="http://www.w3.org/2000/svg">
<path d="M33.4131 9.97043V7.80469C29.9785 7.80469 27.1783 10.6048 27.1783 14.0394H29.3441C29.3441 11.808 31.1598 9.97043 33.4131 9.97043Z" fill="url(#paint0_linear_2710_5324)"/>
<path d="M20.9435 7.82812V9.99387C23.1968 9.99387 25.0125 11.8315 25.0125 14.0629H27.1783C27.1783 10.6064 24.3781 7.82812 20.9435 7.82812Z" fill="url(#paint1_linear_2710_5324)"/>
<path fill-rule="evenodd" clip-rule="evenodd" d="M19.4561 23.3222C14.1563 23.3222 9.87912 27.5993 9.87912 32.8992H7.68195C7.68195 26.3859 12.9428 21.125 19.4561 21.125C25.9694 21.125 31.2303 26.3859 31.2303 32.8992H29.0332C29.0332 27.5993 24.756 23.3222 19.4561 23.3222Z" fill="black"/>
<path fill-rule="evenodd" clip-rule="evenodd" d="M19.4561 10.0019C16.3681 10.0019 13.8825 12.5047 13.8825 15.5755C13.8825 18.6635 16.3853 21.1492 19.4561 21.1492C22.5441 21.1492 25.0298 18.6463 25.0298 15.5755H27.227C27.227 19.8551 23.7623 23.3464 19.4561 23.3464C15.1765 23.3464 11.6853 19.8817 11.6853 15.5755C11.6853 11.2959 15.15 7.80469 19.4561 7.80469V10.0019Z" fill="black"/>
<defs>
<linearGradient id="paint0_linear_2710_5324" x1="19.3873" y1="10.9349" x2="32.8824" y2="10.9349" gradientUnits="userSpaceOnUse">
<stop offset="0.1069" stop-color="#0F26AA"/>
<stop offset="0.8803" stop-color="#FF4A56"/>
</linearGradient>
<linearGradient id="paint1_linear_2710_5324" x1="19.3872" y1="10.9365" x2="32.8823" y2="10.9365" gradientUnits="userSpaceOnUse">
<stop offset="0.1069" stop-color="#0F26AA"/>
<stop offset="0.8803" stop-color="#FF4A56"/>
</linearGradient>
</defs>
</svg>
