<svg width="59" height="20" viewBox="0 0 59 20" fill="none" xmlns="http://www.w3.org/2000/svg">
<path d="M7.41925 5.01855C3.31875 5.01855 0 8.35931 0 12.487C0 16.6147 3.31875 19.9555 7.41925 19.9555C11.5198 19.9555 14.8385 16.6147 14.8385 12.487C14.8385 8.35931 11.5198 5.01855 7.41925 5.01855ZM7.41925 16.2287C5.369 16.2287 3.70225 14.5508 3.70225 12.487C3.70225 10.4232 5.369 8.74536 7.41925 8.74536C9.4695 8.74536 11.1363 10.4232 11.1363 12.487C11.1363 14.5508 9.4695 16.2287 7.41925 16.2287Z" fill="#8C8C8C"/>
<path d="M20.4596 14.9963C20.4596 14.4024 21.1676 14.1203 21.5806 14.536C23.4391 16.4365 26.5071 19.703 26.5218 19.7179C26.5661 19.7624 26.6103 19.8367 26.7873 19.8961C26.8611 19.9258 26.9791 19.9258 27.1118 19.9258H30.4601C31.0648 19.9258 31.2418 19.2279 30.9616 18.8716L25.4156 13.1552L25.1206 12.8582C24.4863 12.101 24.5601 11.804 25.2828 11.0319L29.6783 6.0876C29.9586 5.73125 29.7816 5.04826 29.1621 5.04826H26.1236C26.0056 5.04826 25.9171 5.04826 25.8286 5.07795C25.6516 5.13734 25.5778 5.19673 25.5336 5.25613C25.5188 5.27097 23.0851 7.91388 21.5806 9.53229C21.1676 9.97773 20.4301 9.68077 20.4301 9.07201V0.593912C20.4301 0.163326 20.0761 0 19.7958 0H17.3178C16.8901 0 16.6836 0.282108 16.6836 0.534521V19.3318C16.6836 19.7624 17.0376 19.8812 17.3326 19.8812H19.8106C20.1941 19.8812 20.4448 19.5991 20.4448 19.317V19.124V14.9963H20.4596Z" fill="#8C8C8C"/>
<path d="M40.6954 19.2428L40.4299 16.7483C40.4004 16.4068 40.0759 16.1693 39.7367 16.2287C39.5449 16.2584 39.3532 16.2732 39.1614 16.2732C37.1849 16.2732 35.5772 14.7142 35.4592 12.7394C35.4592 12.68 35.4592 12.6058 35.4592 12.5316V9.4729C35.4592 9.07201 35.7542 8.74536 36.1524 8.74536H39.4712C39.7072 8.74536 40.0612 8.53749 40.0612 8.1069V5.7461C40.0612 5.28582 39.7662 5.04826 39.5007 5.04826H36.1524C35.7689 5.04826 35.4592 4.76615 35.4444 4.3801V0.593912C35.4444 0.356347 35.2674 0 34.8102 0H32.3469C32.0372 0 31.7422 0.193022 31.7422 0.579065C31.7422 0.579065 31.7422 12.68 31.7422 12.7394C31.8454 16.778 35.1347 20 39.1614 20C39.5007 20 39.8252 19.9703 40.1497 19.9258C40.5037 19.8812 40.7397 19.5843 40.6954 19.2428Z" fill="#8C8C8C"/>
<path d="M58.573 16.1101C56.4785 16.1101 56.154 15.3528 56.154 12.5169C56.154 12.5021 56.154 12.5021 56.154 12.4872V5.67206C56.154 5.43449 55.977 5.0336 55.505 5.0336H53.027C52.7173 5.0336 52.378 5.28601 52.378 5.67206V5.98386C51.3013 5.36025 50.0475 5.00391 48.72 5.00391C44.6195 5.00391 41.3008 8.34466 41.3008 12.4724C41.3008 16.6 44.6195 19.9408 48.72 19.9408C50.5638 19.9408 52.2453 19.2578 53.5433 18.1442C54.2365 19.2133 55.3575 19.926 57.1128 19.9408C57.4078 19.9408 59.0008 20.0002 59.0008 19.243V16.5852C59.0008 16.3625 58.8238 16.1101 58.573 16.1101ZM48.7348 16.2289C46.6845 16.2289 45.0178 14.551 45.0178 12.4872C45.0178 10.4234 46.6845 8.74555 48.7348 8.74555C50.785 8.74555 52.4518 10.4234 52.4518 12.4872C52.437 14.551 50.7703 16.2289 48.7348 16.2289Z" fill="#8C8C8C"/>
</svg>
