<svg width="45" height="45" viewBox="0 0 45 45" fill="none" xmlns="http://www.w3.org/2000/svg">
<g clip-path="url(#clip0_5951_16682)">
<path d="M22.498 10.543C23.2262 10.543 23.8164 9.95272 23.8164 9.22461C23.8164 8.4965 23.2262 7.90625 22.498 7.90625C21.7699 7.90625 21.1797 8.4965 21.1797 9.22461C21.1797 9.95272 21.7699 10.543 22.498 10.543Z" fill="black"/>
<path d="M27.7715 10.543C28.4996 10.543 29.0898 9.95272 29.0898 9.22461C29.0898 8.4965 28.4996 7.90625 27.7715 7.90625C27.0434 7.90625 26.4531 8.4965 26.4531 9.22461C26.4531 9.95272 27.0434 10.543 27.7715 10.543Z" fill="black"/>
<path d="M17.2246 10.543C17.9527 10.543 18.543 9.95272 18.543 9.22461C18.543 8.4965 17.9527 7.90625 17.2246 7.90625C16.4965 7.90625 15.9062 8.4965 15.9062 9.22461C15.9062 9.95272 16.4965 10.543 17.2246 10.543Z" fill="black"/>
<path d="M43.6816 37.0898H42.3633C42.3633 36.067 42.3633 9.71525 42.3633 9.22852C42.3633 8.70029 42.048 8.22314 41.5622 8.01589L23.0172 0.105732C22.6868 -0.0352441 22.3131 -0.0352441 21.9827 0.105732L3.43775 8.01589C2.95198 8.22314 2.63672 8.70029 2.63672 9.22852V37.0898H1.31836C0.590273 37.0898 0 37.6801 0 38.4082C0 42.0429 2.95708 45 6.5918 45H38.4082C42.0429 45 45 42.0429 45 38.4082C45 37.6801 44.4097 37.0898 43.6816 37.0898ZM37.0898 37.0898V15.8203H39.7266V37.0898H37.0898ZM10.5469 37.0898V15.8203H34.4531V37.0898H10.5469ZM5.27344 10.0994L22.5 2.75159L39.7266 10.0994V13.1836H5.27344V10.0994ZM5.27344 15.8203H7.91016V37.0898H5.27344V15.8203ZM38.4082 42.3633H6.5918C4.87301 42.3633 3.40673 41.2612 2.8626 39.7257H42.1374C41.5933 41.2612 40.127 42.3633 38.4082 42.3633Z" fill="black"/>
<path d="M27.7715 23.7266H26.4531V22.4082C26.4531 20.2274 24.6789 18.4531 22.498 18.4531C20.3172 18.4531 18.543 20.2274 18.543 22.4082V23.7266H17.2246C16.4965 23.7266 15.9062 24.3168 15.9062 25.0449V33.1309C15.9062 33.8589 16.4965 34.4492 17.2246 34.4492H27.7715C28.4996 34.4492 29.0898 33.8589 29.0898 33.1309V25.0449C29.0898 24.3168 28.4996 23.7266 27.7715 23.7266ZM21.1797 22.4082C21.1797 21.6813 21.7711 21.0898 22.498 21.0898C23.225 21.0898 23.8164 21.6813 23.8164 22.4082V23.7266H21.1797V22.4082ZM26.4531 31.8125H18.543V26.3633H26.4531V31.8125Z" fill="black"/>
</g>
<defs>
<clipPath id="clip0_5951_16682">
<rect width="45" height="45" fill="white"/>
</clipPath>
</defs>
</svg>
