<svg width="83" height="57" viewBox="0 0 83 57" fill="none" xmlns="http://www.w3.org/2000/svg">
<path fill-rule="evenodd" clip-rule="evenodd" d="M46.0495 4.03813C43.5068 2.9863 40.7093 2.71241 38.0109 3.25112C35.3125 3.78983 32.8345 5.11694 30.8906 7.06446L30.8779 7.07725L30.8646 7.08956C29.507 8.35488 28.4605 9.91713 27.807 11.6541C27.1535 13.3912 26.9108 15.2558 27.0978 17.1023L25.1079 17.3038C24.8898 15.1504 25.173 12.9757 25.9351 10.9499C26.6951 8.92976 27.9109 7.11228 29.4879 5.6388C31.7094 3.41816 34.5388 1.90483 37.6193 1.28983C40.7058 0.673643 43.9057 0.986924 46.814 2.19001C49.7224 3.3931 52.2085 5.43193 53.9577 8.04847C55.7069 10.665 56.6406 13.7416 56.6406 16.889C56.6406 20.0364 55.7069 23.113 53.9577 25.7295C53.9513 25.7391 53.9449 25.7487 53.9384 25.7582C57.0252 23.3041 60.8676 21.9497 64.8494 21.9497C69.4911 21.9497 73.9433 23.7903 77.23 27.0679C78.856 28.6896 80.1461 30.6161 81.0263 32.7372C81.9066 34.8582 82.3597 37.1321 82.3597 39.4285C82.3597 41.7249 81.9066 43.9988 81.0263 46.1199C80.1461 48.2409 78.856 50.1674 77.23 51.7891C73.9433 55.0667 69.4911 56.9073 64.8494 56.9073C60.2077 56.9073 55.7554 55.0667 52.4687 51.7891L46.0364 45.3688L47.4493 43.9532L53.881 50.3729C56.7928 53.2767 60.7372 54.9073 64.8494 54.9073C68.9616 54.9073 72.906 53.2767 75.8177 50.3729C77.2574 48.9371 78.3997 47.2313 79.1791 45.3532C79.9585 43.4752 80.3597 41.4618 80.3597 39.4285C80.3597 37.3952 79.9585 35.3818 79.1791 33.5038C78.3997 31.6257 77.2574 29.9199 75.8177 28.4841C72.906 25.5803 68.9616 23.9497 64.8494 23.9497C60.7372 23.9497 56.7928 25.5803 53.881 28.4841L30.8893 51.4328C27.6026 54.7104 23.15 56.5513 18.5084 56.5513C13.8667 56.5513 9.41441 54.7107 6.12773 51.4331C4.50172 49.8114 3.21162 47.8849 2.33138 45.7639C1.45115 43.6428 0.998047 41.3689 0.998047 39.0725C0.998047 36.7761 1.45115 34.5022 2.33138 32.3812C3.21162 30.2601 4.5017 28.3336 6.12771 26.712C9.41439 23.4343 13.8667 21.5937 18.5084 21.5937C23.15 21.5937 27.6023 23.4343 30.889 26.7119L30.8906 26.7136C32.8345 28.6611 35.3125 29.9882 38.0109 30.5269C40.7093 31.0656 43.5068 30.7917 46.0495 29.7399C48.5922 28.6881 50.7657 26.9056 52.295 24.618C53.8243 22.3305 54.6406 19.6407 54.6406 16.889C54.6406 14.1374 53.8243 11.4476 52.295 9.15999C50.7657 6.87244 48.5922 5.08996 46.0495 4.03813ZM49.1326 30.3979C48.3968 30.8553 47.6217 31.2539 46.814 31.588C43.9057 32.7911 40.7058 33.1044 37.6193 32.4882C34.5333 31.8721 31.6994 30.3545 29.4761 28.1275C26.5644 25.2241 22.6203 23.5937 18.5084 23.5937C14.3962 23.5937 10.4518 25.2243 7.54002 28.1281C6.10029 29.5639 4.95802 31.2697 4.17863 33.1478C3.39924 35.0258 2.99805 37.0392 2.99805 39.0725C2.99805 41.1058 3.39924 43.1192 4.17863 44.9972C4.95801 46.8753 6.10028 48.5811 7.54 50.0169C10.4518 52.9207 14.3962 54.5513 18.5084 54.5513C22.6206 54.5513 26.565 52.9207 29.4767 50.0169L49.1326 30.3979Z" fill="black"/>
</svg>
