<svg width="80" height="80" viewBox="0 0 80 80" fill="none" xmlns="http://www.w3.org/2000/svg">
<path fill-rule="evenodd" clip-rule="evenodd" d="M26.6364 8C25.6155 8 24.7879 8.82457 24.7879 9.84173V11.223H13.697C11.6552 11.223 10 12.8722 10 14.9065V68.3165C10 70.3509 11.6552 72 13.697 72H22.4773H24.4951H56.3616H58.3794H67.303C69.3448 72 71 70.3509 71 68.3165V14.9065C71 12.8722 69.3448 11.223 67.303 11.223H56.2121V9.84173C56.2121 8.82457 55.3845 8 54.3636 8C53.3427 8 52.5152 8.82457 52.5152 9.84173V11.223H28.4848V9.84173C28.4848 8.82457 27.6573 8 26.6364 8ZM56.9649 69.2374H67.303C67.8135 69.2374 68.2273 68.8251 68.2273 68.3165V32.4029H12.7727V68.3165C12.7727 68.8251 13.1865 69.2374 13.697 69.2374H23.8918C27.3085 63.7121 33.4367 60.0288 40.4283 60.0288C47.42 60.0288 53.5482 63.7121 56.9649 69.2374ZM54.7488 69.2374H26.1078C29.2917 64.7773 34.5207 61.8705 40.4283 61.8705C46.3359 61.8705 51.5649 64.7773 54.7488 69.2374ZM67.303 13.9856H13.697C13.1865 13.9856 12.7727 14.3979 12.7727 14.9065V29.6403H68.2273V14.9065C68.2273 14.3979 67.8135 13.9856 67.303 13.9856ZM29.6763 16.7482H31.8424V24C31.8424 24.6667 31.6932 25.2566 31.3948 25.7698C31.1011 26.2782 30.6847 26.6715 30.1456 26.9496C29.6065 27.2278 28.9975 27.3669 28.3188 27.3669C27.2068 27.3669 26.3403 27.0863 25.7193 26.5252C25.0984 25.9592 24.7879 25.1607 24.7879 24.1295H26.9685C26.9685 24.6427 27.0768 25.0216 27.2934 25.2662C27.5101 25.5108 27.8518 25.6331 28.3188 25.6331C28.7328 25.6331 29.0625 25.4916 29.308 25.2086C29.5535 24.9257 29.6763 24.5228 29.6763 24V16.7482ZM41.6553 16.7482V23.6475C41.6553 24.7938 41.2943 25.7002 40.5722 26.3669C39.855 27.0336 38.8729 27.3669 37.6262 27.3669C36.3987 27.3669 35.4239 27.0432 34.7018 26.3957C33.9798 25.7482 33.6115 24.8585 33.5971 23.7266V16.7482H35.7633V23.6619C35.7633 24.3477 35.9269 24.8489 36.2543 25.1655C36.5864 25.4772 37.0437 25.6331 37.6262 25.6331C38.8441 25.6331 39.4626 24.9952 39.4819 23.7194V16.7482H41.6553ZM49.8146 27.223H51.9808V16.7482H49.8219V23.6547L45.5978 16.7482H43.4316V27.223H45.5978V20.3309L49.8146 27.223ZM40.5 56.3453C44.0731 56.3453 46.9697 53.4593 46.9697 49.8993C46.9697 46.3392 44.0731 43.4532 40.5 43.4532C36.9269 43.4532 34.0303 46.3392 34.0303 49.8993C34.0303 53.4593 36.9269 56.3453 40.5 56.3453ZM40.5 58.1871C45.094 58.1871 48.8182 54.4765 48.8182 49.8993C48.8182 45.3221 45.094 41.6115 40.5 41.6115C35.906 41.6115 32.1818 45.3221 32.1818 49.8993C32.1818 54.4765 35.906 58.1871 40.5 58.1871Z" fill="white"/>
</svg>
