<svg width="46" height="46" viewBox="0 0 46 46" fill="none" xmlns="http://www.w3.org/2000/svg">
<g clip-path="url(#clip0_5987_28427)">
<path d="M44.6523 37.9141H43.3047V14.9141C43.3047 14.1698 42.7013 13.5664 41.957 13.5664H35.0536C35.1028 13.1237 35.1289 12.6743 35.1289 12.2188C35.1289 5.48128 29.6879 0 23 0C16.3121 0 10.8711 5.48128 10.8711 12.2188C10.8711 12.6743 10.8972 13.1237 10.9464 13.5664H4.04297C3.2987 13.5664 2.69531 14.1698 2.69531 14.9141V37.9141H1.34766C0.603391 37.9141 0 38.5175 0 39.2617C0 42.9772 3.02279 46 6.73828 46H39.2617C42.9772 46 46 42.9772 46 39.2617C46 38.5175 45.3966 37.9141 44.6523 37.9141ZM30.5524 17.8653L26.2535 13.5655H32.3369C32.1076 15.1623 31.478 16.6306 30.5524 17.8653ZM32.3387 10.8711H24.3477V2.79288C28.4771 3.39187 31.7509 6.70055 32.3387 10.8711ZM21.6523 2.79288V12.2188C21.6523 12.5864 21.8054 12.93 22.0471 13.1717L28.6467 19.7713C27.0712 20.9521 25.1159 21.6523 23 21.6523C17.7983 21.6523 13.5664 17.4204 13.5664 12.2188C13.5664 7.42945 17.0868 3.45512 21.6523 2.79288ZM5.39062 16.2617H11.5649C13.2336 20.9677 17.7291 24.3477 23 24.3477C28.1836 24.3477 32.7362 21.0529 34.4351 16.2617H40.6094V37.9141H5.39062V16.2617ZM39.2617 43.3047H6.73828C4.98121 43.3047 3.48243 42.1781 2.92621 40.6085H43.0738C42.5176 42.1781 41.0188 43.3047 39.2617 43.3047Z" fill="black"/>
<path d="M14.9141 24.3438H9.52344C8.77917 24.3438 8.17578 24.9471 8.17578 25.6914V33.8672C8.17578 34.6115 8.77917 35.2148 9.52344 35.2148H14.9141C15.6583 35.2148 16.2617 34.6115 16.2617 33.8672V25.6914C16.2617 24.9471 15.6583 24.3438 14.9141 24.3438ZM13.5664 32.5195H10.8711V27.0391H13.5664V32.5195Z" fill="black"/>
<path d="M25.6953 27.0469H20.3047C19.5604 27.0469 18.957 27.6503 18.957 28.3945V33.875C18.957 34.6193 19.5604 35.2227 20.3047 35.2227H25.6953C26.4396 35.2227 27.043 34.6193 27.043 33.875V28.3945C27.043 27.6503 26.4396 27.0469 25.6953 27.0469ZM24.3477 32.5273H21.6523V29.7422H24.3477V32.5273Z" fill="black"/>
<path d="M36.4766 24.3438H31.0859C30.3417 24.3438 29.7383 24.9471 29.7383 25.6914V33.8672C29.7383 34.6115 30.3417 35.2148 31.0859 35.2148H36.4766C37.2208 35.2148 37.8242 34.6115 37.8242 33.8672V25.6914C37.8242 24.9471 37.2208 24.3438 36.4766 24.3438ZM35.1289 32.5195H32.4336V27.0391H35.1289V32.5195Z" fill="black"/>
</g>
<defs>
<clipPath id="clip0_5987_28427">
<rect width="46" height="46" fill="white"/>
</clipPath>
</defs>
</svg>
