<svg width="72" height="52" viewBox="0 0 72 51" fill="none" xmlns="http://www.w3.org/2000/svg">
<g clip-path="url(#clip0_5572_34032)">
<path d="M72.456 4.99819V1C66.0915 1 60.9102 6.18133 60.9102 12.5458H64.9084C64.9084 8.38442 68.2946 4.99819 72.456 4.99819Z" fill="url(#paint0_linear_5572_34032)"/>
<path d="M49.3242 1V4.99819C53.4856 4.99819 56.8718 8.38442 56.8718 12.5458H60.87C60.9108 6.18133 55.6887 1 49.3242 1Z" fill="url(#paint1_linear_5572_34032)"/>
<path fill-rule="evenodd" clip-rule="evenodd" d="M27.0718 11.6797C31.459 11.6797 35.0156 15.2363 35.0156 19.6236L35.0156 40.7896C35.0156 45.1769 31.459 48.7335 27.0718 48.7335C22.6845 48.7335 19.1279 45.1769 19.1279 40.7896L19.1279 19.6236C19.1279 15.2363 22.6845 11.6797 27.0718 11.6797ZM30.9358 19.6236C30.9358 17.4895 29.2058 15.7595 27.0718 15.7595C24.9377 15.7595 23.2077 17.4895 23.2077 19.6236L23.2077 40.7896C23.2077 42.9237 24.9377 44.6537 27.0718 44.6537C29.2058 44.6537 30.9358 42.9237 30.9358 40.7896L30.9358 19.6236Z" fill="black"/>
<path fill-rule="evenodd" clip-rule="evenodd" d="M7.9965 21.6641C4.11087 21.6641 0.960938 24.814 0.960938 28.6996L0.960938 41.691C0.960938 45.5766 4.11087 48.7265 7.9965 48.7265C11.8821 48.7265 15.0321 45.5766 15.0321 41.691L15.0321 28.6996C15.0321 24.814 11.8821 21.6641 7.9965 21.6641ZM5.04073 28.6996C5.04073 27.0672 6.36407 25.7439 7.9965 25.7439C9.62893 25.7439 10.9523 27.0672 10.9523 28.6996L10.9523 41.691C10.9523 43.3234 9.62893 44.6467 7.9965 44.6467C6.36407 44.6467 5.04073 43.3234 5.04073 41.691L5.04073 28.6996Z" fill="black"/>
<path fill-rule="evenodd" clip-rule="evenodd" d="M46.5991 1.38281C42.2401 2.88855 39.1094 7.02809 39.1094 11.8989V37.6065C39.1094 43.7495 44.0893 48.7295 50.2323 48.7295C56.3753 48.7295 61.3552 43.7495 61.3552 37.6065V16.4404H57.2755V37.6065C57.2755 41.4963 54.1221 44.6497 50.2323 44.6497C46.3425 44.6497 43.1892 41.4963 43.1892 37.6065L43.1892 11.8989C43.1892 9.33825 44.5556 7.0968 46.5991 5.86391V1.38281Z" fill="black"/>
</g>
<defs>
<linearGradient id="paint0_linear_5572_34032" x1="46.4452" y1="6.76572" x2="71.47" y2="6.76572" gradientUnits="userSpaceOnUse">
<stop offset="0.1069" stop-color="#0F26AA"/>
<stop offset="0.8803" stop-color="#FF4A56"/>
</linearGradient>
<linearGradient id="paint1_linear_5572_34032" x1="46.446" y1="6.76572" x2="71.4706" y2="6.76572" gradientUnits="userSpaceOnUse">
<stop offset="0.1069" stop-color="#0F26AA"/>
<stop offset="0.8803" stop-color="#FF4A56"/>
</linearGradient>
<clipPath id="clip0_5572_34032">
<rect width="72" height="51" fill="white"/>
</clipPath>
</defs>
</svg>
