<svg width="667" height="200" viewBox="0 0 667 200" fill="none" xmlns="http://www.w3.org/2000/svg">
<path fill-rule="evenodd" clip-rule="evenodd" d="M91.707 1.03281C68.0294 3.38554 45.3753 13.9325 29.0546 30.1995C12.697 46.5043 3.41651 66.2779 0.49527 91.0497C-0.733365 101.468 0.325013 113.111 3.65846 125.838C10.3084 151.229 28.9211 174.173 53.5924 187.394C67.1711 194.67 88.5687 200 104.204 200C119.945 200 139.331 195.139 152.627 187.858L157.79 185.031L163.579 187.933C170.001 191.153 183.104 195.226 192.268 196.851C201.074 198.413 221.57 200.401 222.215 199.757C222.521 199.45 221.168 196.965 219.205 194.235C215.219 188.685 209.282 176.32 208.23 171.375C207.583 168.33 207.288 168.139 203.248 168.139C196.399 168.139 183.791 165.212 177.678 162.203C169.737 158.295 159.041 150.949 151.187 144.009C127.724 123.279 106.701 112.193 88.3148 110.858L80.7548 110.31L69.9599 121.8L59.1651 133.291L64.4839 133.292C70.9865 133.294 83.9857 135.526 90.7113 137.794C93.4494 138.718 98.3779 141.084 101.664 143.055C109.912 148 125.196 160.146 124.529 161.226C123.254 163.287 113.331 165.152 103.633 165.152C82.3459 165.152 64.9727 157.557 51.0386 142.16C44.9044 135.381 38.346 122.955 36.3746 114.374C34.7119 107.139 34.7268 92.3341 36.4035 85.5348C40.2666 69.8702 50.715 55.1455 64.2489 46.2942C84.2645 33.2033 108.776 31.215 131.203 40.8629C139.293 44.3427 151.382 53.8721 156.562 60.8516C165.937 73.4844 169.873 85.1455 169.854 100.235C169.841 111.089 168.458 117.374 163.977 126.95C162.288 130.56 160.905 133.884 160.905 134.336C160.905 135.593 176.535 145.708 183.752 149.12L190.172 152.156L192.007 149.444C202.51 133.929 207.289 105.662 203.179 83.3693C199.069 61.0826 190.641 44.5139 175.869 29.6837C159.142 12.89 138.967 3.76886 112.328 0.955149C106.694 0.360744 101.765 -0.0653947 101.376 0.00828358C100.986 0.0819619 96.6355 0.542949 91.707 1.03281ZM626.23 3.93812C609.95 10.1988 601.964 29.2436 609.136 44.7061C614.492 56.2557 624.29 62.5801 636.827 62.5801C645.984 62.5801 652.582 59.845 658.799 53.4728C665.006 47.1106 666.65 42.7725 666.664 32.7304C666.679 22.1914 664.174 16.1448 657.278 10.0743C648.393 2.25348 636.647 -0.0683822 626.23 3.93812ZM555.183 99.9369V197.013H572.607H590.031V99.9369V2.86083H572.607H555.183V99.9369ZM427.242 50.3066C423.956 51.0902 417.091 53.7536 411.987 56.2268C404.299 59.9505 401.309 62.131 394.564 68.9353C385.532 78.0435 381.265 84.5471 377.487 94.9587C366.148 126.212 373.254 160.226 395.455 180.959C403.71 188.667 414.613 194.754 425.251 197.591C433.629 199.824 449.385 200.532 457.975 199.061C467.544 197.422 479.513 191.42 486.892 184.561C490.128 181.553 492.929 179.091 493.115 179.091C493.3 179.091 493.453 183.124 493.453 188.052V197.013H509.383H525.314V124.33V51.6478H509.383H493.453V60.7291V69.8105L486.606 63.3517C479.363 56.5195 472.244 52.4473 463.453 50.1075C456.542 48.2676 435.299 48.385 427.242 50.3066ZM224.865 101.679C225.229 149.225 225.355 152.096 227.397 159.473C235.1 187.291 251.498 199.931 279.885 199.929C288.768 199.929 297.03 198.486 302.785 195.93C306.759 194.164 316.467 187.673 318.131 185.668C320.494 182.82 321.205 183.947 321.205 190.541V197.013H337.135H353.066V124.307V51.601L335.891 51.8728L318.716 52.1456L318.145 97.4478C317.818 123.503 317.143 144.231 316.558 146.235C313.787 155.725 309.417 160.945 300.614 165.279C296.585 167.263 294.299 167.641 286.357 167.641C275.367 167.641 271.982 166.218 266.792 159.413C260.326 150.935 260.185 149.717 259.738 98.1945L259.335 51.6478H241.907H224.48L224.865 101.679ZM619.901 138.27V197.013H637.324H654.748V138.27C654.748 78.162 654.691 77.2241 651.214 80.3863C649.701 81.7623 641.332 83.5087 636.252 83.5087C631.468 83.5087 624.129 81.833 622.439 80.3535C621.92 79.8984 621.135 79.5261 620.697 79.5261C620.259 79.5261 619.901 105.961 619.901 138.27ZM436.97 82.0003C421.302 86.3841 410.895 99.5427 407.737 118.961C405.712 131.411 409.943 146.076 418.118 154.946C432.398 170.439 460.097 172.604 476.869 159.537C492.122 147.654 496.911 122.721 487.646 103.422C483.8 95.4097 474.457 86.3702 467.068 83.5146C459.469 80.5775 444.711 79.8347 436.97 82.0003Z" fill="white"/>
</svg>
