<svg width="388" height="502" viewBox="0 0 388 502" fill="none"
    xmlns="http://www.w3.org/2000/svg">
    <path d="M196.415 4L383.626 187.958H344.358V393.858H43.915V187.958H4.00586L196.415 4Z" stroke="white" stroke-width="8" stroke-linejoin="round"/>
    <path d="M342.041 480.165C342.041 480.122 342.041 480.079 342.035 480.035C342.019 479.865 341.994 479.697 341.959 479.53C341.959 479.514 341.95 479.498 341.946 479.481C341.912 479.331 341.87 479.183 341.82 479.037C341.807 478.998 341.792 478.961 341.778 478.922C341.729 478.789 341.674 478.661 341.614 478.538C341.604 478.516 341.597 478.493 341.586 478.472L318.373 432.688V282.05C318.37 279.823 317.484 277.688 315.909 276.114C314.334 274.539 312.2 273.653 309.973 273.65H77.8457C75.6187 273.653 73.4839 274.539 71.9092 276.114C70.3345 277.688 69.4486 279.823 69.4457 282.05V432.686L46.2317 478.472C46.2207 478.494 46.2137 478.517 46.2037 478.539C46.1427 478.663 46.0887 478.791 46.0397 478.922C46.0257 478.96 46.0107 478.998 45.9977 479.037C45.9479 479.183 45.9058 479.332 45.8717 479.483C45.8717 479.499 45.8627 479.514 45.8597 479.53C45.8243 479.697 45.7989 479.866 45.7837 480.036C45.7837 480.079 45.7837 480.122 45.7777 480.165C45.7717 480.255 45.7637 480.344 45.7637 480.436V491.45C45.7666 494.096 46.8189 496.632 48.6897 498.503C50.5605 500.374 53.097 501.426 55.7427 501.429H332.076C334.721 501.426 337.258 500.374 339.129 498.503C340.999 496.632 342.052 494.096 342.055 491.45V480.44C342.055 480.344 342.047 480.25 342.041 480.165ZM78.1247 282.333H309.693V429.384H78.1247V282.333ZM76.4507 438.064H311.363L330.644 476.094H235.29L230.504 458.739C230.024 457.017 228.995 455.498 227.572 454.415C226.15 453.332 224.412 452.743 222.625 452.739H165.192C163.404 452.743 161.666 453.332 160.244 454.415C158.822 455.498 157.792 457.017 157.313 458.739L152.527 476.094H57.1697L76.4507 438.064ZM226.286 476.095H161.532L165.579 461.42H222.239L226.286 476.095ZM333.375 491.445C333.375 491.79 333.238 492.12 332.994 492.364C332.75 492.608 332.419 492.745 332.075 492.745H55.7417C55.3969 492.745 55.0662 492.608 54.8224 492.364C54.5786 492.12 54.4417 491.79 54.4417 491.445V484.775H333.375V491.445Z" fill="white"/>
    <path d="M309.23 282.592H79.3105V431.081H309.23V282.592Z" fill="#F4F4F4"/>
    <path d="M223.387 143.616V126.416C223.409 122.562 222.658 118.743 221.18 115.184C219.701 111.625 217.524 108.399 214.777 105.696C212.182 103.078 209.094 101.001 205.692 99.5827C202.29 98.1647 198.64 97.4344 194.955 97.434H194.587C186.934 97.4768 179.61 100.552 174.22 105.985C168.83 111.418 165.814 118.766 165.832 126.419V143.619C162.951 143.96 160.299 145.355 158.387 147.536C156.474 149.716 155.435 152.527 155.472 155.427V194.058C155.451 197.212 156.684 200.244 158.898 202.49C161.113 204.735 164.128 206.01 167.282 206.034H221.959C225.113 206.011 228.129 204.737 230.344 202.491C232.559 200.245 233.792 197.212 233.772 194.058V155.427C233.795 152.526 232.749 149.718 230.834 147.539C228.918 145.36 226.267 143.964 223.387 143.616V143.616ZM170.413 126.416H170.436C170.413 119.973 172.944 113.783 177.475 109.201C182.005 104.619 188.166 102.019 194.61 101.969H194.633C197.768 101.96 200.875 102.569 203.775 103.762C206.675 104.955 209.311 106.709 211.533 108.922C213.844 111.209 215.674 113.936 216.915 116.941C218.157 119.947 218.785 123.17 218.762 126.422V143.639H213.697V126.419C213.718 123.833 213.222 121.268 212.237 118.876C211.253 116.484 209.8 114.313 207.965 112.491C206.233 110.756 204.177 109.379 201.913 108.439C199.649 107.499 197.223 107.013 194.772 107.011H194.634C189.523 107.043 184.635 109.103 181.043 112.738C177.451 116.373 175.449 121.286 175.478 126.396V143.639H170.413V126.419V126.416ZM209.113 126.416V143.639H180.106V126.419C180.09 124.493 180.454 122.583 181.177 120.797C181.9 119.012 182.967 117.387 184.318 116.014C185.669 114.642 187.278 113.549 189.052 112.798C190.825 112.047 192.73 111.653 194.656 111.639H194.794C198.534 111.645 202.12 113.136 204.763 115.783C206.158 117.178 207.262 118.837 208.009 120.663C208.756 122.489 209.131 124.446 209.113 126.419V126.416ZM229.372 194.127C229.372 196.063 228.603 197.92 227.233 199.289C225.864 200.658 224.008 201.427 222.072 201.427H167.372C165.436 201.427 163.579 200.658 162.21 199.289C160.841 197.92 160.072 196.063 160.072 194.127V155.542C160.072 153.606 160.841 151.749 162.21 150.38C163.579 149.011 165.436 148.242 167.372 148.242H222.072C224.008 148.242 225.864 149.011 227.233 150.38C228.603 151.749 229.372 153.606 229.372 155.542V194.127Z" fill="#0F26AA"/>
    <path d="M202.575 173.406C202.176 172.018 201.422 170.757 200.387 169.75C199.352 168.742 198.072 168.022 196.674 167.66C195.275 167.299 193.807 167.309 192.413 167.689C191.02 168.069 189.749 168.806 188.728 169.827C187.706 170.849 186.969 172.119 186.589 173.512C186.209 174.906 186.199 176.375 186.561 177.773C186.922 179.172 187.643 180.452 188.65 181.487C189.658 182.521 190.918 183.275 192.307 183.674V190.12C192.307 190.73 192.549 191.315 192.98 191.746C193.412 192.178 193.997 192.42 194.607 192.42C195.217 192.42 195.802 192.178 196.233 191.746C196.664 191.315 196.907 190.73 196.907 190.12V183.674C197.954 183.374 198.932 182.87 199.784 182.191C200.636 181.512 201.346 180.671 201.873 179.717C202.399 178.763 202.732 177.714 202.853 176.631C202.973 175.548 202.879 174.452 202.575 173.406V173.406ZM194.609 179.392C193.875 179.392 193.159 179.175 192.549 178.767C191.94 178.36 191.464 177.781 191.184 177.104C190.903 176.426 190.83 175.681 190.973 174.962C191.116 174.243 191.469 173.582 191.987 173.064C192.506 172.545 193.166 172.192 193.885 172.049C194.605 171.906 195.35 171.98 196.027 172.26C196.705 172.541 197.284 173.016 197.691 173.626C198.098 174.235 198.316 174.952 198.316 175.685C198.317 176.172 198.221 176.655 198.035 177.105C197.849 177.555 197.576 177.964 197.232 178.308C196.888 178.653 196.479 178.926 196.028 179.112C195.578 179.298 195.096 179.393 194.609 179.392V179.392Z" fill="#0F26AA"/>
</svg>
