<svg width="22" height="19" viewBox="0 0 22 19" fill="none" xmlns="http://www.w3.org/2000/svg">
<g clip-path="url(#clip0_3434_13472)">
<path d="M18.898 0.5H2.83002C2.21206 0.5 1.61942 0.745474 1.18246 1.18243C0.745505 1.61939 0.5 2.21203 0.5 2.82999V12.436C0.5 13.0539 0.745505 13.6466 1.18246 14.0836C1.61942 14.5205 2.21206 14.766 2.83002 14.766H7.98401C8.12551 14.7654 8.26468 14.8021 8.38754 14.8723C8.5104 14.9425 8.61266 15.0438 8.68402 15.166L10.267 17.908C10.3272 18.0127 10.414 18.0997 10.5186 18.1601C10.6231 18.2206 10.7417 18.2524 10.8625 18.2524C10.9833 18.2524 11.1019 18.2206 11.2065 18.1601C11.311 18.0997 11.3978 18.0127 11.458 17.908L13.041 15.166C13.1123 15.0437 13.2145 14.9424 13.3374 14.8722C13.4603 14.8019 13.5995 14.7653 13.741 14.766H18.897C19.515 14.766 20.1076 14.5205 20.5446 14.0836C20.9815 13.6466 21.227 13.0539 21.227 12.436V2.82999C21.227 2.21221 20.9817 1.6197 20.5449 1.18277C20.1082 0.745839 19.5158 0.500265 18.898 0.5Z" stroke="#0F26AA" stroke-miterlimit="10"/>
<path d="M5.03711 5.57031H10.2301" stroke="#0F26AA" stroke-miterlimit="10"/>
<path d="M5.03711 9.82812H16.6921" stroke="#0F26AA" stroke-miterlimit="10"/>
</g>
<defs>
<clipPath id="clip0_3434_13472">
<rect width="21.728" height="18.756" fill="white"/>
</clipPath>
</defs>
</svg>
