<svg width="18" height="18" viewBox="0 0 18 18" fill="none" xmlns="http://www.w3.org/2000/svg">
<path fill-rule="evenodd" clip-rule="evenodd" d="M15.0469 8.43652C15.3581 8.74772 15.3581 9.25227 15.0469 9.56347L9.98438 14.626C9.67318 14.9372 9.16862 14.9372 8.85742 14.626C8.54623 14.3148 8.54623 13.8102 8.85742 13.499L13.3564 9L8.85742 4.50098C8.54623 4.18978 8.54623 3.68522 8.85742 3.37402C9.16862 3.06282 9.67318 3.06283 9.98438 3.37402L15.0469 8.43652Z" fill="#0F26AA"/>
<path fill-rule="evenodd" clip-rule="evenodd" d="M14.5776 9C14.5776 9.4401 14.2209 9.79687 13.7808 9.79687L3.51514 9.79687C3.07504 9.79687 2.71827 9.4401 2.71827 9C2.71827 8.5599 3.07504 8.20312 3.51514 8.20312L13.7808 8.20312C14.2209 8.20312 14.5776 8.5599 14.5776 9Z" fill="#0F26AA"/>
</svg>
