<svg width="874" height="200" viewBox="0 0 874 200" fill="none" xmlns="http://www.w3.org/2000/svg">
<path fill-rule="evenodd" clip-rule="evenodd" d="M107.267 2.42887C103.744 6.32024 104.354 11.9342 108.601 14.7161C111.859 16.8501 112.619 16.8849 115.9 15.0525C118.229 13.7512 119.728 11.5838 120.015 9.10356C120.9 1.46263 112.242 -3.07104 107.267 2.42887ZM107.018 25.4615C102.492 27.4329 99.4045 32.6381 99.4045 38.2909C99.4045 43.738 106.434 49.9358 112.612 49.9358C116.373 49.9358 118.747 48.8806 121.756 45.8721C128.275 39.3531 126.53 29.6657 118.118 25.6728C112.725 23.1133 112.419 23.1078 107.018 25.4615ZM601.988 45.6357C594.59 46.9593 588.491 50.3098 584.199 55.4121C577.294 63.6189 576.963 66.5148 576.963 118.754V167.414L586.347 167.825L595.731 168.235V134.806V101.376H609.634H623.537V93.0342V84.6926H609.634H595.731V78.9939C595.731 75.8602 596.738 71.1736 597.97 68.5794C600.72 62.7833 607.86 60.3337 616.406 62.2536C622.694 63.6661 622.78 63.5702 624.257 53.7299C625.172 47.6335 625.077 47.4111 621.24 46.6478C612.786 44.9656 607.333 44.6792 601.988 45.6357ZM72.2317 49.1781C67.4478 53.9607 67.6966 60.1501 72.8823 65.3359C75.332 67.7855 78.4115 69.3996 80.6359 69.3996C85.8828 69.3996 92.4532 62.4663 92.4532 56.9303C92.4532 50.8312 87.0923 45.765 80.6359 45.765C77.1894 45.765 74.5868 46.8216 72.2317 49.1781ZM136.184 49.1781C129.694 55.6665 132.975 66.6121 142.097 68.9019C149.45 70.7468 157.753 62.4441 155.908 55.0909C153.618 45.9694 142.673 42.6883 136.184 49.1781ZM401.789 46.6756C400.259 46.9996 397.554 47.5751 395.776 47.9575L392.543 48.6512L392.995 100.386C393.418 148.847 393.623 152.47 396.227 157.643C399.586 164.315 405.444 167.932 414.653 169.022L421.529 169.837L422.417 164.454C423.965 155.09 423.602 152.816 420.557 152.816C419.028 152.816 416.525 151.565 414.996 150.035C412.317 147.356 412.216 145.402 412.216 96.5099V45.765L408.392 45.9263C406.29 46.0153 403.318 46.3517 401.789 46.6756ZM646.476 46.4476C645.712 46.7034 643.338 47.2985 641.202 47.7712L637.316 48.629L637.726 102.013C638.122 153.782 638.224 155.516 641.061 159.32C645.025 164.635 651.013 167.927 658.615 168.968C665.627 169.93 665.609 169.951 667.3 159.032C668.135 153.631 668.003 153.382 663.597 152.08C655.717 149.752 655.556 148.608 655.534 94.7721L655.513 45.765L651.69 45.8748C649.588 45.9346 647.241 46.1932 646.476 46.4476ZM25.8495 51.8655C23.5986 54.5779 24.4258 61.0969 27.2425 62.8598C30.8948 65.1454 36.6839 62.8667 37.721 58.7362C38.2271 56.7176 38.0171 54.0691 37.2539 52.8484C35.3923 49.8733 28.0294 49.2379 25.8495 51.8655ZM188.66 51.6041C185.618 54.6461 186.647 60.9607 190.467 62.7013C195.664 65.0689 200.894 62.3078 200.894 57.1944C200.894 52.3062 198.624 49.9358 193.943 49.9358C191.955 49.9358 189.578 50.6866 188.66 51.6041ZM102.68 63.6912C100.496 65.9045 97.1884 69.7374 95.3297 72.2094C90.7988 78.2348 83.8154 81.0195 75.8255 79.9865C67.9636 78.9702 63.3201 81.1349 60.2559 87.2465C58.5236 90.6986 58.2636 92.9452 59.2132 96.2541C62.4317 107.476 59.8903 114.935 50.1264 122.938C46.7035 125.742 43.5087 129.279 43.0277 130.797C41.8376 134.545 44.7433 141.085 48.7709 143.725C54.6809 147.597 56.7566 153.638 55.8599 164.347C55.1189 173.175 55.3204 174.201 58.3985 177.279C60.2364 179.117 63.334 180.621 65.2803 180.621C70.1963 180.621 74.1739 185.098 75.2514 191.844C75.902 195.907 77.0754 197.959 79.3402 198.991C84.1477 201.182 89.4724 199.28 90.5499 194.988C91.7386 190.253 88.8538 184.934 78.9189 173.548C67.534 160.5 65.3457 154.917 65.3443 138.913C65.3429 127.304 65.8073 124.759 69.1828 117.885C73.7137 108.659 84.3521 98.2213 93.5418 93.9852C102.816 89.7101 122.345 89.6809 131.55 93.9268C150.148 102.506 161.843 122.311 160.225 142.482C159.325 153.678 154.544 163.934 145.36 174.365C136.414 184.527 133.477 190.22 134.69 195.051C136.384 201.799 147.412 201.587 148.841 194.778C150.515 186.807 153.492 182.096 157.408 181.223C165.206 179.485 166.254 178.956 168.423 175.644C170.249 172.859 170.371 171.218 169.125 166.268C167.097 158.214 169.235 150.831 175.373 144.693C184.913 135.152 184.874 130.948 175.173 122.997C165.83 115.343 164.3 111.511 165.438 98.6384C166.335 88.5172 166.193 87.6928 162.902 83.8723C159.664 80.1144 158.791 79.8503 150.655 80.1506C139.208 80.5746 131.709 77.1073 127.368 69.3843C121.602 59.1227 109.859 56.4145 102.68 63.6912ZM42.4034 65.2288C38.5079 69.1243 38.6733 76.9182 42.7135 79.7474C49.5244 84.5188 58.1594 80.2882 58.1594 72.1802C58.1594 63.7537 48.2509 59.3813 42.4034 65.2288ZM169.551 65.8614C165.381 70.0294 165.235 73.4384 169.02 78.2487C174.578 85.3168 185.601 81.2823 185.601 72.1802C185.601 63.3019 175.92 59.4912 169.551 65.8614ZM267.148 85.3307C257.152 88.894 250.944 97.4386 250.944 107.632C250.944 119.021 258.718 127.941 273.446 133.448C284.35 137.526 288.481 140.919 288.481 145.795C288.481 147.94 287.522 150.491 286.35 151.465C282.895 154.331 271.683 154.694 262.133 152.247C257.28 151.004 253.091 150.205 252.824 150.473C251.958 151.338 249.773 164.559 250.343 165.483C251.604 167.521 264.095 169.498 275.542 169.469C298.423 169.412 309.825 159.194 307.007 141.27C305.327 130.588 300.748 126.677 277.315 115.91C269.678 112.402 267.15 107.134 271.04 102.836C274.513 98.9971 281.816 97.9057 290.707 99.8952C294.813 100.814 298.639 101.561 299.212 101.554C300.447 101.539 303.883 88.7744 303.025 87.3855C300.644 83.5331 276.127 82.1289 267.148 85.3307ZM327.409 85.0749C323.968 86.012 321.231 87.2576 321.324 87.8443C321.418 88.431 321.904 91.979 322.401 95.7314L323.306 102.552L327.782 101.269C333.896 99.5157 349.208 99.6505 352.642 101.487C355.586 103.062 359.385 110.632 359.385 114.918C359.385 117.154 357.982 117.431 346.525 117.461C330.023 117.506 321.651 121.168 316.715 130.502C308.704 145.649 315.715 163.727 331.275 168.048C338.15 169.957 356.512 169.774 367.727 167.686L376.764 166.004L377.143 139.625C377.666 103.271 375.202 93.6751 363.612 86.9045C357.749 83.4803 337.099 82.4376 327.409 85.0749ZM449.981 86.8712C435.815 94.0324 427.884 110.805 429.181 130.848C430.315 148.382 437.285 159.963 450.448 166.186C456.222 168.915 459.52 169.456 469.912 169.378C476.794 169.327 484.927 168.519 487.985 167.582L493.546 165.879L493.349 158.57C493.241 154.551 492.83 150.94 492.437 150.547C492.044 150.155 489.317 150.501 486.378 151.317C478.804 153.419 464.199 153.17 459.763 150.863C454.192 147.964 449.909 142.821 448.912 137.836L448.028 133.416L473.568 133.036L499.107 132.657L499.08 120.687C499.055 110.161 498.549 107.734 494.887 100.574C489.074 89.2068 480.948 84.206 467.266 83.5748C458.772 83.1828 456.368 83.6416 449.981 86.8712ZM524.075 85.916C517.808 88.7619 511.375 95.6229 510.06 100.863C508.56 106.835 510.331 117.492 513.582 122.058C515.723 125.062 521.16 128.549 531.145 133.317C542.705 138.838 545.786 140.929 546.491 143.736C546.975 145.668 547.008 148.197 546.562 149.358C544.628 154.399 531.633 155.665 519.322 152.008C513.593 150.308 511.687 150.194 510.876 151.505C509.407 153.884 507.932 163.859 508.834 165.319C511.93 170.328 545.772 170.748 554.107 165.88C561.545 161.536 565.145 155.122 565.145 146.216C565.145 132.437 559.832 126.308 541.395 118.815C531.057 114.615 527.608 111.788 527.608 107.515C527.608 100.104 536.909 97.0855 549.94 100.269L558.195 102.286L559.577 97.3135C562.249 87.6956 561.696 86.468 553.955 84.808C543.261 82.514 530.523 82.9867 524.075 85.916ZM686.099 85.0874C680.075 86.7154 679.857 86.9587 680.228 91.644C681.054 102.063 681.468 102.704 686.44 101.279C692.288 99.6005 705.806 99.6186 710.254 101.309C714.277 102.838 716.063 105.684 717.369 112.643L718.299 117.603L705.328 117.484C694.389 117.382 691.321 117.873 685.761 120.612C682.134 122.398 677.787 125.797 676.099 128.166C672.412 133.345 671.11 146.006 673.516 153.294C675.541 159.435 682.947 166.099 689.885 168.025C696.83 169.954 715.15 169.784 726.417 167.686L735.454 166.004L735.836 142.457C736.459 104.134 733.465 92.6297 721.327 86.6835C714.79 83.4803 695.314 82.5975 686.099 85.0874ZM762.564 85.8298L753.527 88.1683L753.159 128.139L752.789 168.109H761.848H770.905V134.905V101.7L774.034 100.861C778.649 99.6255 787.686 99.809 792.681 101.241C796.938 102.463 797.087 102.356 797.981 97.4177C798.487 94.6247 799.227 90.9766 799.627 89.3111C800.239 86.7585 799.513 86.0495 795.013 84.801C787.337 82.6684 773.026 83.123 762.564 85.8298ZM827.227 85.5281C820.609 87.95 812.009 95.9232 808.333 103.043C806.872 105.872 804.93 112.551 804.015 117.884C800.034 141.093 810.959 163.04 828.984 168.045C836.608 170.162 854.163 169.809 862.369 167.372C869.346 165.301 869.51 165.132 868.785 160.768C866.975 149.869 866.883 149.689 863.644 150.712C861.957 151.245 855.26 151.973 848.761 152.332C838.612 152.891 836.316 152.588 832.5 150.185C827.469 147.017 824.359 142.764 822.984 137.175L822.044 133.352H847.915H873.786V123.178C873.786 108.853 870.724 99.6297 863.614 92.5296C854.672 83.6012 840.134 80.804 827.227 85.5281ZM32.1641 95.9163C27.1452 99.8632 27.0493 107.87 31.9653 112.487C42.6537 122.529 57.7048 106.819 47.3319 96.4473C43.1111 92.2251 37.1218 92.0152 32.1641 95.9163ZM177.892 96.4473C173.263 101.076 173.286 108.112 177.944 112.487C188.632 122.529 203.683 106.819 193.31 96.4473C191.16 94.2952 188.31 93.0342 185.601 93.0342C182.893 93.0342 180.043 94.2952 177.892 96.4473ZM456.029 103C452.517 105.761 448.363 113.146 448.363 116.624C448.363 117.531 454.505 118.059 465.046 118.059C483.491 118.059 483.506 118.049 479.791 109.16C478.725 106.607 476.396 103.5 474.615 102.253C469.923 98.9651 460.685 99.3363 456.029 103ZM830.075 102.948C826.502 105.759 825.394 107.672 823.132 114.931C822.159 118.056 822.174 118.059 838.936 118.059C854.921 118.059 855.712 117.924 855.712 115.209C855.712 111.19 852.115 104.715 848.459 102.156C843.921 98.9776 834.615 99.3794 830.075 102.948ZM22.5198 126.096C17.7776 131.336 21.2004 140.335 27.9154 140.283C31.4258 140.255 33.2707 138.93 35.3853 134.916C39.0751 127.916 27.8417 120.217 22.5198 126.096ZM191.162 126.401C189.633 127.93 188.382 130.433 188.382 131.962C188.382 135.735 193.213 140.303 197.203 140.303C204.111 140.303 207.698 130.605 202.522 125.921C199.104 122.828 194.544 123.02 191.162 126.401ZM0.792617 127.609C-2.1492 133.106 3.65102 139.015 9.11756 136.09C11.2627 134.941 11.8731 133.449 11.5505 130.132C11.1779 126.283 10.5454 125.65 6.69571 125.277C3.42301 124.96 1.88537 125.568 0.792617 127.609ZM213.544 128.139C212.121 131.967 212.94 134.395 216.25 136.166C221.48 138.966 227.339 133.039 224.529 127.791C222.37 123.758 215.088 123.989 213.544 128.139ZM340.276 132.124C334.141 133.897 331.013 138.933 332.182 145.16C333.439 151.862 338.745 154.463 350.058 153.924L358.69 153.511L359.093 142.921L359.495 132.332L355.096 131.452C349.498 130.332 345.922 130.495 340.276 132.124ZM698.641 132.123C690.145 135.513 687.584 143.628 692.925 150.229C695.308 153.173 696.704 153.511 706.48 153.511H717.38L717.783 142.921L718.185 132.332L713.786 131.452C707.805 130.256 702.761 130.478 698.641 132.123ZM32.9343 151.48C26.6113 157.37 30.9309 168.109 39.6229 168.109C48.4136 168.109 52.5441 157.686 46.1377 151.668C42.1004 147.875 36.8827 147.801 32.9343 151.48ZM178.65 151.426C177.105 152.97 175.869 156.059 175.869 158.377C175.869 160.695 177.105 163.784 178.65 165.328C184.571 171.249 195.333 166.922 195.333 158.619C195.333 150.316 184.452 145.624 178.65 151.426ZM41.807 178.635C37.5917 182.851 40.6433 190.353 46.5742 190.353C49.8914 190.353 53.5256 186.719 53.5256 183.402C53.5256 180.085 49.8914 176.45 46.5742 176.45C45.1548 176.45 43.0096 177.433 41.807 178.635ZM173.883 178.635C172.682 179.837 171.699 181.982 171.699 183.402C171.699 184.821 172.682 186.966 173.883 188.169C175.085 189.37 177.231 190.353 178.65 190.353C184.581 190.353 187.633 182.851 183.417 178.635C182.215 177.433 180.069 176.45 178.65 176.45C177.231 176.45 175.085 177.433 173.883 178.635ZM59.9973 188.725C56.8817 192.167 57.1042 195.341 60.6368 197.816C63.6176 199.904 67.2851 199.427 69.1453 196.711C71.0722 193.896 70.2075 189.06 67.5201 187.621C63.7969 185.629 62.6458 185.799 59.9973 188.725ZM157.448 187.684C153.971 189.71 154.255 196.8 157.889 198.745C160.125 199.94 161.515 199.79 164.145 198.066C168.166 195.432 168.495 191.66 164.985 188.483C162.067 185.842 160.835 185.711 157.448 187.684ZM27.1661 190.982C24.3925 194.322 26.7253 198.695 31.2813 198.695C34.0743 198.695 35.5341 197.844 36.1681 195.848C37.2344 192.489 34.7305 188.963 31.2813 188.963C29.9396 188.963 28.0878 189.871 27.1661 190.982ZM189.883 190.915C187.336 193.983 189.329 198.695 193.171 198.695C197.542 198.695 200.498 195.026 198.586 191.974C196.651 188.888 192.033 188.325 189.883 190.915Z" fill="white"/>
</svg>
