<svg width="25" height="34" viewBox="0 0 25 34" fill="none" xmlns="http://www.w3.org/2000/svg">
<path fill-rule="evenodd" clip-rule="evenodd" d="M22.6667 21.6667V12.3333C22.6667 6.62639 18.0403 2 12.3333 2C6.62639 2 2 6.62639 2 12.3333V21.6667C2 27.3736 6.62639 32 12.3333 32C18.0403 32 22.6667 27.3736 22.6667 21.6667ZM12.3333 0C5.52182 0 0 5.52182 0 12.3333V21.6667C0 28.4782 5.52182 34 12.3333 34C19.1448 34 24.6667 28.4782 24.6667 21.6667V12.3333C24.6667 5.52182 19.1448 0 12.3333 0Z" fill="black"/>
<path fill-rule="evenodd" clip-rule="evenodd" d="M11.3333 14.6615V7.32812H14V14.6615H11.3333Z" fill="black"/>
</svg>
