<svg width="20" height="20" viewBox="0 0 20 20" fill="none" xmlns="http://www.w3.org/2000/svg">
<path fill-rule="evenodd" clip-rule="evenodd" d="M3.71703 1.40952C5.09242 0.490516 6.70943 0 8.36359 0V0.996255L8.36366 0C10.5818 0.000141203 12.709 0.881342 14.2774 2.44978C15.8458 4.01821 16.727 6.14542 16.7272 8.36353V8.36359C16.7272 10.0178 16.2367 11.6348 15.3177 13.0102C14.3987 14.3855 13.0924 15.4575 11.5642 16.0905C10.036 16.7236 8.35432 16.8892 6.73194 16.5665C5.10956 16.2438 3.61931 15.4472 2.44964 14.2775C1.27997 13.1079 0.483419 11.6176 0.160708 9.99524C-0.162003 8.37287 0.00362378 6.69123 0.636644 5.16298C1.26966 3.63474 2.34165 2.32852 3.71703 1.40952ZM8.36359 2C10.0513 2.00012 11.6698 2.67061 12.8632 3.86399C14.0566 5.05737 14.7271 6.6759 14.7272 8.36359M8.36353 2C7.10495 2.00001 5.87464 2.37323 4.82817 3.07246C3.78169 3.7717 2.96605 4.76556 2.4844 5.92835C2.00276 7.09114 1.87674 8.37065 2.12228 9.60506C2.36782 10.8395 2.97389 11.9734 3.86386 12.8633C4.75382 13.7533 5.8877 14.3594 7.12212 14.6049C8.35653 14.8504 9.63604 14.7244 10.7988 14.2428C11.9616 13.7611 12.9555 12.9455 13.6547 11.899C14.354 10.8525 14.7272 9.62223 14.7272 8.36365" fill="black"/>
<path fill-rule="evenodd" clip-rule="evenodd" d="M13.1503 13.1523C13.5408 12.7617 14.174 12.7617 14.5645 13.1523L19.7072 18.2949C20.0977 18.6854 20.0977 19.3186 19.7072 19.7091C19.3167 20.0997 18.6835 20.0997 18.293 19.7091L13.1503 14.5665C12.7598 14.176 12.7598 13.5428 13.1503 13.1523Z" fill="black"/>
</svg>
