<svg width="66" height="48" viewBox="0 0 66 48" fill="none" xmlns="http://www.w3.org/2000/svg">
<path fill-rule="evenodd" clip-rule="evenodd" d="M4.44589 26.2757C3.76025 26.7535 3.56433 27.243 3.56433 27.5863V41.8882C3.56433 42.2244 3.75725 42.7145 4.43838 43.1935C5.1132 43.6679 6.14319 44.0205 7.37471 44.0205H30.0006C31.2322 44.0205 32.2621 43.6679 32.937 43.1935C33.6181 42.7145 33.811 42.2244 33.811 41.8882V27.5863C33.811 27.2501 33.6181 26.7599 32.937 26.281C32.2621 25.8065 31.2322 25.454 30.0006 25.454H7.37471C6.15909 25.454 5.12657 25.8015 4.44589 26.2757ZM2.40818 23.3513C3.75617 22.4121 5.51992 21.8896 7.37471 21.8896H30.0006C31.8761 21.8896 33.6424 22.4198 34.9871 23.3653C36.3255 24.3063 37.3753 25.7734 37.3753 27.5863V41.8882C37.3753 43.7011 36.3255 45.1681 34.9871 46.1092C33.6424 47.0547 31.8761 47.5848 30.0006 47.5848H7.37471C5.49927 47.5848 3.73299 47.0547 2.38828 46.1092C1.04988 45.1682 0 43.7011 0 41.8882V27.5863C0 25.7548 1.06515 24.2871 2.40818 23.3513Z" fill="black"/>
<path d="M40.3045 7.60119V4C34.5936 4 29.9375 8.65608 29.9375 14.367H33.5387C33.5387 10.6567 36.5579 7.60119 40.3045 7.60119Z" fill="url(#paint0_linear_2579_4429)"/>
<path d="M19.5703 4.03613V7.63731C23.317 7.63731 26.3362 10.6929 26.3362 14.4032H29.9374C29.9374 8.69221 25.2813 4.03613 19.5703 4.03613Z" fill="url(#paint1_linear_2579_4429)"/>
<path fill-rule="evenodd" clip-rule="evenodd" d="M26.3008 23.7885V16.4043H29.8651V23.7885H26.3008Z" fill="black"/>
<path fill-rule="evenodd" clip-rule="evenodd" d="M17.6434 7.60096C14.3663 7.60096 11.6776 10.2642 11.6776 13.5668V23.7883H8.11328V13.5668C8.11328 8.28477 12.4087 4.03662 17.6434 4.03662V7.60096Z" fill="black"/>
<defs>
<linearGradient id="paint0_linear_2579_4429" x1="16.987" y1="9.21" x2="39.4265" y2="9.21" gradientUnits="userSpaceOnUse">
<stop offset="0.1069" stop-color="#0F26AA"/>
<stop offset="0.8803" stop-color="#FF4A56"/>
</linearGradient>
<linearGradient id="paint1_linear_2579_4429" x1="16.9868" y1="9.20976" x2="39.4264" y2="9.20976" gradientUnits="userSpaceOnUse">
<stop offset="0.1069" stop-color="#0F26AA"/>
<stop offset="0.8803" stop-color="#FF4A56"/>
</linearGradient>
</defs>
</svg>
