<svg width="40" height="23" viewBox="0 0 40 23" fill="none" xmlns="http://www.w3.org/2000/svg">
<path fill-rule="evenodd" clip-rule="evenodd" d="M9.71247 0.12165C10.0527 -0.0405499 10.448 -0.0405499 10.7882 0.12165C12.1515 0.771539 13.1948 1.2348 14.186 1.60342C14.8331 1.84404 15.1626 2.56365 14.922 3.21072C14.6814 3.85778 13.9617 4.18727 13.3147 3.94665C12.3656 3.59373 11.3965 3.17067 10.2503 2.63284C7.31522 4.00974 5.6223 4.59452 2.50217 5.22652C2.3932 14.14 8.42163 17.9244 10.2492 18.8659C10.6599 18.6535 11.2877 18.2946 12.0117 17.7642C12.5687 17.3563 13.3508 17.4771 13.7588 18.034C14.1667 18.5909 14.0459 19.3731 13.489 19.781C12.115 20.7875 11.0112 21.2848 10.7394 21.4004C10.4269 21.5332 10.0738 21.5332 9.76134 21.4004C8.97349 21.0655 -0.709507 16.6794 0.0414895 4.11539C0.0756621 3.54369 0.493992 3.06835 1.05672 2.9618C4.81604 2.25 6.31335 1.74203 9.71247 0.12165Z" fill="#0F26AA"/>
<rect x="16.5" y="4.5" width="20.5" height="16.5" rx="2.75" stroke="#047FFE" stroke-width="2.5"/>
<path d="M24.5233 10.426L19.7633 12.1527V13.814L24.5233 15.5407V13.954L21.6953 12.9833L24.5233 12.0127V10.426ZM24.6644 17.1833H26.5311L29.6111 8.39133H27.7444L24.6644 17.1833ZM29.6618 10.426V12.0127L32.4898 12.9833L29.6618 13.954V15.5407L34.4218 13.814V12.1527L29.6618 10.426Z" fill="#047FFE"/>
</svg>
