<svg width="37" height="23" viewBox="0 0 37 23" fill="none" xmlns="http://www.w3.org/2000/svg">
<path fill-rule="evenodd" clip-rule="evenodd" d="M9.71247 1.05231C10.0527 0.890114 10.448 0.890114 10.7882 1.05231C12.1515 1.7022 13.1948 2.16547 14.186 2.53409C14.8331 2.77471 15.1626 3.49432 14.922 4.14138C14.6814 4.78845 13.9617 5.11794 13.3147 4.87731C12.3656 4.52439 11.3965 4.10134 10.2503 3.5635C7.31522 4.94041 5.6223 5.52519 2.50217 6.15718C2.3932 15.0706 8.42163 18.855 10.2492 19.7966C10.6599 19.5841 11.2877 19.2252 12.0117 18.6949C12.5687 18.2869 13.3508 18.4077 13.7588 18.9647C14.1667 19.5216 14.0459 20.3038 13.489 20.7117C12.115 21.7181 11.0112 22.2155 10.7394 22.331C10.4269 22.4639 10.0738 22.4639 9.76134 22.331C8.97349 21.9961 -0.709507 17.6101 0.0414895 5.04606C0.0756621 4.47435 0.493992 3.99901 1.05672 3.89246C4.81604 3.18066 6.31335 2.67269 9.71247 1.05231Z" fill="#0F26AA"/>
<path fill-rule="evenodd" clip-rule="evenodd" d="M23.2211 0.00025773L23.2454 0H27.2551L27.275 0.000172019C27.6547 0.00674057 28.0208 0.142437 28.313 0.384909C28.6052 0.62738 28.8061 0.96216 28.8826 1.33409C28.8875 1.35784 28.8916 1.38174 28.895 1.40575L29.1806 3.43795C29.4539 3.57837 29.7194 3.73364 29.9758 3.90305L31.8821 3.13569L31.9023 3.12778C32.2668 2.98895 32.6687 2.98323 33.0371 3.11163C33.4055 3.24004 33.7168 3.49433 33.9161 3.82971L33.9232 3.84168L35.9264 7.30776C35.9269 7.30861 35.9274 7.30946 35.9279 7.31032C35.9279 7.31037 35.9278 7.31027 35.9279 7.31032C36.1239 7.64877 36.1939 8.04587 36.1252 8.43099C36.0564 8.81714 35.8528 9.16634 35.5507 9.41641C35.5431 9.4227 35.5354 9.42889 35.5276 9.43499L33.9035 10.7101C33.9127 10.8622 33.9185 11.0198 33.9185 11.1812V11.188C33.9177 11.3391 33.9127 11.4901 33.9036 11.6408L35.5258 12.9131C35.5339 12.9195 35.542 12.926 35.5499 12.9326C35.8517 13.1827 36.055 13.5316 36.1237 13.9175C36.1924 14.3032 36.1222 14.7007 35.9256 15.0396C35.9255 15.0397 35.9257 15.0395 35.9256 15.0396L33.9152 18.5179C33.7162 18.8535 33.405 19.1081 33.0366 19.2368C32.6681 19.3655 32.2661 19.36 31.9014 19.2213L31.8806 19.2132L29.9726 18.4449C29.7168 18.6123 29.4525 18.7663 29.1807 18.9064L28.8945 20.9427C28.8928 20.9554 28.8908 20.968 28.8886 20.9806C28.822 21.3617 28.6251 21.7078 28.3316 21.9598C28.0381 22.2118 27.6662 22.354 27.2795 22.3622L27.2551 22.3625H23.2454L23.2255 22.3623C22.8459 22.3557 22.4798 22.22 22.1876 21.9776C21.8953 21.7351 21.6944 21.4003 21.6179 21.0284C21.613 21.0047 21.6089 20.9808 21.6055 20.9567L21.3199 18.9245C21.0466 18.7841 20.7811 18.6289 20.5248 18.4594L18.6185 19.2268L18.5983 19.2347C18.2337 19.3735 17.8318 19.3793 17.4634 19.2509C17.095 19.1225 16.7838 18.8682 16.5845 18.5328L16.5774 18.5208L14.5742 15.0547C14.5738 15.0541 14.5735 15.0536 14.5731 15.053C14.3767 14.7143 14.3066 14.317 14.3753 13.9315C14.4441 13.5454 14.6477 13.1962 14.9499 12.9461C14.9575 12.9398 14.9652 12.9336 14.9729 12.9275L16.5939 11.6548C16.5841 11.5 16.5782 11.3415 16.5782 11.1798C16.5782 11.0236 16.5835 10.8705 16.593 10.7202L14.9703 9.44559C14.9595 9.43705 14.9488 9.42831 14.9382 9.41939C14.6411 9.16819 14.4419 8.82045 14.3755 8.43712C14.3092 8.05418 14.3796 7.66012 14.5744 7.32385C14.5746 7.3235 14.5748 7.32316 14.575 7.32282L16.5853 3.8446C16.7844 3.50895 17.0956 3.25437 17.464 3.12568C17.8324 2.99699 18.2344 3.00248 18.5992 3.14118L18.62 3.14933L20.528 3.91762C20.7838 3.75023 21.0481 3.5962 21.3198 3.45614L21.606 1.41981C21.6078 1.40713 21.6098 1.39448 21.612 1.38186C21.6786 1.0008 21.8754 0.654695 22.1689 0.402696C22.4624 0.150698 22.8343 0.00844729 23.2211 0.00025773ZM29.2102 18.6963C29.2102 18.6968 29.2101 18.6973 29.21 18.6978ZM23.8049 2.3L23.5684 3.98314C23.5683 3.98367 23.5682 3.9842 23.5681 3.98472C23.525 4.29266 23.4069 4.58529 23.2241 4.83685C23.0411 5.08885 22.7988 5.29189 22.5186 5.42805L22.5175 5.42858C22.2196 5.57297 21.9331 5.73971 21.6604 5.92736C21.4026 6.10622 21.1046 6.21864 20.7928 6.25461C20.4797 6.29073 20.1625 6.2486 19.8697 6.13202L19.8656 6.13036L18.2879 5.49507L16.8443 7.99284L18.1805 9.04254C18.1806 9.04263 18.1804 9.04246 18.1805 9.04254C18.4284 9.237 18.6243 9.49029 18.7501 9.77914C18.876 10.0681 18.9279 10.3839 18.9013 10.6979L18.9008 10.7048C18.8861 10.8659 18.8782 11.0232 18.8782 11.1798C18.8782 11.3341 18.8863 11.4942 18.9009 11.6634C18.9295 11.9769 18.8799 12.2926 18.7565 12.5823C18.6323 12.8737 18.4373 13.1295 18.1892 13.3265L18.1844 13.3303L16.8428 14.3836L18.2863 16.8812L19.8638 16.2461C20.1563 16.1285 20.4736 16.0854 20.7868 16.1208C21.1001 16.1563 21.3996 16.2691 21.6583 16.4491L21.6603 16.4505C21.9284 16.6379 22.2109 16.8035 22.5054 16.9457C22.787 17.0805 23.0311 17.2824 23.2162 17.5338C23.4022 17.7863 23.5229 18.0809 23.5676 18.3912L23.5682 18.3951L23.8025 20.0625H26.6956L26.9322 18.3793C26.9322 18.3792 26.9322 18.3795 26.9322 18.3793C26.9752 18.071 27.0934 17.7775 27.2764 17.5256C27.4595 17.2736 27.7018 17.0706 27.9819 16.9344L27.983 16.9339C28.2809 16.7895 28.5674 16.6228 28.8401 16.4352C29.0979 16.2563 29.396 16.1439 29.7078 16.1079C30.0208 16.0718 30.338 16.1139 30.6308 16.2305L30.635 16.2321L32.2126 16.8674L33.6562 14.3698L31.9871 13.0606C31.664 12.8072 31.5005 12.4007 31.5582 11.9941C31.5966 11.7237 31.6168 11.451 31.6185 11.1778C31.6184 11.0246 31.6104 10.8645 31.5968 10.6934C31.5695 10.3804 31.62 10.0654 31.7441 9.77668C31.8694 9.48521 32.0655 9.22969 32.3147 9.03337L33.6578 7.97888L32.2142 5.48133L30.6367 6.11634C30.3443 6.234 30.0269 6.27713 29.7137 6.24168C29.4005 6.20623 29.101 6.0934 28.8422 5.91336L28.8402 5.91195C28.5722 5.72463 28.2896 5.55906 27.9952 5.41681C27.7136 5.28205 27.4695 5.08007 27.2843 4.82866C27.0983 4.57616 26.9776 4.28163 26.9329 3.97125L26.9324 3.96738L26.6981 2.3H23.8049ZM23.2055 7.56998C23.95 7.1484 24.8067 6.96725 25.6581 7.05135L25.5451 8.19576L25.66 7.05154C26.614 7.14735 27.5055 7.57006 28.1835 8.24802C28.8615 8.92598 29.2842 9.81749 29.38 10.7715L29.3802 10.7734C29.4643 11.6249 29.2831 12.4815 28.8615 13.2261C28.44 13.9706 27.7985 14.5666 27.0251 14.9326C26.2517 15.2985 25.3841 15.4164 24.541 15.2702C23.698 15.124 22.9208 14.7208 22.3158 14.1157C21.7108 13.5107 21.3075 12.7335 21.1613 11.8905C21.0151 11.0474 21.133 10.1798 21.4989 9.4064C21.8649 8.63298 22.4609 7.99157 23.2055 7.56998ZM25.4313 9.34013C25.8569 9.38313 26.2546 9.57185 26.5572 9.87436C26.8597 10.1769 27.0484 10.5746 27.0914 11.0002C27.1287 11.3795 27.0479 11.7611 26.8601 12.0928C26.6722 12.4247 26.3862 12.6904 26.0415 12.8535C25.6967 13.0166 25.3099 13.0692 24.9341 13.004C24.5583 12.9389 24.2118 12.7591 23.9421 12.4894C23.6724 12.2197 23.4927 11.8732 23.4275 11.4974C23.3623 11.1216 23.4149 10.7348 23.578 10.3901C23.7411 10.0453 24.0068 9.75934 24.3387 9.57141C24.6704 9.38361 25.052 9.30284 25.4313 9.34013Z" fill="#047FFE"/>
</svg>
