<svg width="38" height="22" viewBox="0 0 38 22" fill="none" xmlns="http://www.w3.org/2000/svg">
<path fill-rule="evenodd" clip-rule="evenodd" d="M9.71247 0.12165C10.0527 -0.0405499 10.448 -0.0405499 10.7882 0.12165C12.1515 0.771539 13.1948 1.2348 14.186 1.60342C14.8331 1.84404 15.1626 2.56365 14.922 3.21072C14.6814 3.85778 13.9617 4.18727 13.3147 3.94665C12.3656 3.59373 11.3965 3.17067 10.2503 2.63284C7.31522 4.00974 5.6223 4.59452 2.50217 5.22652C2.3932 14.14 8.42163 17.9244 10.2492 18.8659C10.6599 18.6535 11.2877 18.2946 12.0117 17.7642C12.5687 17.3563 13.3508 17.4771 13.7588 18.034C14.1667 18.5909 14.0459 19.3731 13.489 19.781C12.115 20.7875 11.0112 21.2848 10.7394 21.4004C10.4269 21.5332 10.0738 21.5332 9.76134 21.4004C8.97349 21.0655 -0.709507 16.6794 0.0414895 4.11539C0.0756621 3.54369 0.493992 3.06835 1.05672 2.9618C4.81604 2.25 6.31335 1.74203 9.71247 0.12165Z" fill="#0F26AA"/>
<path fill-rule="evenodd" clip-rule="evenodd" d="M17.8462 5.03643C18.8521 2.57221 21.2208 0.25 24.75 0.25C28.5856 0.25 31.7835 3.02473 32.5811 7.38094C33.51 7.56641 34.47 7.95396 35.2835 8.5956C36.4264 9.49692 37.25 10.8845 37.25 12.7527C37.25 14.56 36.582 15.9951 35.4196 16.9495C34.2956 17.8725 32.8288 18.25 31.3538 18.25H19.0896C15.4348 18.25 12.25 15.5754 12.25 11.5851C12.25 9.58257 13.0004 7.9661 14.2147 6.82369C15.2208 5.87722 16.5012 5.29487 17.8462 5.03643ZM24.75 2.68243C22.1248 2.68243 20.4108 4.55931 19.8403 6.49087C19.7017 6.96032 19.3031 7.29784 18.8296 7.34667C17.6119 7.47225 16.5466 7.92235 15.8041 8.62081C15.0846 9.29774 14.6085 10.2596 14.6085 11.5851C14.6085 14.0165 16.5181 15.8176 19.0896 15.8176H31.3538C32.4731 15.8176 33.3648 15.5276 33.9506 15.0466C34.4981 14.597 34.8915 13.8916 34.8915 12.7527C34.8915 11.7107 34.4651 11.0123 33.8509 10.5278C33.1986 10.0134 32.3091 9.73068 31.4811 9.68619C30.8991 9.65492 30.4266 9.18989 30.369 8.59178C30.003 4.79021 27.5235 2.68243 24.75 2.68243Z" fill="#047FFE"/>
</svg>
