<svg width="48" height="48" viewBox="0 0 48 48" fill="none" xmlns="http://www.w3.org/2000/svg">
<path fill-rule="evenodd" clip-rule="evenodd" d="M38.1259 32C35.1112 37.1015 29.466 40.5352 22.9994 40.5352C16.5327 40.5352 10.8876 37.1015 7.87285 32H3.884C7.19283 39.0796 14.5075 44 22.9994 44C31.4913 44 38.8059 39.0796 42.1148 32H38.1259ZM7.32658 16C10.168 10.3522 16.1187 6.46479 22.9994 6.46479C29.8801 6.46479 35.8307 10.3522 38.6722 16H42.5495C39.4828 8.38801 31.8856 3 22.9994 3C14.1131 3 6.516 8.38801 3.44922 16H7.32658Z" fill="#24A8FE"/>
<path d="M5.15303 29C4.34589 29 3.5669 28.8942 2.81607 28.6827C2.07463 28.4611 1.46927 28.179 1 27.8365L1.91507 25.6305C2.35619 25.9327 2.863 26.1845 3.43551 26.386C4.0174 26.5774 4.5946 26.6731 5.16711 26.6731C5.55191 26.6731 5.86163 26.6378 6.09626 26.5673C6.3309 26.4867 6.49983 26.386 6.60307 26.2651C6.7157 26.1342 6.77201 25.9831 6.77201 25.8118C6.77201 25.5701 6.66877 25.3787 6.46229 25.2376C6.25581 25.0966 5.98833 24.9808 5.65984 24.8901C5.33135 24.7995 4.96532 24.7088 4.56175 24.6181C4.16757 24.5275 3.76869 24.4116 3.36512 24.2706C2.97093 24.1296 2.60959 23.9483 2.2811 23.7266C1.95262 23.495 1.68513 23.1978 1.47865 22.8352C1.27218 22.4625 1.16894 21.994 1.16894 21.4299C1.16894 20.7953 1.32849 20.2212 1.64759 19.7074C1.97608 19.1937 2.46412 18.7807 3.11171 18.4684C3.7593 18.1561 4.56644 18 5.53314 18C6.18073 18 6.81424 18.0806 7.43368 18.2418C8.0625 18.3929 8.62093 18.6195 9.10897 18.9217L8.25021 21.1429C7.78094 20.8709 7.31636 20.6694 6.85648 20.5385C6.39659 20.3974 5.95079 20.3269 5.51906 20.3269C5.13426 20.3269 4.82454 20.3723 4.58991 20.4629C4.35527 20.5435 4.18634 20.6543 4.0831 20.7953C3.97986 20.9364 3.92824 21.0975 3.92824 21.2788C3.92824 21.5105 4.02679 21.6969 4.22388 21.8379C4.43036 21.9689 4.69784 22.0797 5.02633 22.1703C5.3642 22.2509 5.73023 22.3365 6.12442 22.4272C6.52799 22.5179 6.92687 22.6337 7.32105 22.7747C7.72463 22.9057 8.09066 23.087 8.41914 23.3187C8.74763 23.5403 9.01042 23.8375 9.20752 24.2102C9.41399 24.5728 9.51723 25.0311 9.51723 25.5852C9.51723 26.1996 9.35299 26.7688 9.0245 27.2926C8.7054 27.8063 8.22205 28.2193 7.57446 28.5316C6.93625 28.8439 6.12911 29 5.15303 29Z" fill="#FFF"/>
<path d="M16.1967 29C15.4084 29 14.681 28.864 14.0146 28.592C13.3483 28.3201 12.7664 27.9373 12.2689 27.4437C11.7809 26.94 11.4008 26.3558 11.1286 25.6909C10.8564 25.0261 10.7204 24.2958 10.7204 23.5C10.7204 22.7042 10.8564 21.9739 11.1286 21.3091C11.4008 20.6442 11.7809 20.065 12.2689 19.5714C12.7664 19.0678 13.3483 18.6799 14.0146 18.408C14.681 18.136 15.4084 18 16.1967 18C16.9945 18 17.7219 18.136 18.3788 18.408C19.0452 18.6799 19.6224 19.0678 20.1104 19.5714C20.5985 20.065 20.9786 20.6442 21.2508 21.3091C21.5323 21.9739 21.6731 22.7042 21.6731 23.5C21.6731 24.2958 21.5323 25.0311 21.2508 25.706C20.9786 26.3709 20.5985 26.9501 20.1104 27.4437C19.6224 27.9373 19.0452 28.3201 18.3788 28.592C17.7219 28.864 16.9945 29 16.1967 29ZM16.1967 26.522C16.5721 26.522 16.9194 26.4515 17.2385 26.3104C17.567 26.1694 17.8486 25.9679 18.0832 25.706C18.3272 25.4341 18.5149 25.1117 18.6463 24.739C18.7871 24.3663 18.8575 23.9533 18.8575 23.5C18.8575 23.0366 18.7871 22.6236 18.6463 22.261C18.5149 21.8883 18.3272 21.571 18.0832 21.3091C17.8486 21.0371 17.567 20.8306 17.2385 20.6896C16.9194 20.5485 16.5721 20.478 16.1967 20.478C15.8213 20.478 15.4694 20.5485 15.1409 20.6896C14.8218 20.8306 14.5402 21.0371 14.2962 21.3091C14.0616 21.571 13.8738 21.8883 13.7331 22.261C13.6017 22.6236 13.536 23.0366 13.536 23.5C13.536 23.9533 13.6017 24.3663 13.7331 24.739C13.8738 25.1117 14.0616 25.4341 14.2962 25.706C14.5402 25.9679 14.8218 26.1694 15.1409 26.3104C15.4694 26.4515 15.8213 26.522 16.1967 26.522Z" fill="#FFF"/>
<path d="M28.4686 29C27.6896 29 26.967 28.869 26.3006 28.6071C25.6436 28.3352 25.0711 27.9524 24.5831 27.4588C24.1044 26.9652 23.729 26.386 23.4568 25.7212C23.1847 25.0462 23.0486 24.3059 23.0486 23.5C23.0486 22.6941 23.1847 21.9588 23.4568 21.294C23.729 20.619 24.1044 20.0348 24.5831 19.5412C25.0711 19.0476 25.6436 18.6699 26.3006 18.408C26.967 18.136 27.6896 18 28.4686 18C29.379 18 30.1908 18.1712 30.9041 18.5137C31.6268 18.8562 32.2275 19.3498 32.7061 19.9945L30.9323 21.717C30.6132 21.3141 30.2612 21.0069 29.8764 20.7953C29.501 20.5838 29.0787 20.478 28.6094 20.478C28.2058 20.478 27.8351 20.5485 27.4972 20.6896C27.1594 20.8306 26.8684 21.0371 26.6244 21.3091C26.3898 21.571 26.2021 21.8883 26.0613 22.261C25.9299 22.6337 25.8642 23.0467 25.8642 23.5C25.8642 23.9533 25.9299 24.3663 26.0613 24.739C26.2021 25.1117 26.3898 25.4341 26.6244 25.706C26.8684 25.9679 27.1594 26.1694 27.4972 26.3104C27.8351 26.4515 28.2058 26.522 28.6094 26.522C29.0787 26.522 29.501 26.4162 29.8764 26.2047C30.2612 25.9931 30.6132 25.6859 30.9323 25.283L32.7061 27.0055C32.2275 27.6401 31.6268 28.1337 30.9041 28.4863C30.1908 28.8288 29.379 29 28.4686 29Z" fill="#FFF"/>
<path d="M38.3275 28.7885V26.9148L42.0159 23.2129C42.2787 22.951 42.4711 22.7193 42.5931 22.5179C42.7245 22.3164 42.809 22.1351 42.8465 21.9739C42.8934 21.8027 42.9169 21.6465 42.9169 21.5055C42.9169 21.163 42.809 20.8961 42.5931 20.7047C42.3866 20.5133 42.0722 20.4176 41.6499 20.4176C41.2932 20.4176 40.9601 20.5032 40.6503 20.6745C40.3406 20.8457 40.0872 21.1026 39.8901 21.4451L37.8206 20.206C38.1867 19.5412 38.7169 19.0073 39.4115 18.6044C40.106 18.2015 40.9366 18 41.9033 18C42.6635 18 43.3299 18.131 43.9024 18.3929C44.4749 18.6548 44.9207 19.0275 45.2398 19.511C45.5683 19.9945 45.7325 20.5636 45.7325 21.2184C45.7325 21.5609 45.6903 21.9034 45.6058 22.2459C45.5214 22.5783 45.3571 22.9359 45.1131 23.3187C44.8784 23.6914 44.5265 24.1094 44.0572 24.5728L41.129 27.4739L40.6644 26.4162H46V28.7885H38.3275Z" fill="#FFF"/>
</svg>
