<svg width="80" height="80" viewBox="0 0 80 80" fill="none" xmlns="http://www.w3.org/2000/svg">
<path fill-rule="evenodd" clip-rule="evenodd" d="M40.2383 0C39.7366 0 39.33 0.404722 39.33 0.903955V12.2034C39.33 12.7026 39.7366 13.1073 40.2383 13.1073C40.7399 13.1073 41.1465 12.7026 41.1465 12.2034V0.903955C41.1465 0.404722 40.7399 0 40.2383 0ZM48.8667 31.4124C48.8667 36.28 44.9019 40.226 40.0112 40.226C35.1205 40.226 31.1558 36.28 31.1558 31.4124C31.1558 26.5448 35.1205 22.5989 40.0112 22.5989C44.9019 22.5989 48.8667 26.5448 48.8667 31.4124ZM50.6832 31.4124C50.6832 37.2785 45.9051 42.0339 40.0112 42.0339C34.1173 42.0339 29.3393 37.2785 29.3393 31.4124C29.3393 25.5464 34.1173 20.791 40.0112 20.791C45.9051 20.791 50.6832 25.5464 50.6832 31.4124ZM41.4374 33.065C41.7449 33.3616 41.8987 33.7265 41.8987 34.1596C41.8987 34.6728 41.7213 35.0777 41.3665 35.3743C41.0117 35.6709 40.5245 35.8192 39.9048 35.8192C39.2709 35.8192 38.7813 35.6427 38.436 35.2895C38.0907 34.9364 37.918 34.4327 37.918 33.7782H36.6053C36.6053 34.7105 36.8536 35.4496 37.3503 35.9958C37.8517 36.5372 38.5424 36.8479 39.4223 36.928V38.2768H40.4724V36.928C41.3381 36.8385 42.0098 36.5513 42.4876 36.0664C42.9701 35.5814 43.2114 34.9412 43.2114 34.1455C43.2114 33.6464 43.1144 33.2109 42.9205 32.839C42.7313 32.467 42.4332 32.1422 42.0264 31.8644C41.6243 31.5819 41.0614 31.3253 40.3376 31.0946C39.6186 30.8592 39.1006 30.6003 38.7837 30.3178C38.4714 30.0306 38.3153 29.6469 38.3153 29.1667C38.3153 28.6488 38.4643 28.2462 38.7624 27.959C39.0604 27.6671 39.4908 27.5212 40.0538 27.5212C40.5931 27.5212 41.0212 27.7166 41.3381 28.1073C41.655 28.4981 41.8135 29.0254 41.8135 29.6893H43.1191C43.1191 28.7241 42.8968 27.9638 42.4521 27.4082C42.0122 26.8526 41.3949 26.5207 40.6002 26.4124V24.8588H39.5429V26.4054C38.7529 26.4995 38.1308 26.7938 37.6767 27.2881C37.2273 27.7825 37.0026 28.4157 37.0026 29.1879C37.0026 29.9458 37.2321 30.572 37.6909 31.0664C38.1545 31.556 38.8901 31.9539 39.8977 32.2599C40.6214 32.5 41.1347 32.7684 41.4374 33.065ZM5.72475 77.2881V46.1017H15.7155V77.2881H5.72475ZM3 45.1977C3 44.1992 3.81329 43.3898 4.8165 43.3898H16.6238C17.627 43.3898 18.4403 44.1992 18.4403 45.1977V48.3616H36.6053C38.6224 48.3616 40.3835 49.4523 41.3257 51.0734H51.2096L60.3277 41.8054C61.2594 40.8583 62.3665 40.0996 63.5879 39.5711L64.2565 39.2818C66.3125 38.3921 68.6374 38.3424 70.7299 39.1434L71.0525 39.2669C72.9833 40.006 74.5352 41.4855 75.3599 43.3736C76.1817 45.2547 76.2134 47.3848 75.448 49.2893L74.9745 50.4674C74.4399 51.7977 73.6428 53.0078 72.6303 54.0263L53.0516 73.722C52.7956 73.9794 52.4469 74.1243 52.0831 74.1243H18.4403V78.1921C18.4403 79.1906 17.627 80 16.6238 80H4.8165C3.81329 80 3 79.1906 3 78.1921V45.1977ZM42.0548 53.7853C42.0548 53.4773 42.029 53.1753 41.9794 52.8814H51.4005C51.7668 52.8814 52.1177 52.7345 52.3739 52.4741L61.6256 43.0702C62.3934 42.2898 63.3057 41.6646 64.3121 41.2291L64.9808 40.9397C66.5996 40.2392 68.4302 40.2001 70.0778 40.8308L70.4005 40.9543C71.8768 41.5194 73.0634 42.6507 73.6941 44.0945C74.3225 45.5328 74.3467 47.1616 73.7614 48.6179L73.2879 49.7959C72.8434 50.9019 72.1807 51.908 71.339 52.7548L51.8935 72.3164H18.4403V59.209H36.6053C39.615 59.209 42.0548 56.7808 42.0548 53.7853ZM18.4403 57.4011V50.1695H36.6053C38.6118 50.1695 40.2383 51.7883 40.2383 53.7853C40.2383 55.7823 38.6118 57.4011 36.6053 57.4011H18.4403ZM43.8713 4.51977C43.8713 4.02054 44.2779 3.61582 44.7795 3.61582C45.2812 3.61582 45.6878 4.02054 45.6878 4.51977V15.8192C45.6878 16.3184 45.2812 16.7232 44.7795 16.7232C44.2779 16.7232 43.8713 16.3184 43.8713 15.8192V4.51977ZM34.7888 6.32768C34.2871 6.32768 33.8805 6.73241 33.8805 7.23164V18.5311C33.8805 19.0303 34.2871 19.435 34.7888 19.435C35.2904 19.435 35.697 19.0303 35.697 18.5311V7.23164C35.697 6.73241 35.2904 6.32768 34.7888 6.32768Z" fill="white"/>
</svg>
