<svg width="40" height="40" viewBox="0 0 40 40" fill="none" xmlns="http://www.w3.org/2000/svg">
<circle cx="18.8995" cy="24.1651" r="11.8536" stroke="black" stroke-width="2.0918"/>
<path fill-rule="evenodd" clip-rule="evenodd" d="M18.3185 5.73895C15.9533 6.07746 14.1353 8.11159 14.1353 10.5703V14.291H12.0435V10.5703C12.0435 6.9549 14.7951 3.98216 18.3185 3.63213V5.73895ZM23.897 11.2685V14.291H25.9888V11.2685H23.897ZM19.1296 3.59856C19.0918 3.59796 19.054 3.59766 19.0161 3.59766C18.9783 3.59766 18.9404 3.59796 18.9027 3.59856H19.1296Z" fill="black"/>
<path d="M32.7286 5.90255V3.60156C29.0796 3.60156 26.1046 6.57657 26.1046 10.2256H28.4055C28.4055 7.8549 30.3346 5.90255 32.7286 5.90255Z" fill="url(#paint0_linear_2710_5325)"/>
<path d="M19.4806 3.625V5.92599C21.8745 5.92599 23.8037 7.87834 23.8037 10.2491H26.1046C26.1046 6.57677 23.1296 3.625 19.4806 3.625Z" fill="url(#paint1_linear_2710_5325)"/>
<path d="M14.7424 28.0826V20.4964L15.5722 21.3261H13.0829V19.7852H16.6627V28.0826H14.7424Z" fill="black"/>
<path d="M20.9253 28.2249C20.3484 28.2249 19.7755 28.1498 19.2065 27.9997C18.6454 27.8416 18.1634 27.6204 17.7604 27.3359L18.519 25.866C18.8351 26.0952 19.1986 26.277 19.6095 26.4113C20.0284 26.5456 20.4511 26.6128 20.8779 26.6128C21.3599 26.6128 21.7392 26.518 22.0158 26.3283C22.2924 26.1387 22.4307 25.8739 22.4307 25.5341C22.4307 25.3208 22.3754 25.1311 22.2647 24.9652C22.1541 24.7992 21.9565 24.6728 21.6721 24.5858C21.3955 24.4989 21.0043 24.4555 20.4986 24.4555H18.3768L18.8035 19.7852H23.865V21.3261H19.491L20.4867 20.449L20.1904 23.7798L19.1947 22.9026H20.949C21.7708 22.9026 22.4307 23.0172 22.9285 23.2464C23.4343 23.4677 23.8017 23.7719 24.0309 24.1591C24.2601 24.5463 24.3747 24.9849 24.3747 25.4749C24.3747 25.9648 24.2522 26.4192 24.0072 26.838C23.7622 27.2489 23.3829 27.5848 22.8693 27.8456C22.3635 28.0985 21.7155 28.2249 20.9253 28.2249Z" fill="black"/>
<line x1="19.0157" y1="11.9688" x2="19.0157" y2="15.4551" stroke="black" stroke-width="1.39454"/>
<line x1="18.7832" y1="32.6523" x2="18.7832" y2="35.9063" stroke="black" stroke-width="1.39454"/>
<line x1="10.416" y1="23.8223" x2="6.46483" y2="23.8223" stroke="black" stroke-width="1.39454"/>
<line x1="30.9512" y1="23.8223" x2="27" y2="23.8223" stroke="black" stroke-width="1.39454"/>
<defs>
<linearGradient id="paint0_linear_2710_5325" x1="17.827" y1="6.92725" x2="32.1647" y2="6.92725" gradientUnits="userSpaceOnUse">
<stop offset="0.1069" stop-color="#0F26AA"/>
<stop offset="0.8803" stop-color="#FF4A56"/>
</linearGradient>
<linearGradient id="paint1_linear_2710_5325" x1="17.827" y1="6.92745" x2="32.1648" y2="6.92745" gradientUnits="userSpaceOnUse">
<stop offset="0.1069" stop-color="#0F26AA"/>
<stop offset="0.8803" stop-color="#FF4A56"/>
</linearGradient>
</defs>
</svg>
