<svg width="66" height="48" viewBox="0 0 66 48" fill="none" xmlns="http://www.w3.org/2000/svg">
<g clip-path="url(#clip0_2579_4424)">
<path fill-rule="evenodd" clip-rule="evenodd" d="M29.0643 14.5643C23.2464 14.5643 18.5516 19.2591 18.5516 25.0771V27.3322H12.2952C7.60488 27.3322 3.78308 31.154 3.78308 35.8443C3.78308 40.5346 7.60488 44.3564 12.2952 44.3564H43.9056C48.6898 44.3564 52.4177 40.8434 52.4177 36.2444H55.9821C55.9821 42.9946 50.4706 47.9208 43.9056 47.9208H12.2952C5.63635 47.9208 0.21875 42.5031 0.21875 35.8443C0.21875 29.1854 5.63635 23.7678 12.2952 23.7678H15.047C15.7055 16.5974 21.7194 11 29.0643 11C36.8508 11 43.1415 17.2906 43.1415 25.0771V27.3688H39.5771V25.0771C39.5771 19.2591 34.8823 14.5643 29.0643 14.5643Z" fill="black"/>
<path d="M66.2748 27.3324V23.7676C60.6002 23.7676 55.9805 28.3873 55.9805 34.0619H59.5453C59.5453 30.3516 62.5645 27.3324 66.2748 27.3324Z" fill="url(#paint0_linear_2579_4424)"/>
<path d="M45.6523 23.7676V27.3324C49.3627 27.3324 52.3818 30.3516 52.3818 34.0619H55.9466C55.983 28.3873 51.3269 23.7676 45.6523 23.7676Z" fill="url(#paint1_linear_2579_4424)"/>
</g>
<defs>
<linearGradient id="paint0_linear_2579_4424" x1="43.0835" y1="28.9083" x2="65.3957" y2="28.9083" gradientUnits="userSpaceOnUse">
<stop offset="0.1069" stop-color="#0F26AA"/>
<stop offset="0.8803" stop-color="#FF4A56"/>
</linearGradient>
<linearGradient id="paint1_linear_2579_4424" x1="43.0861" y1="28.9083" x2="65.3982" y2="28.9083" gradientUnits="userSpaceOnUse">
<stop offset="0.1069" stop-color="#0F26AA"/>
<stop offset="0.8803" stop-color="#FF4A56"/>
</linearGradient>
<clipPath id="clip0_2579_4424">
<rect width="66" height="48" fill="white"/>
</clipPath>
</defs>
</svg>
