<svg width="40" height="40" viewBox="0 0 40 40" fill="none" xmlns="http://www.w3.org/2000/svg">
<path fill-rule="evenodd" clip-rule="evenodd" d="M9.06981 11.3631C10.5558 7.4847 14.319 3.75 20 3.75C26.1203 3.75 31.2537 8.13193 32.3627 15.1075C33.9548 15.3453 35.6331 15.9478 37.0191 17.0076C38.7543 18.3346 40 20.3637 40 23.125C40 27.7542 36.0499 30.9068 31.6945 31.0037L31.6389 28.5043C34.9285 28.4311 37.5 26.1199 37.5 23.125C37.5 21.2129 36.6754 19.892 35.5004 18.9935C34.2852 18.0642 32.6674 17.5755 31.185 17.4983C30.5681 17.4662 30.0671 16.9882 30.0061 16.3735C29.3682 9.94801 24.993 6.25 20 6.25C15.2766 6.25 12.21 9.53463 11.1958 12.8642C11.0488 13.3467 10.6262 13.6936 10.1244 13.7438C5.9205 14.1642 2.5 17.0388 2.5 21.5962C2.5 25.3483 5.25407 28.504 8.33334 28.504V31.004C3.49566 31.004 9.53674e-07 26.3183 9.53674e-07 21.5962C9.53674e-07 15.7847 4.22592 12.1655 9.06981 11.3631Z" fill="#0F26AA"/>
<path d="M28.25 25.75C28.25 27.1307 27.1307 28.25 25.75 28.25C24.3693 28.25 23.25 27.1307 23.25 25.75C23.25 24.3693 24.3693 23.25 25.75 23.25C27.1307 23.25 28.25 24.3693 28.25 25.75Z" stroke="#047FFE" stroke-width="2.5" stroke-miterlimit="10"/>
<path fill-rule="evenodd" clip-rule="evenodd" d="M13.75 27C14.4404 27 15 26.4404 15 25.75C15 25.0596 14.4404 24.5 13.75 24.5C13.0596 24.5 12.5 25.0596 12.5 25.75C12.5 26.4404 13.0596 27 13.75 27ZM17.5 25.75C17.5 27.8211 15.8211 29.5 13.75 29.5C11.6789 29.5 10 27.8211 10 25.75C10 23.6789 11.6789 22 13.75 22C15.8211 22 17.5 23.6789 17.5 25.75Z" fill="#047FFE"/>
<path fill-rule="evenodd" clip-rule="evenodd" d="M22.75 17C23.4404 17 24 16.4404 24 15.75C24 15.0596 23.4404 14.5 22.75 14.5C22.0596 14.5 21.5 15.0596 21.5 15.75C21.5 16.4404 22.0596 17 22.75 17ZM26.5 15.75C26.5 17.8211 24.8211 19.5 22.75 19.5C20.6789 19.5 19 17.8211 19 15.75C19 13.6789 20.6789 12 22.75 12C24.8211 12 26.5 13.6789 26.5 15.75Z" fill="#047FFE"/>
<path fill-rule="evenodd" clip-rule="evenodd" d="M22.75 37C23.4404 37 24 36.4404 24 35.75C24 35.0596 23.4404 34.5 22.75 34.5C22.0596 34.5 21.5 35.0596 21.5 35.75C21.5 36.4404 22.0596 37 22.75 37ZM26.5 35.75C26.5 37.8211 24.8211 39.5 22.75 39.5C20.6789 39.5 19 37.8211 19 35.75C19 33.6789 20.6789 32 22.75 32C24.8211 32 26.5 33.6789 26.5 35.75Z" fill="#047FFE"/>
<path fill-rule="evenodd" clip-rule="evenodd" d="M23 27H16V24.5H23V27Z" fill="#047FFE"/>
<path fill-rule="evenodd" clip-rule="evenodd" d="M20 35L14 29L15.7678 27.2322L21.7678 33.2322L20 35Z" fill="#047FFE"/>
<path fill-rule="evenodd" clip-rule="evenodd" d="M15 23L20 17L21.9206 18.6005L16.9206 24.6005L15 23Z" fill="#047FFE"/>
</svg>
