<svg width="66" height="51" viewBox="0 0 66 51" fill="none" xmlns="http://www.w3.org/2000/svg">
<path fill-rule="evenodd" clip-rule="evenodd" d="M32.8541 11.7485C28.5495 11.7485 25.0759 15.1939 25.0759 19.4635V21.1184H20.4469C16.9766 21.1184 14.1489 23.923 14.1489 27.3651C14.1489 30.8071 16.9766 33.6118 20.4469 33.6118H43.835C47.3747 33.6118 50.133 31.0338 50.133 27.6587H52.7702C52.7702 32.6124 48.6923 36.2275 43.835 36.2275H20.4469C15.5201 36.2275 11.5117 32.2518 11.5117 27.3651C11.5117 22.4784 15.5201 18.5026 20.4469 18.5026H22.4829C22.9701 13.2406 27.4197 9.13281 32.8541 9.13281C38.6153 9.13281 43.2696 13.7493 43.2696 19.4635V21.1452H40.6324V19.4635C40.6324 15.1939 37.1588 11.7485 32.8541 11.7485Z" fill="white"/>
<path d="M60.3871 21.12V18.5039C56.1886 18.5039 52.7705 21.8941 52.7705 26.0585H55.4081C55.4081 23.3356 57.6419 21.12 60.3871 21.12Z" fill="url(#paint0_linear_2377_5098)"/>
<path d="M45.1262 18.5039V21.12C47.8714 21.12 50.1053 23.3356 50.1053 26.0585H52.7428C52.7697 21.8941 49.3248 18.5039 45.1262 18.5039Z" fill="url(#paint1_linear_2377_5098)"/>
<defs>
<linearGradient id="paint0_linear_2377_5098" x1="27.9793" y1="21.6239" x2="59.7364" y2="22.2873" gradientUnits="userSpaceOnUse">
<stop offset="0.1069" stop-color="#0F26AA"/>
<stop offset="0.8803" stop-color="#FF4A56"/>
</linearGradient>
<linearGradient id="paint1_linear_2377_5098" x1="43.2275" y1="22.2765" x2="59.7359" y2="22.2765" gradientUnits="userSpaceOnUse">
<stop stop-color="#BB4098"/>
<stop offset="1" stop-color="#FF4A56"/>
</linearGradient>
</defs>
</svg>
