<svg width="567" height="200" viewBox="0 0 567 200" fill="none" xmlns="http://www.w3.org/2000/svg">
<path fill-rule="evenodd" clip-rule="evenodd" d="M16.2227 1.783C10.1668 4.10769 4.04049 10.315 1.74413 16.4526C0.00242917 21.1069 0 21.2186 0 100C0 178.781 0.00242917 178.893 1.74413 183.547C4.09717 189.837 10.1628 195.903 16.4526 198.256C21.1069 199.998 21.2186 200 100 200C177.335 200 178.973 199.968 183.287 198.354C188.901 196.253 194.142 191.636 197.176 186.117C199.335 182.189 199.589 180.925 199.867 172.672L200.175 163.563H196.039H191.903V168.274C191.903 175.766 189.951 180.977 185.464 185.464C178.689 192.239 183.145 191.903 100 191.903C18.8996 191.903 21.983 192.1 15.4413 186.5C13.4996 184.838 11.0721 181.658 10.0194 179.398L8.11336 175.304L8.10526 100.347C8.09636 15.8761 7.75061 20.7174 14.251 14.217C20.7417 7.72551 16.2534 8.04372 98.0211 8.28664L170.445 8.50202L174.996 10.6356C181.394 13.6356 185.786 17.9198 188.858 24.1563L191.498 29.5142L191.773 45.5263L192.049 61.5385H196.024H200V30.7692V0L110.324 0.0421053C21.2462 0.0842105 20.6186 0.0955464 16.2227 1.783ZM31.1741 76.1781C27.9336 77.1976 26.4518 78.4251 24.3968 81.7959C22.7036 84.5741 22.6777 85.2308 22.6753 126.734C22.6713 174.617 22.4413 172.861 29.1789 176.316C32.7255 178.134 32.8 178.138 73.8818 178.138C118.951 178.138 118.415 178.19 122.508 173.327L124.696 170.726V127.428C124.696 79.7563 124.853 81.3069 119.648 77.5943L117.004 75.7085L75.3036 75.5619C50.987 75.4761 32.5903 75.7336 31.1741 76.1781ZM161.685 75.9109C161.49 76.2445 167.299 86.1506 174.593 97.9231L187.854 119.328V134.563V149.798H195.951H204.049V134.749V119.7L217.052 98.6583C224.203 87.085 230.255 77.0955 230.499 76.4599C230.866 75.5028 229.469 75.3036 222.395 75.3036H213.848L211.909 77.9352C210.843 79.3822 206.956 85.5773 203.273 91.7004C199.589 97.8243 196.336 102.834 196.045 102.834C195.753 102.834 191.756 96.6397 187.163 89.0688L178.811 75.3036H170.425C165.813 75.3036 161.879 75.5773 161.685 75.9109ZM361.715 76.149C351.475 78.6891 345.1 88.2826 347.262 97.9012C348.555 103.66 351.601 107.232 359.545 112.309C370.922 119.579 373.568 121.683 375.149 124.718C378.134 130.449 375.258 138.998 369.541 141.387C362.959 144.138 355.355 141.706 351.492 135.615L349.222 132.036L347.666 133.832C342.749 139.51 342.879 138.779 346.143 142.392C350.806 147.552 355.378 149.379 363.563 149.351C369.38 149.33 371.072 149 374.494 147.213C379.43 144.636 381.579 142.414 383.738 137.652C385.531 133.695 386.007 125.523 384.652 121.957C383.249 118.267 378.043 113.411 370.953 109.178C360.643 103.023 357.279 100.082 356.274 96.3498C354.296 89.0073 359.017 82.5911 366.397 82.5911C370.232 82.5911 373.504 84.3603 376.197 87.8915L378.388 90.7636L381.096 88.1376C382.586 86.6939 383.806 85.1085 383.806 84.6154C383.806 83.1587 378.776 78.7215 375.642 77.4146C371.747 75.7903 365.462 75.2194 361.715 76.149ZM504.824 76.3158C504.611 76.8729 504.531 93.5425 504.647 113.36L504.858 149.393L508.704 149.64L512.551 149.887V112.595V75.3036H508.882C506.693 75.3036 505.056 75.7117 504.824 76.3158ZM237.983 101.615C233.414 103.081 227.423 108.228 224.521 113.181C222.733 116.232 222.29 118.123 222.025 123.83C221.718 130.43 221.836 131.025 224.426 136.007C233.684 153.814 258.613 153.889 267.802 136.139C270.019 131.855 270.445 130.154 270.445 125.58C270.445 122.581 269.871 118.442 269.17 116.384C267.48 111.424 262.312 105.685 257.185 103.074C252.057 100.463 243.577 99.8186 237.983 101.615ZM280.329 116.397C280.696 135.18 281.249 137.142 287.87 143.193C298.965 153.334 316.073 150.743 323.7 137.769C325.887 134.048 325.913 133.832 326.172 117.206L326.433 100.405H319.976H313.517L313.217 114.777C312.896 130.145 312.267 132.818 308.326 135.578C305.719 137.405 301.045 137.173 298.392 135.087C294.513 132.035 293.927 129.297 293.927 114.196V100.405H286.972H280.015L280.329 116.397ZM409.312 102.334C401.55 106.004 397.55 112.73 396.932 123.146C396.445 131.368 398.115 137.012 402.512 142.007C406.5 146.537 410.435 148.705 416.014 149.445C424.063 150.513 432.114 146.901 435.264 140.811C436.973 137.508 436.717 136.292 434.211 135.785C432.985 135.538 431.377 135.101 430.634 134.814C429.635 134.427 428.921 135.053 427.893 137.222C426.267 140.648 423.132 142.51 418.989 142.51C410.899 142.51 405.668 135.554 405.668 124.796C405.668 115.753 409.482 109.5 416.079 107.723C422.323 106.042 427.845 108.679 428.805 113.8C429.094 115.339 429.464 116.599 429.628 116.599C431.032 116.599 436.433 113.793 436.419 113.07C436.386 111.364 433.443 105.682 431.866 104.282C427.015 99.9741 416.267 99.0462 409.312 102.334ZM457.709 102.059C450.606 105.663 446.133 113.268 445.517 122.79C444.641 136.308 450.832 146.326 461.73 149.032C467.068 150.357 472.087 149.408 476.913 146.16L480.972 143.429V145.804C480.972 148.113 481.083 148.178 485.02 148.178H489.069V124.696V101.215H485.02C481.062 101.215 480.972 101.269 480.972 103.644C480.972 104.98 480.768 106.073 480.519 106.073C480.27 106.073 478.594 104.89 476.795 103.444C473.841 101.07 472.922 100.79 467.329 100.568C462.27 100.367 460.506 100.64 457.709 102.059ZM539.961 101.531C534.224 103.581 528.857 109.51 527.138 115.698C525.898 120.161 526.143 131.186 527.574 135.389C531.245 146.164 543.301 152.036 554.854 148.678C558.453 147.632 560.118 146.53 563.084 143.231C565.129 140.957 566.802 138.844 566.802 138.535C566.802 138.227 565.188 137.19 563.215 136.232L559.629 134.49L558.009 137.235C555.742 141.078 552.102 142.782 547.174 142.309C544.988 142.099 542.249 141.217 541.088 140.351C538.542 138.449 536.128 134.008 535.483 130.04L535.011 127.126H550.906H566.802V122.415C566.802 112.696 562.9 104.736 556.774 101.954C552.826 100.161 544.391 99.949 539.961 101.531ZM463.563 108.094C457.584 110.199 454.247 116.186 454.256 124.79C454.266 135.383 459.638 142.51 467.611 142.51C475.572 142.51 481.114 135.198 481.114 124.696C481.114 115.951 477.311 109.361 471.301 107.691C467.707 106.693 467.513 106.704 463.563 108.094ZM540.033 109.071C537.334 111.343 535.223 115.346 535.223 118.193C535.223 119.771 535.7 119.838 546.964 119.838C557.607 119.838 558.704 119.705 558.7 118.421C558.689 115.076 556.861 110.887 554.57 108.959C552.537 107.249 551.268 106.883 547.368 106.883C543.405 106.883 542.211 107.239 540.033 109.071ZM240.515 114.372C229.26 120.144 233.509 136.828 246.236 136.839C258.783 136.849 262.85 119.704 251.594 114.255C247.113 112.087 244.929 112.109 240.515 114.372Z" fill="white"/>
</svg>
