<svg width="392" height="200" viewBox="0 0 392 200" fill="none" xmlns="http://www.w3.org/2000/svg">
<path d="M140.334 141.766V83.5322H152.267H164.2V141.766V200H152.267H140.334V141.766Z" fill="white"/>
<path d="M0 181.48C0 181.193 76.4678 60.9067 82.4821 51.8375L84.2005 49.1645H58.3294H32.4582V64.4389V79.7134H17.6611H2.86396V50.5964V21.4795H68.7351C105.012 21.4795 134.606 21.6704 134.606 21.9568C134.606 22.3387 63.8663 133.938 52.6969 151.121L51.3604 153.222H78.6635H105.967V139.379V125.537H120.668C133.174 125.537 135.465 125.728 135.943 127.064C136.706 128.974 136.706 178.425 135.943 180.334C135.37 181.67 128.496 181.861 67.685 181.861C30.4535 181.861 0 181.67 0 181.48Z" fill="white"/>
<path d="M168.019 118.377V54.8926H159.427H150.835V43.4368V32.0764L142.243 31.79L133.747 31.5036L137.947 24.9165C140.334 21.2888 142.243 17.9475 142.243 17.4702C142.243 17.0883 133.842 16.7064 123.627 16.7064H105.012V8.40096V0H194.272H283.532V16.0382V31.9809H236.277H189.021V68.7351V105.489H182.816H176.611V119.809V134.129H182.816H189.021V157.995V181.862H178.52H168.019V118.377V118.377Z" fill="white"/>
<path d="M193.317 180.716C193.031 180.048 192.745 168.306 192.649 154.654L192.363 129.833L186.921 129.547L181.384 129.26V119.332V109.308H187.112H192.84V84.0098V58.7114H238.186H283.532V77.8045V96.8976H272.554H261.575V88.3057V79.7138H239.141H216.706V94.5109V109.308H235.322H253.938V119.809V130.215L235.322 130.024L216.706 129.833V145.871V161.814H239.141H261.575V153.222V144.63H272.554H283.532V163.246V181.862H238.664C203.628 181.862 193.604 181.575 193.317 180.716Z" fill="white"/>
<path d="M287.351 161.336V140.811H278.759H270.167V120.764V100.716H278.759H287.351V77.8041V54.8924H278.759H270.167V45.8232V36.754H278.759H287.351V29.1167V21.4795H339.379H391.408V50.5964V79.7134H376.611H361.814V64.4389V49.1645H330.788H299.761V100.716V152.267H330.788H361.814V138.902V125.537H376.611H391.408V153.699V181.861H339.379H287.351V161.336Z" fill="white"/>
</svg>
