<svg width="20" height="20" viewBox="0 0 20 20" fill="none" xmlns="http://www.w3.org/2000/svg">
<g clip-path="url(#clip0_3283_11919)">
<path fill-rule="evenodd" clip-rule="evenodd" d="M9.80274 2.9972L8.46769 0.827414L9.53231 0.172363L11.5323 3.42285C11.6444 3.60508 11.6555 3.83199 11.5618 4.02431L11.5497 4.04898L11.5156 4.1183C11.4859 4.1786 11.4424 4.26634 11.3872 4.37681C11.2768 4.59769 11.1192 4.90973 10.9301 5.27524C10.5528 6.00478 10.0469 6.95351 9.5386 7.81695L8.4614 7.18282C8.9531 6.34755 9.44719 5.42152 9.81986 4.70098C9.9047 4.53696 9.98308 4.38389 10.0535 4.24536C9.13039 4.22562 8.25554 4.58227 7.50346 5.14437C6.52928 5.87248 5.83895 6.89106 5.59788 7.68249C5.52439 7.92374 5.31312 8.09718 5.06219 8.12227C3.99493 8.229 3.03657 8.61355 2.35478 9.23543C1.68513 9.84625 1.25 10.7132 1.25 11.8754C1.25 14.053 3.02146 15.6254 5.3125 15.6254H7.20073V16.8754H5.3125C2.44729 16.8754 0 14.854 0 11.8754C0 10.3653 0.580499 9.16193 1.5124 8.3119C2.33646 7.56026 3.40884 7.10732 4.54112 6.92939C4.93922 5.95518 5.73199 4.90782 6.75513 4.14312C7.6037 3.5089 8.65109 3.04104 9.80274 2.9972ZM14.5377 5.18629C14.5911 5.24661 14.6415 5.30352 14.7072 5.37367C14.7188 5.38605 14.7299 5.3989 14.7405 5.41218C15.4652 6.32356 15.9699 7.47172 16.1814 8.80411C16.9774 8.92306 17.8166 9.22429 18.5095 9.75419C19.3771 10.4177 20 11.4322 20 12.8129C20 14.1674 19.4878 15.2143 18.6168 15.9077C17.7662 16.5849 16.6372 16.8754 15.4687 16.8754H11.3976L12.5601 19.2225L11.4399 19.7773L9.83055 16.5278C9.73261 16.33 9.74621 16.0953 9.86634 15.9101L11.9757 12.6597L13.0243 13.3401L11.5413 15.6254H15.4687C16.4487 15.6254 17.2729 15.3799 17.8383 14.9298C18.3833 14.4958 18.75 13.824 18.75 12.8129C18.75 11.8568 18.3377 11.1964 17.7502 10.7471C17.1426 10.2825 16.3337 10.0381 15.5925 9.99953C15.284 9.98346 15.0336 9.74448 15.0031 9.43712C14.8717 8.11385 14.4217 7.02774 13.7772 6.20926C13.6857 6.11117 13.6296 6.0474 13.5764 5.98694C13.4727 5.86914 13.3801 5.76389 13.0581 5.44183L13.9419 4.55795C14.2874 4.90339 14.4199 5.05316 14.5377 5.18629Z" fill="#079BEE"/>
</g>
<defs>
<clipPath id="clip0_3283_11919">
<rect width="20" height="20" fill="white"/>
</clipPath>
</defs>
</svg>
