<svg width="20" height="20" viewBox="0 0 20 20" fill="none" xmlns="http://www.w3.org/2000/svg">
<path fill-rule="evenodd" clip-rule="evenodd" d="M4.53554 6.92989C5.279 4.99128 7.16029 3.125 10 3.125C13.0602 3.125 15.6269 5.31597 16.1813 8.80373C16.9774 8.92267 17.8166 9.2239 18.5095 9.75382C19.3771 10.4173 20 11.4318 20 12.8125C20 14.167 19.4878 15.2139 18.6168 15.9073C17.7662 16.5845 16.6372 16.875 15.4687 16.875H5.3125C2.44729 16.875 0 14.8537 0 11.875C0 10.3649 0.580499 9.16155 1.5124 8.31153C2.33511 7.56111 3.40532 7.10843 4.53554 6.92989ZM10 4.375C7.63832 4.375 6.10498 6.01732 5.59788 7.68211C5.52439 7.92336 5.31313 8.0968 5.06219 8.1219C3.99493 8.22862 3.03657 8.61317 2.35478 9.23505C1.68513 9.84587 1.25 10.7128 1.25 11.875C1.25 14.0526 3.02146 15.625 5.3125 15.625H15.4687C16.4487 15.625 17.2729 15.3795 17.8383 14.9294C18.3833 14.4955 18.75 13.8236 18.75 12.8125C18.75 11.8564 18.3377 11.196 17.7502 10.7468C17.1426 10.2821 16.3337 10.0378 15.5925 9.99915C15.284 9.98308 15.0336 9.74411 15.0031 9.43675C14.6841 6.22401 12.4965 4.375 10 4.375Z" fill="#079BEE"/>
</svg>
