<svg width="19" height="19" viewBox="0 0 19 19" fill="none" xmlns="http://www.w3.org/2000/svg">
<path d="M13.4232 3.57081C13.9557 3.57081 14.4379 3.78682 14.7869 4.13568C15.1358 4.48467 15.3518 4.96692 15.3518 5.49941C15.3518 6.03189 15.1358 6.514 14.7869 6.863C14.4379 7.21199 13.9556 7.42786 13.4232 7.42786C12.8905 7.42786 12.4083 7.21199 12.0594 6.863C11.7104 6.514 11.4945 6.03189 11.4945 5.49941C11.4945 4.96692 11.7104 4.48467 12.0594 4.13568C12.4083 3.78668 12.8905 3.57081 13.4232 3.57081ZM17.8895 8.84666L8.84732 17.888C8.69066 18.0447 8.43643 18.0447 8.27977 17.888L1.1175 10.7263C0.960835 10.5698 0.960835 10.3157 1.1175 10.1589L10.1597 1.11762C10.238 1.0393 10.3407 1 10.4434 1H17.3701C17.5918 1 17.7715 1.17962 17.7715 1.4013C17.7715 1.40794 17.7712 1.41472 17.7709 1.42137L18.0054 8.55026C18.009 8.66511 17.9637 8.77014 17.8884 8.84556L17.8895 8.84666ZM8.56347 17.0366L17.2001 8.40081L16.9831 1.8026H10.6098L1.96889 10.4427L8.56347 17.0366ZM14.3195 4.60298C14.0902 4.37369 13.7732 4.23171 13.423 4.23171C13.0729 4.23171 12.756 4.37355 12.5265 4.60298C12.2971 4.83228 12.1551 5.14931 12.1551 5.49941C12.1551 5.84951 12.2969 6.16639 12.5265 6.39583C12.7558 6.62526 13.0727 6.7671 13.423 6.7671C13.773 6.7671 14.0901 6.62526 14.3195 6.39583C14.549 6.16639 14.6908 5.84951 14.6908 5.49941C14.6908 5.14931 14.5488 4.83228 14.3195 4.60298Z" fill="black" stroke="black" stroke-width="0.5"/>
</svg>
