<svg width="18" height="18" viewBox="0 0 18 18" fill="none" xmlns="http://www.w3.org/2000/svg">
<path d="M8.50035 8.36813e-06C10.4676 -0.000553967 12.3742 0.681067 13.8953 1.92872C15.4163 3.17637 16.4576 4.91284 16.8418 6.84224C17.226 8.77163 16.9293 10.7746 16.0022 12.5097C15.0752 14.2448 13.5751 15.6048 11.7577 16.3579C9.94023 17.111 7.9179 17.2105 6.03529 16.6396C4.15267 16.0687 2.52627 14.8627 1.43323 13.227C0.340185 11.5913 -0.151857 9.62726 0.0409471 7.66945C0.233752 5.71165 1.09947 3.88128 2.49058 2.49024C3.27871 1.69949 4.21541 1.07239 5.2468 0.64502C6.2782 0.217647 7.38392 -0.00156108 8.50035 8.36813e-06V8.36813e-06ZM3.18232 13.5289C3.63748 13.2923 4.17288 13.2342 4.70413 13.1775C5.65733 13.0737 6.61054 12.9714 6.97024 11.5907C6.97176 11.5824 6.97456 11.5745 6.97854 11.5671C6.53998 11.1895 6.17613 10.863 6.10557 10.0896H6.06545C5.97298 10.089 5.88213 10.0652 5.80121 10.0204C5.66893 9.93717 5.56705 9.81344 5.51069 9.66765C5.44192 9.49663 5.40308 9.31506 5.39586 9.13087V9.13087C5.39586 9.07415 5.39586 8.96624 5.39586 8.86386C5.39586 8.76148 5.39586 8.68539 5.40969 8.63697C5.41237 8.62229 5.41654 8.60792 5.42214 8.59408C5.51622 8.33261 5.6601 8.24684 5.85102 8.25237L5.72512 8.16936C5.65733 7.31991 5.86347 5.84791 4.93378 5.56845C6.67833 3.41301 8.6885 2.24814 10.1992 4.1587C12.0171 4.25416 12.7476 7.14421 11.2963 8.36028L11.288 8.43222C11.343 8.41534 11.3996 8.40421 11.4568 8.39902C11.5589 8.38902 11.6617 8.40872 11.7529 8.45574C11.8023 8.4815 11.846 8.51695 11.8814 8.55997C11.9168 8.60299 11.9432 8.65271 11.959 8.70614C11.9971 8.84799 11.9938 8.99779 11.9493 9.13779C11.8829 9.34669 11.7985 9.58741 11.7197 9.79078C11.6965 9.87823 11.6485 9.95706 11.5813 10.0177C11.4924 10.0812 11.3824 10.1079 11.2742 10.0924H11.2106C11.1967 10.8104 10.8453 11.1397 10.3805 11.5713L10.3099 11.6377C10.725 12.8012 11.5786 12.9451 12.4322 13.089C12.933 13.172 13.4324 13.2564 13.8585 13.504C14.8345 12.4601 15.4839 11.1535 15.7265 9.7452C15.9691 8.33686 15.7944 6.88831 15.2239 5.57804C14.6534 4.26777 13.712 3.15302 12.5158 2.37116C11.3195 1.5893 9.92071 1.17447 8.49163 1.17781C7.06255 1.18114 5.66567 1.60248 4.4731 2.38992C3.28053 3.17736 2.34438 4.29648 1.78 5.6094C1.21562 6.92232 1.04767 8.37166 1.29685 9.77886C1.54602 11.186 2.20143 12.4896 3.18232 13.5289V13.5289Z" fill="black"/>
</svg>
