<svg width="20" height="20" viewBox="0 0 20 20" fill="none" xmlns="http://www.w3.org/2000/svg">
<path d="M14.375 16.2455V2.81348C14.3743 2.56506 14.2753 2.32702 14.0996 2.15136C13.924 1.9757 13.6859 1.8767 13.4375 1.87598H2.8125C2.56408 1.8767 2.32604 1.9757 2.15038 2.15136C1.97473 2.32702 1.87572 2.56506 1.875 2.81348V16.5635C1.87624 16.9775 2.04125 17.3742 2.33401 17.667C2.62677 17.9597 3.02348 18.1247 3.4375 18.126H16.25" stroke="#079BEE" stroke-width="1.25" stroke-linejoin="round"/>
<path d="M16.25 18.124C15.7527 18.124 15.2758 17.9265 14.9242 17.5748C14.5725 17.2232 14.375 16.7463 14.375 16.249V4.99902H17.1875C17.4361 4.99902 17.6746 5.0978 17.8504 5.27361C18.0262 5.44943 18.125 5.68788 18.125 5.93652V16.249C18.125 16.7463 17.9275 17.2232 17.5758 17.5748C17.2242 17.9265 16.7473 18.124 16.25 18.124Z" stroke="#079BEE" stroke-width="1.25" stroke-linejoin="round"/>
<path d="M9.375 4.99902H11.875" stroke="#079BEE" stroke-width="1.25" stroke-linecap="round" stroke-linejoin="round"/>
<path d="M9.375 7.50049H11.875" stroke="#079BEE" stroke-width="1.25" stroke-linecap="round" stroke-linejoin="round"/>
<path d="M4.375 10.0005H11.875" stroke="#079BEE" stroke-width="1.25" stroke-linecap="round" stroke-linejoin="round"/>
<path d="M4.375 12.499H11.875" stroke="#079BEE" stroke-width="1.25" stroke-linecap="round" stroke-linejoin="round"/>
<path d="M4.375 14.9985H11.875" stroke="#079BEE" stroke-width="1.25" stroke-linecap="round" stroke-linejoin="round"/>
<path d="M6.875 8.12402H4.375C4.20924 8.12402 4.05027 8.05817 3.93306 7.94096C3.81585 7.82375 3.75 7.66478 3.75 7.49902V4.99902C3.75 4.83326 3.81585 4.67429 3.93306 4.55708C4.05027 4.43987 4.20924 4.37402 4.375 4.37402H6.875C7.04076 4.37402 7.19973 4.43987 7.31694 4.55708C7.43415 4.67429 7.5 4.83326 7.5 4.99902V7.49902C7.5 7.66478 7.43415 7.82375 7.31694 7.94096C7.19973 8.05817 7.04076 8.12402 6.875 8.12402Z" fill="#079BEE"/>
</svg>
