<svg width="20" height="20" viewBox="0 0 20 20" fill="none" xmlns="http://www.w3.org/2000/svg">
<g clip-path="url(#clip0_1752_2911)">
<path fill-rule="evenodd" clip-rule="evenodd" d="M4.45632 4.7489C5.24491 2.87683 7.1611 1.12549 10 1.12549C13.0621 1.12549 15.6732 3.19156 16.2831 6.52744C17.0409 6.6302 17.8489 6.86309 18.5321 7.29726C19.4417 7.87521 20.125 8.81501 20.125 10.1724C20.125 11.4783 19.5661 12.4537 18.644 13.0694C17.7649 13.6563 16.6208 13.8755 15.4687 13.8755H12.5C12.0858 13.8755 11.75 13.5397 11.75 13.1255C11.75 12.7113 12.0858 12.3755 12.5 12.3755H15.4687C16.4651 12.3755 17.2742 12.1804 17.8111 11.8219C18.305 11.4921 18.625 10.991 18.625 10.1724C18.625 9.40511 18.2732 8.90994 17.7276 8.56328C17.1472 8.19443 16.351 8.00612 15.5879 7.96832C15.2184 7.95002 14.9175 7.66509 14.8791 7.2972C14.5706 4.34631 12.4574 2.62549 10 2.62549C7.68007 2.62549 6.19936 4.15382 5.71418 5.66698C5.62259 5.95265 5.36958 6.15625 5.07093 6.18462C3.98977 6.28733 3.04901 6.60605 2.39634 7.11776C1.77002 7.60881 1.375 8.29966 1.375 9.28174C1.375 10.2616 1.78752 11.0066 2.46016 11.5257C3.15091 12.0587 4.15064 12.3755 5.3125 12.3755H7.5C7.91421 12.3755 8.25 12.7113 8.25 13.1255C8.25 13.5397 7.91421 13.8755 7.5 13.8755H5.3125C3.89623 13.8755 2.55221 13.4914 1.54374 12.7132C0.517165 11.9209 -0.125 10.744 -0.125 9.28174C-0.125 7.82162 0.495605 6.70193 1.47084 5.93731C2.30098 5.28647 3.35908 4.9126 4.45632 4.7489Z" fill="black"/>
<path fill-rule="evenodd" clip-rule="evenodd" d="M6.96926 15.0995C7.26192 14.8064 7.73679 14.806 8.02991 15.0986L10 17.0657L11.9701 15.0986C12.2632 14.806 12.7381 14.8064 13.0307 15.0995C13.3234 15.3926 13.323 15.8675 13.0299 16.1601L10.5299 18.6562C10.2371 18.9486 9.76288 18.9486 9.47008 18.6562L6.97008 16.1601C6.67696 15.8675 6.67659 15.3926 6.96926 15.0995Z" fill="black"/>
<path fill-rule="evenodd" clip-rule="evenodd" d="M10 8.00049C10.4142 8.00049 10.75 8.33627 10.75 8.75049V17.5017C10.75 17.9159 10.4142 18.2517 10 18.2517C9.58579 18.2517 9.25 17.9159 9.25 17.5017V8.75049C9.25 8.33627 9.58579 8.00049 10 8.00049Z" fill="black"/>
</g>
<defs>
<clipPath id="clip0_1752_2911">
<rect width="20" height="20" fill="white"/>
</clipPath>
</defs>
</svg>
