<svg width="18" height="18" viewBox="0 0 18 18" fill="none" xmlns="http://www.w3.org/2000/svg">
<g clip-path="url(#clip0_1701_2848)">
<path d="M4.6997 1.7665C4.82785 1.69348 4.97955 1.67371 5.12214 1.71145C5.26472 1.7492 5.38678 1.84144 5.46201 1.9683C5.53725 2.09517 5.55964 2.24651 5.52437 2.38973C5.4891 2.53295 5.39899 2.65658 5.27345 2.734C4.03261 3.4667 3.03608 4.5499 2.40915 5.84739C1.78222 7.14489 1.55287 8.59877 1.74995 10.0263C1.76994 10.1741 1.73038 10.3238 1.63997 10.4425C1.54957 10.5612 1.41572 10.6391 1.26788 10.6591C1.12004 10.6791 0.970314 10.6395 0.851638 10.5491C0.732963 10.4587 0.655061 10.3248 0.635071 10.177C0.408283 8.53057 0.673111 6.85384 1.39628 5.35746C2.11946 3.86107 3.26872 2.61177 4.6997 1.7665V1.7665ZM4.5962 16.7571C4.53319 16.7186 4.47839 16.668 4.43493 16.6082C4.39147 16.5485 4.36021 16.4808 4.34292 16.409C4.32563 16.3371 4.32265 16.2626 4.33417 16.1897C4.34568 16.1167 4.37145 16.0467 4.41001 15.9837C4.44857 15.9207 4.49916 15.8659 4.5589 15.8224C4.61863 15.779 4.68635 15.7477 4.75817 15.7304C4.82999 15.7131 4.90451 15.7101 4.97748 15.7217C5.05045 15.7332 5.12044 15.7589 5.18344 15.7975C6.33158 16.5016 7.65262 16.8731 8.99944 16.8708C10.3944 16.8708 11.7287 16.4804 12.8841 15.7548C13.0104 15.6754 13.1631 15.6495 13.3086 15.6827C13.4541 15.7159 13.5804 15.8056 13.6598 15.9319C13.7391 16.0583 13.765 16.211 13.7318 16.3565C13.6986 16.5019 13.6089 16.6283 13.4826 16.7076C12.1398 17.5517 10.5855 17.9983 8.99944 17.9958C7.42445 17.9958 5.9102 17.5626 4.5962 16.7571ZM17.4369 10.2321C17.4176 10.3801 17.3402 10.5143 17.2218 10.6053C17.1034 10.6962 16.9538 10.7364 16.8058 10.717C16.6578 10.6976 16.5236 10.6202 16.4327 10.5019C16.3417 10.3835 16.3016 10.2339 16.3209 10.0859C16.5148 8.63396 16.268 7.1573 15.6124 5.84738C14.9568 4.53747 13.9228 3.45474 12.6444 2.73963C12.5201 2.66371 12.43 2.54249 12.3932 2.40148C12.3564 2.26047 12.3758 2.11069 12.4472 1.98368C12.5187 1.85667 12.6366 1.76234 12.7762 1.72058C12.9159 1.67881 13.0662 1.69285 13.1957 1.75975C14.67 2.58487 15.8626 3.83376 16.6188 5.34459C17.375 6.85541 17.66 8.55853 17.4369 10.2333V10.2321ZM8.44257 4.43163C7.91205 4.29578 7.44929 3.97111 7.14103 3.51847C6.83277 3.06584 6.70017 2.51631 6.76808 1.97291C6.836 1.4295 7.09977 0.929518 7.50996 0.566678C7.92014 0.203838 8.44858 0.0030529 8.99621 0.00195763C9.54385 0.000862362 10.0731 0.199532 10.4847 0.560728C10.8963 0.921925 11.1621 1.42085 11.2322 1.96398C11.3023 2.50711 11.1719 3.05716 10.8654 3.51102C10.559 3.96489 10.0975 4.29141 9.56757 4.42938V6.79863C10.031 6.87766 10.4728 7.05265 10.8647 7.31236C11.2565 7.57207 11.5898 7.91079 11.8432 8.3068C12.0965 8.70281 12.2643 9.14738 12.3359 9.61202C12.4074 10.0767 12.3811 10.5511 12.2586 11.005L14.0428 12.0344C14.3997 11.6191 14.8956 11.3482 15.4379 11.2725C15.9801 11.1967 16.5314 11.3212 16.9884 11.6227C17.4454 11.9242 17.7768 12.382 17.9204 12.9103C18.0641 13.4386 18.0102 14.0012 17.7689 14.4926C17.5275 14.9841 17.1153 15.3707 16.6094 15.5799C16.1034 15.7892 15.5386 15.8068 15.0206 15.6295C14.5026 15.4522 14.067 15.0921 13.7955 14.6167C13.524 14.1412 13.4351 13.5831 13.5456 13.0469L11.7861 12.031C11.4763 12.4843 11.0605 12.855 10.5749 13.1111C10.0893 13.3671 9.54845 13.5007 8.99944 13.5003C8.45112 13.5007 7.91095 13.3675 7.42576 13.1121C6.94057 12.8566 6.525 12.4867 6.21507 12.0344L4.45445 13.0503C4.56407 13.5867 4.47431 14.1447 4.20199 14.6198C3.92967 15.0948 3.49348 15.4542 2.97515 15.6307C2.45682 15.8071 1.89193 15.7885 1.38633 15.5784C0.880734 15.3682 0.469125 14.9809 0.228637 14.489C-0.0118499 13.997 -0.0647107 13.4343 0.0799604 12.9062C0.224632 12.3782 0.556905 11.9209 1.01452 11.6203C1.47213 11.3196 2.02368 11.1962 2.5658 11.273C3.10793 11.3499 3.60342 11.6218 3.95945 12.0378L5.74145 11.0084C5.61881 10.5535 5.59263 10.078 5.66459 9.61244C5.73655 9.14686 5.90506 8.70147 6.15931 8.30485C6.41355 7.90823 6.74791 7.56915 7.14092 7.30938C7.53393 7.0496 7.97692 6.87486 8.44145 6.79638V4.4305L8.44257 4.43163ZM8.99944 3.37525C9.29781 3.37525 9.58396 3.25673 9.79494 3.04575C10.0059 2.83477 10.1244 2.54862 10.1244 2.25025C10.1244 1.95188 10.0059 1.66573 9.79494 1.45476C9.58396 1.24378 9.29781 1.12525 8.99944 1.12525C8.70108 1.12525 8.41493 1.24378 8.20395 1.45476C7.99297 1.66573 7.87445 1.95188 7.87445 2.25025C7.87445 2.54862 7.99297 2.83477 8.20395 3.04575C8.41493 3.25673 8.70108 3.37525 8.99944 3.37525ZM8.99944 12.3753C9.59618 12.3753 10.1685 12.1382 10.5904 11.7162C11.0124 11.2943 11.2494 10.722 11.2494 10.1253C11.2494 9.52851 11.0124 8.95622 10.5904 8.53426C10.1685 8.1123 9.59618 7.87525 8.99944 7.87525C8.40271 7.87525 7.83041 8.1123 7.40845 8.53426C6.9865 8.95622 6.74945 9.52851 6.74945 10.1253C6.74945 10.722 6.9865 11.2943 7.40845 11.7162C7.83041 12.1382 8.40271 12.3753 8.99944 12.3753V12.3753ZM2.24945 14.6253C2.54781 14.6253 2.83396 14.5067 3.04494 14.2957C3.25592 14.0848 3.37445 13.7986 3.37445 13.5003C3.37445 13.2019 3.25592 12.9157 3.04494 12.7048C2.83396 12.4938 2.54781 12.3753 2.24945 12.3753C1.95108 12.3753 1.66493 12.4938 1.45395 12.7048C1.24297 12.9157 1.12445 13.2019 1.12445 13.5003C1.12445 13.7986 1.24297 14.0848 1.45395 14.2957C1.66493 14.5067 1.95108 14.6253 2.24945 14.6253V14.6253ZM15.7494 14.6253C16.0478 14.6253 16.334 14.5067 16.5449 14.2957C16.7559 14.0848 16.8744 13.7986 16.8744 13.5003C16.8744 13.2019 16.7559 12.9157 16.5449 12.7048C16.334 12.4938 16.0478 12.3753 15.7494 12.3753C15.4511 12.3753 15.1649 12.4938 14.954 12.7048C14.743 12.9157 14.6244 13.2019 14.6244 13.5003C14.6244 13.7986 14.743 14.0848 14.954 14.2957C15.1649 14.5067 15.4511 14.6253 15.7494 14.6253V14.6253Z" fill="#079BEE"/>
</g>
<defs>
<clipPath id="clip0_1701_2848">
<rect width="18" height="18" fill="white"/>
</clipPath>
</defs>
</svg>
