<svg width="48" height="48" viewBox="0 0 48 48" fill="none" xmlns="http://www.w3.org/2000/svg">
<path fill-rule="evenodd" clip-rule="evenodd" d="M30.4269 12.0454C31.616 11.5567 32.7383 10.9439 33.7843 10.2204C31.5759 8.5348 28.984 7.42951 26.2527 7C27.8865 8.4718 29.3008 10.1803 30.4269 12.0454ZM32.4179 32.7387C33.6333 33.3458 34.7802 34.0756 35.8473 34.9259C36.4933 34.2391 37.0746 33.5077 37.5883 32.7387H32.4179ZM24.5837 32.7387H26.6139C27.4865 32.8879 28.35 33.1036 29.2008 33.3851C28.0116 35.5231 26.4427 37.4397 24.5837 39.0241V32.7387ZM20.7272 32.7387H22.7576V39.026C20.8985 37.4416 19.3296 35.525 18.1386 33.3851C18.9904 33.1036 19.8544 32.8879 20.7272 32.7387ZM9.75195 32.7387H14.9193C13.7048 33.3459 12.5579 34.0763 11.4933 34.9242C10.8471 34.2379 10.2657 33.5071 9.75195 32.7387ZM15.8999 13.5998H10.2274C10.7916 12.8348 11.4236 12.114 12.1197 11.4469C13.2919 12.3012 14.5571 13.0212 15.8999 13.5998ZM37.112 13.5998H31.4398C32.7827 13.0212 34.0497 12.3012 35.2201 11.4469C35.916 12.1139 36.5479 12.8347 37.112 13.5998ZM34.5029 36.1995C32.1419 38.2172 29.2923 39.5268 26.2441 39.9983V39.9964C28.1241 38.2993 29.7103 36.2835 30.9204 34.05C32.1973 34.6227 33.3959 35.3442 34.5029 36.1995ZM24.5837 7.96616V13.3742C25.9541 13.3017 27.3207 13.0631 28.6644 12.6641C27.5593 10.9117 26.1755 9.31961 24.5837 7.96616ZM22.758 7.96616V13.3742C21.3876 13.3017 20.021 13.0631 18.6773 12.6641C19.7824 10.9117 21.1662 9.31961 22.758 7.96616ZM16.415 34.0525C15.1381 34.6252 13.9394 35.3449 12.8324 36.202C15.1934 38.2198 18.0431 39.5293 21.0912 40.0008C19.2112 38.3038 17.6232 36.2879 16.415 34.0545V34.0525ZM21.0874 7C18.3561 7.42951 15.7641 8.5348 13.5557 10.2204C14.5998 10.9439 15.7221 11.5567 16.9131 12.0454C18.0411 10.1784 19.4554 8.46989 21.0874 7Z" fill="#24A8FE"/>
<path d="M7 29.694V16.306H11.6697V29.694H7Z" fill="#24A8FE"/>
<path d="M19.0821 30C17.9213 30 16.8 29.8725 15.7183 29.6175C14.6367 29.3625 13.7462 29.031 13.0471 28.623L14.5509 25.3333C15.2105 25.7031 15.9426 26.0027 16.7473 26.2322C17.5651 26.449 18.3566 26.5574 19.1217 26.5574C19.5702 26.5574 19.9198 26.5319 20.1704 26.4809C20.4343 26.4171 20.6255 26.3342 20.7443 26.2322C20.863 26.1175 20.9223 25.9836 20.9223 25.8306C20.9223 25.5883 20.7838 25.3971 20.5068 25.2568C20.2298 25.1166 19.8604 25.0018 19.3987 24.9126C18.9502 24.8106 18.4556 24.7086 17.9147 24.6066C17.3739 24.4918 16.8264 24.3452 16.2724 24.1667C15.7315 23.9882 15.2303 23.7523 14.7686 23.459C14.3201 23.1658 13.9573 22.7832 13.6803 22.3115C13.4033 21.827 13.2648 21.2277 13.2648 20.5137C13.2648 19.6849 13.5022 18.9326 13.9771 18.2568C14.4652 17.5683 15.1841 17.02 16.1339 16.612C17.0968 16.204 18.2907 16 19.7153 16C20.6519 16 21.5753 16.0956 22.4855 16.2869C23.3957 16.4781 24.2136 16.7714 24.9391 17.1667L23.5342 20.4372C22.8483 20.1056 22.1821 19.857 21.5357 19.6913C20.9025 19.5255 20.2826 19.4426 19.6758 19.4426C19.2272 19.4426 18.8711 19.4809 18.6073 19.5574C18.3434 19.6339 18.1522 19.7359 18.0334 19.8634C17.9279 19.9909 17.8751 20.1311 17.8751 20.2842C17.8751 20.5137 18.0136 20.6985 18.2907 20.8388C18.5677 20.9663 18.9304 21.0747 19.3789 21.1639C19.8406 21.2532 20.3419 21.3488 20.8828 21.4508C21.4368 21.5528 21.9842 21.6931 22.5251 21.8716C23.0659 22.0501 23.5606 22.286 24.0091 22.5792C24.4708 22.8725 24.8402 23.255 25.1172 23.7268C25.3942 24.1985 25.5327 24.7851 25.5327 25.4863C25.5327 26.3024 25.2887 27.0546 24.8006 27.7432C24.3257 28.4189 23.6134 28.9672 22.6636 29.388C21.7138 29.796 20.52 30 19.0821 30Z" fill="#24A8FE"/>
<path d="M34.1841 30C33.0629 30 32.0207 29.8279 31.0578 29.4836C30.108 29.1393 29.2835 28.6548 28.5844 28.0301C27.8853 27.3925 27.3378 26.6466 26.9421 25.7923C26.5595 24.9381 26.3682 24.0073 26.3682 23C26.3682 21.98 26.5595 21.0492 26.9421 20.2077C27.3378 19.3534 27.8853 18.6138 28.5844 17.9891C29.2835 17.3515 30.108 16.8607 31.0578 16.5164C32.0207 16.1721 33.0629 16 34.1841 16C35.3186 16 36.3607 16.1721 37.3105 16.5164C38.2603 16.8607 39.0847 17.3515 39.7839 17.9891C40.483 18.6138 41.0238 19.3534 41.4064 20.2077C41.8021 21.0492 42 21.98 42 23C42 24.0073 41.8021 24.9381 41.4064 25.7923C41.0238 26.6466 40.483 27.3925 39.7839 28.0301C39.0847 28.6548 38.2603 29.1393 37.3105 29.4836C36.3607 29.8279 35.3186 30 34.1841 30ZM34.1841 26.347C34.6194 26.347 35.0218 26.2705 35.3911 26.1175C35.7737 25.9645 36.1035 25.7477 36.3805 25.4672C36.6707 25.174 36.8949 24.8233 37.0532 24.4153C37.2115 23.9945 37.2907 23.5228 37.2907 23C37.2907 22.4772 37.2115 22.0118 37.0532 21.6038C36.8949 21.1831 36.6707 20.8324 36.3805 20.5519C36.1035 20.2587 35.7737 20.0355 35.3911 19.8825C35.0218 19.7295 34.6194 19.653 34.1841 19.653C33.7488 19.653 33.3399 19.7295 32.9573 19.8825C32.588 20.0355 32.2582 20.2587 31.968 20.5519C31.691 20.8324 31.4733 21.1831 31.315 21.6038C31.1567 22.0118 31.0776 22.4772 31.0776 23C31.0776 23.5228 31.1567 23.9945 31.315 24.4153C31.4733 24.8233 31.691 25.174 31.968 25.4672C32.2582 25.7477 32.588 25.9645 32.9573 26.1175C33.3399 26.2705 33.7488 26.347 34.1841 26.347Z" fill="#24A8FE"/>
</svg>
