<svg width="20" height="20" viewBox="0 0 20 20" fill="none" xmlns="http://www.w3.org/2000/svg">
<path fill-rule="evenodd" clip-rule="evenodd" d="M10.0198 0.140625C9.79295 0.140625 9.56884 0.192854 9.36379 0.293674L2.67722 3.58469L2.67608 3.58526C2.47285 3.68667 2.29361 3.83349 2.15152 4.01544C2.00941 4.19741 1.90803 4.40993 1.85502 4.63777L0.205301 12.0334L0.205044 12.0346C0.16064 12.238 0.15607 12.4486 0.191617 12.6539C0.227163 12.8593 0.302067 13.055 0.411746 13.2296L0.412268 13.2304C0.438651 13.2721 0.467333 13.3136 0.49903 13.3543L5.12729 19.2829L5.12867 19.2846C5.27248 19.4655 5.45293 19.6111 5.65699 19.7114C5.86103 19.8117 6.08382 19.8644 6.30952 19.8658L6.31097 19.8658L13.7327 19.864L13.734 19.864C13.9596 19.8626 14.1824 19.8101 14.3864 19.7099C14.5904 19.6098 14.771 19.4643 14.9149 19.2836L19.5428 13.3528L19.5437 13.3516C19.6846 13.1688 19.7843 12.9556 19.8353 12.7274C19.8863 12.4992 19.8872 12.2618 19.8379 12.0332L18.1854 4.63848L18.1849 4.63638C18.132 4.40847 18.0307 4.19586 17.8887 4.0138C17.7466 3.83175 17.5674 3.68483 17.3642 3.58332L10.6758 0.293674C10.4707 0.192854 10.2466 0.140625 10.0198 0.140625ZM9.99978 1.58437C9.80498 1.58437 9.61252 1.62971 9.43643 1.71723L3.69423 4.57411L3.69325 4.57461C3.51872 4.66264 3.3648 4.7901 3.24277 4.94804C3.12074 5.10601 3.03367 5.29049 2.98814 5.48828L1.57142 11.9083L1.5712 11.9093C1.53307 12.0859 1.52914 12.2687 1.55967 12.447C1.5902 12.6252 1.65452 12.7951 1.74871 12.9467L1.74916 12.9474C1.77182 12.9836 1.79645 13.0196 1.82367 13.055L5.79827 18.2015L5.79945 18.203C5.92295 18.36 6.07792 18.4864 6.25315 18.5735C6.42838 18.6606 6.6197 18.7062 6.81353 18.7074L6.81477 18.7075L13.1883 18.7059L13.1894 18.7059C13.3832 18.7047 13.5745 18.6591 13.7497 18.5722C13.9249 18.4852 14.0799 18.359 14.2035 18.2021L18.1778 13.0537L18.1786 13.0526C18.2996 12.894 18.3853 12.7089 18.429 12.5108C18.4728 12.3127 18.4736 12.1066 18.4312 11.9082L17.0121 5.48889L17.0117 5.48707C16.9663 5.28922 16.8793 5.10466 16.7573 4.94661C16.6353 4.78858 16.4814 4.66105 16.3069 4.57293L10.5631 1.71723C10.387 1.62971 10.1946 1.58437 9.99978 1.58437Z" fill="#079BEE"/>
<path d="M16.1648 11.3783C16.1335 11.3709 16.0888 11.3581 16.0581 11.3523C15.9415 11.3357 15.8241 11.326 15.7064 11.3231C15.4841 11.3082 15.2638 11.2709 15.0485 11.2119C14.982 11.1733 14.9273 11.1166 14.8903 11.0479L14.7422 11.0035C14.9005 9.81158 14.6286 8.60129 13.9781 7.60224C14.016 7.56678 14.0878 7.50132 14.1081 7.48207C14.103 7.40421 14.1277 7.3274 14.1769 7.26806C14.3459 7.1185 14.5286 6.98624 14.7225 6.87316C14.8275 6.8182 14.9292 6.75703 15.0273 6.68995C15.051 6.67186 15.0833 6.64321 15.1081 6.62279C15.1517 6.59418 15.1889 6.55644 15.2174 6.51203C15.246 6.46763 15.2651 6.41754 15.2736 6.36502C15.2821 6.3125 15.2798 6.25872 15.2669 6.20718C15.2539 6.15564 15.2306 6.10748 15.1984 6.06583C15.1662 6.02418 15.1258 5.98996 15.08 5.96541C15.0341 5.94085 14.9837 5.92651 14.9322 5.9233C14.8806 5.92009 14.8289 5.92809 14.7805 5.94678C14.7321 5.96547 14.6881 5.99443 14.6512 6.03179C14.6262 6.05212 14.5921 6.0788 14.5699 6.09868C14.4842 6.18183 14.4032 6.27003 14.3275 6.36284C14.1775 6.53266 14.0119 6.68705 13.8329 6.82382C13.7624 6.85335 13.6854 6.86197 13.6104 6.84872L13.4708 6.95143C12.6675 6.08293 11.5855 5.54434 10.4259 5.43569C10.4225 5.38545 10.4183 5.29447 10.417 5.26698C10.3547 5.22249 10.3118 5.15469 10.2973 5.07804C10.2896 4.84868 10.3035 4.61907 10.3389 4.39248C10.3622 4.27382 10.3789 4.15387 10.3888 4.03323C10.39 4.00278 10.3882 3.95854 10.3882 3.92568C10.3934 3.87284 10.3877 3.81948 10.3716 3.76903C10.3555 3.71858 10.3293 3.67217 10.2948 3.6328C10.2602 3.59342 10.218 3.56195 10.1708 3.54043C10.1237 3.5189 10.0727 3.50779 10.0212 3.50781C9.96964 3.50784 9.91868 3.519 9.87157 3.54057C9.82447 3.56215 9.78229 3.59365 9.74774 3.63306C9.71319 3.67247 9.68704 3.71891 9.67099 3.76937C9.65494 3.81984 9.64934 3.87321 9.65454 3.92604C9.65454 3.92962 9.65533 3.93302 9.65541 3.93661C9.65506 3.96795 9.65359 4.00591 9.65454 4.03331C9.66456 4.15404 9.68128 4.27408 9.70461 4.39284C9.73978 4.61939 9.75346 4.84894 9.74546 5.07822C9.72464 5.15371 9.68333 5.22149 9.62638 5.27361L9.61769 5.43354C9.39451 5.45252 9.1729 5.48762 8.9545 5.53858C8.03697 5.75219 7.20236 6.24345 6.5578 6.94928C6.51318 6.91758 6.46897 6.88528 6.42516 6.85239C6.35259 6.87475 6.2744 6.86694 6.20735 6.83063C6.02835 6.69412 5.86271 6.53994 5.71278 6.37027C5.6373 6.27753 5.55671 6.18933 5.4714 6.10611C5.44907 6.08641 5.41491 6.05955 5.38987 6.03896C5.31714 5.97852 5.22752 5.94369 5.13416 5.93956C5.07869 5.93657 5.02331 5.94709 4.97252 5.97027C4.92174 5.99345 4.87697 6.02864 4.84185 6.07298C4.78239 6.15929 4.7585 6.26634 4.7754 6.37073C4.79231 6.47513 4.84863 6.56839 4.93207 6.63014L4.93772 6.63425C4.96171 6.65449 4.99127 6.68037 5.01352 6.69712C5.11139 6.76421 5.21294 6.82544 5.31765 6.88051C5.51153 6.99359 5.69423 7.12591 5.86315 7.27558C5.90702 7.3397 5.93259 7.41521 5.93694 7.49353L6.05437 7.60171C5.40573 8.60433 5.1392 9.81836 5.30591 11.011L5.15233 11.057C5.11225 11.1229 5.05838 11.1788 4.99466 11.2206C4.77952 11.2798 4.5593 11.3172 4.33712 11.3323C4.21936 11.335 4.10185 11.3448 3.98518 11.3615C3.95702 11.3668 3.91791 11.377 3.88722 11.3849L3.88401 11.3856L3.87879 11.3872C3.82798 11.3941 3.77913 11.4119 3.73535 11.4393C3.69157 11.4668 3.65384 11.5033 3.62457 11.5467C3.5953 11.59 3.57513 11.6392 3.56535 11.691C3.55558 11.7428 3.55641 11.7962 3.56781 11.8476C3.5792 11.8991 3.60089 11.9476 3.63151 11.9899C3.66212 12.0323 3.70098 12.0675 3.74559 12.0935C3.79021 12.1195 3.83959 12.1356 3.89059 12.1408C3.94159 12.146 3.99308 12.1402 4.04177 12.1237L4.04724 12.1228C4.04968 12.1222 4.05176 12.121 4.05419 12.1205C4.08444 12.1134 4.12251 12.1059 4.14911 12.0985C4.26111 12.0617 4.37098 12.0183 4.47818 11.9686C4.68476 11.8827 4.89895 11.8178 5.11773 11.7747C5.1936 11.7795 5.26665 11.8061 5.3286 11.8514L5.48853 11.8232C5.84755 12.966 6.60007 13.9338 7.60413 14.5443L7.53729 14.709C7.56836 14.7754 7.57976 14.8498 7.57006 14.9228C7.47862 15.1381 7.36744 15.3439 7.23803 15.5374C7.16687 15.6341 7.1012 15.7349 7.04133 15.8394C7.02673 15.8678 7.00821 15.9114 6.99422 15.9413C6.96774 15.9867 6.95078 16.0373 6.94444 16.0898C6.93809 16.1424 6.94249 16.1957 6.95736 16.2464C6.97222 16.2972 6.99723 16.3441 7.03077 16.3842C7.0643 16.4244 7.10562 16.4569 7.15207 16.4796C7.19852 16.5023 7.24907 16.5147 7.30046 16.5161C7.35186 16.5174 7.40296 16.5077 7.45049 16.4875C7.49801 16.4673 7.54091 16.4371 7.57641 16.3988C7.61191 16.3604 7.63924 16.3149 7.65663 16.2651L7.65724 16.2643V16.2634C7.67114 16.2339 7.69087 16.1951 7.70261 16.1675C7.74438 16.0542 7.77973 15.9386 7.80848 15.8211C7.87182 15.5822 7.96744 15.3536 8.09253 15.1422C8.13626 15.0999 8.19136 15.0722 8.25063 15.0626L8.33381 14.9077C9.4228 15.3391 10.6279 15.3423 11.7189 14.9166C11.7422 14.9594 11.7857 15.0412 11.7972 15.0619C11.8721 15.0743 11.9394 15.1164 11.9845 15.1792C12.0883 15.3821 12.1727 15.5949 12.2364 15.8146C12.2654 15.9321 12.3009 16.0478 12.3429 16.161C12.3548 16.1889 12.3741 16.2282 12.3882 16.2579C12.4056 16.3078 12.4328 16.3534 12.4683 16.3917C12.5038 16.4301 12.5467 16.4604 12.5942 16.4806C12.6417 16.5009 12.6928 16.5107 12.7442 16.5094C12.7956 16.5081 12.8462 16.4957 12.8927 16.4731C12.9392 16.4505 12.9805 16.418 13.0141 16.3779C13.0478 16.3378 13.0728 16.2909 13.0878 16.2402C13.1027 16.1895 13.1072 16.1362 13.101 16.0836C13.0947 16.031 13.0778 15.9804 13.0514 15.9349C13.0374 15.9051 13.0181 15.8615 13.0036 15.8332C12.9437 15.7289 12.8781 15.6284 12.8069 15.532C12.6798 15.3434 12.5709 15.1424 12.4817 14.932C12.4623 14.8567 12.4724 14.7767 12.5098 14.709C12.4863 14.6596 12.4659 14.6086 12.4487 14.5565C13.456 13.9412 14.2086 12.9658 14.5633 11.816C14.6107 11.8238 14.6934 11.8386 14.7203 11.8443C14.7761 11.7915 14.8497 11.7633 14.9254 11.7658C15.1442 11.8088 15.3585 11.8738 15.5651 11.9596C15.6723 12.0098 15.7822 12.0535 15.8944 12.0905C15.9209 12.0977 15.9587 12.1045 15.9891 12.1114C15.9916 12.1121 15.9939 12.1132 15.9963 12.1139L16.0015 12.1147C16.0502 12.1312 16.1017 12.137 16.1526 12.1318C16.2036 12.1266 16.253 12.1105 16.2975 12.0845C16.3421 12.0585 16.381 12.0233 16.4116 11.9809C16.4422 11.9386 16.4639 11.8902 16.4753 11.8388C16.4867 11.7873 16.4875 11.734 16.4778 11.6822C16.4681 11.6304 16.4479 11.5812 16.4187 11.5379C16.3895 11.4945 16.3518 11.458 16.3081 11.4305C16.2643 11.403 16.2155 11.3852 16.1648 11.3783ZM12.6793 7.52899L11.1116 8.67401L11.1061 8.67133C11.0588 8.70683 11.0031 8.72847 10.9449 8.73397C10.8867 8.73946 10.8281 8.7286 10.7754 8.70253C10.7227 8.67647 10.6778 8.63617 10.6455 8.58593C10.6133 8.53569 10.5948 8.47738 10.5921 8.4172L10.5904 8.4163L10.4815 6.43708C11.3104 6.54311 12.0826 6.92675 12.6792 7.52899H12.6793ZM9.72599 9.6985H10.316L10.6828 10.1709L10.5513 10.7602L10.0214 11.0229L9.49001 10.7596L9.35824 10.1701L9.72599 9.6985ZM9.17093 6.50638C9.30016 6.47642 9.43079 6.45329 9.56232 6.43708L9.45324 8.41935L9.44524 8.42329C9.44277 8.48348 9.42451 8.54185 9.39239 8.5922C9.36026 8.64254 9.31549 8.68297 9.26284 8.70917C9.21018 8.73538 9.15161 8.74638 9.09336 8.74101C9.03512 8.73564 8.97938 8.71409 8.93207 8.67867L8.92903 8.68046L7.35111 7.52783C7.85344 7.01926 8.48376 6.66546 9.17093 6.50638ZM6.77892 8.26864L8.21951 9.59606L8.21795 9.60412C8.2621 9.6437 8.295 9.69489 8.31314 9.75222C8.33127 9.80955 8.33396 9.87088 8.32091 9.92966C8.30787 9.98844 8.27958 10.0425 8.23907 10.086C8.19856 10.1295 8.14734 10.1609 8.09087 10.1768L8.0894 10.1832L6.24281 10.7321C6.1508 9.87243 6.33944 9.00557 6.77892 8.26864ZM8.70774 11.7949L7.97406 13.6214C7.26985 13.157 6.73408 12.4662 6.44985 11.6561L8.3432 11.3247L8.34642 11.3291C8.36732 11.325 8.38858 11.3231 8.40987 11.3233C8.46296 11.3241 8.51505 11.3384 8.56152 11.3649C8.60799 11.3913 8.64742 11.4292 8.67632 11.4751C8.70522 11.521 8.7227 11.5735 8.72723 11.628C8.73175 11.6825 8.72318 11.7373 8.70226 11.7876L8.70774 11.7949ZM10.8734 14.1437C10.1869 14.3059 9.47017 14.268 8.80343 14.0342L9.73459 12.2995H9.73616C9.76385 12.2465 9.80494 12.2022 9.85508 12.1713C9.90522 12.1405 9.96254 12.1241 10.021 12.1241C10.0794 12.124 10.1367 12.1402 10.1869 12.171C10.2371 12.2018 10.2783 12.246 10.3061 12.299H10.313L11.2465 14.0365C11.1254 14.0782 11.001 14.114 10.8734 14.1439V14.1437ZM12.0764 13.6287L11.3352 11.7837L11.3375 11.7803C11.3046 11.7014 11.3025 11.6125 11.3317 11.532C11.3609 11.4516 11.4191 11.3858 11.4942 11.3485C11.5329 11.329 11.575 11.3177 11.618 11.3153C11.6429 11.3142 11.6679 11.316 11.6924 11.321L11.6956 11.3169L13.6058 11.6494C13.3238 12.4661 12.7857 13.1625 12.0764 13.6287ZM13.8064 10.7257L11.9505 10.175L11.9488 10.1669C11.8924 10.1509 11.8413 10.1194 11.8009 10.0759C11.7605 10.0324 11.7323 9.97836 11.7193 9.91964C11.7063 9.86092 11.709 9.79967 11.727 9.74238C11.7451 9.68509 11.7778 9.63391 11.8219 9.59427L11.8212 9.59042L13.2538 8.26954C13.6924 9.00453 13.8864 9.8669 13.8063 10.7258L13.8064 10.7257Z" fill="#079BEE"/>
</svg>
