<svg width="48" height="48" viewBox="0 0 48 48" fill="none" xmlns="http://www.w3.org/2000/svg">
<path d="M10.1543 27.6889V19.7994H12.0094L16.4024 25.0516H15.5261V19.7994H17.734V27.6889H15.8789L11.4859 22.4368H12.3622V27.6889H10.1543Z" fill="#2F2F2F"/>
<path d="M19.6649 27.6889V19.7994H21.9183V27.6889H19.6649Z" fill="#2F2F2F"/>
<path d="M26.6626 27.8467C26.0101 27.8467 25.3804 27.7678 24.7734 27.61C24.174 27.4447 23.6846 27.2344 23.3053 26.9789L24.045 25.3333C24.4016 25.5588 24.8114 25.7466 25.2742 25.8969C25.7446 26.0396 26.2112 26.111 26.674 26.111C26.9851 26.111 27.2355 26.0847 27.4252 26.0321C27.6148 25.972 27.7514 25.8969 27.8349 25.8067C27.9259 25.709 27.9715 25.5963 27.9715 25.4686C27.9715 25.2883 27.888 25.1455 27.7211 25.0403C27.5542 24.9351 27.3379 24.8487 27.0724 24.7811C26.8068 24.7135 26.5109 24.6458 26.1846 24.5782C25.866 24.5106 25.5435 24.4242 25.2173 24.319C24.8986 24.2138 24.6065 24.0785 24.3409 23.9132C24.0754 23.7404 23.8592 23.5188 23.6922 23.2483C23.5253 22.9702 23.4419 22.6208 23.4419 22.2001C23.4419 21.7267 23.5708 21.2984 23.8288 20.9152C24.0944 20.532 24.4889 20.2239 25.0124 19.991C25.5359 19.7581 26.1884 19.6416 26.9699 19.6416C27.4935 19.6416 28.0056 19.7017 28.5064 19.8219C29.0147 19.9346 29.4661 20.1037 29.8607 20.3291L29.1664 21.9859C28.7871 21.783 28.4115 21.6328 28.0397 21.5351C27.668 21.4299 27.3076 21.3773 26.9586 21.3773C26.6475 21.3773 26.3971 21.4111 26.2074 21.4787C26.0177 21.5388 25.8812 21.6215 25.7977 21.7267C25.7142 21.8319 25.6725 21.9521 25.6725 22.0874C25.6725 22.2602 25.7522 22.3992 25.9115 22.5044C26.0784 22.6021 26.2947 22.6847 26.5602 22.7523C26.8334 22.8124 27.1293 22.8763 27.4479 22.9439C27.7742 23.0116 28.0966 23.098 28.4153 23.2032C28.7416 23.3008 29.0375 23.4361 29.303 23.6089C29.5686 23.7742 29.781 23.9959 29.9403 24.2739C30.1073 24.5444 30.1907 24.8863 30.1907 25.2995C30.1907 25.7579 30.058 26.1824 29.7924 26.5731C29.5344 26.9563 29.1437 27.2644 28.6202 27.4973C28.1042 27.7303 27.4517 27.8467 26.6626 27.8467Z" fill="#2F2F2F"/>
<path d="M33.1577 27.6889V21.5689H30.7108V19.7994H37.8466V21.5689H35.4111V27.6889H33.1577Z" fill="#2F2F2F"/>
<path fill-rule="evenodd" clip-rule="evenodd" d="M4 20.4917C4 17.1896 6.75517 14.5127 10.1538 14.5127V17.6129C8.51745 17.6129 7.19088 18.9018 7.19088 20.4917V28.0209C7.19088 29.6108 8.51745 30.8996 10.1538 30.8996V33.9999C6.75517 33.9999 4 31.323 4 28.0209V20.4917Z" fill="#24A8FE"/>
<path fill-rule="evenodd" clip-rule="evenodd" d="M44 27.4066C44 31.048 41.2448 34 37.8462 34L37.8462 30.5812C39.4826 30.5812 40.8091 29.1599 40.8091 27.4066L40.8091 20.0806C40.8091 18.3273 39.4826 16.906 37.8462 16.906L37.8462 13.4872C41.2448 13.4872 44 16.4391 44 20.0806L44 27.4066Z" fill="#24A8FE"/>
</svg>
