<svg width="48" height="48" viewBox="0 0 48 48" fill="none" xmlns="http://www.w3.org/2000/svg">
<path d="M7.72852 25.1612V11.3165H14.3938C15.686 11.3165 16.8001 11.5274 17.7363 11.9494C18.6857 12.3713 19.4175 12.9778 19.9317 13.769C20.4459 14.5469 20.7031 15.4699 20.7031 16.5379C20.7031 17.6059 20.4459 18.5289 19.9317 19.3069C19.4175 20.0848 18.6857 20.6913 17.7363 21.1265C16.8001 21.5484 15.686 21.7594 14.3938 21.7594H10.3195L12.3962 19.7618V25.1612H7.72852ZM12.3962 20.276L10.3195 18.1597H14.0971C14.7432 18.1597 15.2179 18.0147 15.5211 17.7246C15.8376 17.4345 15.9958 17.039 15.9958 16.5379C15.9958 16.0369 15.8376 15.6413 15.5211 15.3512C15.2179 15.0611 14.7432 14.9161 14.0971 14.9161H10.3195L12.3962 12.7998V20.276Z" fill="#2F2F2F"/>
<path d="M29.5867 25.4777C28.4792 25.4777 27.4507 25.3063 26.5013 24.9635C25.5652 24.6074 24.7477 24.1064 24.0488 23.4603C23.3632 22.8142 22.8292 22.0495 22.4468 21.166C22.0644 20.2826 21.8732 19.3069 21.8732 18.2388C21.8732 17.1708 22.0644 16.1951 22.4468 15.3117C22.8292 14.4282 23.3632 13.6635 24.0488 13.0174C24.7477 12.3713 25.5652 11.8768 26.5013 11.534C27.4507 11.178 28.4792 11 29.5867 11C30.9448 11 32.1447 11.2373 33.1864 11.712C34.2412 12.1867 35.1115 12.8723 35.7971 13.769L32.8501 16.3995C32.4414 15.8852 31.9865 15.4897 31.4854 15.2128C30.9976 14.9227 30.4438 14.7776 29.8241 14.7776C29.3362 14.7776 28.8945 14.8568 28.4989 15.015C28.1034 15.1732 27.7605 15.404 27.4705 15.7072C27.1936 16.0105 26.976 16.3797 26.8178 16.8148C26.6596 17.2367 26.5804 17.7114 26.5804 18.2388C26.5804 18.7663 26.6596 19.2475 26.8178 19.6827C26.976 20.1046 27.1936 20.4672 27.4705 20.7705C27.7605 21.0737 28.1034 21.3045 28.4989 21.4627C28.8945 21.6209 29.3362 21.7 29.8241 21.7C30.4438 21.7 30.9976 21.5616 31.4854 21.2847C31.9865 20.9946 32.4414 20.5925 32.8501 20.0782L35.7971 22.7087C35.1115 23.5922 34.2412 24.2778 33.1864 24.7657C32.1447 25.2403 30.9448 25.4777 29.5867 25.4777Z" fill="#2F2F2F"/>
<path d="M37.1448 25.1612V11.3165H41.8125V25.1612H37.1448Z" fill="#2F2F2F"/>
<path fill-rule="evenodd" clip-rule="evenodd" d="M21.0876 24.1809L8.74249 38.2896L2 31.5471L4.33555 29.2115L8.5816 33.4576L18.6018 22.0059L21.0876 24.1809Z" fill="#5DC576"/>
<path d="M19.25 36.3695V28.5241H22.9597C23.8265 28.5241 24.5886 28.6847 25.2461 29.006C25.9036 29.3273 26.4154 29.7794 26.7816 30.3622C27.1552 30.945 27.3419 31.6398 27.3419 32.4468C27.3419 33.2463 27.1552 33.9411 26.7816 34.5314C26.4154 35.1142 25.9036 35.5663 25.2461 35.8875C24.5886 36.2088 23.8265 36.3695 22.9597 36.3695H19.25ZM21.4691 34.5987H22.8701C23.3184 34.5987 23.7069 34.5165 24.0357 34.3521C24.3719 34.1802 24.6334 33.9337 24.8202 33.6124C25.007 33.2836 25.1004 32.8951 25.1004 32.4468C25.1004 31.991 25.007 31.6025 24.8202 31.2812C24.6334 30.9599 24.3719 30.7171 24.0357 30.5527C23.7069 30.3808 23.3184 30.2949 22.8701 30.2949H21.4691V34.5987Z" fill="#A8A8A8"/>
<path d="M31.2666 36.5264C30.624 36.5264 30.0038 36.4479 29.4061 36.291C28.8158 36.1266 28.3339 35.9174 27.9603 35.6634L28.6888 34.0271C29.04 34.2512 29.4434 34.438 29.8992 34.5875C30.3625 34.7294 30.822 34.8004 31.2778 34.8004C31.5841 34.8004 31.8307 34.7742 32.0175 34.7219C32.2043 34.6622 32.3388 34.5875 32.421 34.4978C32.5106 34.4007 32.5554 34.2886 32.5554 34.1616C32.5554 33.9822 32.4733 33.8403 32.3089 33.7357C32.1445 33.6311 31.9316 33.5451 31.67 33.4779C31.4085 33.4106 31.1171 33.3434 30.7958 33.2762C30.482 33.2089 30.1645 33.123 29.8432 33.0184C29.5294 32.9138 29.2417 32.7793 28.9802 32.6149C28.7187 32.443 28.5057 32.2226 28.3414 31.9536C28.177 31.6772 28.0948 31.3298 28.0948 30.9113C28.0948 30.4406 28.2218 30.0147 28.4758 29.6337C28.7374 29.2526 29.1259 28.9463 29.6414 28.7146C30.157 28.483 30.7996 28.3672 31.5692 28.3672C32.0847 28.3672 32.5891 28.427 33.0822 28.5465C33.5828 28.6586 34.0274 28.8267 34.4159 29.0509L33.7322 30.6984C33.3587 30.4966 32.9888 30.3472 32.6227 30.2501C32.2566 30.1455 31.9017 30.0932 31.558 30.0932C31.2516 30.0932 31.005 30.1268 30.8183 30.194C30.6315 30.2538 30.497 30.336 30.4148 30.4406C30.3326 30.5452 30.2915 30.6648 30.2915 30.7993C30.2915 30.9711 30.3699 31.1093 30.5269 31.2139C30.6912 31.3111 30.9042 31.3933 31.1657 31.4605C31.4347 31.5203 31.7261 31.5838 32.0399 31.651C32.3612 31.7183 32.6787 31.8042 32.9925 31.9088C33.3138 32.0059 33.6052 32.1404 33.8667 32.3123C34.1283 32.4767 34.3375 32.6971 34.4944 32.9735C34.6588 33.2425 34.7409 33.5825 34.7409 33.9934C34.7409 34.4492 34.6102 34.8714 34.3487 35.2599C34.0946 35.641 33.7098 35.9473 33.1943 36.1789C32.6862 36.4106 32.0436 36.5264 31.2666 36.5264Z" fill="#A8A8A8"/>
<path d="M38.5231 36.5264C37.8805 36.5264 37.2604 36.4479 36.6626 36.291C36.0723 36.1266 35.5904 35.9174 35.2168 35.6634L35.9453 34.0271C36.2965 34.2512 36.7 34.438 37.1558 34.5875C37.619 34.7294 38.0785 34.8004 38.5343 34.8004C38.8406 34.8004 39.0872 34.7742 39.274 34.7219C39.4608 34.6622 39.5953 34.5875 39.6775 34.4978C39.7671 34.4007 39.812 34.2886 39.812 34.1616C39.812 33.9822 39.7298 33.8403 39.5654 33.7357C39.401 33.6311 39.1881 33.5451 38.9266 33.4779C38.6651 33.4106 38.3737 33.3434 38.0524 33.2762C37.7386 33.2089 37.421 33.123 37.0997 33.0184C36.7859 32.9138 36.4982 32.7793 36.2367 32.6149C35.9752 32.443 35.7623 32.2226 35.5979 31.9536C35.4335 31.6772 35.3513 31.3298 35.3513 30.9113C35.3513 30.4406 35.4783 30.0147 35.7324 29.6337C35.9939 29.2526 36.3824 28.9463 36.898 28.7146C37.4135 28.483 38.0561 28.3672 38.8257 28.3672C39.3413 28.3672 39.8456 28.427 40.3387 28.5465C40.8393 28.6586 41.2839 28.8267 41.6725 29.0509L40.9888 30.6984C40.6152 30.4966 40.2453 30.3472 39.8792 30.2501C39.5131 30.1455 39.1582 30.0932 38.8145 30.0932C38.5082 30.0932 38.2616 30.1268 38.0748 30.194C37.888 30.2538 37.7535 30.336 37.6713 30.4406C37.5891 30.5452 37.548 30.6648 37.548 30.7993C37.548 30.9711 37.6265 31.1093 37.7834 31.2139C37.9478 31.3111 38.1607 31.3933 38.4222 31.4605C38.6912 31.5203 38.9826 31.5838 39.2964 31.651C39.6177 31.7183 39.9353 31.8042 40.2491 31.9088C40.5704 32.0059 40.8618 32.1404 41.1233 32.3123C41.3848 32.4767 41.594 32.6971 41.7509 32.9735C41.9153 33.2425 41.9975 33.5825 41.9975 33.9934C41.9975 34.4492 41.8667 34.8714 41.6052 35.2599C41.3512 35.641 40.9664 35.9473 40.4508 36.1789C39.9427 36.4106 39.3002 36.5264 38.5231 36.5264Z" fill="#A8A8A8"/>
</svg>
